M48
; DRILL file {KiCad (5.1.0)-1} date 07.06.2019 15:43:28
; FORMAT={-:-/ absolute / metric / decimal}
; #@! TF.CreationDate,2019-06-07T15:43:28+02:00
; #@! TF.GenerationSoftware,Kicad,Pcbnew,(5.1.0)-1
; #@! TF.FileFunction,Plated,1,2,PTH
FMAT,2
METRIC
T1C0.300
T2C0.400
T3C0.800
T4C1.000
T5C1.300
%
G90
G05
T1
X139.0Y-68.7
X140.4Y-68.7
X154.8Y-69.1
X159.0Y-72.1
T2
X107.5Y-84.75
X121.4Y-86.1
X137.0Y-98.9
X160.064Y-60.518
X161.842Y-60.772
T3
X102.4Y-92.3
X105.4Y-101.7
X108.0Y-101.1
X110.6Y-90.3
X117.0Y-100.7
X121.6Y-99.5
X123.0Y-99.3
X127.4Y-100.1
X128.2Y-53.3
X135.2Y-66.3
X136.0Y-55.7
X147.8Y-61.1
X152.0Y-65.7
X161.5Y-98.5
T4
X105.4Y-94.96
X105.4Y-97.5
X107.94Y-94.96
X107.94Y-97.5
X110.48Y-94.96
X110.48Y-97.5
T5
X147.8Y-55.5
X152.8Y-55.5
X157.8Y-55.5
X162.8Y-55.5
X164.8Y-69.5
X164.8Y-74.5
X164.8Y-79.5
X102.2Y-78.2
X102.2Y-83.2
X102.2Y-88.2
T0
M30
