G04 #@! TF.GenerationSoftware,KiCad,Pcbnew,(5.1.0)-1*
G04 #@! TF.CreationDate,2019-06-07T15:42:58+02:00*
G04 #@! TF.ProjectId,DRS,4452532e-6b69-4636-9164-5f7063625858,rev?*
G04 #@! TF.SameCoordinates,Original*
G04 #@! TF.FileFunction,Paste,Bot*
G04 #@! TF.FilePolarity,Positive*
%FSLAX46Y46*%
G04 Gerber Fmt 4.6, Leading zero omitted, Abs format (unit mm)*
G04 Created by KiCad (PCBNEW (5.1.0)-1) date 2019-06-07 15:42:58*
%MOMM*%
%LPD*%
G04 APERTURE LIST*
%ADD10C,0.100000*%
%ADD11C,1.600000*%
%ADD12C,1.250000*%
%ADD13R,0.900000X0.800000*%
%ADD14R,2.500000X2.300000*%
%ADD15R,5.400000X2.900000*%
%ADD16R,1.550000X0.600000*%
%ADD17R,4.550000X5.250000*%
%ADD18R,4.600000X1.100000*%
%ADD19C,1.350000*%
%ADD20R,0.800000X0.900000*%
G04 APERTURE END LIST*
D10*
X94000000Y-103500000D02*
X176500000Y-103500000D01*
X94000000Y-51000000D02*
X94000000Y-103500000D01*
X176500000Y-51000000D02*
X94000000Y-51000000D01*
X176500000Y-103500000D02*
X176500000Y-51000000D01*
G36*
X121824504Y-60601204D02*
G01*
X121848773Y-60604804D01*
X121872571Y-60610765D01*
X121895671Y-60619030D01*
X121917849Y-60629520D01*
X121938893Y-60642133D01*
X121958598Y-60656747D01*
X121976777Y-60673223D01*
X121993253Y-60691402D01*
X122007867Y-60711107D01*
X122020480Y-60732151D01*
X122030970Y-60754329D01*
X122039235Y-60777429D01*
X122045196Y-60801227D01*
X122048796Y-60825496D01*
X122050000Y-60850000D01*
X122050000Y-63850000D01*
X122048796Y-63874504D01*
X122045196Y-63898773D01*
X122039235Y-63922571D01*
X122030970Y-63945671D01*
X122020480Y-63967849D01*
X122007867Y-63988893D01*
X121993253Y-64008598D01*
X121976777Y-64026777D01*
X121958598Y-64043253D01*
X121938893Y-64057867D01*
X121917849Y-64070480D01*
X121895671Y-64080970D01*
X121872571Y-64089235D01*
X121848773Y-64095196D01*
X121824504Y-64098796D01*
X121800000Y-64100000D01*
X120700000Y-64100000D01*
X120675496Y-64098796D01*
X120651227Y-64095196D01*
X120627429Y-64089235D01*
X120604329Y-64080970D01*
X120582151Y-64070480D01*
X120561107Y-64057867D01*
X120541402Y-64043253D01*
X120523223Y-64026777D01*
X120506747Y-64008598D01*
X120492133Y-63988893D01*
X120479520Y-63967849D01*
X120469030Y-63945671D01*
X120460765Y-63922571D01*
X120454804Y-63898773D01*
X120451204Y-63874504D01*
X120450000Y-63850000D01*
X120450000Y-60850000D01*
X120451204Y-60825496D01*
X120454804Y-60801227D01*
X120460765Y-60777429D01*
X120469030Y-60754329D01*
X120479520Y-60732151D01*
X120492133Y-60711107D01*
X120506747Y-60691402D01*
X120523223Y-60673223D01*
X120541402Y-60656747D01*
X120561107Y-60642133D01*
X120582151Y-60629520D01*
X120604329Y-60619030D01*
X120627429Y-60610765D01*
X120651227Y-60604804D01*
X120675496Y-60601204D01*
X120700000Y-60600000D01*
X121800000Y-60600000D01*
X121824504Y-60601204D01*
X121824504Y-60601204D01*
G37*
D11*
X121250000Y-62350000D03*
D10*
G36*
X121824504Y-55201204D02*
G01*
X121848773Y-55204804D01*
X121872571Y-55210765D01*
X121895671Y-55219030D01*
X121917849Y-55229520D01*
X121938893Y-55242133D01*
X121958598Y-55256747D01*
X121976777Y-55273223D01*
X121993253Y-55291402D01*
X122007867Y-55311107D01*
X122020480Y-55332151D01*
X122030970Y-55354329D01*
X122039235Y-55377429D01*
X122045196Y-55401227D01*
X122048796Y-55425496D01*
X122050000Y-55450000D01*
X122050000Y-58450000D01*
X122048796Y-58474504D01*
X122045196Y-58498773D01*
X122039235Y-58522571D01*
X122030970Y-58545671D01*
X122020480Y-58567849D01*
X122007867Y-58588893D01*
X121993253Y-58608598D01*
X121976777Y-58626777D01*
X121958598Y-58643253D01*
X121938893Y-58657867D01*
X121917849Y-58670480D01*
X121895671Y-58680970D01*
X121872571Y-58689235D01*
X121848773Y-58695196D01*
X121824504Y-58698796D01*
X121800000Y-58700000D01*
X120700000Y-58700000D01*
X120675496Y-58698796D01*
X120651227Y-58695196D01*
X120627429Y-58689235D01*
X120604329Y-58680970D01*
X120582151Y-58670480D01*
X120561107Y-58657867D01*
X120541402Y-58643253D01*
X120523223Y-58626777D01*
X120506747Y-58608598D01*
X120492133Y-58588893D01*
X120479520Y-58567849D01*
X120469030Y-58545671D01*
X120460765Y-58522571D01*
X120454804Y-58498773D01*
X120451204Y-58474504D01*
X120450000Y-58450000D01*
X120450000Y-55450000D01*
X120451204Y-55425496D01*
X120454804Y-55401227D01*
X120460765Y-55377429D01*
X120469030Y-55354329D01*
X120479520Y-55332151D01*
X120492133Y-55311107D01*
X120506747Y-55291402D01*
X120523223Y-55273223D01*
X120541402Y-55256747D01*
X120561107Y-55242133D01*
X120582151Y-55229520D01*
X120604329Y-55219030D01*
X120627429Y-55210765D01*
X120651227Y-55204804D01*
X120675496Y-55201204D01*
X120700000Y-55200000D01*
X121800000Y-55200000D01*
X121824504Y-55201204D01*
X121824504Y-55201204D01*
G37*
D11*
X121250000Y-56950000D03*
D10*
G36*
X145874504Y-91551204D02*
G01*
X145898773Y-91554804D01*
X145922571Y-91560765D01*
X145945671Y-91569030D01*
X145967849Y-91579520D01*
X145988893Y-91592133D01*
X146008598Y-91606747D01*
X146026777Y-91623223D01*
X146043253Y-91641402D01*
X146057867Y-91661107D01*
X146070480Y-91682151D01*
X146080970Y-91704329D01*
X146089235Y-91727429D01*
X146095196Y-91751227D01*
X146098796Y-91775496D01*
X146100000Y-91800000D01*
X146100000Y-94800000D01*
X146098796Y-94824504D01*
X146095196Y-94848773D01*
X146089235Y-94872571D01*
X146080970Y-94895671D01*
X146070480Y-94917849D01*
X146057867Y-94938893D01*
X146043253Y-94958598D01*
X146026777Y-94976777D01*
X146008598Y-94993253D01*
X145988893Y-95007867D01*
X145967849Y-95020480D01*
X145945671Y-95030970D01*
X145922571Y-95039235D01*
X145898773Y-95045196D01*
X145874504Y-95048796D01*
X145850000Y-95050000D01*
X144750000Y-95050000D01*
X144725496Y-95048796D01*
X144701227Y-95045196D01*
X144677429Y-95039235D01*
X144654329Y-95030970D01*
X144632151Y-95020480D01*
X144611107Y-95007867D01*
X144591402Y-94993253D01*
X144573223Y-94976777D01*
X144556747Y-94958598D01*
X144542133Y-94938893D01*
X144529520Y-94917849D01*
X144519030Y-94895671D01*
X144510765Y-94872571D01*
X144504804Y-94848773D01*
X144501204Y-94824504D01*
X144500000Y-94800000D01*
X144500000Y-91800000D01*
X144501204Y-91775496D01*
X144504804Y-91751227D01*
X144510765Y-91727429D01*
X144519030Y-91704329D01*
X144529520Y-91682151D01*
X144542133Y-91661107D01*
X144556747Y-91641402D01*
X144573223Y-91623223D01*
X144591402Y-91606747D01*
X144611107Y-91592133D01*
X144632151Y-91579520D01*
X144654329Y-91569030D01*
X144677429Y-91560765D01*
X144701227Y-91554804D01*
X144725496Y-91551204D01*
X144750000Y-91550000D01*
X145850000Y-91550000D01*
X145874504Y-91551204D01*
X145874504Y-91551204D01*
G37*
D11*
X145300000Y-93300000D03*
D10*
G36*
X145874504Y-96951204D02*
G01*
X145898773Y-96954804D01*
X145922571Y-96960765D01*
X145945671Y-96969030D01*
X145967849Y-96979520D01*
X145988893Y-96992133D01*
X146008598Y-97006747D01*
X146026777Y-97023223D01*
X146043253Y-97041402D01*
X146057867Y-97061107D01*
X146070480Y-97082151D01*
X146080970Y-97104329D01*
X146089235Y-97127429D01*
X146095196Y-97151227D01*
X146098796Y-97175496D01*
X146100000Y-97200000D01*
X146100000Y-100200000D01*
X146098796Y-100224504D01*
X146095196Y-100248773D01*
X146089235Y-100272571D01*
X146080970Y-100295671D01*
X146070480Y-100317849D01*
X146057867Y-100338893D01*
X146043253Y-100358598D01*
X146026777Y-100376777D01*
X146008598Y-100393253D01*
X145988893Y-100407867D01*
X145967849Y-100420480D01*
X145945671Y-100430970D01*
X145922571Y-100439235D01*
X145898773Y-100445196D01*
X145874504Y-100448796D01*
X145850000Y-100450000D01*
X144750000Y-100450000D01*
X144725496Y-100448796D01*
X144701227Y-100445196D01*
X144677429Y-100439235D01*
X144654329Y-100430970D01*
X144632151Y-100420480D01*
X144611107Y-100407867D01*
X144591402Y-100393253D01*
X144573223Y-100376777D01*
X144556747Y-100358598D01*
X144542133Y-100338893D01*
X144529520Y-100317849D01*
X144519030Y-100295671D01*
X144510765Y-100272571D01*
X144504804Y-100248773D01*
X144501204Y-100224504D01*
X144500000Y-100200000D01*
X144500000Y-97200000D01*
X144501204Y-97175496D01*
X144504804Y-97151227D01*
X144510765Y-97127429D01*
X144519030Y-97104329D01*
X144529520Y-97082151D01*
X144542133Y-97061107D01*
X144556747Y-97041402D01*
X144573223Y-97023223D01*
X144591402Y-97006747D01*
X144611107Y-96992133D01*
X144632151Y-96979520D01*
X144654329Y-96969030D01*
X144677429Y-96960765D01*
X144701227Y-96954804D01*
X144725496Y-96951204D01*
X144750000Y-96950000D01*
X145850000Y-96950000D01*
X145874504Y-96951204D01*
X145874504Y-96951204D01*
G37*
D11*
X145300000Y-98700000D03*
D10*
G36*
X148599504Y-63826204D02*
G01*
X148623773Y-63829804D01*
X148647571Y-63835765D01*
X148670671Y-63844030D01*
X148692849Y-63854520D01*
X148713893Y-63867133D01*
X148733598Y-63881747D01*
X148751777Y-63898223D01*
X148768253Y-63916402D01*
X148782867Y-63936107D01*
X148795480Y-63957151D01*
X148805970Y-63979329D01*
X148814235Y-64002429D01*
X148820196Y-64026227D01*
X148823796Y-64050496D01*
X148825000Y-64075000D01*
X148825000Y-65325000D01*
X148823796Y-65349504D01*
X148820196Y-65373773D01*
X148814235Y-65397571D01*
X148805970Y-65420671D01*
X148795480Y-65442849D01*
X148782867Y-65463893D01*
X148768253Y-65483598D01*
X148751777Y-65501777D01*
X148733598Y-65518253D01*
X148713893Y-65532867D01*
X148692849Y-65545480D01*
X148670671Y-65555970D01*
X148647571Y-65564235D01*
X148623773Y-65570196D01*
X148599504Y-65573796D01*
X148575000Y-65575000D01*
X147825000Y-65575000D01*
X147800496Y-65573796D01*
X147776227Y-65570196D01*
X147752429Y-65564235D01*
X147729329Y-65555970D01*
X147707151Y-65545480D01*
X147686107Y-65532867D01*
X147666402Y-65518253D01*
X147648223Y-65501777D01*
X147631747Y-65483598D01*
X147617133Y-65463893D01*
X147604520Y-65442849D01*
X147594030Y-65420671D01*
X147585765Y-65397571D01*
X147579804Y-65373773D01*
X147576204Y-65349504D01*
X147575000Y-65325000D01*
X147575000Y-64075000D01*
X147576204Y-64050496D01*
X147579804Y-64026227D01*
X147585765Y-64002429D01*
X147594030Y-63979329D01*
X147604520Y-63957151D01*
X147617133Y-63936107D01*
X147631747Y-63916402D01*
X147648223Y-63898223D01*
X147666402Y-63881747D01*
X147686107Y-63867133D01*
X147707151Y-63854520D01*
X147729329Y-63844030D01*
X147752429Y-63835765D01*
X147776227Y-63829804D01*
X147800496Y-63826204D01*
X147825000Y-63825000D01*
X148575000Y-63825000D01*
X148599504Y-63826204D01*
X148599504Y-63826204D01*
G37*
D12*
X148200000Y-64700000D03*
D10*
G36*
X145799504Y-63826204D02*
G01*
X145823773Y-63829804D01*
X145847571Y-63835765D01*
X145870671Y-63844030D01*
X145892849Y-63854520D01*
X145913893Y-63867133D01*
X145933598Y-63881747D01*
X145951777Y-63898223D01*
X145968253Y-63916402D01*
X145982867Y-63936107D01*
X145995480Y-63957151D01*
X146005970Y-63979329D01*
X146014235Y-64002429D01*
X146020196Y-64026227D01*
X146023796Y-64050496D01*
X146025000Y-64075000D01*
X146025000Y-65325000D01*
X146023796Y-65349504D01*
X146020196Y-65373773D01*
X146014235Y-65397571D01*
X146005970Y-65420671D01*
X145995480Y-65442849D01*
X145982867Y-65463893D01*
X145968253Y-65483598D01*
X145951777Y-65501777D01*
X145933598Y-65518253D01*
X145913893Y-65532867D01*
X145892849Y-65545480D01*
X145870671Y-65555970D01*
X145847571Y-65564235D01*
X145823773Y-65570196D01*
X145799504Y-65573796D01*
X145775000Y-65575000D01*
X145025000Y-65575000D01*
X145000496Y-65573796D01*
X144976227Y-65570196D01*
X144952429Y-65564235D01*
X144929329Y-65555970D01*
X144907151Y-65545480D01*
X144886107Y-65532867D01*
X144866402Y-65518253D01*
X144848223Y-65501777D01*
X144831747Y-65483598D01*
X144817133Y-65463893D01*
X144804520Y-65442849D01*
X144794030Y-65420671D01*
X144785765Y-65397571D01*
X144779804Y-65373773D01*
X144776204Y-65349504D01*
X144775000Y-65325000D01*
X144775000Y-64075000D01*
X144776204Y-64050496D01*
X144779804Y-64026227D01*
X144785765Y-64002429D01*
X144794030Y-63979329D01*
X144804520Y-63957151D01*
X144817133Y-63936107D01*
X144831747Y-63916402D01*
X144848223Y-63898223D01*
X144866402Y-63881747D01*
X144886107Y-63867133D01*
X144907151Y-63854520D01*
X144929329Y-63844030D01*
X144952429Y-63835765D01*
X144976227Y-63829804D01*
X145000496Y-63826204D01*
X145025000Y-63825000D01*
X145775000Y-63825000D01*
X145799504Y-63826204D01*
X145799504Y-63826204D01*
G37*
D12*
X145400000Y-64700000D03*
D10*
G36*
X154799504Y-97126204D02*
G01*
X154823773Y-97129804D01*
X154847571Y-97135765D01*
X154870671Y-97144030D01*
X154892849Y-97154520D01*
X154913893Y-97167133D01*
X154933598Y-97181747D01*
X154951777Y-97198223D01*
X154968253Y-97216402D01*
X154982867Y-97236107D01*
X154995480Y-97257151D01*
X155005970Y-97279329D01*
X155014235Y-97302429D01*
X155020196Y-97326227D01*
X155023796Y-97350496D01*
X155025000Y-97375000D01*
X155025000Y-98625000D01*
X155023796Y-98649504D01*
X155020196Y-98673773D01*
X155014235Y-98697571D01*
X155005970Y-98720671D01*
X154995480Y-98742849D01*
X154982867Y-98763893D01*
X154968253Y-98783598D01*
X154951777Y-98801777D01*
X154933598Y-98818253D01*
X154913893Y-98832867D01*
X154892849Y-98845480D01*
X154870671Y-98855970D01*
X154847571Y-98864235D01*
X154823773Y-98870196D01*
X154799504Y-98873796D01*
X154775000Y-98875000D01*
X154025000Y-98875000D01*
X154000496Y-98873796D01*
X153976227Y-98870196D01*
X153952429Y-98864235D01*
X153929329Y-98855970D01*
X153907151Y-98845480D01*
X153886107Y-98832867D01*
X153866402Y-98818253D01*
X153848223Y-98801777D01*
X153831747Y-98783598D01*
X153817133Y-98763893D01*
X153804520Y-98742849D01*
X153794030Y-98720671D01*
X153785765Y-98697571D01*
X153779804Y-98673773D01*
X153776204Y-98649504D01*
X153775000Y-98625000D01*
X153775000Y-97375000D01*
X153776204Y-97350496D01*
X153779804Y-97326227D01*
X153785765Y-97302429D01*
X153794030Y-97279329D01*
X153804520Y-97257151D01*
X153817133Y-97236107D01*
X153831747Y-97216402D01*
X153848223Y-97198223D01*
X153866402Y-97181747D01*
X153886107Y-97167133D01*
X153907151Y-97154520D01*
X153929329Y-97144030D01*
X153952429Y-97135765D01*
X153976227Y-97129804D01*
X154000496Y-97126204D01*
X154025000Y-97125000D01*
X154775000Y-97125000D01*
X154799504Y-97126204D01*
X154799504Y-97126204D01*
G37*
D12*
X154400000Y-98000000D03*
D10*
G36*
X157599504Y-97126204D02*
G01*
X157623773Y-97129804D01*
X157647571Y-97135765D01*
X157670671Y-97144030D01*
X157692849Y-97154520D01*
X157713893Y-97167133D01*
X157733598Y-97181747D01*
X157751777Y-97198223D01*
X157768253Y-97216402D01*
X157782867Y-97236107D01*
X157795480Y-97257151D01*
X157805970Y-97279329D01*
X157814235Y-97302429D01*
X157820196Y-97326227D01*
X157823796Y-97350496D01*
X157825000Y-97375000D01*
X157825000Y-98625000D01*
X157823796Y-98649504D01*
X157820196Y-98673773D01*
X157814235Y-98697571D01*
X157805970Y-98720671D01*
X157795480Y-98742849D01*
X157782867Y-98763893D01*
X157768253Y-98783598D01*
X157751777Y-98801777D01*
X157733598Y-98818253D01*
X157713893Y-98832867D01*
X157692849Y-98845480D01*
X157670671Y-98855970D01*
X157647571Y-98864235D01*
X157623773Y-98870196D01*
X157599504Y-98873796D01*
X157575000Y-98875000D01*
X156825000Y-98875000D01*
X156800496Y-98873796D01*
X156776227Y-98870196D01*
X156752429Y-98864235D01*
X156729329Y-98855970D01*
X156707151Y-98845480D01*
X156686107Y-98832867D01*
X156666402Y-98818253D01*
X156648223Y-98801777D01*
X156631747Y-98783598D01*
X156617133Y-98763893D01*
X156604520Y-98742849D01*
X156594030Y-98720671D01*
X156585765Y-98697571D01*
X156579804Y-98673773D01*
X156576204Y-98649504D01*
X156575000Y-98625000D01*
X156575000Y-97375000D01*
X156576204Y-97350496D01*
X156579804Y-97326227D01*
X156585765Y-97302429D01*
X156594030Y-97279329D01*
X156604520Y-97257151D01*
X156617133Y-97236107D01*
X156631747Y-97216402D01*
X156648223Y-97198223D01*
X156666402Y-97181747D01*
X156686107Y-97167133D01*
X156707151Y-97154520D01*
X156729329Y-97144030D01*
X156752429Y-97135765D01*
X156776227Y-97129804D01*
X156800496Y-97126204D01*
X156825000Y-97125000D01*
X157575000Y-97125000D01*
X157599504Y-97126204D01*
X157599504Y-97126204D01*
G37*
D12*
X157200000Y-98000000D03*
D10*
G36*
X107999504Y-59026204D02*
G01*
X108023773Y-59029804D01*
X108047571Y-59035765D01*
X108070671Y-59044030D01*
X108092849Y-59054520D01*
X108113893Y-59067133D01*
X108133598Y-59081747D01*
X108151777Y-59098223D01*
X108168253Y-59116402D01*
X108182867Y-59136107D01*
X108195480Y-59157151D01*
X108205970Y-59179329D01*
X108214235Y-59202429D01*
X108220196Y-59226227D01*
X108223796Y-59250496D01*
X108225000Y-59275000D01*
X108225000Y-60525000D01*
X108223796Y-60549504D01*
X108220196Y-60573773D01*
X108214235Y-60597571D01*
X108205970Y-60620671D01*
X108195480Y-60642849D01*
X108182867Y-60663893D01*
X108168253Y-60683598D01*
X108151777Y-60701777D01*
X108133598Y-60718253D01*
X108113893Y-60732867D01*
X108092849Y-60745480D01*
X108070671Y-60755970D01*
X108047571Y-60764235D01*
X108023773Y-60770196D01*
X107999504Y-60773796D01*
X107975000Y-60775000D01*
X107225000Y-60775000D01*
X107200496Y-60773796D01*
X107176227Y-60770196D01*
X107152429Y-60764235D01*
X107129329Y-60755970D01*
X107107151Y-60745480D01*
X107086107Y-60732867D01*
X107066402Y-60718253D01*
X107048223Y-60701777D01*
X107031747Y-60683598D01*
X107017133Y-60663893D01*
X107004520Y-60642849D01*
X106994030Y-60620671D01*
X106985765Y-60597571D01*
X106979804Y-60573773D01*
X106976204Y-60549504D01*
X106975000Y-60525000D01*
X106975000Y-59275000D01*
X106976204Y-59250496D01*
X106979804Y-59226227D01*
X106985765Y-59202429D01*
X106994030Y-59179329D01*
X107004520Y-59157151D01*
X107017133Y-59136107D01*
X107031747Y-59116402D01*
X107048223Y-59098223D01*
X107066402Y-59081747D01*
X107086107Y-59067133D01*
X107107151Y-59054520D01*
X107129329Y-59044030D01*
X107152429Y-59035765D01*
X107176227Y-59029804D01*
X107200496Y-59026204D01*
X107225000Y-59025000D01*
X107975000Y-59025000D01*
X107999504Y-59026204D01*
X107999504Y-59026204D01*
G37*
D12*
X107600000Y-59900000D03*
D10*
G36*
X110799504Y-59026204D02*
G01*
X110823773Y-59029804D01*
X110847571Y-59035765D01*
X110870671Y-59044030D01*
X110892849Y-59054520D01*
X110913893Y-59067133D01*
X110933598Y-59081747D01*
X110951777Y-59098223D01*
X110968253Y-59116402D01*
X110982867Y-59136107D01*
X110995480Y-59157151D01*
X111005970Y-59179329D01*
X111014235Y-59202429D01*
X111020196Y-59226227D01*
X111023796Y-59250496D01*
X111025000Y-59275000D01*
X111025000Y-60525000D01*
X111023796Y-60549504D01*
X111020196Y-60573773D01*
X111014235Y-60597571D01*
X111005970Y-60620671D01*
X110995480Y-60642849D01*
X110982867Y-60663893D01*
X110968253Y-60683598D01*
X110951777Y-60701777D01*
X110933598Y-60718253D01*
X110913893Y-60732867D01*
X110892849Y-60745480D01*
X110870671Y-60755970D01*
X110847571Y-60764235D01*
X110823773Y-60770196D01*
X110799504Y-60773796D01*
X110775000Y-60775000D01*
X110025000Y-60775000D01*
X110000496Y-60773796D01*
X109976227Y-60770196D01*
X109952429Y-60764235D01*
X109929329Y-60755970D01*
X109907151Y-60745480D01*
X109886107Y-60732867D01*
X109866402Y-60718253D01*
X109848223Y-60701777D01*
X109831747Y-60683598D01*
X109817133Y-60663893D01*
X109804520Y-60642849D01*
X109794030Y-60620671D01*
X109785765Y-60597571D01*
X109779804Y-60573773D01*
X109776204Y-60549504D01*
X109775000Y-60525000D01*
X109775000Y-59275000D01*
X109776204Y-59250496D01*
X109779804Y-59226227D01*
X109785765Y-59202429D01*
X109794030Y-59179329D01*
X109804520Y-59157151D01*
X109817133Y-59136107D01*
X109831747Y-59116402D01*
X109848223Y-59098223D01*
X109866402Y-59081747D01*
X109886107Y-59067133D01*
X109907151Y-59054520D01*
X109929329Y-59044030D01*
X109952429Y-59035765D01*
X109976227Y-59029804D01*
X110000496Y-59026204D01*
X110025000Y-59025000D01*
X110775000Y-59025000D01*
X110799504Y-59026204D01*
X110799504Y-59026204D01*
G37*
D12*
X110400000Y-59900000D03*
D10*
G36*
X156574504Y-78201204D02*
G01*
X156598773Y-78204804D01*
X156622571Y-78210765D01*
X156645671Y-78219030D01*
X156667849Y-78229520D01*
X156688893Y-78242133D01*
X156708598Y-78256747D01*
X156726777Y-78273223D01*
X156743253Y-78291402D01*
X156757867Y-78311107D01*
X156770480Y-78332151D01*
X156780970Y-78354329D01*
X156789235Y-78377429D01*
X156795196Y-78401227D01*
X156798796Y-78425496D01*
X156800000Y-78450000D01*
X156800000Y-81450000D01*
X156798796Y-81474504D01*
X156795196Y-81498773D01*
X156789235Y-81522571D01*
X156780970Y-81545671D01*
X156770480Y-81567849D01*
X156757867Y-81588893D01*
X156743253Y-81608598D01*
X156726777Y-81626777D01*
X156708598Y-81643253D01*
X156688893Y-81657867D01*
X156667849Y-81670480D01*
X156645671Y-81680970D01*
X156622571Y-81689235D01*
X156598773Y-81695196D01*
X156574504Y-81698796D01*
X156550000Y-81700000D01*
X155450000Y-81700000D01*
X155425496Y-81698796D01*
X155401227Y-81695196D01*
X155377429Y-81689235D01*
X155354329Y-81680970D01*
X155332151Y-81670480D01*
X155311107Y-81657867D01*
X155291402Y-81643253D01*
X155273223Y-81626777D01*
X155256747Y-81608598D01*
X155242133Y-81588893D01*
X155229520Y-81567849D01*
X155219030Y-81545671D01*
X155210765Y-81522571D01*
X155204804Y-81498773D01*
X155201204Y-81474504D01*
X155200000Y-81450000D01*
X155200000Y-78450000D01*
X155201204Y-78425496D01*
X155204804Y-78401227D01*
X155210765Y-78377429D01*
X155219030Y-78354329D01*
X155229520Y-78332151D01*
X155242133Y-78311107D01*
X155256747Y-78291402D01*
X155273223Y-78273223D01*
X155291402Y-78256747D01*
X155311107Y-78242133D01*
X155332151Y-78229520D01*
X155354329Y-78219030D01*
X155377429Y-78210765D01*
X155401227Y-78204804D01*
X155425496Y-78201204D01*
X155450000Y-78200000D01*
X156550000Y-78200000D01*
X156574504Y-78201204D01*
X156574504Y-78201204D01*
G37*
D11*
X156000000Y-79950000D03*
D10*
G36*
X156574504Y-72801204D02*
G01*
X156598773Y-72804804D01*
X156622571Y-72810765D01*
X156645671Y-72819030D01*
X156667849Y-72829520D01*
X156688893Y-72842133D01*
X156708598Y-72856747D01*
X156726777Y-72873223D01*
X156743253Y-72891402D01*
X156757867Y-72911107D01*
X156770480Y-72932151D01*
X156780970Y-72954329D01*
X156789235Y-72977429D01*
X156795196Y-73001227D01*
X156798796Y-73025496D01*
X156800000Y-73050000D01*
X156800000Y-76050000D01*
X156798796Y-76074504D01*
X156795196Y-76098773D01*
X156789235Y-76122571D01*
X156780970Y-76145671D01*
X156770480Y-76167849D01*
X156757867Y-76188893D01*
X156743253Y-76208598D01*
X156726777Y-76226777D01*
X156708598Y-76243253D01*
X156688893Y-76257867D01*
X156667849Y-76270480D01*
X156645671Y-76280970D01*
X156622571Y-76289235D01*
X156598773Y-76295196D01*
X156574504Y-76298796D01*
X156550000Y-76300000D01*
X155450000Y-76300000D01*
X155425496Y-76298796D01*
X155401227Y-76295196D01*
X155377429Y-76289235D01*
X155354329Y-76280970D01*
X155332151Y-76270480D01*
X155311107Y-76257867D01*
X155291402Y-76243253D01*
X155273223Y-76226777D01*
X155256747Y-76208598D01*
X155242133Y-76188893D01*
X155229520Y-76167849D01*
X155219030Y-76145671D01*
X155210765Y-76122571D01*
X155204804Y-76098773D01*
X155201204Y-76074504D01*
X155200000Y-76050000D01*
X155200000Y-73050000D01*
X155201204Y-73025496D01*
X155204804Y-73001227D01*
X155210765Y-72977429D01*
X155219030Y-72954329D01*
X155229520Y-72932151D01*
X155242133Y-72911107D01*
X155256747Y-72891402D01*
X155273223Y-72873223D01*
X155291402Y-72856747D01*
X155311107Y-72842133D01*
X155332151Y-72829520D01*
X155354329Y-72819030D01*
X155377429Y-72810765D01*
X155401227Y-72804804D01*
X155425496Y-72801204D01*
X155450000Y-72800000D01*
X156550000Y-72800000D01*
X156574504Y-72801204D01*
X156574504Y-72801204D01*
G37*
D11*
X156000000Y-74550000D03*
D10*
G36*
X111324504Y-76051204D02*
G01*
X111348773Y-76054804D01*
X111372571Y-76060765D01*
X111395671Y-76069030D01*
X111417849Y-76079520D01*
X111438893Y-76092133D01*
X111458598Y-76106747D01*
X111476777Y-76123223D01*
X111493253Y-76141402D01*
X111507867Y-76161107D01*
X111520480Y-76182151D01*
X111530970Y-76204329D01*
X111539235Y-76227429D01*
X111545196Y-76251227D01*
X111548796Y-76275496D01*
X111550000Y-76300000D01*
X111550000Y-79300000D01*
X111548796Y-79324504D01*
X111545196Y-79348773D01*
X111539235Y-79372571D01*
X111530970Y-79395671D01*
X111520480Y-79417849D01*
X111507867Y-79438893D01*
X111493253Y-79458598D01*
X111476777Y-79476777D01*
X111458598Y-79493253D01*
X111438893Y-79507867D01*
X111417849Y-79520480D01*
X111395671Y-79530970D01*
X111372571Y-79539235D01*
X111348773Y-79545196D01*
X111324504Y-79548796D01*
X111300000Y-79550000D01*
X110200000Y-79550000D01*
X110175496Y-79548796D01*
X110151227Y-79545196D01*
X110127429Y-79539235D01*
X110104329Y-79530970D01*
X110082151Y-79520480D01*
X110061107Y-79507867D01*
X110041402Y-79493253D01*
X110023223Y-79476777D01*
X110006747Y-79458598D01*
X109992133Y-79438893D01*
X109979520Y-79417849D01*
X109969030Y-79395671D01*
X109960765Y-79372571D01*
X109954804Y-79348773D01*
X109951204Y-79324504D01*
X109950000Y-79300000D01*
X109950000Y-76300000D01*
X109951204Y-76275496D01*
X109954804Y-76251227D01*
X109960765Y-76227429D01*
X109969030Y-76204329D01*
X109979520Y-76182151D01*
X109992133Y-76161107D01*
X110006747Y-76141402D01*
X110023223Y-76123223D01*
X110041402Y-76106747D01*
X110061107Y-76092133D01*
X110082151Y-76079520D01*
X110104329Y-76069030D01*
X110127429Y-76060765D01*
X110151227Y-76054804D01*
X110175496Y-76051204D01*
X110200000Y-76050000D01*
X111300000Y-76050000D01*
X111324504Y-76051204D01*
X111324504Y-76051204D01*
G37*
D11*
X110750000Y-77800000D03*
D10*
G36*
X111324504Y-81451204D02*
G01*
X111348773Y-81454804D01*
X111372571Y-81460765D01*
X111395671Y-81469030D01*
X111417849Y-81479520D01*
X111438893Y-81492133D01*
X111458598Y-81506747D01*
X111476777Y-81523223D01*
X111493253Y-81541402D01*
X111507867Y-81561107D01*
X111520480Y-81582151D01*
X111530970Y-81604329D01*
X111539235Y-81627429D01*
X111545196Y-81651227D01*
X111548796Y-81675496D01*
X111550000Y-81700000D01*
X111550000Y-84700000D01*
X111548796Y-84724504D01*
X111545196Y-84748773D01*
X111539235Y-84772571D01*
X111530970Y-84795671D01*
X111520480Y-84817849D01*
X111507867Y-84838893D01*
X111493253Y-84858598D01*
X111476777Y-84876777D01*
X111458598Y-84893253D01*
X111438893Y-84907867D01*
X111417849Y-84920480D01*
X111395671Y-84930970D01*
X111372571Y-84939235D01*
X111348773Y-84945196D01*
X111324504Y-84948796D01*
X111300000Y-84950000D01*
X110200000Y-84950000D01*
X110175496Y-84948796D01*
X110151227Y-84945196D01*
X110127429Y-84939235D01*
X110104329Y-84930970D01*
X110082151Y-84920480D01*
X110061107Y-84907867D01*
X110041402Y-84893253D01*
X110023223Y-84876777D01*
X110006747Y-84858598D01*
X109992133Y-84838893D01*
X109979520Y-84817849D01*
X109969030Y-84795671D01*
X109960765Y-84772571D01*
X109954804Y-84748773D01*
X109951204Y-84724504D01*
X109950000Y-84700000D01*
X109950000Y-81700000D01*
X109951204Y-81675496D01*
X109954804Y-81651227D01*
X109960765Y-81627429D01*
X109969030Y-81604329D01*
X109979520Y-81582151D01*
X109992133Y-81561107D01*
X110006747Y-81541402D01*
X110023223Y-81523223D01*
X110041402Y-81506747D01*
X110061107Y-81492133D01*
X110082151Y-81479520D01*
X110104329Y-81469030D01*
X110127429Y-81460765D01*
X110151227Y-81454804D01*
X110175496Y-81451204D01*
X110200000Y-81450000D01*
X111300000Y-81450000D01*
X111324504Y-81451204D01*
X111324504Y-81451204D01*
G37*
D11*
X110750000Y-83200000D03*
D13*
X150800000Y-70150000D03*
X150800000Y-68250000D03*
X152800000Y-69200000D03*
D14*
X140200000Y-89000000D03*
X135900000Y-89000000D03*
X127350000Y-66900000D03*
X131650000Y-66900000D03*
D15*
X143300000Y-84450000D03*
X143300000Y-74550000D03*
X124000000Y-81350000D03*
X124000000Y-71450000D03*
D10*
G36*
X157199504Y-69976204D02*
G01*
X157223773Y-69979804D01*
X157247571Y-69985765D01*
X157270671Y-69994030D01*
X157292849Y-70004520D01*
X157313893Y-70017133D01*
X157333598Y-70031747D01*
X157351777Y-70048223D01*
X157368253Y-70066402D01*
X157382867Y-70086107D01*
X157395480Y-70107151D01*
X157405970Y-70129329D01*
X157414235Y-70152429D01*
X157420196Y-70176227D01*
X157423796Y-70200496D01*
X157425000Y-70225000D01*
X157425000Y-70975000D01*
X157423796Y-70999504D01*
X157420196Y-71023773D01*
X157414235Y-71047571D01*
X157405970Y-71070671D01*
X157395480Y-71092849D01*
X157382867Y-71113893D01*
X157368253Y-71133598D01*
X157351777Y-71151777D01*
X157333598Y-71168253D01*
X157313893Y-71182867D01*
X157292849Y-71195480D01*
X157270671Y-71205970D01*
X157247571Y-71214235D01*
X157223773Y-71220196D01*
X157199504Y-71223796D01*
X157175000Y-71225000D01*
X155925000Y-71225000D01*
X155900496Y-71223796D01*
X155876227Y-71220196D01*
X155852429Y-71214235D01*
X155829329Y-71205970D01*
X155807151Y-71195480D01*
X155786107Y-71182867D01*
X155766402Y-71168253D01*
X155748223Y-71151777D01*
X155731747Y-71133598D01*
X155717133Y-71113893D01*
X155704520Y-71092849D01*
X155694030Y-71070671D01*
X155685765Y-71047571D01*
X155679804Y-71023773D01*
X155676204Y-70999504D01*
X155675000Y-70975000D01*
X155675000Y-70225000D01*
X155676204Y-70200496D01*
X155679804Y-70176227D01*
X155685765Y-70152429D01*
X155694030Y-70129329D01*
X155704520Y-70107151D01*
X155717133Y-70086107D01*
X155731747Y-70066402D01*
X155748223Y-70048223D01*
X155766402Y-70031747D01*
X155786107Y-70017133D01*
X155807151Y-70004520D01*
X155829329Y-69994030D01*
X155852429Y-69985765D01*
X155876227Y-69979804D01*
X155900496Y-69976204D01*
X155925000Y-69975000D01*
X157175000Y-69975000D01*
X157199504Y-69976204D01*
X157199504Y-69976204D01*
G37*
D12*
X156550000Y-70600000D03*
D10*
G36*
X157199504Y-67176204D02*
G01*
X157223773Y-67179804D01*
X157247571Y-67185765D01*
X157270671Y-67194030D01*
X157292849Y-67204520D01*
X157313893Y-67217133D01*
X157333598Y-67231747D01*
X157351777Y-67248223D01*
X157368253Y-67266402D01*
X157382867Y-67286107D01*
X157395480Y-67307151D01*
X157405970Y-67329329D01*
X157414235Y-67352429D01*
X157420196Y-67376227D01*
X157423796Y-67400496D01*
X157425000Y-67425000D01*
X157425000Y-68175000D01*
X157423796Y-68199504D01*
X157420196Y-68223773D01*
X157414235Y-68247571D01*
X157405970Y-68270671D01*
X157395480Y-68292849D01*
X157382867Y-68313893D01*
X157368253Y-68333598D01*
X157351777Y-68351777D01*
X157333598Y-68368253D01*
X157313893Y-68382867D01*
X157292849Y-68395480D01*
X157270671Y-68405970D01*
X157247571Y-68414235D01*
X157223773Y-68420196D01*
X157199504Y-68423796D01*
X157175000Y-68425000D01*
X155925000Y-68425000D01*
X155900496Y-68423796D01*
X155876227Y-68420196D01*
X155852429Y-68414235D01*
X155829329Y-68405970D01*
X155807151Y-68395480D01*
X155786107Y-68382867D01*
X155766402Y-68368253D01*
X155748223Y-68351777D01*
X155731747Y-68333598D01*
X155717133Y-68313893D01*
X155704520Y-68292849D01*
X155694030Y-68270671D01*
X155685765Y-68247571D01*
X155679804Y-68223773D01*
X155676204Y-68199504D01*
X155675000Y-68175000D01*
X155675000Y-67425000D01*
X155676204Y-67400496D01*
X155679804Y-67376227D01*
X155685765Y-67352429D01*
X155694030Y-67329329D01*
X155704520Y-67307151D01*
X155717133Y-67286107D01*
X155731747Y-67266402D01*
X155748223Y-67248223D01*
X155766402Y-67231747D01*
X155786107Y-67217133D01*
X155807151Y-67204520D01*
X155829329Y-67194030D01*
X155852429Y-67185765D01*
X155876227Y-67179804D01*
X155900496Y-67176204D01*
X155925000Y-67175000D01*
X157175000Y-67175000D01*
X157199504Y-67176204D01*
X157199504Y-67176204D01*
G37*
D12*
X156550000Y-67800000D03*
D16*
X142850000Y-71105000D03*
X142850000Y-69835000D03*
X142850000Y-68565000D03*
X142850000Y-67295000D03*
X148250000Y-67295000D03*
X148250000Y-68565000D03*
X148250000Y-69835000D03*
X148250000Y-71105000D03*
D17*
X160875000Y-87725000D03*
X165725000Y-93275000D03*
X160875000Y-93275000D03*
X165725000Y-87725000D03*
D18*
X154150000Y-87100000D03*
X154150000Y-88800000D03*
X154150000Y-90500000D03*
X154150000Y-92200000D03*
X154150000Y-93900000D03*
X113150000Y-64000000D03*
X113150000Y-65700000D03*
X113150000Y-67400000D03*
X113150000Y-69100000D03*
X113150000Y-70800000D03*
D17*
X101575000Y-70175000D03*
X106425000Y-64625000D03*
X101575000Y-64625000D03*
X106425000Y-70175000D03*
D10*
G36*
X127949505Y-61076204D02*
G01*
X127973773Y-61079804D01*
X127997572Y-61085765D01*
X128020671Y-61094030D01*
X128042850Y-61104520D01*
X128063893Y-61117132D01*
X128083599Y-61131747D01*
X128101777Y-61148223D01*
X128118253Y-61166401D01*
X128132868Y-61186107D01*
X128145480Y-61207150D01*
X128155970Y-61229329D01*
X128164235Y-61252428D01*
X128170196Y-61276227D01*
X128173796Y-61300495D01*
X128175000Y-61324999D01*
X128175000Y-63475001D01*
X128173796Y-63499505D01*
X128170196Y-63523773D01*
X128164235Y-63547572D01*
X128155970Y-63570671D01*
X128145480Y-63592850D01*
X128132868Y-63613893D01*
X128118253Y-63633599D01*
X128101777Y-63651777D01*
X128083599Y-63668253D01*
X128063893Y-63682868D01*
X128042850Y-63695480D01*
X128020671Y-63705970D01*
X127997572Y-63714235D01*
X127973773Y-63720196D01*
X127949505Y-63723796D01*
X127925001Y-63725000D01*
X127074999Y-63725000D01*
X127050495Y-63723796D01*
X127026227Y-63720196D01*
X127002428Y-63714235D01*
X126979329Y-63705970D01*
X126957150Y-63695480D01*
X126936107Y-63682868D01*
X126916401Y-63668253D01*
X126898223Y-63651777D01*
X126881747Y-63633599D01*
X126867132Y-63613893D01*
X126854520Y-63592850D01*
X126844030Y-63570671D01*
X126835765Y-63547572D01*
X126829804Y-63523773D01*
X126826204Y-63499505D01*
X126825000Y-63475001D01*
X126825000Y-61324999D01*
X126826204Y-61300495D01*
X126829804Y-61276227D01*
X126835765Y-61252428D01*
X126844030Y-61229329D01*
X126854520Y-61207150D01*
X126867132Y-61186107D01*
X126881747Y-61166401D01*
X126898223Y-61148223D01*
X126916401Y-61131747D01*
X126936107Y-61117132D01*
X126957150Y-61104520D01*
X126979329Y-61094030D01*
X127002428Y-61085765D01*
X127026227Y-61079804D01*
X127050495Y-61076204D01*
X127074999Y-61075000D01*
X127925001Y-61075000D01*
X127949505Y-61076204D01*
X127949505Y-61076204D01*
G37*
D19*
X127500000Y-62400000D03*
D10*
G36*
X132449505Y-61076204D02*
G01*
X132473773Y-61079804D01*
X132497572Y-61085765D01*
X132520671Y-61094030D01*
X132542850Y-61104520D01*
X132563893Y-61117132D01*
X132583599Y-61131747D01*
X132601777Y-61148223D01*
X132618253Y-61166401D01*
X132632868Y-61186107D01*
X132645480Y-61207150D01*
X132655970Y-61229329D01*
X132664235Y-61252428D01*
X132670196Y-61276227D01*
X132673796Y-61300495D01*
X132675000Y-61324999D01*
X132675000Y-63475001D01*
X132673796Y-63499505D01*
X132670196Y-63523773D01*
X132664235Y-63547572D01*
X132655970Y-63570671D01*
X132645480Y-63592850D01*
X132632868Y-63613893D01*
X132618253Y-63633599D01*
X132601777Y-63651777D01*
X132583599Y-63668253D01*
X132563893Y-63682868D01*
X132542850Y-63695480D01*
X132520671Y-63705970D01*
X132497572Y-63714235D01*
X132473773Y-63720196D01*
X132449505Y-63723796D01*
X132425001Y-63725000D01*
X131574999Y-63725000D01*
X131550495Y-63723796D01*
X131526227Y-63720196D01*
X131502428Y-63714235D01*
X131479329Y-63705970D01*
X131457150Y-63695480D01*
X131436107Y-63682868D01*
X131416401Y-63668253D01*
X131398223Y-63651777D01*
X131381747Y-63633599D01*
X131367132Y-63613893D01*
X131354520Y-63592850D01*
X131344030Y-63570671D01*
X131335765Y-63547572D01*
X131329804Y-63523773D01*
X131326204Y-63499505D01*
X131325000Y-63475001D01*
X131325000Y-61324999D01*
X131326204Y-61300495D01*
X131329804Y-61276227D01*
X131335765Y-61252428D01*
X131344030Y-61229329D01*
X131354520Y-61207150D01*
X131367132Y-61186107D01*
X131381747Y-61166401D01*
X131398223Y-61148223D01*
X131416401Y-61131747D01*
X131436107Y-61117132D01*
X131457150Y-61104520D01*
X131479329Y-61094030D01*
X131502428Y-61085765D01*
X131526227Y-61079804D01*
X131550495Y-61076204D01*
X131574999Y-61075000D01*
X132425001Y-61075000D01*
X132449505Y-61076204D01*
X132449505Y-61076204D01*
G37*
D19*
X132000000Y-62400000D03*
D10*
G36*
X135749505Y-92176204D02*
G01*
X135773773Y-92179804D01*
X135797572Y-92185765D01*
X135820671Y-92194030D01*
X135842850Y-92204520D01*
X135863893Y-92217132D01*
X135883599Y-92231747D01*
X135901777Y-92248223D01*
X135918253Y-92266401D01*
X135932868Y-92286107D01*
X135945480Y-92307150D01*
X135955970Y-92329329D01*
X135964235Y-92352428D01*
X135970196Y-92376227D01*
X135973796Y-92400495D01*
X135975000Y-92424999D01*
X135975000Y-94575001D01*
X135973796Y-94599505D01*
X135970196Y-94623773D01*
X135964235Y-94647572D01*
X135955970Y-94670671D01*
X135945480Y-94692850D01*
X135932868Y-94713893D01*
X135918253Y-94733599D01*
X135901777Y-94751777D01*
X135883599Y-94768253D01*
X135863893Y-94782868D01*
X135842850Y-94795480D01*
X135820671Y-94805970D01*
X135797572Y-94814235D01*
X135773773Y-94820196D01*
X135749505Y-94823796D01*
X135725001Y-94825000D01*
X134874999Y-94825000D01*
X134850495Y-94823796D01*
X134826227Y-94820196D01*
X134802428Y-94814235D01*
X134779329Y-94805970D01*
X134757150Y-94795480D01*
X134736107Y-94782868D01*
X134716401Y-94768253D01*
X134698223Y-94751777D01*
X134681747Y-94733599D01*
X134667132Y-94713893D01*
X134654520Y-94692850D01*
X134644030Y-94670671D01*
X134635765Y-94647572D01*
X134629804Y-94623773D01*
X134626204Y-94599505D01*
X134625000Y-94575001D01*
X134625000Y-92424999D01*
X134626204Y-92400495D01*
X134629804Y-92376227D01*
X134635765Y-92352428D01*
X134644030Y-92329329D01*
X134654520Y-92307150D01*
X134667132Y-92286107D01*
X134681747Y-92266401D01*
X134698223Y-92248223D01*
X134716401Y-92231747D01*
X134736107Y-92217132D01*
X134757150Y-92204520D01*
X134779329Y-92194030D01*
X134802428Y-92185765D01*
X134826227Y-92179804D01*
X134850495Y-92176204D01*
X134874999Y-92175000D01*
X135725001Y-92175000D01*
X135749505Y-92176204D01*
X135749505Y-92176204D01*
G37*
D19*
X135300000Y-93500000D03*
D10*
G36*
X140249505Y-92176204D02*
G01*
X140273773Y-92179804D01*
X140297572Y-92185765D01*
X140320671Y-92194030D01*
X140342850Y-92204520D01*
X140363893Y-92217132D01*
X140383599Y-92231747D01*
X140401777Y-92248223D01*
X140418253Y-92266401D01*
X140432868Y-92286107D01*
X140445480Y-92307150D01*
X140455970Y-92329329D01*
X140464235Y-92352428D01*
X140470196Y-92376227D01*
X140473796Y-92400495D01*
X140475000Y-92424999D01*
X140475000Y-94575001D01*
X140473796Y-94599505D01*
X140470196Y-94623773D01*
X140464235Y-94647572D01*
X140455970Y-94670671D01*
X140445480Y-94692850D01*
X140432868Y-94713893D01*
X140418253Y-94733599D01*
X140401777Y-94751777D01*
X140383599Y-94768253D01*
X140363893Y-94782868D01*
X140342850Y-94795480D01*
X140320671Y-94805970D01*
X140297572Y-94814235D01*
X140273773Y-94820196D01*
X140249505Y-94823796D01*
X140225001Y-94825000D01*
X139374999Y-94825000D01*
X139350495Y-94823796D01*
X139326227Y-94820196D01*
X139302428Y-94814235D01*
X139279329Y-94805970D01*
X139257150Y-94795480D01*
X139236107Y-94782868D01*
X139216401Y-94768253D01*
X139198223Y-94751777D01*
X139181747Y-94733599D01*
X139167132Y-94713893D01*
X139154520Y-94692850D01*
X139144030Y-94670671D01*
X139135765Y-94647572D01*
X139129804Y-94623773D01*
X139126204Y-94599505D01*
X139125000Y-94575001D01*
X139125000Y-92424999D01*
X139126204Y-92400495D01*
X139129804Y-92376227D01*
X139135765Y-92352428D01*
X139144030Y-92329329D01*
X139154520Y-92307150D01*
X139167132Y-92286107D01*
X139181747Y-92266401D01*
X139198223Y-92248223D01*
X139216401Y-92231747D01*
X139236107Y-92217132D01*
X139257150Y-92204520D01*
X139279329Y-92194030D01*
X139302428Y-92185765D01*
X139326227Y-92179804D01*
X139350495Y-92176204D01*
X139374999Y-92175000D01*
X140225001Y-92175000D01*
X140249505Y-92176204D01*
X140249505Y-92176204D01*
G37*
D19*
X139800000Y-93500000D03*
D10*
G36*
X151499504Y-82626204D02*
G01*
X151523773Y-82629804D01*
X151547571Y-82635765D01*
X151570671Y-82644030D01*
X151592849Y-82654520D01*
X151613893Y-82667133D01*
X151633598Y-82681747D01*
X151651777Y-82698223D01*
X151668253Y-82716402D01*
X151682867Y-82736107D01*
X151695480Y-82757151D01*
X151705970Y-82779329D01*
X151714235Y-82802429D01*
X151720196Y-82826227D01*
X151723796Y-82850496D01*
X151725000Y-82875000D01*
X151725000Y-84125000D01*
X151723796Y-84149504D01*
X151720196Y-84173773D01*
X151714235Y-84197571D01*
X151705970Y-84220671D01*
X151695480Y-84242849D01*
X151682867Y-84263893D01*
X151668253Y-84283598D01*
X151651777Y-84301777D01*
X151633598Y-84318253D01*
X151613893Y-84332867D01*
X151592849Y-84345480D01*
X151570671Y-84355970D01*
X151547571Y-84364235D01*
X151523773Y-84370196D01*
X151499504Y-84373796D01*
X151475000Y-84375000D01*
X150725000Y-84375000D01*
X150700496Y-84373796D01*
X150676227Y-84370196D01*
X150652429Y-84364235D01*
X150629329Y-84355970D01*
X150607151Y-84345480D01*
X150586107Y-84332867D01*
X150566402Y-84318253D01*
X150548223Y-84301777D01*
X150531747Y-84283598D01*
X150517133Y-84263893D01*
X150504520Y-84242849D01*
X150494030Y-84220671D01*
X150485765Y-84197571D01*
X150479804Y-84173773D01*
X150476204Y-84149504D01*
X150475000Y-84125000D01*
X150475000Y-82875000D01*
X150476204Y-82850496D01*
X150479804Y-82826227D01*
X150485765Y-82802429D01*
X150494030Y-82779329D01*
X150504520Y-82757151D01*
X150517133Y-82736107D01*
X150531747Y-82716402D01*
X150548223Y-82698223D01*
X150566402Y-82681747D01*
X150586107Y-82667133D01*
X150607151Y-82654520D01*
X150629329Y-82644030D01*
X150652429Y-82635765D01*
X150676227Y-82629804D01*
X150700496Y-82626204D01*
X150725000Y-82625000D01*
X151475000Y-82625000D01*
X151499504Y-82626204D01*
X151499504Y-82626204D01*
G37*
D12*
X151100000Y-83500000D03*
D10*
G36*
X154299504Y-82626204D02*
G01*
X154323773Y-82629804D01*
X154347571Y-82635765D01*
X154370671Y-82644030D01*
X154392849Y-82654520D01*
X154413893Y-82667133D01*
X154433598Y-82681747D01*
X154451777Y-82698223D01*
X154468253Y-82716402D01*
X154482867Y-82736107D01*
X154495480Y-82757151D01*
X154505970Y-82779329D01*
X154514235Y-82802429D01*
X154520196Y-82826227D01*
X154523796Y-82850496D01*
X154525000Y-82875000D01*
X154525000Y-84125000D01*
X154523796Y-84149504D01*
X154520196Y-84173773D01*
X154514235Y-84197571D01*
X154505970Y-84220671D01*
X154495480Y-84242849D01*
X154482867Y-84263893D01*
X154468253Y-84283598D01*
X154451777Y-84301777D01*
X154433598Y-84318253D01*
X154413893Y-84332867D01*
X154392849Y-84345480D01*
X154370671Y-84355970D01*
X154347571Y-84364235D01*
X154323773Y-84370196D01*
X154299504Y-84373796D01*
X154275000Y-84375000D01*
X153525000Y-84375000D01*
X153500496Y-84373796D01*
X153476227Y-84370196D01*
X153452429Y-84364235D01*
X153429329Y-84355970D01*
X153407151Y-84345480D01*
X153386107Y-84332867D01*
X153366402Y-84318253D01*
X153348223Y-84301777D01*
X153331747Y-84283598D01*
X153317133Y-84263893D01*
X153304520Y-84242849D01*
X153294030Y-84220671D01*
X153285765Y-84197571D01*
X153279804Y-84173773D01*
X153276204Y-84149504D01*
X153275000Y-84125000D01*
X153275000Y-82875000D01*
X153276204Y-82850496D01*
X153279804Y-82826227D01*
X153285765Y-82802429D01*
X153294030Y-82779329D01*
X153304520Y-82757151D01*
X153317133Y-82736107D01*
X153331747Y-82716402D01*
X153348223Y-82698223D01*
X153366402Y-82681747D01*
X153386107Y-82667133D01*
X153407151Y-82654520D01*
X153429329Y-82644030D01*
X153452429Y-82635765D01*
X153476227Y-82629804D01*
X153500496Y-82626204D01*
X153525000Y-82625000D01*
X154275000Y-82625000D01*
X154299504Y-82626204D01*
X154299504Y-82626204D01*
G37*
D12*
X153900000Y-83500000D03*
D10*
G36*
X116549504Y-73626204D02*
G01*
X116573773Y-73629804D01*
X116597571Y-73635765D01*
X116620671Y-73644030D01*
X116642849Y-73654520D01*
X116663893Y-73667133D01*
X116683598Y-73681747D01*
X116701777Y-73698223D01*
X116718253Y-73716402D01*
X116732867Y-73736107D01*
X116745480Y-73757151D01*
X116755970Y-73779329D01*
X116764235Y-73802429D01*
X116770196Y-73826227D01*
X116773796Y-73850496D01*
X116775000Y-73875000D01*
X116775000Y-75125000D01*
X116773796Y-75149504D01*
X116770196Y-75173773D01*
X116764235Y-75197571D01*
X116755970Y-75220671D01*
X116745480Y-75242849D01*
X116732867Y-75263893D01*
X116718253Y-75283598D01*
X116701777Y-75301777D01*
X116683598Y-75318253D01*
X116663893Y-75332867D01*
X116642849Y-75345480D01*
X116620671Y-75355970D01*
X116597571Y-75364235D01*
X116573773Y-75370196D01*
X116549504Y-75373796D01*
X116525000Y-75375000D01*
X115775000Y-75375000D01*
X115750496Y-75373796D01*
X115726227Y-75370196D01*
X115702429Y-75364235D01*
X115679329Y-75355970D01*
X115657151Y-75345480D01*
X115636107Y-75332867D01*
X115616402Y-75318253D01*
X115598223Y-75301777D01*
X115581747Y-75283598D01*
X115567133Y-75263893D01*
X115554520Y-75242849D01*
X115544030Y-75220671D01*
X115535765Y-75197571D01*
X115529804Y-75173773D01*
X115526204Y-75149504D01*
X115525000Y-75125000D01*
X115525000Y-73875000D01*
X115526204Y-73850496D01*
X115529804Y-73826227D01*
X115535765Y-73802429D01*
X115544030Y-73779329D01*
X115554520Y-73757151D01*
X115567133Y-73736107D01*
X115581747Y-73716402D01*
X115598223Y-73698223D01*
X115616402Y-73681747D01*
X115636107Y-73667133D01*
X115657151Y-73654520D01*
X115679329Y-73644030D01*
X115702429Y-73635765D01*
X115726227Y-73629804D01*
X115750496Y-73626204D01*
X115775000Y-73625000D01*
X116525000Y-73625000D01*
X116549504Y-73626204D01*
X116549504Y-73626204D01*
G37*
D12*
X116150000Y-74500000D03*
D10*
G36*
X113749504Y-73626204D02*
G01*
X113773773Y-73629804D01*
X113797571Y-73635765D01*
X113820671Y-73644030D01*
X113842849Y-73654520D01*
X113863893Y-73667133D01*
X113883598Y-73681747D01*
X113901777Y-73698223D01*
X113918253Y-73716402D01*
X113932867Y-73736107D01*
X113945480Y-73757151D01*
X113955970Y-73779329D01*
X113964235Y-73802429D01*
X113970196Y-73826227D01*
X113973796Y-73850496D01*
X113975000Y-73875000D01*
X113975000Y-75125000D01*
X113973796Y-75149504D01*
X113970196Y-75173773D01*
X113964235Y-75197571D01*
X113955970Y-75220671D01*
X113945480Y-75242849D01*
X113932867Y-75263893D01*
X113918253Y-75283598D01*
X113901777Y-75301777D01*
X113883598Y-75318253D01*
X113863893Y-75332867D01*
X113842849Y-75345480D01*
X113820671Y-75355970D01*
X113797571Y-75364235D01*
X113773773Y-75370196D01*
X113749504Y-75373796D01*
X113725000Y-75375000D01*
X112975000Y-75375000D01*
X112950496Y-75373796D01*
X112926227Y-75370196D01*
X112902429Y-75364235D01*
X112879329Y-75355970D01*
X112857151Y-75345480D01*
X112836107Y-75332867D01*
X112816402Y-75318253D01*
X112798223Y-75301777D01*
X112781747Y-75283598D01*
X112767133Y-75263893D01*
X112754520Y-75242849D01*
X112744030Y-75220671D01*
X112735765Y-75197571D01*
X112729804Y-75173773D01*
X112726204Y-75149504D01*
X112725000Y-75125000D01*
X112725000Y-73875000D01*
X112726204Y-73850496D01*
X112729804Y-73826227D01*
X112735765Y-73802429D01*
X112744030Y-73779329D01*
X112754520Y-73757151D01*
X112767133Y-73736107D01*
X112781747Y-73716402D01*
X112798223Y-73698223D01*
X112816402Y-73681747D01*
X112836107Y-73667133D01*
X112857151Y-73654520D01*
X112879329Y-73644030D01*
X112902429Y-73635765D01*
X112926227Y-73629804D01*
X112950496Y-73626204D01*
X112975000Y-73625000D01*
X113725000Y-73625000D01*
X113749504Y-73626204D01*
X113749504Y-73626204D01*
G37*
D12*
X113350000Y-74500000D03*
D10*
G36*
X151899504Y-80176204D02*
G01*
X151923773Y-80179804D01*
X151947571Y-80185765D01*
X151970671Y-80194030D01*
X151992849Y-80204520D01*
X152013893Y-80217133D01*
X152033598Y-80231747D01*
X152051777Y-80248223D01*
X152068253Y-80266402D01*
X152082867Y-80286107D01*
X152095480Y-80307151D01*
X152105970Y-80329329D01*
X152114235Y-80352429D01*
X152120196Y-80376227D01*
X152123796Y-80400496D01*
X152125000Y-80425000D01*
X152125000Y-81175000D01*
X152123796Y-81199504D01*
X152120196Y-81223773D01*
X152114235Y-81247571D01*
X152105970Y-81270671D01*
X152095480Y-81292849D01*
X152082867Y-81313893D01*
X152068253Y-81333598D01*
X152051777Y-81351777D01*
X152033598Y-81368253D01*
X152013893Y-81382867D01*
X151992849Y-81395480D01*
X151970671Y-81405970D01*
X151947571Y-81414235D01*
X151923773Y-81420196D01*
X151899504Y-81423796D01*
X151875000Y-81425000D01*
X150625000Y-81425000D01*
X150600496Y-81423796D01*
X150576227Y-81420196D01*
X150552429Y-81414235D01*
X150529329Y-81405970D01*
X150507151Y-81395480D01*
X150486107Y-81382867D01*
X150466402Y-81368253D01*
X150448223Y-81351777D01*
X150431747Y-81333598D01*
X150417133Y-81313893D01*
X150404520Y-81292849D01*
X150394030Y-81270671D01*
X150385765Y-81247571D01*
X150379804Y-81223773D01*
X150376204Y-81199504D01*
X150375000Y-81175000D01*
X150375000Y-80425000D01*
X150376204Y-80400496D01*
X150379804Y-80376227D01*
X150385765Y-80352429D01*
X150394030Y-80329329D01*
X150404520Y-80307151D01*
X150417133Y-80286107D01*
X150431747Y-80266402D01*
X150448223Y-80248223D01*
X150466402Y-80231747D01*
X150486107Y-80217133D01*
X150507151Y-80204520D01*
X150529329Y-80194030D01*
X150552429Y-80185765D01*
X150576227Y-80179804D01*
X150600496Y-80176204D01*
X150625000Y-80175000D01*
X151875000Y-80175000D01*
X151899504Y-80176204D01*
X151899504Y-80176204D01*
G37*
D12*
X151250000Y-80800000D03*
D10*
G36*
X151899504Y-77376204D02*
G01*
X151923773Y-77379804D01*
X151947571Y-77385765D01*
X151970671Y-77394030D01*
X151992849Y-77404520D01*
X152013893Y-77417133D01*
X152033598Y-77431747D01*
X152051777Y-77448223D01*
X152068253Y-77466402D01*
X152082867Y-77486107D01*
X152095480Y-77507151D01*
X152105970Y-77529329D01*
X152114235Y-77552429D01*
X152120196Y-77576227D01*
X152123796Y-77600496D01*
X152125000Y-77625000D01*
X152125000Y-78375000D01*
X152123796Y-78399504D01*
X152120196Y-78423773D01*
X152114235Y-78447571D01*
X152105970Y-78470671D01*
X152095480Y-78492849D01*
X152082867Y-78513893D01*
X152068253Y-78533598D01*
X152051777Y-78551777D01*
X152033598Y-78568253D01*
X152013893Y-78582867D01*
X151992849Y-78595480D01*
X151970671Y-78605970D01*
X151947571Y-78614235D01*
X151923773Y-78620196D01*
X151899504Y-78623796D01*
X151875000Y-78625000D01*
X150625000Y-78625000D01*
X150600496Y-78623796D01*
X150576227Y-78620196D01*
X150552429Y-78614235D01*
X150529329Y-78605970D01*
X150507151Y-78595480D01*
X150486107Y-78582867D01*
X150466402Y-78568253D01*
X150448223Y-78551777D01*
X150431747Y-78533598D01*
X150417133Y-78513893D01*
X150404520Y-78492849D01*
X150394030Y-78470671D01*
X150385765Y-78447571D01*
X150379804Y-78423773D01*
X150376204Y-78399504D01*
X150375000Y-78375000D01*
X150375000Y-77625000D01*
X150376204Y-77600496D01*
X150379804Y-77576227D01*
X150385765Y-77552429D01*
X150394030Y-77529329D01*
X150404520Y-77507151D01*
X150417133Y-77486107D01*
X150431747Y-77466402D01*
X150448223Y-77448223D01*
X150466402Y-77431747D01*
X150486107Y-77417133D01*
X150507151Y-77404520D01*
X150529329Y-77394030D01*
X150552429Y-77385765D01*
X150576227Y-77379804D01*
X150600496Y-77376204D01*
X150625000Y-77375000D01*
X151875000Y-77375000D01*
X151899504Y-77376204D01*
X151899504Y-77376204D01*
G37*
D12*
X151250000Y-78000000D03*
D10*
G36*
X116649504Y-76226204D02*
G01*
X116673773Y-76229804D01*
X116697571Y-76235765D01*
X116720671Y-76244030D01*
X116742849Y-76254520D01*
X116763893Y-76267133D01*
X116783598Y-76281747D01*
X116801777Y-76298223D01*
X116818253Y-76316402D01*
X116832867Y-76336107D01*
X116845480Y-76357151D01*
X116855970Y-76379329D01*
X116864235Y-76402429D01*
X116870196Y-76426227D01*
X116873796Y-76450496D01*
X116875000Y-76475000D01*
X116875000Y-77225000D01*
X116873796Y-77249504D01*
X116870196Y-77273773D01*
X116864235Y-77297571D01*
X116855970Y-77320671D01*
X116845480Y-77342849D01*
X116832867Y-77363893D01*
X116818253Y-77383598D01*
X116801777Y-77401777D01*
X116783598Y-77418253D01*
X116763893Y-77432867D01*
X116742849Y-77445480D01*
X116720671Y-77455970D01*
X116697571Y-77464235D01*
X116673773Y-77470196D01*
X116649504Y-77473796D01*
X116625000Y-77475000D01*
X115375000Y-77475000D01*
X115350496Y-77473796D01*
X115326227Y-77470196D01*
X115302429Y-77464235D01*
X115279329Y-77455970D01*
X115257151Y-77445480D01*
X115236107Y-77432867D01*
X115216402Y-77418253D01*
X115198223Y-77401777D01*
X115181747Y-77383598D01*
X115167133Y-77363893D01*
X115154520Y-77342849D01*
X115144030Y-77320671D01*
X115135765Y-77297571D01*
X115129804Y-77273773D01*
X115126204Y-77249504D01*
X115125000Y-77225000D01*
X115125000Y-76475000D01*
X115126204Y-76450496D01*
X115129804Y-76426227D01*
X115135765Y-76402429D01*
X115144030Y-76379329D01*
X115154520Y-76357151D01*
X115167133Y-76336107D01*
X115181747Y-76316402D01*
X115198223Y-76298223D01*
X115216402Y-76281747D01*
X115236107Y-76267133D01*
X115257151Y-76254520D01*
X115279329Y-76244030D01*
X115302429Y-76235765D01*
X115326227Y-76229804D01*
X115350496Y-76226204D01*
X115375000Y-76225000D01*
X116625000Y-76225000D01*
X116649504Y-76226204D01*
X116649504Y-76226204D01*
G37*
D12*
X116000000Y-76850000D03*
D10*
G36*
X116649504Y-79026204D02*
G01*
X116673773Y-79029804D01*
X116697571Y-79035765D01*
X116720671Y-79044030D01*
X116742849Y-79054520D01*
X116763893Y-79067133D01*
X116783598Y-79081747D01*
X116801777Y-79098223D01*
X116818253Y-79116402D01*
X116832867Y-79136107D01*
X116845480Y-79157151D01*
X116855970Y-79179329D01*
X116864235Y-79202429D01*
X116870196Y-79226227D01*
X116873796Y-79250496D01*
X116875000Y-79275000D01*
X116875000Y-80025000D01*
X116873796Y-80049504D01*
X116870196Y-80073773D01*
X116864235Y-80097571D01*
X116855970Y-80120671D01*
X116845480Y-80142849D01*
X116832867Y-80163893D01*
X116818253Y-80183598D01*
X116801777Y-80201777D01*
X116783598Y-80218253D01*
X116763893Y-80232867D01*
X116742849Y-80245480D01*
X116720671Y-80255970D01*
X116697571Y-80264235D01*
X116673773Y-80270196D01*
X116649504Y-80273796D01*
X116625000Y-80275000D01*
X115375000Y-80275000D01*
X115350496Y-80273796D01*
X115326227Y-80270196D01*
X115302429Y-80264235D01*
X115279329Y-80255970D01*
X115257151Y-80245480D01*
X115236107Y-80232867D01*
X115216402Y-80218253D01*
X115198223Y-80201777D01*
X115181747Y-80183598D01*
X115167133Y-80163893D01*
X115154520Y-80142849D01*
X115144030Y-80120671D01*
X115135765Y-80097571D01*
X115129804Y-80073773D01*
X115126204Y-80049504D01*
X115125000Y-80025000D01*
X115125000Y-79275000D01*
X115126204Y-79250496D01*
X115129804Y-79226227D01*
X115135765Y-79202429D01*
X115144030Y-79179329D01*
X115154520Y-79157151D01*
X115167133Y-79136107D01*
X115181747Y-79116402D01*
X115198223Y-79098223D01*
X115216402Y-79081747D01*
X115236107Y-79067133D01*
X115257151Y-79054520D01*
X115279329Y-79044030D01*
X115302429Y-79035765D01*
X115326227Y-79029804D01*
X115350496Y-79026204D01*
X115375000Y-79025000D01*
X116625000Y-79025000D01*
X116649504Y-79026204D01*
X116649504Y-79026204D01*
G37*
D12*
X116000000Y-79650000D03*
D20*
X127486000Y-91236000D03*
X125586000Y-91236000D03*
X126536000Y-89236000D03*
D13*
X164398000Y-64582000D03*
X166398000Y-65532000D03*
X166398000Y-63632000D03*
D10*
G36*
X122359504Y-89996204D02*
G01*
X122383773Y-89999804D01*
X122407571Y-90005765D01*
X122430671Y-90014030D01*
X122452849Y-90024520D01*
X122473893Y-90037133D01*
X122493598Y-90051747D01*
X122511777Y-90068223D01*
X122528253Y-90086402D01*
X122542867Y-90106107D01*
X122555480Y-90127151D01*
X122565970Y-90149329D01*
X122574235Y-90172429D01*
X122580196Y-90196227D01*
X122583796Y-90220496D01*
X122585000Y-90245000D01*
X122585000Y-90995000D01*
X122583796Y-91019504D01*
X122580196Y-91043773D01*
X122574235Y-91067571D01*
X122565970Y-91090671D01*
X122555480Y-91112849D01*
X122542867Y-91133893D01*
X122528253Y-91153598D01*
X122511777Y-91171777D01*
X122493598Y-91188253D01*
X122473893Y-91202867D01*
X122452849Y-91215480D01*
X122430671Y-91225970D01*
X122407571Y-91234235D01*
X122383773Y-91240196D01*
X122359504Y-91243796D01*
X122335000Y-91245000D01*
X121085000Y-91245000D01*
X121060496Y-91243796D01*
X121036227Y-91240196D01*
X121012429Y-91234235D01*
X120989329Y-91225970D01*
X120967151Y-91215480D01*
X120946107Y-91202867D01*
X120926402Y-91188253D01*
X120908223Y-91171777D01*
X120891747Y-91153598D01*
X120877133Y-91133893D01*
X120864520Y-91112849D01*
X120854030Y-91090671D01*
X120845765Y-91067571D01*
X120839804Y-91043773D01*
X120836204Y-91019504D01*
X120835000Y-90995000D01*
X120835000Y-90245000D01*
X120836204Y-90220496D01*
X120839804Y-90196227D01*
X120845765Y-90172429D01*
X120854030Y-90149329D01*
X120864520Y-90127151D01*
X120877133Y-90106107D01*
X120891747Y-90086402D01*
X120908223Y-90068223D01*
X120926402Y-90051747D01*
X120946107Y-90037133D01*
X120967151Y-90024520D01*
X120989329Y-90014030D01*
X121012429Y-90005765D01*
X121036227Y-89999804D01*
X121060496Y-89996204D01*
X121085000Y-89995000D01*
X122335000Y-89995000D01*
X122359504Y-89996204D01*
X122359504Y-89996204D01*
G37*
D12*
X121710000Y-90620000D03*
D10*
G36*
X122359504Y-87196204D02*
G01*
X122383773Y-87199804D01*
X122407571Y-87205765D01*
X122430671Y-87214030D01*
X122452849Y-87224520D01*
X122473893Y-87237133D01*
X122493598Y-87251747D01*
X122511777Y-87268223D01*
X122528253Y-87286402D01*
X122542867Y-87306107D01*
X122555480Y-87327151D01*
X122565970Y-87349329D01*
X122574235Y-87372429D01*
X122580196Y-87396227D01*
X122583796Y-87420496D01*
X122585000Y-87445000D01*
X122585000Y-88195000D01*
X122583796Y-88219504D01*
X122580196Y-88243773D01*
X122574235Y-88267571D01*
X122565970Y-88290671D01*
X122555480Y-88312849D01*
X122542867Y-88333893D01*
X122528253Y-88353598D01*
X122511777Y-88371777D01*
X122493598Y-88388253D01*
X122473893Y-88402867D01*
X122452849Y-88415480D01*
X122430671Y-88425970D01*
X122407571Y-88434235D01*
X122383773Y-88440196D01*
X122359504Y-88443796D01*
X122335000Y-88445000D01*
X121085000Y-88445000D01*
X121060496Y-88443796D01*
X121036227Y-88440196D01*
X121012429Y-88434235D01*
X120989329Y-88425970D01*
X120967151Y-88415480D01*
X120946107Y-88402867D01*
X120926402Y-88388253D01*
X120908223Y-88371777D01*
X120891747Y-88353598D01*
X120877133Y-88333893D01*
X120864520Y-88312849D01*
X120854030Y-88290671D01*
X120845765Y-88267571D01*
X120839804Y-88243773D01*
X120836204Y-88219504D01*
X120835000Y-88195000D01*
X120835000Y-87445000D01*
X120836204Y-87420496D01*
X120839804Y-87396227D01*
X120845765Y-87372429D01*
X120854030Y-87349329D01*
X120864520Y-87327151D01*
X120877133Y-87306107D01*
X120891747Y-87286402D01*
X120908223Y-87268223D01*
X120926402Y-87251747D01*
X120946107Y-87237133D01*
X120967151Y-87224520D01*
X120989329Y-87214030D01*
X121012429Y-87205765D01*
X121036227Y-87199804D01*
X121060496Y-87196204D01*
X121085000Y-87195000D01*
X122335000Y-87195000D01*
X122359504Y-87196204D01*
X122359504Y-87196204D01*
G37*
D12*
X121710000Y-87820000D03*
D10*
G36*
X162491504Y-61796204D02*
G01*
X162515773Y-61799804D01*
X162539571Y-61805765D01*
X162562671Y-61814030D01*
X162584849Y-61824520D01*
X162605893Y-61837133D01*
X162625598Y-61851747D01*
X162643777Y-61868223D01*
X162660253Y-61886402D01*
X162674867Y-61906107D01*
X162687480Y-61927151D01*
X162697970Y-61949329D01*
X162706235Y-61972429D01*
X162712196Y-61996227D01*
X162715796Y-62020496D01*
X162717000Y-62045000D01*
X162717000Y-62795000D01*
X162715796Y-62819504D01*
X162712196Y-62843773D01*
X162706235Y-62867571D01*
X162697970Y-62890671D01*
X162687480Y-62912849D01*
X162674867Y-62933893D01*
X162660253Y-62953598D01*
X162643777Y-62971777D01*
X162625598Y-62988253D01*
X162605893Y-63002867D01*
X162584849Y-63015480D01*
X162562671Y-63025970D01*
X162539571Y-63034235D01*
X162515773Y-63040196D01*
X162491504Y-63043796D01*
X162467000Y-63045000D01*
X161217000Y-63045000D01*
X161192496Y-63043796D01*
X161168227Y-63040196D01*
X161144429Y-63034235D01*
X161121329Y-63025970D01*
X161099151Y-63015480D01*
X161078107Y-63002867D01*
X161058402Y-62988253D01*
X161040223Y-62971777D01*
X161023747Y-62953598D01*
X161009133Y-62933893D01*
X160996520Y-62912849D01*
X160986030Y-62890671D01*
X160977765Y-62867571D01*
X160971804Y-62843773D01*
X160968204Y-62819504D01*
X160967000Y-62795000D01*
X160967000Y-62045000D01*
X160968204Y-62020496D01*
X160971804Y-61996227D01*
X160977765Y-61972429D01*
X160986030Y-61949329D01*
X160996520Y-61927151D01*
X161009133Y-61906107D01*
X161023747Y-61886402D01*
X161040223Y-61868223D01*
X161058402Y-61851747D01*
X161078107Y-61837133D01*
X161099151Y-61824520D01*
X161121329Y-61814030D01*
X161144429Y-61805765D01*
X161168227Y-61799804D01*
X161192496Y-61796204D01*
X161217000Y-61795000D01*
X162467000Y-61795000D01*
X162491504Y-61796204D01*
X162491504Y-61796204D01*
G37*
D12*
X161842000Y-62420000D03*
D10*
G36*
X162491504Y-64596204D02*
G01*
X162515773Y-64599804D01*
X162539571Y-64605765D01*
X162562671Y-64614030D01*
X162584849Y-64624520D01*
X162605893Y-64637133D01*
X162625598Y-64651747D01*
X162643777Y-64668223D01*
X162660253Y-64686402D01*
X162674867Y-64706107D01*
X162687480Y-64727151D01*
X162697970Y-64749329D01*
X162706235Y-64772429D01*
X162712196Y-64796227D01*
X162715796Y-64820496D01*
X162717000Y-64845000D01*
X162717000Y-65595000D01*
X162715796Y-65619504D01*
X162712196Y-65643773D01*
X162706235Y-65667571D01*
X162697970Y-65690671D01*
X162687480Y-65712849D01*
X162674867Y-65733893D01*
X162660253Y-65753598D01*
X162643777Y-65771777D01*
X162625598Y-65788253D01*
X162605893Y-65802867D01*
X162584849Y-65815480D01*
X162562671Y-65825970D01*
X162539571Y-65834235D01*
X162515773Y-65840196D01*
X162491504Y-65843796D01*
X162467000Y-65845000D01*
X161217000Y-65845000D01*
X161192496Y-65843796D01*
X161168227Y-65840196D01*
X161144429Y-65834235D01*
X161121329Y-65825970D01*
X161099151Y-65815480D01*
X161078107Y-65802867D01*
X161058402Y-65788253D01*
X161040223Y-65771777D01*
X161023747Y-65753598D01*
X161009133Y-65733893D01*
X160996520Y-65712849D01*
X160986030Y-65690671D01*
X160977765Y-65667571D01*
X160971804Y-65643773D01*
X160968204Y-65619504D01*
X160967000Y-65595000D01*
X160967000Y-64845000D01*
X160968204Y-64820496D01*
X160971804Y-64796227D01*
X160977765Y-64772429D01*
X160986030Y-64749329D01*
X160996520Y-64727151D01*
X161009133Y-64706107D01*
X161023747Y-64686402D01*
X161040223Y-64668223D01*
X161058402Y-64651747D01*
X161078107Y-64637133D01*
X161099151Y-64624520D01*
X161121329Y-64614030D01*
X161144429Y-64605765D01*
X161168227Y-64599804D01*
X161192496Y-64596204D01*
X161217000Y-64595000D01*
X162467000Y-64595000D01*
X162491504Y-64596204D01*
X162491504Y-64596204D01*
G37*
D12*
X161842000Y-65220000D03*
M02*
