G04 #@! TF.GenerationSoftware,KiCad,Pcbnew,(5.1.0)-1*
G04 #@! TF.CreationDate,2019-06-07T15:42:58+02:00*
G04 #@! TF.ProjectId,DRS,4452532e-6b69-4636-9164-5f7063625858,rev?*
G04 #@! TF.SameCoordinates,Original*
G04 #@! TF.FileFunction,Paste,Top*
G04 #@! TF.FilePolarity,Positive*
%FSLAX46Y46*%
G04 Gerber Fmt 4.6, Leading zero omitted, Abs format (unit mm)*
G04 Created by KiCad (PCBNEW (5.1.0)-1) date 2019-06-07 15:42:58*
%MOMM*%
%LPD*%
G04 APERTURE LIST*
%ADD10C,0.100000*%
%ADD11R,1.300000X1.550000*%
%ADD12C,1.250000*%
%ADD13R,2.500000X2.300000*%
%ADD14R,2.300000X2.500000*%
%ADD15R,1.500000X0.550000*%
%ADD16R,0.550000X1.500000*%
%ADD17R,2.000000X3.800000*%
%ADD18R,2.000000X1.500000*%
%ADD19R,4.500000X2.000000*%
%ADD20C,0.875000*%
G04 APERTURE END LIST*
D10*
X94000000Y-103500000D02*
X176500000Y-103500000D01*
X94000000Y-51000000D02*
X94000000Y-103500000D01*
X176500000Y-51000000D02*
X94000000Y-51000000D01*
X176500000Y-103500000D02*
X176500000Y-51000000D01*
D11*
X150700000Y-80920000D03*
X146200000Y-80920000D03*
X146200000Y-88880000D03*
X150700000Y-88880000D03*
D10*
G36*
X136399504Y-96426204D02*
G01*
X136423773Y-96429804D01*
X136447571Y-96435765D01*
X136470671Y-96444030D01*
X136492849Y-96454520D01*
X136513893Y-96467133D01*
X136533598Y-96481747D01*
X136551777Y-96498223D01*
X136568253Y-96516402D01*
X136582867Y-96536107D01*
X136595480Y-96557151D01*
X136605970Y-96579329D01*
X136614235Y-96602429D01*
X136620196Y-96626227D01*
X136623796Y-96650496D01*
X136625000Y-96675000D01*
X136625000Y-97925000D01*
X136623796Y-97949504D01*
X136620196Y-97973773D01*
X136614235Y-97997571D01*
X136605970Y-98020671D01*
X136595480Y-98042849D01*
X136582867Y-98063893D01*
X136568253Y-98083598D01*
X136551777Y-98101777D01*
X136533598Y-98118253D01*
X136513893Y-98132867D01*
X136492849Y-98145480D01*
X136470671Y-98155970D01*
X136447571Y-98164235D01*
X136423773Y-98170196D01*
X136399504Y-98173796D01*
X136375000Y-98175000D01*
X135625000Y-98175000D01*
X135600496Y-98173796D01*
X135576227Y-98170196D01*
X135552429Y-98164235D01*
X135529329Y-98155970D01*
X135507151Y-98145480D01*
X135486107Y-98132867D01*
X135466402Y-98118253D01*
X135448223Y-98101777D01*
X135431747Y-98083598D01*
X135417133Y-98063893D01*
X135404520Y-98042849D01*
X135394030Y-98020671D01*
X135385765Y-97997571D01*
X135379804Y-97973773D01*
X135376204Y-97949504D01*
X135375000Y-97925000D01*
X135375000Y-96675000D01*
X135376204Y-96650496D01*
X135379804Y-96626227D01*
X135385765Y-96602429D01*
X135394030Y-96579329D01*
X135404520Y-96557151D01*
X135417133Y-96536107D01*
X135431747Y-96516402D01*
X135448223Y-96498223D01*
X135466402Y-96481747D01*
X135486107Y-96467133D01*
X135507151Y-96454520D01*
X135529329Y-96444030D01*
X135552429Y-96435765D01*
X135576227Y-96429804D01*
X135600496Y-96426204D01*
X135625000Y-96425000D01*
X136375000Y-96425000D01*
X136399504Y-96426204D01*
X136399504Y-96426204D01*
G37*
D12*
X136000000Y-97300000D03*
D10*
G36*
X133599504Y-96426204D02*
G01*
X133623773Y-96429804D01*
X133647571Y-96435765D01*
X133670671Y-96444030D01*
X133692849Y-96454520D01*
X133713893Y-96467133D01*
X133733598Y-96481747D01*
X133751777Y-96498223D01*
X133768253Y-96516402D01*
X133782867Y-96536107D01*
X133795480Y-96557151D01*
X133805970Y-96579329D01*
X133814235Y-96602429D01*
X133820196Y-96626227D01*
X133823796Y-96650496D01*
X133825000Y-96675000D01*
X133825000Y-97925000D01*
X133823796Y-97949504D01*
X133820196Y-97973773D01*
X133814235Y-97997571D01*
X133805970Y-98020671D01*
X133795480Y-98042849D01*
X133782867Y-98063893D01*
X133768253Y-98083598D01*
X133751777Y-98101777D01*
X133733598Y-98118253D01*
X133713893Y-98132867D01*
X133692849Y-98145480D01*
X133670671Y-98155970D01*
X133647571Y-98164235D01*
X133623773Y-98170196D01*
X133599504Y-98173796D01*
X133575000Y-98175000D01*
X132825000Y-98175000D01*
X132800496Y-98173796D01*
X132776227Y-98170196D01*
X132752429Y-98164235D01*
X132729329Y-98155970D01*
X132707151Y-98145480D01*
X132686107Y-98132867D01*
X132666402Y-98118253D01*
X132648223Y-98101777D01*
X132631747Y-98083598D01*
X132617133Y-98063893D01*
X132604520Y-98042849D01*
X132594030Y-98020671D01*
X132585765Y-97997571D01*
X132579804Y-97973773D01*
X132576204Y-97949504D01*
X132575000Y-97925000D01*
X132575000Y-96675000D01*
X132576204Y-96650496D01*
X132579804Y-96626227D01*
X132585765Y-96602429D01*
X132594030Y-96579329D01*
X132604520Y-96557151D01*
X132617133Y-96536107D01*
X132631747Y-96516402D01*
X132648223Y-96498223D01*
X132666402Y-96481747D01*
X132686107Y-96467133D01*
X132707151Y-96454520D01*
X132729329Y-96444030D01*
X132752429Y-96435765D01*
X132776227Y-96429804D01*
X132800496Y-96426204D01*
X132825000Y-96425000D01*
X133575000Y-96425000D01*
X133599504Y-96426204D01*
X133599504Y-96426204D01*
G37*
D12*
X133200000Y-97300000D03*
D10*
G36*
X130799504Y-96426204D02*
G01*
X130823773Y-96429804D01*
X130847571Y-96435765D01*
X130870671Y-96444030D01*
X130892849Y-96454520D01*
X130913893Y-96467133D01*
X130933598Y-96481747D01*
X130951777Y-96498223D01*
X130968253Y-96516402D01*
X130982867Y-96536107D01*
X130995480Y-96557151D01*
X131005970Y-96579329D01*
X131014235Y-96602429D01*
X131020196Y-96626227D01*
X131023796Y-96650496D01*
X131025000Y-96675000D01*
X131025000Y-97925000D01*
X131023796Y-97949504D01*
X131020196Y-97973773D01*
X131014235Y-97997571D01*
X131005970Y-98020671D01*
X130995480Y-98042849D01*
X130982867Y-98063893D01*
X130968253Y-98083598D01*
X130951777Y-98101777D01*
X130933598Y-98118253D01*
X130913893Y-98132867D01*
X130892849Y-98145480D01*
X130870671Y-98155970D01*
X130847571Y-98164235D01*
X130823773Y-98170196D01*
X130799504Y-98173796D01*
X130775000Y-98175000D01*
X130025000Y-98175000D01*
X130000496Y-98173796D01*
X129976227Y-98170196D01*
X129952429Y-98164235D01*
X129929329Y-98155970D01*
X129907151Y-98145480D01*
X129886107Y-98132867D01*
X129866402Y-98118253D01*
X129848223Y-98101777D01*
X129831747Y-98083598D01*
X129817133Y-98063893D01*
X129804520Y-98042849D01*
X129794030Y-98020671D01*
X129785765Y-97997571D01*
X129779804Y-97973773D01*
X129776204Y-97949504D01*
X129775000Y-97925000D01*
X129775000Y-96675000D01*
X129776204Y-96650496D01*
X129779804Y-96626227D01*
X129785765Y-96602429D01*
X129794030Y-96579329D01*
X129804520Y-96557151D01*
X129817133Y-96536107D01*
X129831747Y-96516402D01*
X129848223Y-96498223D01*
X129866402Y-96481747D01*
X129886107Y-96467133D01*
X129907151Y-96454520D01*
X129929329Y-96444030D01*
X129952429Y-96435765D01*
X129976227Y-96429804D01*
X130000496Y-96426204D01*
X130025000Y-96425000D01*
X130775000Y-96425000D01*
X130799504Y-96426204D01*
X130799504Y-96426204D01*
G37*
D12*
X130400000Y-97300000D03*
D10*
G36*
X127999504Y-96426204D02*
G01*
X128023773Y-96429804D01*
X128047571Y-96435765D01*
X128070671Y-96444030D01*
X128092849Y-96454520D01*
X128113893Y-96467133D01*
X128133598Y-96481747D01*
X128151777Y-96498223D01*
X128168253Y-96516402D01*
X128182867Y-96536107D01*
X128195480Y-96557151D01*
X128205970Y-96579329D01*
X128214235Y-96602429D01*
X128220196Y-96626227D01*
X128223796Y-96650496D01*
X128225000Y-96675000D01*
X128225000Y-97925000D01*
X128223796Y-97949504D01*
X128220196Y-97973773D01*
X128214235Y-97997571D01*
X128205970Y-98020671D01*
X128195480Y-98042849D01*
X128182867Y-98063893D01*
X128168253Y-98083598D01*
X128151777Y-98101777D01*
X128133598Y-98118253D01*
X128113893Y-98132867D01*
X128092849Y-98145480D01*
X128070671Y-98155970D01*
X128047571Y-98164235D01*
X128023773Y-98170196D01*
X127999504Y-98173796D01*
X127975000Y-98175000D01*
X127225000Y-98175000D01*
X127200496Y-98173796D01*
X127176227Y-98170196D01*
X127152429Y-98164235D01*
X127129329Y-98155970D01*
X127107151Y-98145480D01*
X127086107Y-98132867D01*
X127066402Y-98118253D01*
X127048223Y-98101777D01*
X127031747Y-98083598D01*
X127017133Y-98063893D01*
X127004520Y-98042849D01*
X126994030Y-98020671D01*
X126985765Y-97997571D01*
X126979804Y-97973773D01*
X126976204Y-97949504D01*
X126975000Y-97925000D01*
X126975000Y-96675000D01*
X126976204Y-96650496D01*
X126979804Y-96626227D01*
X126985765Y-96602429D01*
X126994030Y-96579329D01*
X127004520Y-96557151D01*
X127017133Y-96536107D01*
X127031747Y-96516402D01*
X127048223Y-96498223D01*
X127066402Y-96481747D01*
X127086107Y-96467133D01*
X127107151Y-96454520D01*
X127129329Y-96444030D01*
X127152429Y-96435765D01*
X127176227Y-96429804D01*
X127200496Y-96426204D01*
X127225000Y-96425000D01*
X127975000Y-96425000D01*
X127999504Y-96426204D01*
X127999504Y-96426204D01*
G37*
D12*
X127600000Y-97300000D03*
D10*
G36*
X117999504Y-96226204D02*
G01*
X118023773Y-96229804D01*
X118047571Y-96235765D01*
X118070671Y-96244030D01*
X118092849Y-96254520D01*
X118113893Y-96267133D01*
X118133598Y-96281747D01*
X118151777Y-96298223D01*
X118168253Y-96316402D01*
X118182867Y-96336107D01*
X118195480Y-96357151D01*
X118205970Y-96379329D01*
X118214235Y-96402429D01*
X118220196Y-96426227D01*
X118223796Y-96450496D01*
X118225000Y-96475000D01*
X118225000Y-97725000D01*
X118223796Y-97749504D01*
X118220196Y-97773773D01*
X118214235Y-97797571D01*
X118205970Y-97820671D01*
X118195480Y-97842849D01*
X118182867Y-97863893D01*
X118168253Y-97883598D01*
X118151777Y-97901777D01*
X118133598Y-97918253D01*
X118113893Y-97932867D01*
X118092849Y-97945480D01*
X118070671Y-97955970D01*
X118047571Y-97964235D01*
X118023773Y-97970196D01*
X117999504Y-97973796D01*
X117975000Y-97975000D01*
X117225000Y-97975000D01*
X117200496Y-97973796D01*
X117176227Y-97970196D01*
X117152429Y-97964235D01*
X117129329Y-97955970D01*
X117107151Y-97945480D01*
X117086107Y-97932867D01*
X117066402Y-97918253D01*
X117048223Y-97901777D01*
X117031747Y-97883598D01*
X117017133Y-97863893D01*
X117004520Y-97842849D01*
X116994030Y-97820671D01*
X116985765Y-97797571D01*
X116979804Y-97773773D01*
X116976204Y-97749504D01*
X116975000Y-97725000D01*
X116975000Y-96475000D01*
X116976204Y-96450496D01*
X116979804Y-96426227D01*
X116985765Y-96402429D01*
X116994030Y-96379329D01*
X117004520Y-96357151D01*
X117017133Y-96336107D01*
X117031747Y-96316402D01*
X117048223Y-96298223D01*
X117066402Y-96281747D01*
X117086107Y-96267133D01*
X117107151Y-96254520D01*
X117129329Y-96244030D01*
X117152429Y-96235765D01*
X117176227Y-96229804D01*
X117200496Y-96226204D01*
X117225000Y-96225000D01*
X117975000Y-96225000D01*
X117999504Y-96226204D01*
X117999504Y-96226204D01*
G37*
D12*
X117600000Y-97100000D03*
D10*
G36*
X115199504Y-96226204D02*
G01*
X115223773Y-96229804D01*
X115247571Y-96235765D01*
X115270671Y-96244030D01*
X115292849Y-96254520D01*
X115313893Y-96267133D01*
X115333598Y-96281747D01*
X115351777Y-96298223D01*
X115368253Y-96316402D01*
X115382867Y-96336107D01*
X115395480Y-96357151D01*
X115405970Y-96379329D01*
X115414235Y-96402429D01*
X115420196Y-96426227D01*
X115423796Y-96450496D01*
X115425000Y-96475000D01*
X115425000Y-97725000D01*
X115423796Y-97749504D01*
X115420196Y-97773773D01*
X115414235Y-97797571D01*
X115405970Y-97820671D01*
X115395480Y-97842849D01*
X115382867Y-97863893D01*
X115368253Y-97883598D01*
X115351777Y-97901777D01*
X115333598Y-97918253D01*
X115313893Y-97932867D01*
X115292849Y-97945480D01*
X115270671Y-97955970D01*
X115247571Y-97964235D01*
X115223773Y-97970196D01*
X115199504Y-97973796D01*
X115175000Y-97975000D01*
X114425000Y-97975000D01*
X114400496Y-97973796D01*
X114376227Y-97970196D01*
X114352429Y-97964235D01*
X114329329Y-97955970D01*
X114307151Y-97945480D01*
X114286107Y-97932867D01*
X114266402Y-97918253D01*
X114248223Y-97901777D01*
X114231747Y-97883598D01*
X114217133Y-97863893D01*
X114204520Y-97842849D01*
X114194030Y-97820671D01*
X114185765Y-97797571D01*
X114179804Y-97773773D01*
X114176204Y-97749504D01*
X114175000Y-97725000D01*
X114175000Y-96475000D01*
X114176204Y-96450496D01*
X114179804Y-96426227D01*
X114185765Y-96402429D01*
X114194030Y-96379329D01*
X114204520Y-96357151D01*
X114217133Y-96336107D01*
X114231747Y-96316402D01*
X114248223Y-96298223D01*
X114266402Y-96281747D01*
X114286107Y-96267133D01*
X114307151Y-96254520D01*
X114329329Y-96244030D01*
X114352429Y-96235765D01*
X114376227Y-96229804D01*
X114400496Y-96226204D01*
X114425000Y-96225000D01*
X115175000Y-96225000D01*
X115199504Y-96226204D01*
X115199504Y-96226204D01*
G37*
D12*
X114800000Y-97100000D03*
D10*
G36*
X130649504Y-65476204D02*
G01*
X130673773Y-65479804D01*
X130697571Y-65485765D01*
X130720671Y-65494030D01*
X130742849Y-65504520D01*
X130763893Y-65517133D01*
X130783598Y-65531747D01*
X130801777Y-65548223D01*
X130818253Y-65566402D01*
X130832867Y-65586107D01*
X130845480Y-65607151D01*
X130855970Y-65629329D01*
X130864235Y-65652429D01*
X130870196Y-65676227D01*
X130873796Y-65700496D01*
X130875000Y-65725000D01*
X130875000Y-66475000D01*
X130873796Y-66499504D01*
X130870196Y-66523773D01*
X130864235Y-66547571D01*
X130855970Y-66570671D01*
X130845480Y-66592849D01*
X130832867Y-66613893D01*
X130818253Y-66633598D01*
X130801777Y-66651777D01*
X130783598Y-66668253D01*
X130763893Y-66682867D01*
X130742849Y-66695480D01*
X130720671Y-66705970D01*
X130697571Y-66714235D01*
X130673773Y-66720196D01*
X130649504Y-66723796D01*
X130625000Y-66725000D01*
X129375000Y-66725000D01*
X129350496Y-66723796D01*
X129326227Y-66720196D01*
X129302429Y-66714235D01*
X129279329Y-66705970D01*
X129257151Y-66695480D01*
X129236107Y-66682867D01*
X129216402Y-66668253D01*
X129198223Y-66651777D01*
X129181747Y-66633598D01*
X129167133Y-66613893D01*
X129154520Y-66592849D01*
X129144030Y-66570671D01*
X129135765Y-66547571D01*
X129129804Y-66523773D01*
X129126204Y-66499504D01*
X129125000Y-66475000D01*
X129125000Y-65725000D01*
X129126204Y-65700496D01*
X129129804Y-65676227D01*
X129135765Y-65652429D01*
X129144030Y-65629329D01*
X129154520Y-65607151D01*
X129167133Y-65586107D01*
X129181747Y-65566402D01*
X129198223Y-65548223D01*
X129216402Y-65531747D01*
X129236107Y-65517133D01*
X129257151Y-65504520D01*
X129279329Y-65494030D01*
X129302429Y-65485765D01*
X129326227Y-65479804D01*
X129350496Y-65476204D01*
X129375000Y-65475000D01*
X130625000Y-65475000D01*
X130649504Y-65476204D01*
X130649504Y-65476204D01*
G37*
D12*
X130000000Y-66100000D03*
D10*
G36*
X130649504Y-68276204D02*
G01*
X130673773Y-68279804D01*
X130697571Y-68285765D01*
X130720671Y-68294030D01*
X130742849Y-68304520D01*
X130763893Y-68317133D01*
X130783598Y-68331747D01*
X130801777Y-68348223D01*
X130818253Y-68366402D01*
X130832867Y-68386107D01*
X130845480Y-68407151D01*
X130855970Y-68429329D01*
X130864235Y-68452429D01*
X130870196Y-68476227D01*
X130873796Y-68500496D01*
X130875000Y-68525000D01*
X130875000Y-69275000D01*
X130873796Y-69299504D01*
X130870196Y-69323773D01*
X130864235Y-69347571D01*
X130855970Y-69370671D01*
X130845480Y-69392849D01*
X130832867Y-69413893D01*
X130818253Y-69433598D01*
X130801777Y-69451777D01*
X130783598Y-69468253D01*
X130763893Y-69482867D01*
X130742849Y-69495480D01*
X130720671Y-69505970D01*
X130697571Y-69514235D01*
X130673773Y-69520196D01*
X130649504Y-69523796D01*
X130625000Y-69525000D01*
X129375000Y-69525000D01*
X129350496Y-69523796D01*
X129326227Y-69520196D01*
X129302429Y-69514235D01*
X129279329Y-69505970D01*
X129257151Y-69495480D01*
X129236107Y-69482867D01*
X129216402Y-69468253D01*
X129198223Y-69451777D01*
X129181747Y-69433598D01*
X129167133Y-69413893D01*
X129154520Y-69392849D01*
X129144030Y-69370671D01*
X129135765Y-69347571D01*
X129129804Y-69323773D01*
X129126204Y-69299504D01*
X129125000Y-69275000D01*
X129125000Y-68525000D01*
X129126204Y-68500496D01*
X129129804Y-68476227D01*
X129135765Y-68452429D01*
X129144030Y-68429329D01*
X129154520Y-68407151D01*
X129167133Y-68386107D01*
X129181747Y-68366402D01*
X129198223Y-68348223D01*
X129216402Y-68331747D01*
X129236107Y-68317133D01*
X129257151Y-68304520D01*
X129279329Y-68294030D01*
X129302429Y-68285765D01*
X129326227Y-68279804D01*
X129350496Y-68276204D01*
X129375000Y-68275000D01*
X130625000Y-68275000D01*
X130649504Y-68276204D01*
X130649504Y-68276204D01*
G37*
D12*
X130000000Y-68900000D03*
D10*
G36*
X126649504Y-65476204D02*
G01*
X126673773Y-65479804D01*
X126697571Y-65485765D01*
X126720671Y-65494030D01*
X126742849Y-65504520D01*
X126763893Y-65517133D01*
X126783598Y-65531747D01*
X126801777Y-65548223D01*
X126818253Y-65566402D01*
X126832867Y-65586107D01*
X126845480Y-65607151D01*
X126855970Y-65629329D01*
X126864235Y-65652429D01*
X126870196Y-65676227D01*
X126873796Y-65700496D01*
X126875000Y-65725000D01*
X126875000Y-66475000D01*
X126873796Y-66499504D01*
X126870196Y-66523773D01*
X126864235Y-66547571D01*
X126855970Y-66570671D01*
X126845480Y-66592849D01*
X126832867Y-66613893D01*
X126818253Y-66633598D01*
X126801777Y-66651777D01*
X126783598Y-66668253D01*
X126763893Y-66682867D01*
X126742849Y-66695480D01*
X126720671Y-66705970D01*
X126697571Y-66714235D01*
X126673773Y-66720196D01*
X126649504Y-66723796D01*
X126625000Y-66725000D01*
X125375000Y-66725000D01*
X125350496Y-66723796D01*
X125326227Y-66720196D01*
X125302429Y-66714235D01*
X125279329Y-66705970D01*
X125257151Y-66695480D01*
X125236107Y-66682867D01*
X125216402Y-66668253D01*
X125198223Y-66651777D01*
X125181747Y-66633598D01*
X125167133Y-66613893D01*
X125154520Y-66592849D01*
X125144030Y-66570671D01*
X125135765Y-66547571D01*
X125129804Y-66523773D01*
X125126204Y-66499504D01*
X125125000Y-66475000D01*
X125125000Y-65725000D01*
X125126204Y-65700496D01*
X125129804Y-65676227D01*
X125135765Y-65652429D01*
X125144030Y-65629329D01*
X125154520Y-65607151D01*
X125167133Y-65586107D01*
X125181747Y-65566402D01*
X125198223Y-65548223D01*
X125216402Y-65531747D01*
X125236107Y-65517133D01*
X125257151Y-65504520D01*
X125279329Y-65494030D01*
X125302429Y-65485765D01*
X125326227Y-65479804D01*
X125350496Y-65476204D01*
X125375000Y-65475000D01*
X126625000Y-65475000D01*
X126649504Y-65476204D01*
X126649504Y-65476204D01*
G37*
D12*
X126000000Y-66100000D03*
D10*
G36*
X126649504Y-68276204D02*
G01*
X126673773Y-68279804D01*
X126697571Y-68285765D01*
X126720671Y-68294030D01*
X126742849Y-68304520D01*
X126763893Y-68317133D01*
X126783598Y-68331747D01*
X126801777Y-68348223D01*
X126818253Y-68366402D01*
X126832867Y-68386107D01*
X126845480Y-68407151D01*
X126855970Y-68429329D01*
X126864235Y-68452429D01*
X126870196Y-68476227D01*
X126873796Y-68500496D01*
X126875000Y-68525000D01*
X126875000Y-69275000D01*
X126873796Y-69299504D01*
X126870196Y-69323773D01*
X126864235Y-69347571D01*
X126855970Y-69370671D01*
X126845480Y-69392849D01*
X126832867Y-69413893D01*
X126818253Y-69433598D01*
X126801777Y-69451777D01*
X126783598Y-69468253D01*
X126763893Y-69482867D01*
X126742849Y-69495480D01*
X126720671Y-69505970D01*
X126697571Y-69514235D01*
X126673773Y-69520196D01*
X126649504Y-69523796D01*
X126625000Y-69525000D01*
X125375000Y-69525000D01*
X125350496Y-69523796D01*
X125326227Y-69520196D01*
X125302429Y-69514235D01*
X125279329Y-69505970D01*
X125257151Y-69495480D01*
X125236107Y-69482867D01*
X125216402Y-69468253D01*
X125198223Y-69451777D01*
X125181747Y-69433598D01*
X125167133Y-69413893D01*
X125154520Y-69392849D01*
X125144030Y-69370671D01*
X125135765Y-69347571D01*
X125129804Y-69323773D01*
X125126204Y-69299504D01*
X125125000Y-69275000D01*
X125125000Y-68525000D01*
X125126204Y-68500496D01*
X125129804Y-68476227D01*
X125135765Y-68452429D01*
X125144030Y-68429329D01*
X125154520Y-68407151D01*
X125167133Y-68386107D01*
X125181747Y-68366402D01*
X125198223Y-68348223D01*
X125216402Y-68331747D01*
X125236107Y-68317133D01*
X125257151Y-68304520D01*
X125279329Y-68294030D01*
X125302429Y-68285765D01*
X125326227Y-68279804D01*
X125350496Y-68276204D01*
X125375000Y-68275000D01*
X126625000Y-68275000D01*
X126649504Y-68276204D01*
X126649504Y-68276204D01*
G37*
D12*
X126000000Y-68900000D03*
D10*
G36*
X155599504Y-77426204D02*
G01*
X155623773Y-77429804D01*
X155647571Y-77435765D01*
X155670671Y-77444030D01*
X155692849Y-77454520D01*
X155713893Y-77467133D01*
X155733598Y-77481747D01*
X155751777Y-77498223D01*
X155768253Y-77516402D01*
X155782867Y-77536107D01*
X155795480Y-77557151D01*
X155805970Y-77579329D01*
X155814235Y-77602429D01*
X155820196Y-77626227D01*
X155823796Y-77650496D01*
X155825000Y-77675000D01*
X155825000Y-78925000D01*
X155823796Y-78949504D01*
X155820196Y-78973773D01*
X155814235Y-78997571D01*
X155805970Y-79020671D01*
X155795480Y-79042849D01*
X155782867Y-79063893D01*
X155768253Y-79083598D01*
X155751777Y-79101777D01*
X155733598Y-79118253D01*
X155713893Y-79132867D01*
X155692849Y-79145480D01*
X155670671Y-79155970D01*
X155647571Y-79164235D01*
X155623773Y-79170196D01*
X155599504Y-79173796D01*
X155575000Y-79175000D01*
X154825000Y-79175000D01*
X154800496Y-79173796D01*
X154776227Y-79170196D01*
X154752429Y-79164235D01*
X154729329Y-79155970D01*
X154707151Y-79145480D01*
X154686107Y-79132867D01*
X154666402Y-79118253D01*
X154648223Y-79101777D01*
X154631747Y-79083598D01*
X154617133Y-79063893D01*
X154604520Y-79042849D01*
X154594030Y-79020671D01*
X154585765Y-78997571D01*
X154579804Y-78973773D01*
X154576204Y-78949504D01*
X154575000Y-78925000D01*
X154575000Y-77675000D01*
X154576204Y-77650496D01*
X154579804Y-77626227D01*
X154585765Y-77602429D01*
X154594030Y-77579329D01*
X154604520Y-77557151D01*
X154617133Y-77536107D01*
X154631747Y-77516402D01*
X154648223Y-77498223D01*
X154666402Y-77481747D01*
X154686107Y-77467133D01*
X154707151Y-77454520D01*
X154729329Y-77444030D01*
X154752429Y-77435765D01*
X154776227Y-77429804D01*
X154800496Y-77426204D01*
X154825000Y-77425000D01*
X155575000Y-77425000D01*
X155599504Y-77426204D01*
X155599504Y-77426204D01*
G37*
D12*
X155200000Y-78300000D03*
D10*
G36*
X158399504Y-77426204D02*
G01*
X158423773Y-77429804D01*
X158447571Y-77435765D01*
X158470671Y-77444030D01*
X158492849Y-77454520D01*
X158513893Y-77467133D01*
X158533598Y-77481747D01*
X158551777Y-77498223D01*
X158568253Y-77516402D01*
X158582867Y-77536107D01*
X158595480Y-77557151D01*
X158605970Y-77579329D01*
X158614235Y-77602429D01*
X158620196Y-77626227D01*
X158623796Y-77650496D01*
X158625000Y-77675000D01*
X158625000Y-78925000D01*
X158623796Y-78949504D01*
X158620196Y-78973773D01*
X158614235Y-78997571D01*
X158605970Y-79020671D01*
X158595480Y-79042849D01*
X158582867Y-79063893D01*
X158568253Y-79083598D01*
X158551777Y-79101777D01*
X158533598Y-79118253D01*
X158513893Y-79132867D01*
X158492849Y-79145480D01*
X158470671Y-79155970D01*
X158447571Y-79164235D01*
X158423773Y-79170196D01*
X158399504Y-79173796D01*
X158375000Y-79175000D01*
X157625000Y-79175000D01*
X157600496Y-79173796D01*
X157576227Y-79170196D01*
X157552429Y-79164235D01*
X157529329Y-79155970D01*
X157507151Y-79145480D01*
X157486107Y-79132867D01*
X157466402Y-79118253D01*
X157448223Y-79101777D01*
X157431747Y-79083598D01*
X157417133Y-79063893D01*
X157404520Y-79042849D01*
X157394030Y-79020671D01*
X157385765Y-78997571D01*
X157379804Y-78973773D01*
X157376204Y-78949504D01*
X157375000Y-78925000D01*
X157375000Y-77675000D01*
X157376204Y-77650496D01*
X157379804Y-77626227D01*
X157385765Y-77602429D01*
X157394030Y-77579329D01*
X157404520Y-77557151D01*
X157417133Y-77536107D01*
X157431747Y-77516402D01*
X157448223Y-77498223D01*
X157466402Y-77481747D01*
X157486107Y-77467133D01*
X157507151Y-77454520D01*
X157529329Y-77444030D01*
X157552429Y-77435765D01*
X157576227Y-77429804D01*
X157600496Y-77426204D01*
X157625000Y-77425000D01*
X158375000Y-77425000D01*
X158399504Y-77426204D01*
X158399504Y-77426204D01*
G37*
D12*
X158000000Y-78300000D03*
D10*
G36*
X148799504Y-77426204D02*
G01*
X148823773Y-77429804D01*
X148847571Y-77435765D01*
X148870671Y-77444030D01*
X148892849Y-77454520D01*
X148913893Y-77467133D01*
X148933598Y-77481747D01*
X148951777Y-77498223D01*
X148968253Y-77516402D01*
X148982867Y-77536107D01*
X148995480Y-77557151D01*
X149005970Y-77579329D01*
X149014235Y-77602429D01*
X149020196Y-77626227D01*
X149023796Y-77650496D01*
X149025000Y-77675000D01*
X149025000Y-78925000D01*
X149023796Y-78949504D01*
X149020196Y-78973773D01*
X149014235Y-78997571D01*
X149005970Y-79020671D01*
X148995480Y-79042849D01*
X148982867Y-79063893D01*
X148968253Y-79083598D01*
X148951777Y-79101777D01*
X148933598Y-79118253D01*
X148913893Y-79132867D01*
X148892849Y-79145480D01*
X148870671Y-79155970D01*
X148847571Y-79164235D01*
X148823773Y-79170196D01*
X148799504Y-79173796D01*
X148775000Y-79175000D01*
X148025000Y-79175000D01*
X148000496Y-79173796D01*
X147976227Y-79170196D01*
X147952429Y-79164235D01*
X147929329Y-79155970D01*
X147907151Y-79145480D01*
X147886107Y-79132867D01*
X147866402Y-79118253D01*
X147848223Y-79101777D01*
X147831747Y-79083598D01*
X147817133Y-79063893D01*
X147804520Y-79042849D01*
X147794030Y-79020671D01*
X147785765Y-78997571D01*
X147779804Y-78973773D01*
X147776204Y-78949504D01*
X147775000Y-78925000D01*
X147775000Y-77675000D01*
X147776204Y-77650496D01*
X147779804Y-77626227D01*
X147785765Y-77602429D01*
X147794030Y-77579329D01*
X147804520Y-77557151D01*
X147817133Y-77536107D01*
X147831747Y-77516402D01*
X147848223Y-77498223D01*
X147866402Y-77481747D01*
X147886107Y-77467133D01*
X147907151Y-77454520D01*
X147929329Y-77444030D01*
X147952429Y-77435765D01*
X147976227Y-77429804D01*
X148000496Y-77426204D01*
X148025000Y-77425000D01*
X148775000Y-77425000D01*
X148799504Y-77426204D01*
X148799504Y-77426204D01*
G37*
D12*
X148400000Y-78300000D03*
D10*
G36*
X145999504Y-77426204D02*
G01*
X146023773Y-77429804D01*
X146047571Y-77435765D01*
X146070671Y-77444030D01*
X146092849Y-77454520D01*
X146113893Y-77467133D01*
X146133598Y-77481747D01*
X146151777Y-77498223D01*
X146168253Y-77516402D01*
X146182867Y-77536107D01*
X146195480Y-77557151D01*
X146205970Y-77579329D01*
X146214235Y-77602429D01*
X146220196Y-77626227D01*
X146223796Y-77650496D01*
X146225000Y-77675000D01*
X146225000Y-78925000D01*
X146223796Y-78949504D01*
X146220196Y-78973773D01*
X146214235Y-78997571D01*
X146205970Y-79020671D01*
X146195480Y-79042849D01*
X146182867Y-79063893D01*
X146168253Y-79083598D01*
X146151777Y-79101777D01*
X146133598Y-79118253D01*
X146113893Y-79132867D01*
X146092849Y-79145480D01*
X146070671Y-79155970D01*
X146047571Y-79164235D01*
X146023773Y-79170196D01*
X145999504Y-79173796D01*
X145975000Y-79175000D01*
X145225000Y-79175000D01*
X145200496Y-79173796D01*
X145176227Y-79170196D01*
X145152429Y-79164235D01*
X145129329Y-79155970D01*
X145107151Y-79145480D01*
X145086107Y-79132867D01*
X145066402Y-79118253D01*
X145048223Y-79101777D01*
X145031747Y-79083598D01*
X145017133Y-79063893D01*
X145004520Y-79042849D01*
X144994030Y-79020671D01*
X144985765Y-78997571D01*
X144979804Y-78973773D01*
X144976204Y-78949504D01*
X144975000Y-78925000D01*
X144975000Y-77675000D01*
X144976204Y-77650496D01*
X144979804Y-77626227D01*
X144985765Y-77602429D01*
X144994030Y-77579329D01*
X145004520Y-77557151D01*
X145017133Y-77536107D01*
X145031747Y-77516402D01*
X145048223Y-77498223D01*
X145066402Y-77481747D01*
X145086107Y-77467133D01*
X145107151Y-77454520D01*
X145129329Y-77444030D01*
X145152429Y-77435765D01*
X145176227Y-77429804D01*
X145200496Y-77426204D01*
X145225000Y-77425000D01*
X145975000Y-77425000D01*
X145999504Y-77426204D01*
X145999504Y-77426204D01*
G37*
D12*
X145600000Y-78300000D03*
D13*
X114650000Y-57100000D03*
X118950000Y-57100000D03*
X114650000Y-61900000D03*
X118950000Y-61900000D03*
D10*
G36*
X118999504Y-77426204D02*
G01*
X119023773Y-77429804D01*
X119047571Y-77435765D01*
X119070671Y-77444030D01*
X119092849Y-77454520D01*
X119113893Y-77467133D01*
X119133598Y-77481747D01*
X119151777Y-77498223D01*
X119168253Y-77516402D01*
X119182867Y-77536107D01*
X119195480Y-77557151D01*
X119205970Y-77579329D01*
X119214235Y-77602429D01*
X119220196Y-77626227D01*
X119223796Y-77650496D01*
X119225000Y-77675000D01*
X119225000Y-78925000D01*
X119223796Y-78949504D01*
X119220196Y-78973773D01*
X119214235Y-78997571D01*
X119205970Y-79020671D01*
X119195480Y-79042849D01*
X119182867Y-79063893D01*
X119168253Y-79083598D01*
X119151777Y-79101777D01*
X119133598Y-79118253D01*
X119113893Y-79132867D01*
X119092849Y-79145480D01*
X119070671Y-79155970D01*
X119047571Y-79164235D01*
X119023773Y-79170196D01*
X118999504Y-79173796D01*
X118975000Y-79175000D01*
X118225000Y-79175000D01*
X118200496Y-79173796D01*
X118176227Y-79170196D01*
X118152429Y-79164235D01*
X118129329Y-79155970D01*
X118107151Y-79145480D01*
X118086107Y-79132867D01*
X118066402Y-79118253D01*
X118048223Y-79101777D01*
X118031747Y-79083598D01*
X118017133Y-79063893D01*
X118004520Y-79042849D01*
X117994030Y-79020671D01*
X117985765Y-78997571D01*
X117979804Y-78973773D01*
X117976204Y-78949504D01*
X117975000Y-78925000D01*
X117975000Y-77675000D01*
X117976204Y-77650496D01*
X117979804Y-77626227D01*
X117985765Y-77602429D01*
X117994030Y-77579329D01*
X118004520Y-77557151D01*
X118017133Y-77536107D01*
X118031747Y-77516402D01*
X118048223Y-77498223D01*
X118066402Y-77481747D01*
X118086107Y-77467133D01*
X118107151Y-77454520D01*
X118129329Y-77444030D01*
X118152429Y-77435765D01*
X118176227Y-77429804D01*
X118200496Y-77426204D01*
X118225000Y-77425000D01*
X118975000Y-77425000D01*
X118999504Y-77426204D01*
X118999504Y-77426204D01*
G37*
D12*
X118600000Y-78300000D03*
D10*
G36*
X121799504Y-77426204D02*
G01*
X121823773Y-77429804D01*
X121847571Y-77435765D01*
X121870671Y-77444030D01*
X121892849Y-77454520D01*
X121913893Y-77467133D01*
X121933598Y-77481747D01*
X121951777Y-77498223D01*
X121968253Y-77516402D01*
X121982867Y-77536107D01*
X121995480Y-77557151D01*
X122005970Y-77579329D01*
X122014235Y-77602429D01*
X122020196Y-77626227D01*
X122023796Y-77650496D01*
X122025000Y-77675000D01*
X122025000Y-78925000D01*
X122023796Y-78949504D01*
X122020196Y-78973773D01*
X122014235Y-78997571D01*
X122005970Y-79020671D01*
X121995480Y-79042849D01*
X121982867Y-79063893D01*
X121968253Y-79083598D01*
X121951777Y-79101777D01*
X121933598Y-79118253D01*
X121913893Y-79132867D01*
X121892849Y-79145480D01*
X121870671Y-79155970D01*
X121847571Y-79164235D01*
X121823773Y-79170196D01*
X121799504Y-79173796D01*
X121775000Y-79175000D01*
X121025000Y-79175000D01*
X121000496Y-79173796D01*
X120976227Y-79170196D01*
X120952429Y-79164235D01*
X120929329Y-79155970D01*
X120907151Y-79145480D01*
X120886107Y-79132867D01*
X120866402Y-79118253D01*
X120848223Y-79101777D01*
X120831747Y-79083598D01*
X120817133Y-79063893D01*
X120804520Y-79042849D01*
X120794030Y-79020671D01*
X120785765Y-78997571D01*
X120779804Y-78973773D01*
X120776204Y-78949504D01*
X120775000Y-78925000D01*
X120775000Y-77675000D01*
X120776204Y-77650496D01*
X120779804Y-77626227D01*
X120785765Y-77602429D01*
X120794030Y-77579329D01*
X120804520Y-77557151D01*
X120817133Y-77536107D01*
X120831747Y-77516402D01*
X120848223Y-77498223D01*
X120866402Y-77481747D01*
X120886107Y-77467133D01*
X120907151Y-77454520D01*
X120929329Y-77444030D01*
X120952429Y-77435765D01*
X120976227Y-77429804D01*
X121000496Y-77426204D01*
X121025000Y-77425000D01*
X121775000Y-77425000D01*
X121799504Y-77426204D01*
X121799504Y-77426204D01*
G37*
D12*
X121400000Y-78300000D03*
D10*
G36*
X121799504Y-82626204D02*
G01*
X121823773Y-82629804D01*
X121847571Y-82635765D01*
X121870671Y-82644030D01*
X121892849Y-82654520D01*
X121913893Y-82667133D01*
X121933598Y-82681747D01*
X121951777Y-82698223D01*
X121968253Y-82716402D01*
X121982867Y-82736107D01*
X121995480Y-82757151D01*
X122005970Y-82779329D01*
X122014235Y-82802429D01*
X122020196Y-82826227D01*
X122023796Y-82850496D01*
X122025000Y-82875000D01*
X122025000Y-84125000D01*
X122023796Y-84149504D01*
X122020196Y-84173773D01*
X122014235Y-84197571D01*
X122005970Y-84220671D01*
X121995480Y-84242849D01*
X121982867Y-84263893D01*
X121968253Y-84283598D01*
X121951777Y-84301777D01*
X121933598Y-84318253D01*
X121913893Y-84332867D01*
X121892849Y-84345480D01*
X121870671Y-84355970D01*
X121847571Y-84364235D01*
X121823773Y-84370196D01*
X121799504Y-84373796D01*
X121775000Y-84375000D01*
X121025000Y-84375000D01*
X121000496Y-84373796D01*
X120976227Y-84370196D01*
X120952429Y-84364235D01*
X120929329Y-84355970D01*
X120907151Y-84345480D01*
X120886107Y-84332867D01*
X120866402Y-84318253D01*
X120848223Y-84301777D01*
X120831747Y-84283598D01*
X120817133Y-84263893D01*
X120804520Y-84242849D01*
X120794030Y-84220671D01*
X120785765Y-84197571D01*
X120779804Y-84173773D01*
X120776204Y-84149504D01*
X120775000Y-84125000D01*
X120775000Y-82875000D01*
X120776204Y-82850496D01*
X120779804Y-82826227D01*
X120785765Y-82802429D01*
X120794030Y-82779329D01*
X120804520Y-82757151D01*
X120817133Y-82736107D01*
X120831747Y-82716402D01*
X120848223Y-82698223D01*
X120866402Y-82681747D01*
X120886107Y-82667133D01*
X120907151Y-82654520D01*
X120929329Y-82644030D01*
X120952429Y-82635765D01*
X120976227Y-82629804D01*
X121000496Y-82626204D01*
X121025000Y-82625000D01*
X121775000Y-82625000D01*
X121799504Y-82626204D01*
X121799504Y-82626204D01*
G37*
D12*
X121400000Y-83500000D03*
D10*
G36*
X118999504Y-82626204D02*
G01*
X119023773Y-82629804D01*
X119047571Y-82635765D01*
X119070671Y-82644030D01*
X119092849Y-82654520D01*
X119113893Y-82667133D01*
X119133598Y-82681747D01*
X119151777Y-82698223D01*
X119168253Y-82716402D01*
X119182867Y-82736107D01*
X119195480Y-82757151D01*
X119205970Y-82779329D01*
X119214235Y-82802429D01*
X119220196Y-82826227D01*
X119223796Y-82850496D01*
X119225000Y-82875000D01*
X119225000Y-84125000D01*
X119223796Y-84149504D01*
X119220196Y-84173773D01*
X119214235Y-84197571D01*
X119205970Y-84220671D01*
X119195480Y-84242849D01*
X119182867Y-84263893D01*
X119168253Y-84283598D01*
X119151777Y-84301777D01*
X119133598Y-84318253D01*
X119113893Y-84332867D01*
X119092849Y-84345480D01*
X119070671Y-84355970D01*
X119047571Y-84364235D01*
X119023773Y-84370196D01*
X118999504Y-84373796D01*
X118975000Y-84375000D01*
X118225000Y-84375000D01*
X118200496Y-84373796D01*
X118176227Y-84370196D01*
X118152429Y-84364235D01*
X118129329Y-84355970D01*
X118107151Y-84345480D01*
X118086107Y-84332867D01*
X118066402Y-84318253D01*
X118048223Y-84301777D01*
X118031747Y-84283598D01*
X118017133Y-84263893D01*
X118004520Y-84242849D01*
X117994030Y-84220671D01*
X117985765Y-84197571D01*
X117979804Y-84173773D01*
X117976204Y-84149504D01*
X117975000Y-84125000D01*
X117975000Y-82875000D01*
X117976204Y-82850496D01*
X117979804Y-82826227D01*
X117985765Y-82802429D01*
X117994030Y-82779329D01*
X118004520Y-82757151D01*
X118017133Y-82736107D01*
X118031747Y-82716402D01*
X118048223Y-82698223D01*
X118066402Y-82681747D01*
X118086107Y-82667133D01*
X118107151Y-82654520D01*
X118129329Y-82644030D01*
X118152429Y-82635765D01*
X118176227Y-82629804D01*
X118200496Y-82626204D01*
X118225000Y-82625000D01*
X118975000Y-82625000D01*
X118999504Y-82626204D01*
X118999504Y-82626204D01*
G37*
D12*
X118600000Y-83500000D03*
D10*
G36*
X118999504Y-80026204D02*
G01*
X119023773Y-80029804D01*
X119047571Y-80035765D01*
X119070671Y-80044030D01*
X119092849Y-80054520D01*
X119113893Y-80067133D01*
X119133598Y-80081747D01*
X119151777Y-80098223D01*
X119168253Y-80116402D01*
X119182867Y-80136107D01*
X119195480Y-80157151D01*
X119205970Y-80179329D01*
X119214235Y-80202429D01*
X119220196Y-80226227D01*
X119223796Y-80250496D01*
X119225000Y-80275000D01*
X119225000Y-81525000D01*
X119223796Y-81549504D01*
X119220196Y-81573773D01*
X119214235Y-81597571D01*
X119205970Y-81620671D01*
X119195480Y-81642849D01*
X119182867Y-81663893D01*
X119168253Y-81683598D01*
X119151777Y-81701777D01*
X119133598Y-81718253D01*
X119113893Y-81732867D01*
X119092849Y-81745480D01*
X119070671Y-81755970D01*
X119047571Y-81764235D01*
X119023773Y-81770196D01*
X118999504Y-81773796D01*
X118975000Y-81775000D01*
X118225000Y-81775000D01*
X118200496Y-81773796D01*
X118176227Y-81770196D01*
X118152429Y-81764235D01*
X118129329Y-81755970D01*
X118107151Y-81745480D01*
X118086107Y-81732867D01*
X118066402Y-81718253D01*
X118048223Y-81701777D01*
X118031747Y-81683598D01*
X118017133Y-81663893D01*
X118004520Y-81642849D01*
X117994030Y-81620671D01*
X117985765Y-81597571D01*
X117979804Y-81573773D01*
X117976204Y-81549504D01*
X117975000Y-81525000D01*
X117975000Y-80275000D01*
X117976204Y-80250496D01*
X117979804Y-80226227D01*
X117985765Y-80202429D01*
X117994030Y-80179329D01*
X118004520Y-80157151D01*
X118017133Y-80136107D01*
X118031747Y-80116402D01*
X118048223Y-80098223D01*
X118066402Y-80081747D01*
X118086107Y-80067133D01*
X118107151Y-80054520D01*
X118129329Y-80044030D01*
X118152429Y-80035765D01*
X118176227Y-80029804D01*
X118200496Y-80026204D01*
X118225000Y-80025000D01*
X118975000Y-80025000D01*
X118999504Y-80026204D01*
X118999504Y-80026204D01*
G37*
D12*
X118600000Y-80900000D03*
D10*
G36*
X121799504Y-80026204D02*
G01*
X121823773Y-80029804D01*
X121847571Y-80035765D01*
X121870671Y-80044030D01*
X121892849Y-80054520D01*
X121913893Y-80067133D01*
X121933598Y-80081747D01*
X121951777Y-80098223D01*
X121968253Y-80116402D01*
X121982867Y-80136107D01*
X121995480Y-80157151D01*
X122005970Y-80179329D01*
X122014235Y-80202429D01*
X122020196Y-80226227D01*
X122023796Y-80250496D01*
X122025000Y-80275000D01*
X122025000Y-81525000D01*
X122023796Y-81549504D01*
X122020196Y-81573773D01*
X122014235Y-81597571D01*
X122005970Y-81620671D01*
X121995480Y-81642849D01*
X121982867Y-81663893D01*
X121968253Y-81683598D01*
X121951777Y-81701777D01*
X121933598Y-81718253D01*
X121913893Y-81732867D01*
X121892849Y-81745480D01*
X121870671Y-81755970D01*
X121847571Y-81764235D01*
X121823773Y-81770196D01*
X121799504Y-81773796D01*
X121775000Y-81775000D01*
X121025000Y-81775000D01*
X121000496Y-81773796D01*
X120976227Y-81770196D01*
X120952429Y-81764235D01*
X120929329Y-81755970D01*
X120907151Y-81745480D01*
X120886107Y-81732867D01*
X120866402Y-81718253D01*
X120848223Y-81701777D01*
X120831747Y-81683598D01*
X120817133Y-81663893D01*
X120804520Y-81642849D01*
X120794030Y-81620671D01*
X120785765Y-81597571D01*
X120779804Y-81573773D01*
X120776204Y-81549504D01*
X120775000Y-81525000D01*
X120775000Y-80275000D01*
X120776204Y-80250496D01*
X120779804Y-80226227D01*
X120785765Y-80202429D01*
X120794030Y-80179329D01*
X120804520Y-80157151D01*
X120817133Y-80136107D01*
X120831747Y-80116402D01*
X120848223Y-80098223D01*
X120866402Y-80081747D01*
X120886107Y-80067133D01*
X120907151Y-80054520D01*
X120929329Y-80044030D01*
X120952429Y-80035765D01*
X120976227Y-80029804D01*
X121000496Y-80026204D01*
X121025000Y-80025000D01*
X121775000Y-80025000D01*
X121799504Y-80026204D01*
X121799504Y-80026204D01*
G37*
D12*
X121400000Y-80900000D03*
D10*
G36*
X120449504Y-65476204D02*
G01*
X120473773Y-65479804D01*
X120497571Y-65485765D01*
X120520671Y-65494030D01*
X120542849Y-65504520D01*
X120563893Y-65517133D01*
X120583598Y-65531747D01*
X120601777Y-65548223D01*
X120618253Y-65566402D01*
X120632867Y-65586107D01*
X120645480Y-65607151D01*
X120655970Y-65629329D01*
X120664235Y-65652429D01*
X120670196Y-65676227D01*
X120673796Y-65700496D01*
X120675000Y-65725000D01*
X120675000Y-66475000D01*
X120673796Y-66499504D01*
X120670196Y-66523773D01*
X120664235Y-66547571D01*
X120655970Y-66570671D01*
X120645480Y-66592849D01*
X120632867Y-66613893D01*
X120618253Y-66633598D01*
X120601777Y-66651777D01*
X120583598Y-66668253D01*
X120563893Y-66682867D01*
X120542849Y-66695480D01*
X120520671Y-66705970D01*
X120497571Y-66714235D01*
X120473773Y-66720196D01*
X120449504Y-66723796D01*
X120425000Y-66725000D01*
X119175000Y-66725000D01*
X119150496Y-66723796D01*
X119126227Y-66720196D01*
X119102429Y-66714235D01*
X119079329Y-66705970D01*
X119057151Y-66695480D01*
X119036107Y-66682867D01*
X119016402Y-66668253D01*
X118998223Y-66651777D01*
X118981747Y-66633598D01*
X118967133Y-66613893D01*
X118954520Y-66592849D01*
X118944030Y-66570671D01*
X118935765Y-66547571D01*
X118929804Y-66523773D01*
X118926204Y-66499504D01*
X118925000Y-66475000D01*
X118925000Y-65725000D01*
X118926204Y-65700496D01*
X118929804Y-65676227D01*
X118935765Y-65652429D01*
X118944030Y-65629329D01*
X118954520Y-65607151D01*
X118967133Y-65586107D01*
X118981747Y-65566402D01*
X118998223Y-65548223D01*
X119016402Y-65531747D01*
X119036107Y-65517133D01*
X119057151Y-65504520D01*
X119079329Y-65494030D01*
X119102429Y-65485765D01*
X119126227Y-65479804D01*
X119150496Y-65476204D01*
X119175000Y-65475000D01*
X120425000Y-65475000D01*
X120449504Y-65476204D01*
X120449504Y-65476204D01*
G37*
D12*
X119800000Y-66100000D03*
D10*
G36*
X120449504Y-68276204D02*
G01*
X120473773Y-68279804D01*
X120497571Y-68285765D01*
X120520671Y-68294030D01*
X120542849Y-68304520D01*
X120563893Y-68317133D01*
X120583598Y-68331747D01*
X120601777Y-68348223D01*
X120618253Y-68366402D01*
X120632867Y-68386107D01*
X120645480Y-68407151D01*
X120655970Y-68429329D01*
X120664235Y-68452429D01*
X120670196Y-68476227D01*
X120673796Y-68500496D01*
X120675000Y-68525000D01*
X120675000Y-69275000D01*
X120673796Y-69299504D01*
X120670196Y-69323773D01*
X120664235Y-69347571D01*
X120655970Y-69370671D01*
X120645480Y-69392849D01*
X120632867Y-69413893D01*
X120618253Y-69433598D01*
X120601777Y-69451777D01*
X120583598Y-69468253D01*
X120563893Y-69482867D01*
X120542849Y-69495480D01*
X120520671Y-69505970D01*
X120497571Y-69514235D01*
X120473773Y-69520196D01*
X120449504Y-69523796D01*
X120425000Y-69525000D01*
X119175000Y-69525000D01*
X119150496Y-69523796D01*
X119126227Y-69520196D01*
X119102429Y-69514235D01*
X119079329Y-69505970D01*
X119057151Y-69495480D01*
X119036107Y-69482867D01*
X119016402Y-69468253D01*
X118998223Y-69451777D01*
X118981747Y-69433598D01*
X118967133Y-69413893D01*
X118954520Y-69392849D01*
X118944030Y-69370671D01*
X118935765Y-69347571D01*
X118929804Y-69323773D01*
X118926204Y-69299504D01*
X118925000Y-69275000D01*
X118925000Y-68525000D01*
X118926204Y-68500496D01*
X118929804Y-68476227D01*
X118935765Y-68452429D01*
X118944030Y-68429329D01*
X118954520Y-68407151D01*
X118967133Y-68386107D01*
X118981747Y-68366402D01*
X118998223Y-68348223D01*
X119016402Y-68331747D01*
X119036107Y-68317133D01*
X119057151Y-68304520D01*
X119079329Y-68294030D01*
X119102429Y-68285765D01*
X119126227Y-68279804D01*
X119150496Y-68276204D01*
X119175000Y-68275000D01*
X120425000Y-68275000D01*
X120449504Y-68276204D01*
X120449504Y-68276204D01*
G37*
D12*
X119800000Y-68900000D03*
D10*
G36*
X166399504Y-83226204D02*
G01*
X166423773Y-83229804D01*
X166447571Y-83235765D01*
X166470671Y-83244030D01*
X166492849Y-83254520D01*
X166513893Y-83267133D01*
X166533598Y-83281747D01*
X166551777Y-83298223D01*
X166568253Y-83316402D01*
X166582867Y-83336107D01*
X166595480Y-83357151D01*
X166605970Y-83379329D01*
X166614235Y-83402429D01*
X166620196Y-83426227D01*
X166623796Y-83450496D01*
X166625000Y-83475000D01*
X166625000Y-84725000D01*
X166623796Y-84749504D01*
X166620196Y-84773773D01*
X166614235Y-84797571D01*
X166605970Y-84820671D01*
X166595480Y-84842849D01*
X166582867Y-84863893D01*
X166568253Y-84883598D01*
X166551777Y-84901777D01*
X166533598Y-84918253D01*
X166513893Y-84932867D01*
X166492849Y-84945480D01*
X166470671Y-84955970D01*
X166447571Y-84964235D01*
X166423773Y-84970196D01*
X166399504Y-84973796D01*
X166375000Y-84975000D01*
X165625000Y-84975000D01*
X165600496Y-84973796D01*
X165576227Y-84970196D01*
X165552429Y-84964235D01*
X165529329Y-84955970D01*
X165507151Y-84945480D01*
X165486107Y-84932867D01*
X165466402Y-84918253D01*
X165448223Y-84901777D01*
X165431747Y-84883598D01*
X165417133Y-84863893D01*
X165404520Y-84842849D01*
X165394030Y-84820671D01*
X165385765Y-84797571D01*
X165379804Y-84773773D01*
X165376204Y-84749504D01*
X165375000Y-84725000D01*
X165375000Y-83475000D01*
X165376204Y-83450496D01*
X165379804Y-83426227D01*
X165385765Y-83402429D01*
X165394030Y-83379329D01*
X165404520Y-83357151D01*
X165417133Y-83336107D01*
X165431747Y-83316402D01*
X165448223Y-83298223D01*
X165466402Y-83281747D01*
X165486107Y-83267133D01*
X165507151Y-83254520D01*
X165529329Y-83244030D01*
X165552429Y-83235765D01*
X165576227Y-83229804D01*
X165600496Y-83226204D01*
X165625000Y-83225000D01*
X166375000Y-83225000D01*
X166399504Y-83226204D01*
X166399504Y-83226204D01*
G37*
D12*
X166000000Y-84100000D03*
D10*
G36*
X163599504Y-83226204D02*
G01*
X163623773Y-83229804D01*
X163647571Y-83235765D01*
X163670671Y-83244030D01*
X163692849Y-83254520D01*
X163713893Y-83267133D01*
X163733598Y-83281747D01*
X163751777Y-83298223D01*
X163768253Y-83316402D01*
X163782867Y-83336107D01*
X163795480Y-83357151D01*
X163805970Y-83379329D01*
X163814235Y-83402429D01*
X163820196Y-83426227D01*
X163823796Y-83450496D01*
X163825000Y-83475000D01*
X163825000Y-84725000D01*
X163823796Y-84749504D01*
X163820196Y-84773773D01*
X163814235Y-84797571D01*
X163805970Y-84820671D01*
X163795480Y-84842849D01*
X163782867Y-84863893D01*
X163768253Y-84883598D01*
X163751777Y-84901777D01*
X163733598Y-84918253D01*
X163713893Y-84932867D01*
X163692849Y-84945480D01*
X163670671Y-84955970D01*
X163647571Y-84964235D01*
X163623773Y-84970196D01*
X163599504Y-84973796D01*
X163575000Y-84975000D01*
X162825000Y-84975000D01*
X162800496Y-84973796D01*
X162776227Y-84970196D01*
X162752429Y-84964235D01*
X162729329Y-84955970D01*
X162707151Y-84945480D01*
X162686107Y-84932867D01*
X162666402Y-84918253D01*
X162648223Y-84901777D01*
X162631747Y-84883598D01*
X162617133Y-84863893D01*
X162604520Y-84842849D01*
X162594030Y-84820671D01*
X162585765Y-84797571D01*
X162579804Y-84773773D01*
X162576204Y-84749504D01*
X162575000Y-84725000D01*
X162575000Y-83475000D01*
X162576204Y-83450496D01*
X162579804Y-83426227D01*
X162585765Y-83402429D01*
X162594030Y-83379329D01*
X162604520Y-83357151D01*
X162617133Y-83336107D01*
X162631747Y-83316402D01*
X162648223Y-83298223D01*
X162666402Y-83281747D01*
X162686107Y-83267133D01*
X162707151Y-83254520D01*
X162729329Y-83244030D01*
X162752429Y-83235765D01*
X162776227Y-83229804D01*
X162800496Y-83226204D01*
X162825000Y-83225000D01*
X163575000Y-83225000D01*
X163599504Y-83226204D01*
X163599504Y-83226204D01*
G37*
D12*
X163200000Y-84100000D03*
D10*
G36*
X104599504Y-72226204D02*
G01*
X104623773Y-72229804D01*
X104647571Y-72235765D01*
X104670671Y-72244030D01*
X104692849Y-72254520D01*
X104713893Y-72267133D01*
X104733598Y-72281747D01*
X104751777Y-72298223D01*
X104768253Y-72316402D01*
X104782867Y-72336107D01*
X104795480Y-72357151D01*
X104805970Y-72379329D01*
X104814235Y-72402429D01*
X104820196Y-72426227D01*
X104823796Y-72450496D01*
X104825000Y-72475000D01*
X104825000Y-73725000D01*
X104823796Y-73749504D01*
X104820196Y-73773773D01*
X104814235Y-73797571D01*
X104805970Y-73820671D01*
X104795480Y-73842849D01*
X104782867Y-73863893D01*
X104768253Y-73883598D01*
X104751777Y-73901777D01*
X104733598Y-73918253D01*
X104713893Y-73932867D01*
X104692849Y-73945480D01*
X104670671Y-73955970D01*
X104647571Y-73964235D01*
X104623773Y-73970196D01*
X104599504Y-73973796D01*
X104575000Y-73975000D01*
X103825000Y-73975000D01*
X103800496Y-73973796D01*
X103776227Y-73970196D01*
X103752429Y-73964235D01*
X103729329Y-73955970D01*
X103707151Y-73945480D01*
X103686107Y-73932867D01*
X103666402Y-73918253D01*
X103648223Y-73901777D01*
X103631747Y-73883598D01*
X103617133Y-73863893D01*
X103604520Y-73842849D01*
X103594030Y-73820671D01*
X103585765Y-73797571D01*
X103579804Y-73773773D01*
X103576204Y-73749504D01*
X103575000Y-73725000D01*
X103575000Y-72475000D01*
X103576204Y-72450496D01*
X103579804Y-72426227D01*
X103585765Y-72402429D01*
X103594030Y-72379329D01*
X103604520Y-72357151D01*
X103617133Y-72336107D01*
X103631747Y-72316402D01*
X103648223Y-72298223D01*
X103666402Y-72281747D01*
X103686107Y-72267133D01*
X103707151Y-72254520D01*
X103729329Y-72244030D01*
X103752429Y-72235765D01*
X103776227Y-72229804D01*
X103800496Y-72226204D01*
X103825000Y-72225000D01*
X104575000Y-72225000D01*
X104599504Y-72226204D01*
X104599504Y-72226204D01*
G37*
D12*
X104200000Y-73100000D03*
D10*
G36*
X101799504Y-72226204D02*
G01*
X101823773Y-72229804D01*
X101847571Y-72235765D01*
X101870671Y-72244030D01*
X101892849Y-72254520D01*
X101913893Y-72267133D01*
X101933598Y-72281747D01*
X101951777Y-72298223D01*
X101968253Y-72316402D01*
X101982867Y-72336107D01*
X101995480Y-72357151D01*
X102005970Y-72379329D01*
X102014235Y-72402429D01*
X102020196Y-72426227D01*
X102023796Y-72450496D01*
X102025000Y-72475000D01*
X102025000Y-73725000D01*
X102023796Y-73749504D01*
X102020196Y-73773773D01*
X102014235Y-73797571D01*
X102005970Y-73820671D01*
X101995480Y-73842849D01*
X101982867Y-73863893D01*
X101968253Y-73883598D01*
X101951777Y-73901777D01*
X101933598Y-73918253D01*
X101913893Y-73932867D01*
X101892849Y-73945480D01*
X101870671Y-73955970D01*
X101847571Y-73964235D01*
X101823773Y-73970196D01*
X101799504Y-73973796D01*
X101775000Y-73975000D01*
X101025000Y-73975000D01*
X101000496Y-73973796D01*
X100976227Y-73970196D01*
X100952429Y-73964235D01*
X100929329Y-73955970D01*
X100907151Y-73945480D01*
X100886107Y-73932867D01*
X100866402Y-73918253D01*
X100848223Y-73901777D01*
X100831747Y-73883598D01*
X100817133Y-73863893D01*
X100804520Y-73842849D01*
X100794030Y-73820671D01*
X100785765Y-73797571D01*
X100779804Y-73773773D01*
X100776204Y-73749504D01*
X100775000Y-73725000D01*
X100775000Y-72475000D01*
X100776204Y-72450496D01*
X100779804Y-72426227D01*
X100785765Y-72402429D01*
X100794030Y-72379329D01*
X100804520Y-72357151D01*
X100817133Y-72336107D01*
X100831747Y-72316402D01*
X100848223Y-72298223D01*
X100866402Y-72281747D01*
X100886107Y-72267133D01*
X100907151Y-72254520D01*
X100929329Y-72244030D01*
X100952429Y-72235765D01*
X100976227Y-72229804D01*
X101000496Y-72226204D01*
X101025000Y-72225000D01*
X101775000Y-72225000D01*
X101799504Y-72226204D01*
X101799504Y-72226204D01*
G37*
D12*
X101400000Y-73100000D03*
D14*
X139000000Y-59150000D03*
X139000000Y-63450000D03*
X134000000Y-63450000D03*
X134000000Y-59150000D03*
D10*
G36*
X143649504Y-52676204D02*
G01*
X143673773Y-52679804D01*
X143697571Y-52685765D01*
X143720671Y-52694030D01*
X143742849Y-52704520D01*
X143763893Y-52717133D01*
X143783598Y-52731747D01*
X143801777Y-52748223D01*
X143818253Y-52766402D01*
X143832867Y-52786107D01*
X143845480Y-52807151D01*
X143855970Y-52829329D01*
X143864235Y-52852429D01*
X143870196Y-52876227D01*
X143873796Y-52900496D01*
X143875000Y-52925000D01*
X143875000Y-53675000D01*
X143873796Y-53699504D01*
X143870196Y-53723773D01*
X143864235Y-53747571D01*
X143855970Y-53770671D01*
X143845480Y-53792849D01*
X143832867Y-53813893D01*
X143818253Y-53833598D01*
X143801777Y-53851777D01*
X143783598Y-53868253D01*
X143763893Y-53882867D01*
X143742849Y-53895480D01*
X143720671Y-53905970D01*
X143697571Y-53914235D01*
X143673773Y-53920196D01*
X143649504Y-53923796D01*
X143625000Y-53925000D01*
X142375000Y-53925000D01*
X142350496Y-53923796D01*
X142326227Y-53920196D01*
X142302429Y-53914235D01*
X142279329Y-53905970D01*
X142257151Y-53895480D01*
X142236107Y-53882867D01*
X142216402Y-53868253D01*
X142198223Y-53851777D01*
X142181747Y-53833598D01*
X142167133Y-53813893D01*
X142154520Y-53792849D01*
X142144030Y-53770671D01*
X142135765Y-53747571D01*
X142129804Y-53723773D01*
X142126204Y-53699504D01*
X142125000Y-53675000D01*
X142125000Y-52925000D01*
X142126204Y-52900496D01*
X142129804Y-52876227D01*
X142135765Y-52852429D01*
X142144030Y-52829329D01*
X142154520Y-52807151D01*
X142167133Y-52786107D01*
X142181747Y-52766402D01*
X142198223Y-52748223D01*
X142216402Y-52731747D01*
X142236107Y-52717133D01*
X142257151Y-52704520D01*
X142279329Y-52694030D01*
X142302429Y-52685765D01*
X142326227Y-52679804D01*
X142350496Y-52676204D01*
X142375000Y-52675000D01*
X143625000Y-52675000D01*
X143649504Y-52676204D01*
X143649504Y-52676204D01*
G37*
D12*
X143000000Y-53300000D03*
D10*
G36*
X143649504Y-55476204D02*
G01*
X143673773Y-55479804D01*
X143697571Y-55485765D01*
X143720671Y-55494030D01*
X143742849Y-55504520D01*
X143763893Y-55517133D01*
X143783598Y-55531747D01*
X143801777Y-55548223D01*
X143818253Y-55566402D01*
X143832867Y-55586107D01*
X143845480Y-55607151D01*
X143855970Y-55629329D01*
X143864235Y-55652429D01*
X143870196Y-55676227D01*
X143873796Y-55700496D01*
X143875000Y-55725000D01*
X143875000Y-56475000D01*
X143873796Y-56499504D01*
X143870196Y-56523773D01*
X143864235Y-56547571D01*
X143855970Y-56570671D01*
X143845480Y-56592849D01*
X143832867Y-56613893D01*
X143818253Y-56633598D01*
X143801777Y-56651777D01*
X143783598Y-56668253D01*
X143763893Y-56682867D01*
X143742849Y-56695480D01*
X143720671Y-56705970D01*
X143697571Y-56714235D01*
X143673773Y-56720196D01*
X143649504Y-56723796D01*
X143625000Y-56725000D01*
X142375000Y-56725000D01*
X142350496Y-56723796D01*
X142326227Y-56720196D01*
X142302429Y-56714235D01*
X142279329Y-56705970D01*
X142257151Y-56695480D01*
X142236107Y-56682867D01*
X142216402Y-56668253D01*
X142198223Y-56651777D01*
X142181747Y-56633598D01*
X142167133Y-56613893D01*
X142154520Y-56592849D01*
X142144030Y-56570671D01*
X142135765Y-56547571D01*
X142129804Y-56523773D01*
X142126204Y-56499504D01*
X142125000Y-56475000D01*
X142125000Y-55725000D01*
X142126204Y-55700496D01*
X142129804Y-55676227D01*
X142135765Y-55652429D01*
X142144030Y-55629329D01*
X142154520Y-55607151D01*
X142167133Y-55586107D01*
X142181747Y-55566402D01*
X142198223Y-55548223D01*
X142216402Y-55531747D01*
X142236107Y-55517133D01*
X142257151Y-55504520D01*
X142279329Y-55494030D01*
X142302429Y-55485765D01*
X142326227Y-55479804D01*
X142350496Y-55476204D01*
X142375000Y-55475000D01*
X143625000Y-55475000D01*
X143649504Y-55476204D01*
X143649504Y-55476204D01*
G37*
D12*
X143000000Y-56100000D03*
D13*
X143050000Y-64300000D03*
X147350000Y-64300000D03*
D10*
G36*
X122599504Y-96226204D02*
G01*
X122623773Y-96229804D01*
X122647571Y-96235765D01*
X122670671Y-96244030D01*
X122692849Y-96254520D01*
X122713893Y-96267133D01*
X122733598Y-96281747D01*
X122751777Y-96298223D01*
X122768253Y-96316402D01*
X122782867Y-96336107D01*
X122795480Y-96357151D01*
X122805970Y-96379329D01*
X122814235Y-96402429D01*
X122820196Y-96426227D01*
X122823796Y-96450496D01*
X122825000Y-96475000D01*
X122825000Y-97725000D01*
X122823796Y-97749504D01*
X122820196Y-97773773D01*
X122814235Y-97797571D01*
X122805970Y-97820671D01*
X122795480Y-97842849D01*
X122782867Y-97863893D01*
X122768253Y-97883598D01*
X122751777Y-97901777D01*
X122733598Y-97918253D01*
X122713893Y-97932867D01*
X122692849Y-97945480D01*
X122670671Y-97955970D01*
X122647571Y-97964235D01*
X122623773Y-97970196D01*
X122599504Y-97973796D01*
X122575000Y-97975000D01*
X121825000Y-97975000D01*
X121800496Y-97973796D01*
X121776227Y-97970196D01*
X121752429Y-97964235D01*
X121729329Y-97955970D01*
X121707151Y-97945480D01*
X121686107Y-97932867D01*
X121666402Y-97918253D01*
X121648223Y-97901777D01*
X121631747Y-97883598D01*
X121617133Y-97863893D01*
X121604520Y-97842849D01*
X121594030Y-97820671D01*
X121585765Y-97797571D01*
X121579804Y-97773773D01*
X121576204Y-97749504D01*
X121575000Y-97725000D01*
X121575000Y-96475000D01*
X121576204Y-96450496D01*
X121579804Y-96426227D01*
X121585765Y-96402429D01*
X121594030Y-96379329D01*
X121604520Y-96357151D01*
X121617133Y-96336107D01*
X121631747Y-96316402D01*
X121648223Y-96298223D01*
X121666402Y-96281747D01*
X121686107Y-96267133D01*
X121707151Y-96254520D01*
X121729329Y-96244030D01*
X121752429Y-96235765D01*
X121776227Y-96229804D01*
X121800496Y-96226204D01*
X121825000Y-96225000D01*
X122575000Y-96225000D01*
X122599504Y-96226204D01*
X122599504Y-96226204D01*
G37*
D12*
X122200000Y-97100000D03*
D10*
G36*
X119799504Y-96226204D02*
G01*
X119823773Y-96229804D01*
X119847571Y-96235765D01*
X119870671Y-96244030D01*
X119892849Y-96254520D01*
X119913893Y-96267133D01*
X119933598Y-96281747D01*
X119951777Y-96298223D01*
X119968253Y-96316402D01*
X119982867Y-96336107D01*
X119995480Y-96357151D01*
X120005970Y-96379329D01*
X120014235Y-96402429D01*
X120020196Y-96426227D01*
X120023796Y-96450496D01*
X120025000Y-96475000D01*
X120025000Y-97725000D01*
X120023796Y-97749504D01*
X120020196Y-97773773D01*
X120014235Y-97797571D01*
X120005970Y-97820671D01*
X119995480Y-97842849D01*
X119982867Y-97863893D01*
X119968253Y-97883598D01*
X119951777Y-97901777D01*
X119933598Y-97918253D01*
X119913893Y-97932867D01*
X119892849Y-97945480D01*
X119870671Y-97955970D01*
X119847571Y-97964235D01*
X119823773Y-97970196D01*
X119799504Y-97973796D01*
X119775000Y-97975000D01*
X119025000Y-97975000D01*
X119000496Y-97973796D01*
X118976227Y-97970196D01*
X118952429Y-97964235D01*
X118929329Y-97955970D01*
X118907151Y-97945480D01*
X118886107Y-97932867D01*
X118866402Y-97918253D01*
X118848223Y-97901777D01*
X118831747Y-97883598D01*
X118817133Y-97863893D01*
X118804520Y-97842849D01*
X118794030Y-97820671D01*
X118785765Y-97797571D01*
X118779804Y-97773773D01*
X118776204Y-97749504D01*
X118775000Y-97725000D01*
X118775000Y-96475000D01*
X118776204Y-96450496D01*
X118779804Y-96426227D01*
X118785765Y-96402429D01*
X118794030Y-96379329D01*
X118804520Y-96357151D01*
X118817133Y-96336107D01*
X118831747Y-96316402D01*
X118848223Y-96298223D01*
X118866402Y-96281747D01*
X118886107Y-96267133D01*
X118907151Y-96254520D01*
X118929329Y-96244030D01*
X118952429Y-96235765D01*
X118976227Y-96229804D01*
X119000496Y-96226204D01*
X119025000Y-96225000D01*
X119775000Y-96225000D01*
X119799504Y-96226204D01*
X119799504Y-96226204D01*
G37*
D12*
X119400000Y-97100000D03*
D10*
G36*
X153649504Y-77676204D02*
G01*
X153673773Y-77679804D01*
X153697571Y-77685765D01*
X153720671Y-77694030D01*
X153742849Y-77704520D01*
X153763893Y-77717133D01*
X153783598Y-77731747D01*
X153801777Y-77748223D01*
X153818253Y-77766402D01*
X153832867Y-77786107D01*
X153845480Y-77807151D01*
X153855970Y-77829329D01*
X153864235Y-77852429D01*
X153870196Y-77876227D01*
X153873796Y-77900496D01*
X153875000Y-77925000D01*
X153875000Y-78675000D01*
X153873796Y-78699504D01*
X153870196Y-78723773D01*
X153864235Y-78747571D01*
X153855970Y-78770671D01*
X153845480Y-78792849D01*
X153832867Y-78813893D01*
X153818253Y-78833598D01*
X153801777Y-78851777D01*
X153783598Y-78868253D01*
X153763893Y-78882867D01*
X153742849Y-78895480D01*
X153720671Y-78905970D01*
X153697571Y-78914235D01*
X153673773Y-78920196D01*
X153649504Y-78923796D01*
X153625000Y-78925000D01*
X152375000Y-78925000D01*
X152350496Y-78923796D01*
X152326227Y-78920196D01*
X152302429Y-78914235D01*
X152279329Y-78905970D01*
X152257151Y-78895480D01*
X152236107Y-78882867D01*
X152216402Y-78868253D01*
X152198223Y-78851777D01*
X152181747Y-78833598D01*
X152167133Y-78813893D01*
X152154520Y-78792849D01*
X152144030Y-78770671D01*
X152135765Y-78747571D01*
X152129804Y-78723773D01*
X152126204Y-78699504D01*
X152125000Y-78675000D01*
X152125000Y-77925000D01*
X152126204Y-77900496D01*
X152129804Y-77876227D01*
X152135765Y-77852429D01*
X152144030Y-77829329D01*
X152154520Y-77807151D01*
X152167133Y-77786107D01*
X152181747Y-77766402D01*
X152198223Y-77748223D01*
X152216402Y-77731747D01*
X152236107Y-77717133D01*
X152257151Y-77704520D01*
X152279329Y-77694030D01*
X152302429Y-77685765D01*
X152326227Y-77679804D01*
X152350496Y-77676204D01*
X152375000Y-77675000D01*
X153625000Y-77675000D01*
X153649504Y-77676204D01*
X153649504Y-77676204D01*
G37*
D12*
X153000000Y-78300000D03*
D10*
G36*
X153649504Y-74876204D02*
G01*
X153673773Y-74879804D01*
X153697571Y-74885765D01*
X153720671Y-74894030D01*
X153742849Y-74904520D01*
X153763893Y-74917133D01*
X153783598Y-74931747D01*
X153801777Y-74948223D01*
X153818253Y-74966402D01*
X153832867Y-74986107D01*
X153845480Y-75007151D01*
X153855970Y-75029329D01*
X153864235Y-75052429D01*
X153870196Y-75076227D01*
X153873796Y-75100496D01*
X153875000Y-75125000D01*
X153875000Y-75875000D01*
X153873796Y-75899504D01*
X153870196Y-75923773D01*
X153864235Y-75947571D01*
X153855970Y-75970671D01*
X153845480Y-75992849D01*
X153832867Y-76013893D01*
X153818253Y-76033598D01*
X153801777Y-76051777D01*
X153783598Y-76068253D01*
X153763893Y-76082867D01*
X153742849Y-76095480D01*
X153720671Y-76105970D01*
X153697571Y-76114235D01*
X153673773Y-76120196D01*
X153649504Y-76123796D01*
X153625000Y-76125000D01*
X152375000Y-76125000D01*
X152350496Y-76123796D01*
X152326227Y-76120196D01*
X152302429Y-76114235D01*
X152279329Y-76105970D01*
X152257151Y-76095480D01*
X152236107Y-76082867D01*
X152216402Y-76068253D01*
X152198223Y-76051777D01*
X152181747Y-76033598D01*
X152167133Y-76013893D01*
X152154520Y-75992849D01*
X152144030Y-75970671D01*
X152135765Y-75947571D01*
X152129804Y-75923773D01*
X152126204Y-75899504D01*
X152125000Y-75875000D01*
X152125000Y-75125000D01*
X152126204Y-75100496D01*
X152129804Y-75076227D01*
X152135765Y-75052429D01*
X152144030Y-75029329D01*
X152154520Y-75007151D01*
X152167133Y-74986107D01*
X152181747Y-74966402D01*
X152198223Y-74948223D01*
X152216402Y-74931747D01*
X152236107Y-74917133D01*
X152257151Y-74904520D01*
X152279329Y-74894030D01*
X152302429Y-74885765D01*
X152326227Y-74879804D01*
X152350496Y-74876204D01*
X152375000Y-74875000D01*
X153625000Y-74875000D01*
X153649504Y-74876204D01*
X153649504Y-74876204D01*
G37*
D12*
X153000000Y-75500000D03*
D10*
G36*
X151249504Y-74876204D02*
G01*
X151273773Y-74879804D01*
X151297571Y-74885765D01*
X151320671Y-74894030D01*
X151342849Y-74904520D01*
X151363893Y-74917133D01*
X151383598Y-74931747D01*
X151401777Y-74948223D01*
X151418253Y-74966402D01*
X151432867Y-74986107D01*
X151445480Y-75007151D01*
X151455970Y-75029329D01*
X151464235Y-75052429D01*
X151470196Y-75076227D01*
X151473796Y-75100496D01*
X151475000Y-75125000D01*
X151475000Y-75875000D01*
X151473796Y-75899504D01*
X151470196Y-75923773D01*
X151464235Y-75947571D01*
X151455970Y-75970671D01*
X151445480Y-75992849D01*
X151432867Y-76013893D01*
X151418253Y-76033598D01*
X151401777Y-76051777D01*
X151383598Y-76068253D01*
X151363893Y-76082867D01*
X151342849Y-76095480D01*
X151320671Y-76105970D01*
X151297571Y-76114235D01*
X151273773Y-76120196D01*
X151249504Y-76123796D01*
X151225000Y-76125000D01*
X149975000Y-76125000D01*
X149950496Y-76123796D01*
X149926227Y-76120196D01*
X149902429Y-76114235D01*
X149879329Y-76105970D01*
X149857151Y-76095480D01*
X149836107Y-76082867D01*
X149816402Y-76068253D01*
X149798223Y-76051777D01*
X149781747Y-76033598D01*
X149767133Y-76013893D01*
X149754520Y-75992849D01*
X149744030Y-75970671D01*
X149735765Y-75947571D01*
X149729804Y-75923773D01*
X149726204Y-75899504D01*
X149725000Y-75875000D01*
X149725000Y-75125000D01*
X149726204Y-75100496D01*
X149729804Y-75076227D01*
X149735765Y-75052429D01*
X149744030Y-75029329D01*
X149754520Y-75007151D01*
X149767133Y-74986107D01*
X149781747Y-74966402D01*
X149798223Y-74948223D01*
X149816402Y-74931747D01*
X149836107Y-74917133D01*
X149857151Y-74904520D01*
X149879329Y-74894030D01*
X149902429Y-74885765D01*
X149926227Y-74879804D01*
X149950496Y-74876204D01*
X149975000Y-74875000D01*
X151225000Y-74875000D01*
X151249504Y-74876204D01*
X151249504Y-74876204D01*
G37*
D12*
X150600000Y-75500000D03*
D10*
G36*
X151249504Y-77676204D02*
G01*
X151273773Y-77679804D01*
X151297571Y-77685765D01*
X151320671Y-77694030D01*
X151342849Y-77704520D01*
X151363893Y-77717133D01*
X151383598Y-77731747D01*
X151401777Y-77748223D01*
X151418253Y-77766402D01*
X151432867Y-77786107D01*
X151445480Y-77807151D01*
X151455970Y-77829329D01*
X151464235Y-77852429D01*
X151470196Y-77876227D01*
X151473796Y-77900496D01*
X151475000Y-77925000D01*
X151475000Y-78675000D01*
X151473796Y-78699504D01*
X151470196Y-78723773D01*
X151464235Y-78747571D01*
X151455970Y-78770671D01*
X151445480Y-78792849D01*
X151432867Y-78813893D01*
X151418253Y-78833598D01*
X151401777Y-78851777D01*
X151383598Y-78868253D01*
X151363893Y-78882867D01*
X151342849Y-78895480D01*
X151320671Y-78905970D01*
X151297571Y-78914235D01*
X151273773Y-78920196D01*
X151249504Y-78923796D01*
X151225000Y-78925000D01*
X149975000Y-78925000D01*
X149950496Y-78923796D01*
X149926227Y-78920196D01*
X149902429Y-78914235D01*
X149879329Y-78905970D01*
X149857151Y-78895480D01*
X149836107Y-78882867D01*
X149816402Y-78868253D01*
X149798223Y-78851777D01*
X149781747Y-78833598D01*
X149767133Y-78813893D01*
X149754520Y-78792849D01*
X149744030Y-78770671D01*
X149735765Y-78747571D01*
X149729804Y-78723773D01*
X149726204Y-78699504D01*
X149725000Y-78675000D01*
X149725000Y-77925000D01*
X149726204Y-77900496D01*
X149729804Y-77876227D01*
X149735765Y-77852429D01*
X149744030Y-77829329D01*
X149754520Y-77807151D01*
X149767133Y-77786107D01*
X149781747Y-77766402D01*
X149798223Y-77748223D01*
X149816402Y-77731747D01*
X149836107Y-77717133D01*
X149857151Y-77704520D01*
X149879329Y-77694030D01*
X149902429Y-77685765D01*
X149926227Y-77679804D01*
X149950496Y-77676204D01*
X149975000Y-77675000D01*
X151225000Y-77675000D01*
X151249504Y-77676204D01*
X151249504Y-77676204D01*
G37*
D12*
X150600000Y-78300000D03*
D10*
G36*
X115999504Y-82626204D02*
G01*
X116023773Y-82629804D01*
X116047571Y-82635765D01*
X116070671Y-82644030D01*
X116092849Y-82654520D01*
X116113893Y-82667133D01*
X116133598Y-82681747D01*
X116151777Y-82698223D01*
X116168253Y-82716402D01*
X116182867Y-82736107D01*
X116195480Y-82757151D01*
X116205970Y-82779329D01*
X116214235Y-82802429D01*
X116220196Y-82826227D01*
X116223796Y-82850496D01*
X116225000Y-82875000D01*
X116225000Y-84125000D01*
X116223796Y-84149504D01*
X116220196Y-84173773D01*
X116214235Y-84197571D01*
X116205970Y-84220671D01*
X116195480Y-84242849D01*
X116182867Y-84263893D01*
X116168253Y-84283598D01*
X116151777Y-84301777D01*
X116133598Y-84318253D01*
X116113893Y-84332867D01*
X116092849Y-84345480D01*
X116070671Y-84355970D01*
X116047571Y-84364235D01*
X116023773Y-84370196D01*
X115999504Y-84373796D01*
X115975000Y-84375000D01*
X115225000Y-84375000D01*
X115200496Y-84373796D01*
X115176227Y-84370196D01*
X115152429Y-84364235D01*
X115129329Y-84355970D01*
X115107151Y-84345480D01*
X115086107Y-84332867D01*
X115066402Y-84318253D01*
X115048223Y-84301777D01*
X115031747Y-84283598D01*
X115017133Y-84263893D01*
X115004520Y-84242849D01*
X114994030Y-84220671D01*
X114985765Y-84197571D01*
X114979804Y-84173773D01*
X114976204Y-84149504D01*
X114975000Y-84125000D01*
X114975000Y-82875000D01*
X114976204Y-82850496D01*
X114979804Y-82826227D01*
X114985765Y-82802429D01*
X114994030Y-82779329D01*
X115004520Y-82757151D01*
X115017133Y-82736107D01*
X115031747Y-82716402D01*
X115048223Y-82698223D01*
X115066402Y-82681747D01*
X115086107Y-82667133D01*
X115107151Y-82654520D01*
X115129329Y-82644030D01*
X115152429Y-82635765D01*
X115176227Y-82629804D01*
X115200496Y-82626204D01*
X115225000Y-82625000D01*
X115975000Y-82625000D01*
X115999504Y-82626204D01*
X115999504Y-82626204D01*
G37*
D12*
X115600000Y-83500000D03*
D10*
G36*
X113199504Y-82626204D02*
G01*
X113223773Y-82629804D01*
X113247571Y-82635765D01*
X113270671Y-82644030D01*
X113292849Y-82654520D01*
X113313893Y-82667133D01*
X113333598Y-82681747D01*
X113351777Y-82698223D01*
X113368253Y-82716402D01*
X113382867Y-82736107D01*
X113395480Y-82757151D01*
X113405970Y-82779329D01*
X113414235Y-82802429D01*
X113420196Y-82826227D01*
X113423796Y-82850496D01*
X113425000Y-82875000D01*
X113425000Y-84125000D01*
X113423796Y-84149504D01*
X113420196Y-84173773D01*
X113414235Y-84197571D01*
X113405970Y-84220671D01*
X113395480Y-84242849D01*
X113382867Y-84263893D01*
X113368253Y-84283598D01*
X113351777Y-84301777D01*
X113333598Y-84318253D01*
X113313893Y-84332867D01*
X113292849Y-84345480D01*
X113270671Y-84355970D01*
X113247571Y-84364235D01*
X113223773Y-84370196D01*
X113199504Y-84373796D01*
X113175000Y-84375000D01*
X112425000Y-84375000D01*
X112400496Y-84373796D01*
X112376227Y-84370196D01*
X112352429Y-84364235D01*
X112329329Y-84355970D01*
X112307151Y-84345480D01*
X112286107Y-84332867D01*
X112266402Y-84318253D01*
X112248223Y-84301777D01*
X112231747Y-84283598D01*
X112217133Y-84263893D01*
X112204520Y-84242849D01*
X112194030Y-84220671D01*
X112185765Y-84197571D01*
X112179804Y-84173773D01*
X112176204Y-84149504D01*
X112175000Y-84125000D01*
X112175000Y-82875000D01*
X112176204Y-82850496D01*
X112179804Y-82826227D01*
X112185765Y-82802429D01*
X112194030Y-82779329D01*
X112204520Y-82757151D01*
X112217133Y-82736107D01*
X112231747Y-82716402D01*
X112248223Y-82698223D01*
X112266402Y-82681747D01*
X112286107Y-82667133D01*
X112307151Y-82654520D01*
X112329329Y-82644030D01*
X112352429Y-82635765D01*
X112376227Y-82629804D01*
X112400496Y-82626204D01*
X112425000Y-82625000D01*
X113175000Y-82625000D01*
X113199504Y-82626204D01*
X113199504Y-82626204D01*
G37*
D12*
X112800000Y-83500000D03*
D10*
G36*
X113199504Y-80026204D02*
G01*
X113223773Y-80029804D01*
X113247571Y-80035765D01*
X113270671Y-80044030D01*
X113292849Y-80054520D01*
X113313893Y-80067133D01*
X113333598Y-80081747D01*
X113351777Y-80098223D01*
X113368253Y-80116402D01*
X113382867Y-80136107D01*
X113395480Y-80157151D01*
X113405970Y-80179329D01*
X113414235Y-80202429D01*
X113420196Y-80226227D01*
X113423796Y-80250496D01*
X113425000Y-80275000D01*
X113425000Y-81525000D01*
X113423796Y-81549504D01*
X113420196Y-81573773D01*
X113414235Y-81597571D01*
X113405970Y-81620671D01*
X113395480Y-81642849D01*
X113382867Y-81663893D01*
X113368253Y-81683598D01*
X113351777Y-81701777D01*
X113333598Y-81718253D01*
X113313893Y-81732867D01*
X113292849Y-81745480D01*
X113270671Y-81755970D01*
X113247571Y-81764235D01*
X113223773Y-81770196D01*
X113199504Y-81773796D01*
X113175000Y-81775000D01*
X112425000Y-81775000D01*
X112400496Y-81773796D01*
X112376227Y-81770196D01*
X112352429Y-81764235D01*
X112329329Y-81755970D01*
X112307151Y-81745480D01*
X112286107Y-81732867D01*
X112266402Y-81718253D01*
X112248223Y-81701777D01*
X112231747Y-81683598D01*
X112217133Y-81663893D01*
X112204520Y-81642849D01*
X112194030Y-81620671D01*
X112185765Y-81597571D01*
X112179804Y-81573773D01*
X112176204Y-81549504D01*
X112175000Y-81525000D01*
X112175000Y-80275000D01*
X112176204Y-80250496D01*
X112179804Y-80226227D01*
X112185765Y-80202429D01*
X112194030Y-80179329D01*
X112204520Y-80157151D01*
X112217133Y-80136107D01*
X112231747Y-80116402D01*
X112248223Y-80098223D01*
X112266402Y-80081747D01*
X112286107Y-80067133D01*
X112307151Y-80054520D01*
X112329329Y-80044030D01*
X112352429Y-80035765D01*
X112376227Y-80029804D01*
X112400496Y-80026204D01*
X112425000Y-80025000D01*
X113175000Y-80025000D01*
X113199504Y-80026204D01*
X113199504Y-80026204D01*
G37*
D12*
X112800000Y-80900000D03*
D10*
G36*
X115999504Y-80026204D02*
G01*
X116023773Y-80029804D01*
X116047571Y-80035765D01*
X116070671Y-80044030D01*
X116092849Y-80054520D01*
X116113893Y-80067133D01*
X116133598Y-80081747D01*
X116151777Y-80098223D01*
X116168253Y-80116402D01*
X116182867Y-80136107D01*
X116195480Y-80157151D01*
X116205970Y-80179329D01*
X116214235Y-80202429D01*
X116220196Y-80226227D01*
X116223796Y-80250496D01*
X116225000Y-80275000D01*
X116225000Y-81525000D01*
X116223796Y-81549504D01*
X116220196Y-81573773D01*
X116214235Y-81597571D01*
X116205970Y-81620671D01*
X116195480Y-81642849D01*
X116182867Y-81663893D01*
X116168253Y-81683598D01*
X116151777Y-81701777D01*
X116133598Y-81718253D01*
X116113893Y-81732867D01*
X116092849Y-81745480D01*
X116070671Y-81755970D01*
X116047571Y-81764235D01*
X116023773Y-81770196D01*
X115999504Y-81773796D01*
X115975000Y-81775000D01*
X115225000Y-81775000D01*
X115200496Y-81773796D01*
X115176227Y-81770196D01*
X115152429Y-81764235D01*
X115129329Y-81755970D01*
X115107151Y-81745480D01*
X115086107Y-81732867D01*
X115066402Y-81718253D01*
X115048223Y-81701777D01*
X115031747Y-81683598D01*
X115017133Y-81663893D01*
X115004520Y-81642849D01*
X114994030Y-81620671D01*
X114985765Y-81597571D01*
X114979804Y-81573773D01*
X114976204Y-81549504D01*
X114975000Y-81525000D01*
X114975000Y-80275000D01*
X114976204Y-80250496D01*
X114979804Y-80226227D01*
X114985765Y-80202429D01*
X114994030Y-80179329D01*
X115004520Y-80157151D01*
X115017133Y-80136107D01*
X115031747Y-80116402D01*
X115048223Y-80098223D01*
X115066402Y-80081747D01*
X115086107Y-80067133D01*
X115107151Y-80054520D01*
X115129329Y-80044030D01*
X115152429Y-80035765D01*
X115176227Y-80029804D01*
X115200496Y-80026204D01*
X115225000Y-80025000D01*
X115975000Y-80025000D01*
X115999504Y-80026204D01*
X115999504Y-80026204D01*
G37*
D12*
X115600000Y-80900000D03*
D10*
G36*
X117649504Y-65476204D02*
G01*
X117673773Y-65479804D01*
X117697571Y-65485765D01*
X117720671Y-65494030D01*
X117742849Y-65504520D01*
X117763893Y-65517133D01*
X117783598Y-65531747D01*
X117801777Y-65548223D01*
X117818253Y-65566402D01*
X117832867Y-65586107D01*
X117845480Y-65607151D01*
X117855970Y-65629329D01*
X117864235Y-65652429D01*
X117870196Y-65676227D01*
X117873796Y-65700496D01*
X117875000Y-65725000D01*
X117875000Y-66475000D01*
X117873796Y-66499504D01*
X117870196Y-66523773D01*
X117864235Y-66547571D01*
X117855970Y-66570671D01*
X117845480Y-66592849D01*
X117832867Y-66613893D01*
X117818253Y-66633598D01*
X117801777Y-66651777D01*
X117783598Y-66668253D01*
X117763893Y-66682867D01*
X117742849Y-66695480D01*
X117720671Y-66705970D01*
X117697571Y-66714235D01*
X117673773Y-66720196D01*
X117649504Y-66723796D01*
X117625000Y-66725000D01*
X116375000Y-66725000D01*
X116350496Y-66723796D01*
X116326227Y-66720196D01*
X116302429Y-66714235D01*
X116279329Y-66705970D01*
X116257151Y-66695480D01*
X116236107Y-66682867D01*
X116216402Y-66668253D01*
X116198223Y-66651777D01*
X116181747Y-66633598D01*
X116167133Y-66613893D01*
X116154520Y-66592849D01*
X116144030Y-66570671D01*
X116135765Y-66547571D01*
X116129804Y-66523773D01*
X116126204Y-66499504D01*
X116125000Y-66475000D01*
X116125000Y-65725000D01*
X116126204Y-65700496D01*
X116129804Y-65676227D01*
X116135765Y-65652429D01*
X116144030Y-65629329D01*
X116154520Y-65607151D01*
X116167133Y-65586107D01*
X116181747Y-65566402D01*
X116198223Y-65548223D01*
X116216402Y-65531747D01*
X116236107Y-65517133D01*
X116257151Y-65504520D01*
X116279329Y-65494030D01*
X116302429Y-65485765D01*
X116326227Y-65479804D01*
X116350496Y-65476204D01*
X116375000Y-65475000D01*
X117625000Y-65475000D01*
X117649504Y-65476204D01*
X117649504Y-65476204D01*
G37*
D12*
X117000000Y-66100000D03*
D10*
G36*
X117649504Y-68276204D02*
G01*
X117673773Y-68279804D01*
X117697571Y-68285765D01*
X117720671Y-68294030D01*
X117742849Y-68304520D01*
X117763893Y-68317133D01*
X117783598Y-68331747D01*
X117801777Y-68348223D01*
X117818253Y-68366402D01*
X117832867Y-68386107D01*
X117845480Y-68407151D01*
X117855970Y-68429329D01*
X117864235Y-68452429D01*
X117870196Y-68476227D01*
X117873796Y-68500496D01*
X117875000Y-68525000D01*
X117875000Y-69275000D01*
X117873796Y-69299504D01*
X117870196Y-69323773D01*
X117864235Y-69347571D01*
X117855970Y-69370671D01*
X117845480Y-69392849D01*
X117832867Y-69413893D01*
X117818253Y-69433598D01*
X117801777Y-69451777D01*
X117783598Y-69468253D01*
X117763893Y-69482867D01*
X117742849Y-69495480D01*
X117720671Y-69505970D01*
X117697571Y-69514235D01*
X117673773Y-69520196D01*
X117649504Y-69523796D01*
X117625000Y-69525000D01*
X116375000Y-69525000D01*
X116350496Y-69523796D01*
X116326227Y-69520196D01*
X116302429Y-69514235D01*
X116279329Y-69505970D01*
X116257151Y-69495480D01*
X116236107Y-69482867D01*
X116216402Y-69468253D01*
X116198223Y-69451777D01*
X116181747Y-69433598D01*
X116167133Y-69413893D01*
X116154520Y-69392849D01*
X116144030Y-69370671D01*
X116135765Y-69347571D01*
X116129804Y-69323773D01*
X116126204Y-69299504D01*
X116125000Y-69275000D01*
X116125000Y-68525000D01*
X116126204Y-68500496D01*
X116129804Y-68476227D01*
X116135765Y-68452429D01*
X116144030Y-68429329D01*
X116154520Y-68407151D01*
X116167133Y-68386107D01*
X116181747Y-68366402D01*
X116198223Y-68348223D01*
X116216402Y-68331747D01*
X116236107Y-68317133D01*
X116257151Y-68304520D01*
X116279329Y-68294030D01*
X116302429Y-68285765D01*
X116326227Y-68279804D01*
X116350496Y-68276204D01*
X116375000Y-68275000D01*
X117625000Y-68275000D01*
X117649504Y-68276204D01*
X117649504Y-68276204D01*
G37*
D12*
X117000000Y-68900000D03*
D10*
G36*
X166399504Y-85826204D02*
G01*
X166423773Y-85829804D01*
X166447571Y-85835765D01*
X166470671Y-85844030D01*
X166492849Y-85854520D01*
X166513893Y-85867133D01*
X166533598Y-85881747D01*
X166551777Y-85898223D01*
X166568253Y-85916402D01*
X166582867Y-85936107D01*
X166595480Y-85957151D01*
X166605970Y-85979329D01*
X166614235Y-86002429D01*
X166620196Y-86026227D01*
X166623796Y-86050496D01*
X166625000Y-86075000D01*
X166625000Y-87325000D01*
X166623796Y-87349504D01*
X166620196Y-87373773D01*
X166614235Y-87397571D01*
X166605970Y-87420671D01*
X166595480Y-87442849D01*
X166582867Y-87463893D01*
X166568253Y-87483598D01*
X166551777Y-87501777D01*
X166533598Y-87518253D01*
X166513893Y-87532867D01*
X166492849Y-87545480D01*
X166470671Y-87555970D01*
X166447571Y-87564235D01*
X166423773Y-87570196D01*
X166399504Y-87573796D01*
X166375000Y-87575000D01*
X165625000Y-87575000D01*
X165600496Y-87573796D01*
X165576227Y-87570196D01*
X165552429Y-87564235D01*
X165529329Y-87555970D01*
X165507151Y-87545480D01*
X165486107Y-87532867D01*
X165466402Y-87518253D01*
X165448223Y-87501777D01*
X165431747Y-87483598D01*
X165417133Y-87463893D01*
X165404520Y-87442849D01*
X165394030Y-87420671D01*
X165385765Y-87397571D01*
X165379804Y-87373773D01*
X165376204Y-87349504D01*
X165375000Y-87325000D01*
X165375000Y-86075000D01*
X165376204Y-86050496D01*
X165379804Y-86026227D01*
X165385765Y-86002429D01*
X165394030Y-85979329D01*
X165404520Y-85957151D01*
X165417133Y-85936107D01*
X165431747Y-85916402D01*
X165448223Y-85898223D01*
X165466402Y-85881747D01*
X165486107Y-85867133D01*
X165507151Y-85854520D01*
X165529329Y-85844030D01*
X165552429Y-85835765D01*
X165576227Y-85829804D01*
X165600496Y-85826204D01*
X165625000Y-85825000D01*
X166375000Y-85825000D01*
X166399504Y-85826204D01*
X166399504Y-85826204D01*
G37*
D12*
X166000000Y-86700000D03*
D10*
G36*
X163599504Y-85826204D02*
G01*
X163623773Y-85829804D01*
X163647571Y-85835765D01*
X163670671Y-85844030D01*
X163692849Y-85854520D01*
X163713893Y-85867133D01*
X163733598Y-85881747D01*
X163751777Y-85898223D01*
X163768253Y-85916402D01*
X163782867Y-85936107D01*
X163795480Y-85957151D01*
X163805970Y-85979329D01*
X163814235Y-86002429D01*
X163820196Y-86026227D01*
X163823796Y-86050496D01*
X163825000Y-86075000D01*
X163825000Y-87325000D01*
X163823796Y-87349504D01*
X163820196Y-87373773D01*
X163814235Y-87397571D01*
X163805970Y-87420671D01*
X163795480Y-87442849D01*
X163782867Y-87463893D01*
X163768253Y-87483598D01*
X163751777Y-87501777D01*
X163733598Y-87518253D01*
X163713893Y-87532867D01*
X163692849Y-87545480D01*
X163670671Y-87555970D01*
X163647571Y-87564235D01*
X163623773Y-87570196D01*
X163599504Y-87573796D01*
X163575000Y-87575000D01*
X162825000Y-87575000D01*
X162800496Y-87573796D01*
X162776227Y-87570196D01*
X162752429Y-87564235D01*
X162729329Y-87555970D01*
X162707151Y-87545480D01*
X162686107Y-87532867D01*
X162666402Y-87518253D01*
X162648223Y-87501777D01*
X162631747Y-87483598D01*
X162617133Y-87463893D01*
X162604520Y-87442849D01*
X162594030Y-87420671D01*
X162585765Y-87397571D01*
X162579804Y-87373773D01*
X162576204Y-87349504D01*
X162575000Y-87325000D01*
X162575000Y-86075000D01*
X162576204Y-86050496D01*
X162579804Y-86026227D01*
X162585765Y-86002429D01*
X162594030Y-85979329D01*
X162604520Y-85957151D01*
X162617133Y-85936107D01*
X162631747Y-85916402D01*
X162648223Y-85898223D01*
X162666402Y-85881747D01*
X162686107Y-85867133D01*
X162707151Y-85854520D01*
X162729329Y-85844030D01*
X162752429Y-85835765D01*
X162776227Y-85829804D01*
X162800496Y-85826204D01*
X162825000Y-85825000D01*
X163575000Y-85825000D01*
X163599504Y-85826204D01*
X163599504Y-85826204D01*
G37*
D12*
X163200000Y-86700000D03*
D10*
G36*
X113199504Y-77426204D02*
G01*
X113223773Y-77429804D01*
X113247571Y-77435765D01*
X113270671Y-77444030D01*
X113292849Y-77454520D01*
X113313893Y-77467133D01*
X113333598Y-77481747D01*
X113351777Y-77498223D01*
X113368253Y-77516402D01*
X113382867Y-77536107D01*
X113395480Y-77557151D01*
X113405970Y-77579329D01*
X113414235Y-77602429D01*
X113420196Y-77626227D01*
X113423796Y-77650496D01*
X113425000Y-77675000D01*
X113425000Y-78925000D01*
X113423796Y-78949504D01*
X113420196Y-78973773D01*
X113414235Y-78997571D01*
X113405970Y-79020671D01*
X113395480Y-79042849D01*
X113382867Y-79063893D01*
X113368253Y-79083598D01*
X113351777Y-79101777D01*
X113333598Y-79118253D01*
X113313893Y-79132867D01*
X113292849Y-79145480D01*
X113270671Y-79155970D01*
X113247571Y-79164235D01*
X113223773Y-79170196D01*
X113199504Y-79173796D01*
X113175000Y-79175000D01*
X112425000Y-79175000D01*
X112400496Y-79173796D01*
X112376227Y-79170196D01*
X112352429Y-79164235D01*
X112329329Y-79155970D01*
X112307151Y-79145480D01*
X112286107Y-79132867D01*
X112266402Y-79118253D01*
X112248223Y-79101777D01*
X112231747Y-79083598D01*
X112217133Y-79063893D01*
X112204520Y-79042849D01*
X112194030Y-79020671D01*
X112185765Y-78997571D01*
X112179804Y-78973773D01*
X112176204Y-78949504D01*
X112175000Y-78925000D01*
X112175000Y-77675000D01*
X112176204Y-77650496D01*
X112179804Y-77626227D01*
X112185765Y-77602429D01*
X112194030Y-77579329D01*
X112204520Y-77557151D01*
X112217133Y-77536107D01*
X112231747Y-77516402D01*
X112248223Y-77498223D01*
X112266402Y-77481747D01*
X112286107Y-77467133D01*
X112307151Y-77454520D01*
X112329329Y-77444030D01*
X112352429Y-77435765D01*
X112376227Y-77429804D01*
X112400496Y-77426204D01*
X112425000Y-77425000D01*
X113175000Y-77425000D01*
X113199504Y-77426204D01*
X113199504Y-77426204D01*
G37*
D12*
X112800000Y-78300000D03*
D10*
G36*
X115999504Y-77426204D02*
G01*
X116023773Y-77429804D01*
X116047571Y-77435765D01*
X116070671Y-77444030D01*
X116092849Y-77454520D01*
X116113893Y-77467133D01*
X116133598Y-77481747D01*
X116151777Y-77498223D01*
X116168253Y-77516402D01*
X116182867Y-77536107D01*
X116195480Y-77557151D01*
X116205970Y-77579329D01*
X116214235Y-77602429D01*
X116220196Y-77626227D01*
X116223796Y-77650496D01*
X116225000Y-77675000D01*
X116225000Y-78925000D01*
X116223796Y-78949504D01*
X116220196Y-78973773D01*
X116214235Y-78997571D01*
X116205970Y-79020671D01*
X116195480Y-79042849D01*
X116182867Y-79063893D01*
X116168253Y-79083598D01*
X116151777Y-79101777D01*
X116133598Y-79118253D01*
X116113893Y-79132867D01*
X116092849Y-79145480D01*
X116070671Y-79155970D01*
X116047571Y-79164235D01*
X116023773Y-79170196D01*
X115999504Y-79173796D01*
X115975000Y-79175000D01*
X115225000Y-79175000D01*
X115200496Y-79173796D01*
X115176227Y-79170196D01*
X115152429Y-79164235D01*
X115129329Y-79155970D01*
X115107151Y-79145480D01*
X115086107Y-79132867D01*
X115066402Y-79118253D01*
X115048223Y-79101777D01*
X115031747Y-79083598D01*
X115017133Y-79063893D01*
X115004520Y-79042849D01*
X114994030Y-79020671D01*
X114985765Y-78997571D01*
X114979804Y-78973773D01*
X114976204Y-78949504D01*
X114975000Y-78925000D01*
X114975000Y-77675000D01*
X114976204Y-77650496D01*
X114979804Y-77626227D01*
X114985765Y-77602429D01*
X114994030Y-77579329D01*
X115004520Y-77557151D01*
X115017133Y-77536107D01*
X115031747Y-77516402D01*
X115048223Y-77498223D01*
X115066402Y-77481747D01*
X115086107Y-77467133D01*
X115107151Y-77454520D01*
X115129329Y-77444030D01*
X115152429Y-77435765D01*
X115176227Y-77429804D01*
X115200496Y-77426204D01*
X115225000Y-77425000D01*
X115975000Y-77425000D01*
X115999504Y-77426204D01*
X115999504Y-77426204D01*
G37*
D12*
X115600000Y-78300000D03*
D10*
G36*
X104599504Y-69226204D02*
G01*
X104623773Y-69229804D01*
X104647571Y-69235765D01*
X104670671Y-69244030D01*
X104692849Y-69254520D01*
X104713893Y-69267133D01*
X104733598Y-69281747D01*
X104751777Y-69298223D01*
X104768253Y-69316402D01*
X104782867Y-69336107D01*
X104795480Y-69357151D01*
X104805970Y-69379329D01*
X104814235Y-69402429D01*
X104820196Y-69426227D01*
X104823796Y-69450496D01*
X104825000Y-69475000D01*
X104825000Y-70725000D01*
X104823796Y-70749504D01*
X104820196Y-70773773D01*
X104814235Y-70797571D01*
X104805970Y-70820671D01*
X104795480Y-70842849D01*
X104782867Y-70863893D01*
X104768253Y-70883598D01*
X104751777Y-70901777D01*
X104733598Y-70918253D01*
X104713893Y-70932867D01*
X104692849Y-70945480D01*
X104670671Y-70955970D01*
X104647571Y-70964235D01*
X104623773Y-70970196D01*
X104599504Y-70973796D01*
X104575000Y-70975000D01*
X103825000Y-70975000D01*
X103800496Y-70973796D01*
X103776227Y-70970196D01*
X103752429Y-70964235D01*
X103729329Y-70955970D01*
X103707151Y-70945480D01*
X103686107Y-70932867D01*
X103666402Y-70918253D01*
X103648223Y-70901777D01*
X103631747Y-70883598D01*
X103617133Y-70863893D01*
X103604520Y-70842849D01*
X103594030Y-70820671D01*
X103585765Y-70797571D01*
X103579804Y-70773773D01*
X103576204Y-70749504D01*
X103575000Y-70725000D01*
X103575000Y-69475000D01*
X103576204Y-69450496D01*
X103579804Y-69426227D01*
X103585765Y-69402429D01*
X103594030Y-69379329D01*
X103604520Y-69357151D01*
X103617133Y-69336107D01*
X103631747Y-69316402D01*
X103648223Y-69298223D01*
X103666402Y-69281747D01*
X103686107Y-69267133D01*
X103707151Y-69254520D01*
X103729329Y-69244030D01*
X103752429Y-69235765D01*
X103776227Y-69229804D01*
X103800496Y-69226204D01*
X103825000Y-69225000D01*
X104575000Y-69225000D01*
X104599504Y-69226204D01*
X104599504Y-69226204D01*
G37*
D12*
X104200000Y-70100000D03*
D10*
G36*
X101799504Y-69226204D02*
G01*
X101823773Y-69229804D01*
X101847571Y-69235765D01*
X101870671Y-69244030D01*
X101892849Y-69254520D01*
X101913893Y-69267133D01*
X101933598Y-69281747D01*
X101951777Y-69298223D01*
X101968253Y-69316402D01*
X101982867Y-69336107D01*
X101995480Y-69357151D01*
X102005970Y-69379329D01*
X102014235Y-69402429D01*
X102020196Y-69426227D01*
X102023796Y-69450496D01*
X102025000Y-69475000D01*
X102025000Y-70725000D01*
X102023796Y-70749504D01*
X102020196Y-70773773D01*
X102014235Y-70797571D01*
X102005970Y-70820671D01*
X101995480Y-70842849D01*
X101982867Y-70863893D01*
X101968253Y-70883598D01*
X101951777Y-70901777D01*
X101933598Y-70918253D01*
X101913893Y-70932867D01*
X101892849Y-70945480D01*
X101870671Y-70955970D01*
X101847571Y-70964235D01*
X101823773Y-70970196D01*
X101799504Y-70973796D01*
X101775000Y-70975000D01*
X101025000Y-70975000D01*
X101000496Y-70973796D01*
X100976227Y-70970196D01*
X100952429Y-70964235D01*
X100929329Y-70955970D01*
X100907151Y-70945480D01*
X100886107Y-70932867D01*
X100866402Y-70918253D01*
X100848223Y-70901777D01*
X100831747Y-70883598D01*
X100817133Y-70863893D01*
X100804520Y-70842849D01*
X100794030Y-70820671D01*
X100785765Y-70797571D01*
X100779804Y-70773773D01*
X100776204Y-70749504D01*
X100775000Y-70725000D01*
X100775000Y-69475000D01*
X100776204Y-69450496D01*
X100779804Y-69426227D01*
X100785765Y-69402429D01*
X100794030Y-69379329D01*
X100804520Y-69357151D01*
X100817133Y-69336107D01*
X100831747Y-69316402D01*
X100848223Y-69298223D01*
X100866402Y-69281747D01*
X100886107Y-69267133D01*
X100907151Y-69254520D01*
X100929329Y-69244030D01*
X100952429Y-69235765D01*
X100976227Y-69229804D01*
X101000496Y-69226204D01*
X101025000Y-69225000D01*
X101775000Y-69225000D01*
X101799504Y-69226204D01*
X101799504Y-69226204D01*
G37*
D12*
X101400000Y-70100000D03*
D10*
G36*
X140849504Y-55476204D02*
G01*
X140873773Y-55479804D01*
X140897571Y-55485765D01*
X140920671Y-55494030D01*
X140942849Y-55504520D01*
X140963893Y-55517133D01*
X140983598Y-55531747D01*
X141001777Y-55548223D01*
X141018253Y-55566402D01*
X141032867Y-55586107D01*
X141045480Y-55607151D01*
X141055970Y-55629329D01*
X141064235Y-55652429D01*
X141070196Y-55676227D01*
X141073796Y-55700496D01*
X141075000Y-55725000D01*
X141075000Y-56475000D01*
X141073796Y-56499504D01*
X141070196Y-56523773D01*
X141064235Y-56547571D01*
X141055970Y-56570671D01*
X141045480Y-56592849D01*
X141032867Y-56613893D01*
X141018253Y-56633598D01*
X141001777Y-56651777D01*
X140983598Y-56668253D01*
X140963893Y-56682867D01*
X140942849Y-56695480D01*
X140920671Y-56705970D01*
X140897571Y-56714235D01*
X140873773Y-56720196D01*
X140849504Y-56723796D01*
X140825000Y-56725000D01*
X139575000Y-56725000D01*
X139550496Y-56723796D01*
X139526227Y-56720196D01*
X139502429Y-56714235D01*
X139479329Y-56705970D01*
X139457151Y-56695480D01*
X139436107Y-56682867D01*
X139416402Y-56668253D01*
X139398223Y-56651777D01*
X139381747Y-56633598D01*
X139367133Y-56613893D01*
X139354520Y-56592849D01*
X139344030Y-56570671D01*
X139335765Y-56547571D01*
X139329804Y-56523773D01*
X139326204Y-56499504D01*
X139325000Y-56475000D01*
X139325000Y-55725000D01*
X139326204Y-55700496D01*
X139329804Y-55676227D01*
X139335765Y-55652429D01*
X139344030Y-55629329D01*
X139354520Y-55607151D01*
X139367133Y-55586107D01*
X139381747Y-55566402D01*
X139398223Y-55548223D01*
X139416402Y-55531747D01*
X139436107Y-55517133D01*
X139457151Y-55504520D01*
X139479329Y-55494030D01*
X139502429Y-55485765D01*
X139526227Y-55479804D01*
X139550496Y-55476204D01*
X139575000Y-55475000D01*
X140825000Y-55475000D01*
X140849504Y-55476204D01*
X140849504Y-55476204D01*
G37*
D12*
X140200000Y-56100000D03*
D10*
G36*
X140849504Y-52676204D02*
G01*
X140873773Y-52679804D01*
X140897571Y-52685765D01*
X140920671Y-52694030D01*
X140942849Y-52704520D01*
X140963893Y-52717133D01*
X140983598Y-52731747D01*
X141001777Y-52748223D01*
X141018253Y-52766402D01*
X141032867Y-52786107D01*
X141045480Y-52807151D01*
X141055970Y-52829329D01*
X141064235Y-52852429D01*
X141070196Y-52876227D01*
X141073796Y-52900496D01*
X141075000Y-52925000D01*
X141075000Y-53675000D01*
X141073796Y-53699504D01*
X141070196Y-53723773D01*
X141064235Y-53747571D01*
X141055970Y-53770671D01*
X141045480Y-53792849D01*
X141032867Y-53813893D01*
X141018253Y-53833598D01*
X141001777Y-53851777D01*
X140983598Y-53868253D01*
X140963893Y-53882867D01*
X140942849Y-53895480D01*
X140920671Y-53905970D01*
X140897571Y-53914235D01*
X140873773Y-53920196D01*
X140849504Y-53923796D01*
X140825000Y-53925000D01*
X139575000Y-53925000D01*
X139550496Y-53923796D01*
X139526227Y-53920196D01*
X139502429Y-53914235D01*
X139479329Y-53905970D01*
X139457151Y-53895480D01*
X139436107Y-53882867D01*
X139416402Y-53868253D01*
X139398223Y-53851777D01*
X139381747Y-53833598D01*
X139367133Y-53813893D01*
X139354520Y-53792849D01*
X139344030Y-53770671D01*
X139335765Y-53747571D01*
X139329804Y-53723773D01*
X139326204Y-53699504D01*
X139325000Y-53675000D01*
X139325000Y-52925000D01*
X139326204Y-52900496D01*
X139329804Y-52876227D01*
X139335765Y-52852429D01*
X139344030Y-52829329D01*
X139354520Y-52807151D01*
X139367133Y-52786107D01*
X139381747Y-52766402D01*
X139398223Y-52748223D01*
X139416402Y-52731747D01*
X139436107Y-52717133D01*
X139457151Y-52704520D01*
X139479329Y-52694030D01*
X139502429Y-52685765D01*
X139526227Y-52679804D01*
X139550496Y-52676204D01*
X139575000Y-52675000D01*
X140825000Y-52675000D01*
X140849504Y-52676204D01*
X140849504Y-52676204D01*
G37*
D12*
X140200000Y-53300000D03*
D15*
X124900000Y-74000000D03*
X124900000Y-74800000D03*
X124900000Y-75600000D03*
X124900000Y-76400000D03*
X124900000Y-77200000D03*
X124900000Y-78000000D03*
X124900000Y-78800000D03*
X124900000Y-79600000D03*
X124900000Y-80400000D03*
X124900000Y-81200000D03*
X124900000Y-82000000D03*
X124900000Y-82800000D03*
X124900000Y-83600000D03*
X124900000Y-84400000D03*
X124900000Y-85200000D03*
X124900000Y-86000000D03*
D16*
X126600000Y-87700000D03*
X127400000Y-87700000D03*
X128200000Y-87700000D03*
X129000000Y-87700000D03*
X129800000Y-87700000D03*
X130600000Y-87700000D03*
X131400000Y-87700000D03*
X132200000Y-87700000D03*
X133000000Y-87700000D03*
X133800000Y-87700000D03*
X134600000Y-87700000D03*
X135400000Y-87700000D03*
X136200000Y-87700000D03*
X137000000Y-87700000D03*
X137800000Y-87700000D03*
X138600000Y-87700000D03*
D15*
X140300000Y-86000000D03*
X140300000Y-85200000D03*
X140300000Y-84400000D03*
X140300000Y-83600000D03*
X140300000Y-82800000D03*
X140300000Y-82000000D03*
X140300000Y-81200000D03*
X140300000Y-80400000D03*
X140300000Y-79600000D03*
X140300000Y-78800000D03*
X140300000Y-78000000D03*
X140300000Y-77200000D03*
X140300000Y-76400000D03*
X140300000Y-75600000D03*
X140300000Y-74800000D03*
X140300000Y-74000000D03*
D16*
X138600000Y-72300000D03*
X137800000Y-72300000D03*
X137000000Y-72300000D03*
X136200000Y-72300000D03*
X135400000Y-72300000D03*
X134600000Y-72300000D03*
X133800000Y-72300000D03*
X133000000Y-72300000D03*
X132200000Y-72300000D03*
X131400000Y-72300000D03*
X130600000Y-72300000D03*
X129800000Y-72300000D03*
X129000000Y-72300000D03*
X128200000Y-72300000D03*
X127400000Y-72300000D03*
X126600000Y-72300000D03*
D17*
X123450000Y-61300000D03*
D18*
X129750000Y-61300000D03*
X129750000Y-59000000D03*
X129750000Y-63600000D03*
D19*
X136050000Y-93500000D03*
X127550000Y-93500000D03*
D10*
G36*
X124099504Y-65476204D02*
G01*
X124123773Y-65479804D01*
X124147571Y-65485765D01*
X124170671Y-65494030D01*
X124192849Y-65504520D01*
X124213893Y-65517133D01*
X124233598Y-65531747D01*
X124251777Y-65548223D01*
X124268253Y-65566402D01*
X124282867Y-65586107D01*
X124295480Y-65607151D01*
X124305970Y-65629329D01*
X124314235Y-65652429D01*
X124320196Y-65676227D01*
X124323796Y-65700496D01*
X124325000Y-65725000D01*
X124325000Y-66475000D01*
X124323796Y-66499504D01*
X124320196Y-66523773D01*
X124314235Y-66547571D01*
X124305970Y-66570671D01*
X124295480Y-66592849D01*
X124282867Y-66613893D01*
X124268253Y-66633598D01*
X124251777Y-66651777D01*
X124233598Y-66668253D01*
X124213893Y-66682867D01*
X124192849Y-66695480D01*
X124170671Y-66705970D01*
X124147571Y-66714235D01*
X124123773Y-66720196D01*
X124099504Y-66723796D01*
X124075000Y-66725000D01*
X121925000Y-66725000D01*
X121900496Y-66723796D01*
X121876227Y-66720196D01*
X121852429Y-66714235D01*
X121829329Y-66705970D01*
X121807151Y-66695480D01*
X121786107Y-66682867D01*
X121766402Y-66668253D01*
X121748223Y-66651777D01*
X121731747Y-66633598D01*
X121717133Y-66613893D01*
X121704520Y-66592849D01*
X121694030Y-66570671D01*
X121685765Y-66547571D01*
X121679804Y-66523773D01*
X121676204Y-66499504D01*
X121675000Y-66475000D01*
X121675000Y-65725000D01*
X121676204Y-65700496D01*
X121679804Y-65676227D01*
X121685765Y-65652429D01*
X121694030Y-65629329D01*
X121704520Y-65607151D01*
X121717133Y-65586107D01*
X121731747Y-65566402D01*
X121748223Y-65548223D01*
X121766402Y-65531747D01*
X121786107Y-65517133D01*
X121807151Y-65504520D01*
X121829329Y-65494030D01*
X121852429Y-65485765D01*
X121876227Y-65479804D01*
X121900496Y-65476204D01*
X121925000Y-65475000D01*
X124075000Y-65475000D01*
X124099504Y-65476204D01*
X124099504Y-65476204D01*
G37*
D12*
X123000000Y-66100000D03*
D10*
G36*
X124099504Y-68276204D02*
G01*
X124123773Y-68279804D01*
X124147571Y-68285765D01*
X124170671Y-68294030D01*
X124192849Y-68304520D01*
X124213893Y-68317133D01*
X124233598Y-68331747D01*
X124251777Y-68348223D01*
X124268253Y-68366402D01*
X124282867Y-68386107D01*
X124295480Y-68407151D01*
X124305970Y-68429329D01*
X124314235Y-68452429D01*
X124320196Y-68476227D01*
X124323796Y-68500496D01*
X124325000Y-68525000D01*
X124325000Y-69275000D01*
X124323796Y-69299504D01*
X124320196Y-69323773D01*
X124314235Y-69347571D01*
X124305970Y-69370671D01*
X124295480Y-69392849D01*
X124282867Y-69413893D01*
X124268253Y-69433598D01*
X124251777Y-69451777D01*
X124233598Y-69468253D01*
X124213893Y-69482867D01*
X124192849Y-69495480D01*
X124170671Y-69505970D01*
X124147571Y-69514235D01*
X124123773Y-69520196D01*
X124099504Y-69523796D01*
X124075000Y-69525000D01*
X121925000Y-69525000D01*
X121900496Y-69523796D01*
X121876227Y-69520196D01*
X121852429Y-69514235D01*
X121829329Y-69505970D01*
X121807151Y-69495480D01*
X121786107Y-69482867D01*
X121766402Y-69468253D01*
X121748223Y-69451777D01*
X121731747Y-69433598D01*
X121717133Y-69413893D01*
X121704520Y-69392849D01*
X121694030Y-69370671D01*
X121685765Y-69347571D01*
X121679804Y-69323773D01*
X121676204Y-69299504D01*
X121675000Y-69275000D01*
X121675000Y-68525000D01*
X121676204Y-68500496D01*
X121679804Y-68476227D01*
X121685765Y-68452429D01*
X121694030Y-68429329D01*
X121704520Y-68407151D01*
X121717133Y-68386107D01*
X121731747Y-68366402D01*
X121748223Y-68348223D01*
X121766402Y-68331747D01*
X121786107Y-68317133D01*
X121807151Y-68304520D01*
X121829329Y-68294030D01*
X121852429Y-68285765D01*
X121876227Y-68279804D01*
X121900496Y-68276204D01*
X121925000Y-68275000D01*
X124075000Y-68275000D01*
X124099504Y-68276204D01*
X124099504Y-68276204D01*
G37*
D12*
X123000000Y-68900000D03*
D11*
X119250000Y-94480000D03*
X114750000Y-94480000D03*
X114750000Y-86520000D03*
X119250000Y-86520000D03*
X153300000Y-80920000D03*
X157800000Y-80920000D03*
X157800000Y-88880000D03*
X153300000Y-88880000D03*
D10*
G36*
X130627691Y-89626053D02*
G01*
X130648926Y-89629203D01*
X130669750Y-89634419D01*
X130689962Y-89641651D01*
X130709368Y-89650830D01*
X130727781Y-89661866D01*
X130745024Y-89674654D01*
X130760930Y-89689070D01*
X130775346Y-89704976D01*
X130788134Y-89722219D01*
X130799170Y-89740632D01*
X130808349Y-89760038D01*
X130815581Y-89780250D01*
X130820797Y-89801074D01*
X130823947Y-89822309D01*
X130825000Y-89843750D01*
X130825000Y-90356250D01*
X130823947Y-90377691D01*
X130820797Y-90398926D01*
X130815581Y-90419750D01*
X130808349Y-90439962D01*
X130799170Y-90459368D01*
X130788134Y-90477781D01*
X130775346Y-90495024D01*
X130760930Y-90510930D01*
X130745024Y-90525346D01*
X130727781Y-90538134D01*
X130709368Y-90549170D01*
X130689962Y-90558349D01*
X130669750Y-90565581D01*
X130648926Y-90570797D01*
X130627691Y-90573947D01*
X130606250Y-90575000D01*
X130168750Y-90575000D01*
X130147309Y-90573947D01*
X130126074Y-90570797D01*
X130105250Y-90565581D01*
X130085038Y-90558349D01*
X130065632Y-90549170D01*
X130047219Y-90538134D01*
X130029976Y-90525346D01*
X130014070Y-90510930D01*
X129999654Y-90495024D01*
X129986866Y-90477781D01*
X129975830Y-90459368D01*
X129966651Y-90439962D01*
X129959419Y-90419750D01*
X129954203Y-90398926D01*
X129951053Y-90377691D01*
X129950000Y-90356250D01*
X129950000Y-89843750D01*
X129951053Y-89822309D01*
X129954203Y-89801074D01*
X129959419Y-89780250D01*
X129966651Y-89760038D01*
X129975830Y-89740632D01*
X129986866Y-89722219D01*
X129999654Y-89704976D01*
X130014070Y-89689070D01*
X130029976Y-89674654D01*
X130047219Y-89661866D01*
X130065632Y-89650830D01*
X130085038Y-89641651D01*
X130105250Y-89634419D01*
X130126074Y-89629203D01*
X130147309Y-89626053D01*
X130168750Y-89625000D01*
X130606250Y-89625000D01*
X130627691Y-89626053D01*
X130627691Y-89626053D01*
G37*
D20*
X130387500Y-90100000D03*
D10*
G36*
X129052691Y-89626053D02*
G01*
X129073926Y-89629203D01*
X129094750Y-89634419D01*
X129114962Y-89641651D01*
X129134368Y-89650830D01*
X129152781Y-89661866D01*
X129170024Y-89674654D01*
X129185930Y-89689070D01*
X129200346Y-89704976D01*
X129213134Y-89722219D01*
X129224170Y-89740632D01*
X129233349Y-89760038D01*
X129240581Y-89780250D01*
X129245797Y-89801074D01*
X129248947Y-89822309D01*
X129250000Y-89843750D01*
X129250000Y-90356250D01*
X129248947Y-90377691D01*
X129245797Y-90398926D01*
X129240581Y-90419750D01*
X129233349Y-90439962D01*
X129224170Y-90459368D01*
X129213134Y-90477781D01*
X129200346Y-90495024D01*
X129185930Y-90510930D01*
X129170024Y-90525346D01*
X129152781Y-90538134D01*
X129134368Y-90549170D01*
X129114962Y-90558349D01*
X129094750Y-90565581D01*
X129073926Y-90570797D01*
X129052691Y-90573947D01*
X129031250Y-90575000D01*
X128593750Y-90575000D01*
X128572309Y-90573947D01*
X128551074Y-90570797D01*
X128530250Y-90565581D01*
X128510038Y-90558349D01*
X128490632Y-90549170D01*
X128472219Y-90538134D01*
X128454976Y-90525346D01*
X128439070Y-90510930D01*
X128424654Y-90495024D01*
X128411866Y-90477781D01*
X128400830Y-90459368D01*
X128391651Y-90439962D01*
X128384419Y-90419750D01*
X128379203Y-90398926D01*
X128376053Y-90377691D01*
X128375000Y-90356250D01*
X128375000Y-89843750D01*
X128376053Y-89822309D01*
X128379203Y-89801074D01*
X128384419Y-89780250D01*
X128391651Y-89760038D01*
X128400830Y-89740632D01*
X128411866Y-89722219D01*
X128424654Y-89704976D01*
X128439070Y-89689070D01*
X128454976Y-89674654D01*
X128472219Y-89661866D01*
X128490632Y-89650830D01*
X128510038Y-89641651D01*
X128530250Y-89634419D01*
X128551074Y-89629203D01*
X128572309Y-89626053D01*
X128593750Y-89625000D01*
X129031250Y-89625000D01*
X129052691Y-89626053D01*
X129052691Y-89626053D01*
G37*
D20*
X128812500Y-90100000D03*
D10*
G36*
X135252691Y-69626053D02*
G01*
X135273926Y-69629203D01*
X135294750Y-69634419D01*
X135314962Y-69641651D01*
X135334368Y-69650830D01*
X135352781Y-69661866D01*
X135370024Y-69674654D01*
X135385930Y-69689070D01*
X135400346Y-69704976D01*
X135413134Y-69722219D01*
X135424170Y-69740632D01*
X135433349Y-69760038D01*
X135440581Y-69780250D01*
X135445797Y-69801074D01*
X135448947Y-69822309D01*
X135450000Y-69843750D01*
X135450000Y-70356250D01*
X135448947Y-70377691D01*
X135445797Y-70398926D01*
X135440581Y-70419750D01*
X135433349Y-70439962D01*
X135424170Y-70459368D01*
X135413134Y-70477781D01*
X135400346Y-70495024D01*
X135385930Y-70510930D01*
X135370024Y-70525346D01*
X135352781Y-70538134D01*
X135334368Y-70549170D01*
X135314962Y-70558349D01*
X135294750Y-70565581D01*
X135273926Y-70570797D01*
X135252691Y-70573947D01*
X135231250Y-70575000D01*
X134793750Y-70575000D01*
X134772309Y-70573947D01*
X134751074Y-70570797D01*
X134730250Y-70565581D01*
X134710038Y-70558349D01*
X134690632Y-70549170D01*
X134672219Y-70538134D01*
X134654976Y-70525346D01*
X134639070Y-70510930D01*
X134624654Y-70495024D01*
X134611866Y-70477781D01*
X134600830Y-70459368D01*
X134591651Y-70439962D01*
X134584419Y-70419750D01*
X134579203Y-70398926D01*
X134576053Y-70377691D01*
X134575000Y-70356250D01*
X134575000Y-69843750D01*
X134576053Y-69822309D01*
X134579203Y-69801074D01*
X134584419Y-69780250D01*
X134591651Y-69760038D01*
X134600830Y-69740632D01*
X134611866Y-69722219D01*
X134624654Y-69704976D01*
X134639070Y-69689070D01*
X134654976Y-69674654D01*
X134672219Y-69661866D01*
X134690632Y-69650830D01*
X134710038Y-69641651D01*
X134730250Y-69634419D01*
X134751074Y-69629203D01*
X134772309Y-69626053D01*
X134793750Y-69625000D01*
X135231250Y-69625000D01*
X135252691Y-69626053D01*
X135252691Y-69626053D01*
G37*
D20*
X135012500Y-70100000D03*
D10*
G36*
X136827691Y-69626053D02*
G01*
X136848926Y-69629203D01*
X136869750Y-69634419D01*
X136889962Y-69641651D01*
X136909368Y-69650830D01*
X136927781Y-69661866D01*
X136945024Y-69674654D01*
X136960930Y-69689070D01*
X136975346Y-69704976D01*
X136988134Y-69722219D01*
X136999170Y-69740632D01*
X137008349Y-69760038D01*
X137015581Y-69780250D01*
X137020797Y-69801074D01*
X137023947Y-69822309D01*
X137025000Y-69843750D01*
X137025000Y-70356250D01*
X137023947Y-70377691D01*
X137020797Y-70398926D01*
X137015581Y-70419750D01*
X137008349Y-70439962D01*
X136999170Y-70459368D01*
X136988134Y-70477781D01*
X136975346Y-70495024D01*
X136960930Y-70510930D01*
X136945024Y-70525346D01*
X136927781Y-70538134D01*
X136909368Y-70549170D01*
X136889962Y-70558349D01*
X136869750Y-70565581D01*
X136848926Y-70570797D01*
X136827691Y-70573947D01*
X136806250Y-70575000D01*
X136368750Y-70575000D01*
X136347309Y-70573947D01*
X136326074Y-70570797D01*
X136305250Y-70565581D01*
X136285038Y-70558349D01*
X136265632Y-70549170D01*
X136247219Y-70538134D01*
X136229976Y-70525346D01*
X136214070Y-70510930D01*
X136199654Y-70495024D01*
X136186866Y-70477781D01*
X136175830Y-70459368D01*
X136166651Y-70439962D01*
X136159419Y-70419750D01*
X136154203Y-70398926D01*
X136151053Y-70377691D01*
X136150000Y-70356250D01*
X136150000Y-69843750D01*
X136151053Y-69822309D01*
X136154203Y-69801074D01*
X136159419Y-69780250D01*
X136166651Y-69760038D01*
X136175830Y-69740632D01*
X136186866Y-69722219D01*
X136199654Y-69704976D01*
X136214070Y-69689070D01*
X136229976Y-69674654D01*
X136247219Y-69661866D01*
X136265632Y-69650830D01*
X136285038Y-69641651D01*
X136305250Y-69634419D01*
X136326074Y-69629203D01*
X136347309Y-69626053D01*
X136368750Y-69625000D01*
X136806250Y-69625000D01*
X136827691Y-69626053D01*
X136827691Y-69626053D01*
G37*
D20*
X136587500Y-70100000D03*
M02*
