G04 #@! TF.GenerationSoftware,KiCad,Pcbnew,(5.1.0)-1*
G04 #@! TF.CreationDate,2019-06-07T15:42:58+02:00*
G04 #@! TF.ProjectId,DRS,4452532e-6b69-4636-9164-5f7063625858,rev?*
G04 #@! TF.SameCoordinates,Original*
G04 #@! TF.FileFunction,Legend,Bot*
G04 #@! TF.FilePolarity,Positive*
%FSLAX46Y46*%
G04 Gerber Fmt 4.6, Leading zero omitted, Abs format (unit mm)*
G04 Created by KiCad (PCBNEW (5.1.0)-1) date 2019-06-07 15:42:58*
%MOMM*%
%LPD*%
G04 APERTURE LIST*
%ADD10C,0.150000*%
%ADD11C,0.120000*%
%ADD12C,0.100000*%
G04 APERTURE END LIST*
D10*
X82515714Y-80916666D02*
X83182380Y-80916666D01*
X82134761Y-81154761D02*
X82849047Y-81392857D01*
X82849047Y-80773809D01*
X82277619Y-80440476D02*
X82230000Y-80392857D01*
X82182380Y-80297619D01*
X82182380Y-80059523D01*
X82230000Y-79964285D01*
X82277619Y-79916666D01*
X82372857Y-79869047D01*
X82468095Y-79869047D01*
X82610952Y-79916666D01*
X83182380Y-80488095D01*
X83182380Y-79869047D01*
X83134761Y-79392857D02*
X83182380Y-79392857D01*
X83277619Y-79440476D01*
X83325238Y-79488095D01*
X82182380Y-78488095D02*
X82182380Y-78964285D01*
X82658571Y-79011904D01*
X82610952Y-78964285D01*
X82563333Y-78869047D01*
X82563333Y-78630952D01*
X82610952Y-78535714D01*
X82658571Y-78488095D01*
X82753809Y-78440476D01*
X82991904Y-78440476D01*
X83087142Y-78488095D01*
X83134761Y-78535714D01*
X83182380Y-78630952D01*
X83182380Y-78869047D01*
X83134761Y-78964285D01*
X83087142Y-79011904D01*
X82182380Y-77821428D02*
X82182380Y-77726190D01*
X82230000Y-77630952D01*
X82277619Y-77583333D01*
X82372857Y-77535714D01*
X82563333Y-77488095D01*
X82801428Y-77488095D01*
X82991904Y-77535714D01*
X83087142Y-77583333D01*
X83134761Y-77630952D01*
X83182380Y-77726190D01*
X83182380Y-77821428D01*
X83134761Y-77916666D01*
X83087142Y-77964285D01*
X82991904Y-78011904D01*
X82801428Y-78059523D01*
X82563333Y-78059523D01*
X82372857Y-78011904D01*
X82277619Y-77964285D01*
X82230000Y-77916666D01*
X82182380Y-77821428D01*
X82182380Y-76869047D02*
X82182380Y-76773809D01*
X82230000Y-76678571D01*
X82277619Y-76630952D01*
X82372857Y-76583333D01*
X82563333Y-76535714D01*
X82801428Y-76535714D01*
X82991904Y-76583333D01*
X83087142Y-76630952D01*
X83134761Y-76678571D01*
X83182380Y-76773809D01*
X83182380Y-76869047D01*
X83134761Y-76964285D01*
X83087142Y-77011904D01*
X82991904Y-77059523D01*
X82801428Y-77107142D01*
X82563333Y-77107142D01*
X82372857Y-77059523D01*
X82277619Y-77011904D01*
X82230000Y-76964285D01*
X82182380Y-76869047D01*
X83182380Y-75345238D02*
X82515714Y-75345238D01*
X82610952Y-75345238D02*
X82563333Y-75297619D01*
X82515714Y-75202380D01*
X82515714Y-75059523D01*
X82563333Y-74964285D01*
X82658571Y-74916666D01*
X83182380Y-74916666D01*
X82658571Y-74916666D02*
X82563333Y-74869047D01*
X82515714Y-74773809D01*
X82515714Y-74630952D01*
X82563333Y-74535714D01*
X82658571Y-74488095D01*
X83182380Y-74488095D01*
X83182380Y-74011904D02*
X82515714Y-74011904D01*
X82610952Y-74011904D02*
X82563333Y-73964285D01*
X82515714Y-73869047D01*
X82515714Y-73726190D01*
X82563333Y-73630952D01*
X82658571Y-73583333D01*
X83182380Y-73583333D01*
X82658571Y-73583333D02*
X82563333Y-73535714D01*
X82515714Y-73440476D01*
X82515714Y-73297619D01*
X82563333Y-73202380D01*
X82658571Y-73154761D01*
X83182380Y-73154761D01*
D11*
X84000000Y-98500000D02*
X84000000Y-56000000D01*
X99000000Y-98500000D02*
X83413579Y-98500000D01*
X99000000Y-56000000D02*
X83413579Y-56000000D01*
X84000000Y-56000000D02*
X84586421Y-57126504D01*
X84000000Y-56000000D02*
X83413579Y-57126504D01*
X84000000Y-98500000D02*
X84586421Y-97373496D01*
X84000000Y-98500000D02*
X83413579Y-97373496D01*
D10*
X131059523Y-36682380D02*
X131726190Y-36682380D01*
X131297619Y-37682380D01*
X132059523Y-36777619D02*
X132107142Y-36730000D01*
X132202380Y-36682380D01*
X132440476Y-36682380D01*
X132535714Y-36730000D01*
X132583333Y-36777619D01*
X132630952Y-36872857D01*
X132630952Y-36968095D01*
X132583333Y-37110952D01*
X132011904Y-37682380D01*
X132630952Y-37682380D01*
X133107142Y-37634761D02*
X133107142Y-37682380D01*
X133059523Y-37777619D01*
X133011904Y-37825238D01*
X134011904Y-36682380D02*
X133535714Y-36682380D01*
X133488095Y-37158571D01*
X133535714Y-37110952D01*
X133630952Y-37063333D01*
X133869047Y-37063333D01*
X133964285Y-37110952D01*
X134011904Y-37158571D01*
X134059523Y-37253809D01*
X134059523Y-37491904D01*
X134011904Y-37587142D01*
X133964285Y-37634761D01*
X133869047Y-37682380D01*
X133630952Y-37682380D01*
X133535714Y-37634761D01*
X133488095Y-37587142D01*
X134678571Y-36682380D02*
X134773809Y-36682380D01*
X134869047Y-36730000D01*
X134916666Y-36777619D01*
X134964285Y-36872857D01*
X135011904Y-37063333D01*
X135011904Y-37301428D01*
X134964285Y-37491904D01*
X134916666Y-37587142D01*
X134869047Y-37634761D01*
X134773809Y-37682380D01*
X134678571Y-37682380D01*
X134583333Y-37634761D01*
X134535714Y-37587142D01*
X134488095Y-37491904D01*
X134440476Y-37301428D01*
X134440476Y-37063333D01*
X134488095Y-36872857D01*
X134535714Y-36777619D01*
X134583333Y-36730000D01*
X134678571Y-36682380D01*
X135630952Y-36682380D02*
X135726190Y-36682380D01*
X135821428Y-36730000D01*
X135869047Y-36777619D01*
X135916666Y-36872857D01*
X135964285Y-37063333D01*
X135964285Y-37301428D01*
X135916666Y-37491904D01*
X135869047Y-37587142D01*
X135821428Y-37634761D01*
X135726190Y-37682380D01*
X135630952Y-37682380D01*
X135535714Y-37634761D01*
X135488095Y-37587142D01*
X135440476Y-37491904D01*
X135392857Y-37301428D01*
X135392857Y-37063333D01*
X135440476Y-36872857D01*
X135488095Y-36777619D01*
X135535714Y-36730000D01*
X135630952Y-36682380D01*
X137154761Y-37682380D02*
X137154761Y-37015714D01*
X137154761Y-37110952D02*
X137202380Y-37063333D01*
X137297619Y-37015714D01*
X137440476Y-37015714D01*
X137535714Y-37063333D01*
X137583333Y-37158571D01*
X137583333Y-37682380D01*
X137583333Y-37158571D02*
X137630952Y-37063333D01*
X137726190Y-37015714D01*
X137869047Y-37015714D01*
X137964285Y-37063333D01*
X138011904Y-37158571D01*
X138011904Y-37682380D01*
X138488095Y-37682380D02*
X138488095Y-37015714D01*
X138488095Y-37110952D02*
X138535714Y-37063333D01*
X138630952Y-37015714D01*
X138773809Y-37015714D01*
X138869047Y-37063333D01*
X138916666Y-37158571D01*
X138916666Y-37682380D01*
X138916666Y-37158571D02*
X138964285Y-37063333D01*
X139059523Y-37015714D01*
X139202380Y-37015714D01*
X139297619Y-37063333D01*
X139345238Y-37158571D01*
X139345238Y-37682380D01*
D11*
X99000000Y-38500000D02*
X171500000Y-38500000D01*
X99000000Y-56000000D02*
X99000000Y-37913579D01*
X171500000Y-56000000D02*
X171500000Y-37913579D01*
X171500000Y-38500000D02*
X170373496Y-39086421D01*
X171500000Y-38500000D02*
X170373496Y-37913579D01*
X99000000Y-38500000D02*
X100126504Y-39086421D01*
X99000000Y-38500000D02*
X100126504Y-37913579D01*
D12*
X94000000Y-103500000D02*
X176500000Y-103500000D01*
X94000000Y-51000000D02*
X94000000Y-103500000D01*
X176500000Y-51000000D02*
X94000000Y-51000000D01*
X176500000Y-103500000D02*
X176500000Y-51000000D01*
D11*
X117840000Y-56240000D02*
X120190000Y-56240000D01*
X124660000Y-56240000D02*
X122310000Y-56240000D01*
X124660000Y-61995563D02*
X124660000Y-56240000D01*
X117840000Y-61995563D02*
X117840000Y-56240000D01*
X118904437Y-63060000D02*
X120190000Y-63060000D01*
X123595563Y-63060000D02*
X122310000Y-63060000D01*
X123595563Y-63060000D02*
X124660000Y-61995563D01*
X118904437Y-63060000D02*
X117840000Y-61995563D01*
X123097500Y-64087500D02*
X123097500Y-63300000D01*
X123491250Y-63693750D02*
X122703750Y-63693750D01*
X148710000Y-99410000D02*
X146360000Y-99410000D01*
X141890000Y-99410000D02*
X144240000Y-99410000D01*
X141890000Y-93654437D02*
X141890000Y-99410000D01*
X148710000Y-93654437D02*
X148710000Y-99410000D01*
X147645563Y-92590000D02*
X146360000Y-92590000D01*
X142954437Y-92590000D02*
X144240000Y-92590000D01*
X142954437Y-92590000D02*
X141890000Y-93654437D01*
X147645563Y-92590000D02*
X148710000Y-93654437D01*
X143452500Y-91562500D02*
X143452500Y-92350000D01*
X143058750Y-91956250D02*
X143846250Y-91956250D01*
X147402064Y-63790000D02*
X146197936Y-63790000D01*
X147402064Y-65610000D02*
X146197936Y-65610000D01*
X155197936Y-98910000D02*
X156402064Y-98910000D01*
X155197936Y-97090000D02*
X156402064Y-97090000D01*
X109602064Y-60810000D02*
X108397936Y-60810000D01*
X109602064Y-58990000D02*
X108397936Y-58990000D01*
X153758750Y-73206250D02*
X154546250Y-73206250D01*
X154152500Y-72812500D02*
X154152500Y-73600000D01*
X158345563Y-73840000D02*
X159410000Y-74904437D01*
X153654437Y-73840000D02*
X152590000Y-74904437D01*
X153654437Y-73840000D02*
X154940000Y-73840000D01*
X158345563Y-73840000D02*
X157060000Y-73840000D01*
X159410000Y-74904437D02*
X159410000Y-80660000D01*
X152590000Y-74904437D02*
X152590000Y-80660000D01*
X152590000Y-80660000D02*
X154940000Y-80660000D01*
X159410000Y-80660000D02*
X157060000Y-80660000D01*
X112991250Y-84543750D02*
X112203750Y-84543750D01*
X112597500Y-84937500D02*
X112597500Y-84150000D01*
X108404437Y-83910000D02*
X107340000Y-82845563D01*
X113095563Y-83910000D02*
X114160000Y-82845563D01*
X113095563Y-83910000D02*
X111810000Y-83910000D01*
X108404437Y-83910000D02*
X109690000Y-83910000D01*
X107340000Y-82845563D02*
X107340000Y-77090000D01*
X114160000Y-82845563D02*
X114160000Y-77090000D01*
X114160000Y-77090000D02*
X111810000Y-77090000D01*
X107340000Y-77090000D02*
X109690000Y-77090000D01*
X152560000Y-67620000D02*
X152560000Y-68550000D01*
X152560000Y-70780000D02*
X152560000Y-69850000D01*
X152560000Y-70780000D02*
X150400000Y-70780000D01*
X152560000Y-67620000D02*
X151100000Y-67620000D01*
X141600000Y-86850000D02*
X141600000Y-91150000D01*
X141600000Y-91150000D02*
X135900000Y-91150000D01*
X141600000Y-86850000D02*
X135900000Y-86850000D01*
X125950000Y-69050000D02*
X125950000Y-64750000D01*
X125950000Y-64750000D02*
X131650000Y-64750000D01*
X125950000Y-69050000D02*
X131650000Y-69050000D01*
X98400000Y-91000000D02*
X98400000Y-90400000D01*
X99240000Y-91000000D02*
X98400000Y-91000000D01*
X101224000Y-79380000D02*
X101131000Y-79474000D01*
X103475000Y-77130000D02*
X103416000Y-77189000D01*
X100984000Y-79210000D02*
X100926000Y-79269000D01*
X103269000Y-76925000D02*
X103176000Y-77019000D01*
X101224000Y-84380000D02*
X101131000Y-84474000D01*
X103475000Y-82130000D02*
X103416000Y-82189000D01*
X100984000Y-84210000D02*
X100926000Y-84269000D01*
X103269000Y-81925000D02*
X103176000Y-82019000D01*
X106360000Y-75640000D02*
X98639000Y-75640000D01*
X106360000Y-90760000D02*
X98639000Y-90760000D01*
X98639000Y-90760000D02*
X98639000Y-75640000D01*
X106360000Y-90760000D02*
X106360000Y-75640000D01*
X104600000Y-90760000D02*
X104600000Y-75640000D01*
X99900000Y-90760000D02*
X99900000Y-75640000D01*
X99300000Y-90760000D02*
X99300000Y-75640000D01*
X105750000Y-78200000D02*
G75*
G03X105750000Y-78200000I-550000J0D01*
G01*
X103880000Y-78200000D02*
G75*
G03X103880000Y-78200000I-1680000J0D01*
G01*
X105750000Y-83200000D02*
G75*
G03X105750000Y-83200000I-550000J0D01*
G01*
X103880000Y-83200000D02*
G75*
G03X103880000Y-83200000I-1680000J0D01*
G01*
X105750000Y-88200000D02*
G75*
G03X105750000Y-88200000I-550000J0D01*
G01*
X100519550Y-88170617D02*
G75*
G03X100716000Y-88989000I1680450J-29383D01*
G01*
X101410912Y-89683953D02*
G75*
G03X102989000Y-89684000I789088J1483953D01*
G01*
X103683953Y-88989088D02*
G75*
G03X103684000Y-87411000I-1483953J789088D01*
G01*
X102989088Y-86716047D02*
G75*
G03X101411000Y-86716000I-789088J-1483953D01*
G01*
X100716648Y-87411288D02*
G75*
G03X100520000Y-88200000I1483352J-788712D01*
G01*
X166283352Y-70288712D02*
G75*
G03X166480000Y-69500000I-1483352J788712D01*
G01*
X164010912Y-70983953D02*
G75*
G03X165589000Y-70984000I789088J1483953D01*
G01*
X163316047Y-68710912D02*
G75*
G03X163316000Y-70289000I1483953J-789088D01*
G01*
X165589088Y-68016047D02*
G75*
G03X164011000Y-68016000I-789088J-1483953D01*
G01*
X166480450Y-69529383D02*
G75*
G03X166284000Y-68711000I-1680450J29383D01*
G01*
X162350000Y-69500000D02*
G75*
G03X162350000Y-69500000I-550000J0D01*
G01*
X166480000Y-74500000D02*
G75*
G03X166480000Y-74500000I-1680000J0D01*
G01*
X162350000Y-74500000D02*
G75*
G03X162350000Y-74500000I-550000J0D01*
G01*
X166480000Y-79500000D02*
G75*
G03X166480000Y-79500000I-1680000J0D01*
G01*
X162350000Y-79500000D02*
G75*
G03X162350000Y-79500000I-550000J0D01*
G01*
X167700000Y-66940000D02*
X167700000Y-82060000D01*
X167100000Y-66940000D02*
X167100000Y-82060000D01*
X162400000Y-66940000D02*
X162400000Y-82060000D01*
X160640000Y-66940000D02*
X160640000Y-82060000D01*
X168361000Y-66940000D02*
X168361000Y-82060000D01*
X160640000Y-66940000D02*
X168361000Y-66940000D01*
X160640000Y-82060000D02*
X168361000Y-82060000D01*
X163731000Y-75775000D02*
X163824000Y-75681000D01*
X166016000Y-73490000D02*
X166074000Y-73431000D01*
X163525000Y-75570000D02*
X163584000Y-75511000D01*
X165776000Y-73320000D02*
X165869000Y-73226000D01*
X163731000Y-80775000D02*
X163824000Y-80681000D01*
X166016000Y-78490000D02*
X166074000Y-78431000D01*
X163525000Y-80570000D02*
X163584000Y-80511000D01*
X165776000Y-78320000D02*
X165869000Y-78226000D01*
X167760000Y-66700000D02*
X168600000Y-66700000D01*
X168600000Y-66700000D02*
X168600000Y-67300000D01*
X140000000Y-73200000D02*
X137000000Y-73200000D01*
X137000000Y-73200000D02*
X137000000Y-85800000D01*
X137000000Y-85800000D02*
X140000000Y-85800000D01*
X146600000Y-85800000D02*
X149600000Y-85800000D01*
X149600000Y-85800000D02*
X149600000Y-73200000D01*
X149600000Y-73200000D02*
X146600000Y-73200000D01*
X117700000Y-82700000D02*
X120700000Y-82700000D01*
X117700000Y-70100000D02*
X117700000Y-82700000D01*
X120700000Y-70100000D02*
X117700000Y-70100000D01*
X130300000Y-70100000D02*
X127300000Y-70100000D01*
X130300000Y-82700000D02*
X130300000Y-70100000D01*
X127300000Y-82700000D02*
X130300000Y-82700000D01*
X157460000Y-69802064D02*
X157460000Y-68597936D01*
X155640000Y-69802064D02*
X155640000Y-68597936D01*
D10*
X143475000Y-71775000D02*
X143475000Y-71725000D01*
X147625000Y-71775000D02*
X147625000Y-71630000D01*
X147625000Y-66625000D02*
X147625000Y-66770000D01*
X143475000Y-66625000D02*
X143475000Y-66770000D01*
X143475000Y-71775000D02*
X147625000Y-71775000D01*
X143475000Y-66625000D02*
X147625000Y-66625000D01*
X143475000Y-71725000D02*
X142075000Y-71725000D01*
D11*
X156975000Y-86250000D02*
X155875000Y-86250000D01*
X156975000Y-85300000D02*
X156975000Y-86250000D01*
X158475000Y-85300000D02*
X156975000Y-85300000D01*
X156975000Y-94750000D02*
X151850000Y-94750000D01*
X156975000Y-95700000D02*
X156975000Y-94750000D01*
X158475000Y-95700000D02*
X156975000Y-95700000D01*
X108825000Y-62200000D02*
X110325000Y-62200000D01*
X110325000Y-62200000D02*
X110325000Y-63150000D01*
X110325000Y-63150000D02*
X115450000Y-63150000D01*
X108825000Y-72600000D02*
X110325000Y-72600000D01*
X110325000Y-72600000D02*
X110325000Y-71650000D01*
X110325000Y-71650000D02*
X111425000Y-71650000D01*
X128347936Y-63760000D02*
X131152064Y-63760000D01*
X128347936Y-61040000D02*
X131152064Y-61040000D01*
X138952064Y-94860000D02*
X136147936Y-94860000D01*
X138952064Y-92140000D02*
X136147936Y-92140000D01*
X153102064Y-84410000D02*
X151897936Y-84410000D01*
X153102064Y-82590000D02*
X151897936Y-82590000D01*
X114147936Y-73590000D02*
X115352064Y-73590000D01*
X114147936Y-75410000D02*
X115352064Y-75410000D01*
X152160000Y-80002064D02*
X152160000Y-78797936D01*
X150340000Y-80002064D02*
X150340000Y-78797936D01*
X115090000Y-77647936D02*
X115090000Y-78852064D01*
X116910000Y-77647936D02*
X116910000Y-78852064D01*
X124956000Y-89476000D02*
X125886000Y-89476000D01*
X128116000Y-89476000D02*
X127186000Y-89476000D01*
X128116000Y-89476000D02*
X128116000Y-91636000D01*
X124956000Y-89476000D02*
X124956000Y-90936000D01*
X164638000Y-66162000D02*
X166098000Y-66162000D01*
X164638000Y-63002000D02*
X166798000Y-63002000D01*
X164638000Y-63002000D02*
X164638000Y-63932000D01*
X164638000Y-66162000D02*
X164638000Y-65232000D01*
X122620000Y-88617936D02*
X122620000Y-89822064D01*
X120800000Y-88617936D02*
X120800000Y-89822064D01*
X160932000Y-63217936D02*
X160932000Y-64422064D01*
X162752000Y-63217936D02*
X162752000Y-64422064D01*
D10*
X121844857Y-60062342D02*
X121892476Y-60109961D01*
X122035333Y-60157580D01*
X122130571Y-60157580D01*
X122273428Y-60109961D01*
X122368666Y-60014723D01*
X122416285Y-59919485D01*
X122463904Y-59729009D01*
X122463904Y-59586152D01*
X122416285Y-59395676D01*
X122368666Y-59300438D01*
X122273428Y-59205200D01*
X122130571Y-59157580D01*
X122035333Y-59157580D01*
X121892476Y-59205200D01*
X121844857Y-59252819D01*
X120892476Y-60157580D02*
X121463904Y-60157580D01*
X121178190Y-60157580D02*
X121178190Y-59157580D01*
X121273428Y-59300438D01*
X121368666Y-59395676D01*
X121463904Y-59443295D01*
X120273428Y-59157580D02*
X120178190Y-59157580D01*
X120082952Y-59205200D01*
X120035333Y-59252819D01*
X119987714Y-59348057D01*
X119940095Y-59538533D01*
X119940095Y-59776628D01*
X119987714Y-59967104D01*
X120035333Y-60062342D01*
X120082952Y-60109961D01*
X120178190Y-60157580D01*
X120273428Y-60157580D01*
X120368666Y-60109961D01*
X120416285Y-60062342D01*
X120463904Y-59967104D01*
X120511523Y-59776628D01*
X120511523Y-59538533D01*
X120463904Y-59348057D01*
X120416285Y-59252819D01*
X120368666Y-59205200D01*
X120273428Y-59157580D01*
X145549466Y-96384342D02*
X145597085Y-96431961D01*
X145739942Y-96479580D01*
X145835180Y-96479580D01*
X145978038Y-96431961D01*
X146073276Y-96336723D01*
X146120895Y-96241485D01*
X146168514Y-96051009D01*
X146168514Y-95908152D01*
X146120895Y-95717676D01*
X146073276Y-95622438D01*
X145978038Y-95527200D01*
X145835180Y-95479580D01*
X145739942Y-95479580D01*
X145597085Y-95527200D01*
X145549466Y-95574819D01*
X145073276Y-96479580D02*
X144882800Y-96479580D01*
X144787561Y-96431961D01*
X144739942Y-96384342D01*
X144644704Y-96241485D01*
X144597085Y-96051009D01*
X144597085Y-95670057D01*
X144644704Y-95574819D01*
X144692323Y-95527200D01*
X144787561Y-95479580D01*
X144978038Y-95479580D01*
X145073276Y-95527200D01*
X145120895Y-95574819D01*
X145168514Y-95670057D01*
X145168514Y-95908152D01*
X145120895Y-96003390D01*
X145073276Y-96051009D01*
X144978038Y-96098628D01*
X144787561Y-96098628D01*
X144692323Y-96051009D01*
X144644704Y-96003390D01*
X144597085Y-95908152D01*
X147442857Y-63237142D02*
X147490476Y-63284761D01*
X147633333Y-63332380D01*
X147728571Y-63332380D01*
X147871428Y-63284761D01*
X147966666Y-63189523D01*
X148014285Y-63094285D01*
X148061904Y-62903809D01*
X148061904Y-62760952D01*
X148014285Y-62570476D01*
X147966666Y-62475238D01*
X147871428Y-62380000D01*
X147728571Y-62332380D01*
X147633333Y-62332380D01*
X147490476Y-62380000D01*
X147442857Y-62427619D01*
X146490476Y-63332380D02*
X147061904Y-63332380D01*
X146776190Y-63332380D02*
X146776190Y-62332380D01*
X146871428Y-62475238D01*
X146966666Y-62570476D01*
X147061904Y-62618095D01*
X145538095Y-63332380D02*
X146109523Y-63332380D01*
X145823809Y-63332380D02*
X145823809Y-62332380D01*
X145919047Y-62475238D01*
X146014285Y-62570476D01*
X146109523Y-62618095D01*
X156442857Y-100177142D02*
X156490476Y-100224761D01*
X156633333Y-100272380D01*
X156728571Y-100272380D01*
X156871428Y-100224761D01*
X156966666Y-100129523D01*
X157014285Y-100034285D01*
X157061904Y-99843809D01*
X157061904Y-99700952D01*
X157014285Y-99510476D01*
X156966666Y-99415238D01*
X156871428Y-99320000D01*
X156728571Y-99272380D01*
X156633333Y-99272380D01*
X156490476Y-99320000D01*
X156442857Y-99367619D01*
X155490476Y-100272380D02*
X156061904Y-100272380D01*
X155776190Y-100272380D02*
X155776190Y-99272380D01*
X155871428Y-99415238D01*
X155966666Y-99510476D01*
X156061904Y-99558095D01*
X155109523Y-99367619D02*
X155061904Y-99320000D01*
X154966666Y-99272380D01*
X154728571Y-99272380D01*
X154633333Y-99320000D01*
X154585714Y-99367619D01*
X154538095Y-99462857D01*
X154538095Y-99558095D01*
X154585714Y-99700952D01*
X155157142Y-100272380D01*
X154538095Y-100272380D01*
X109642857Y-58437142D02*
X109690476Y-58484761D01*
X109833333Y-58532380D01*
X109928571Y-58532380D01*
X110071428Y-58484761D01*
X110166666Y-58389523D01*
X110214285Y-58294285D01*
X110261904Y-58103809D01*
X110261904Y-57960952D01*
X110214285Y-57770476D01*
X110166666Y-57675238D01*
X110071428Y-57580000D01*
X109928571Y-57532380D01*
X109833333Y-57532380D01*
X109690476Y-57580000D01*
X109642857Y-57627619D01*
X108690476Y-58532380D02*
X109261904Y-58532380D01*
X108976190Y-58532380D02*
X108976190Y-57532380D01*
X109071428Y-57675238D01*
X109166666Y-57770476D01*
X109261904Y-57818095D01*
X108357142Y-57532380D02*
X107738095Y-57532380D01*
X108071428Y-57913333D01*
X107928571Y-57913333D01*
X107833333Y-57960952D01*
X107785714Y-58008571D01*
X107738095Y-58103809D01*
X107738095Y-58341904D01*
X107785714Y-58437142D01*
X107833333Y-58484761D01*
X107928571Y-58532380D01*
X108214285Y-58532380D01*
X108309523Y-58484761D01*
X108357142Y-58437142D01*
X156744457Y-77607142D02*
X156792076Y-77654761D01*
X156934933Y-77702380D01*
X157030171Y-77702380D01*
X157173028Y-77654761D01*
X157268266Y-77559523D01*
X157315885Y-77464285D01*
X157363504Y-77273809D01*
X157363504Y-77130952D01*
X157315885Y-76940476D01*
X157268266Y-76845238D01*
X157173028Y-76750000D01*
X157030171Y-76702380D01*
X156934933Y-76702380D01*
X156792076Y-76750000D01*
X156744457Y-76797619D01*
X155792076Y-77702380D02*
X156363504Y-77702380D01*
X156077790Y-77702380D02*
X156077790Y-76702380D01*
X156173028Y-76845238D01*
X156268266Y-76940476D01*
X156363504Y-76988095D01*
X154934933Y-76702380D02*
X155125409Y-76702380D01*
X155220647Y-76750000D01*
X155268266Y-76797619D01*
X155363504Y-76940476D01*
X155411123Y-77130952D01*
X155411123Y-77511904D01*
X155363504Y-77607142D01*
X155315885Y-77654761D01*
X155220647Y-77702380D01*
X155030171Y-77702380D01*
X154934933Y-77654761D01*
X154887314Y-77607142D01*
X154839695Y-77511904D01*
X154839695Y-77273809D01*
X154887314Y-77178571D01*
X154934933Y-77130952D01*
X155030171Y-77083333D01*
X155220647Y-77083333D01*
X155315885Y-77130952D01*
X155363504Y-77178571D01*
X155411123Y-77273809D01*
X111430857Y-80941142D02*
X111478476Y-80988761D01*
X111621333Y-81036380D01*
X111716571Y-81036380D01*
X111859428Y-80988761D01*
X111954666Y-80893523D01*
X112002285Y-80798285D01*
X112049904Y-80607809D01*
X112049904Y-80464952D01*
X112002285Y-80274476D01*
X111954666Y-80179238D01*
X111859428Y-80084000D01*
X111716571Y-80036380D01*
X111621333Y-80036380D01*
X111478476Y-80084000D01*
X111430857Y-80131619D01*
X110478476Y-81036380D02*
X111049904Y-81036380D01*
X110764190Y-81036380D02*
X110764190Y-80036380D01*
X110859428Y-80179238D01*
X110954666Y-80274476D01*
X111049904Y-80322095D01*
X110145142Y-80036380D02*
X109478476Y-80036380D01*
X109907047Y-81036380D01*
X152521695Y-67218780D02*
X152521695Y-66218780D01*
X152283600Y-66218780D01*
X152140742Y-66266400D01*
X152045504Y-66361638D01*
X151997885Y-66456876D01*
X151950266Y-66647352D01*
X151950266Y-66790209D01*
X151997885Y-66980685D01*
X152045504Y-67075923D01*
X152140742Y-67171161D01*
X152283600Y-67218780D01*
X152521695Y-67218780D01*
X151616933Y-66218780D02*
X150997885Y-66218780D01*
X151331219Y-66599733D01*
X151188361Y-66599733D01*
X151093123Y-66647352D01*
X151045504Y-66694971D01*
X150997885Y-66790209D01*
X150997885Y-67028304D01*
X151045504Y-67123542D01*
X151093123Y-67171161D01*
X151188361Y-67218780D01*
X151474076Y-67218780D01*
X151569314Y-67171161D01*
X151616933Y-67123542D01*
X138519980Y-88278704D02*
X137519980Y-88278704D01*
X137519980Y-88516800D01*
X137567600Y-88659657D01*
X137662838Y-88754895D01*
X137758076Y-88802514D01*
X137948552Y-88850133D01*
X138091409Y-88850133D01*
X138281885Y-88802514D01*
X138377123Y-88754895D01*
X138472361Y-88659657D01*
X138519980Y-88516800D01*
X138519980Y-88278704D01*
X137519980Y-89754895D02*
X137519980Y-89278704D01*
X137996171Y-89231085D01*
X137948552Y-89278704D01*
X137900933Y-89373942D01*
X137900933Y-89612038D01*
X137948552Y-89707276D01*
X137996171Y-89754895D01*
X138091409Y-89802514D01*
X138329504Y-89802514D01*
X138424742Y-89754895D01*
X138472361Y-89707276D01*
X138519980Y-89612038D01*
X138519980Y-89373942D01*
X138472361Y-89278704D01*
X138424742Y-89231085D01*
X129985580Y-66180704D02*
X128985580Y-66180704D01*
X128985580Y-66418800D01*
X129033200Y-66561657D01*
X129128438Y-66656895D01*
X129223676Y-66704514D01*
X129414152Y-66752133D01*
X129557009Y-66752133D01*
X129747485Y-66704514D01*
X129842723Y-66656895D01*
X129937961Y-66561657D01*
X129985580Y-66418800D01*
X129985580Y-66180704D01*
X128985580Y-67609276D02*
X128985580Y-67418800D01*
X129033200Y-67323561D01*
X129080819Y-67275942D01*
X129223676Y-67180704D01*
X129414152Y-67133085D01*
X129795104Y-67133085D01*
X129890342Y-67180704D01*
X129937961Y-67228323D01*
X129985580Y-67323561D01*
X129985580Y-67514038D01*
X129937961Y-67609276D01*
X129890342Y-67656895D01*
X129795104Y-67704514D01*
X129557009Y-67704514D01*
X129461771Y-67656895D01*
X129414152Y-67609276D01*
X129366533Y-67514038D01*
X129366533Y-67323561D01*
X129414152Y-67228323D01*
X129461771Y-67180704D01*
X129557009Y-67133085D01*
X106684380Y-84568666D02*
X107398666Y-84568666D01*
X107541523Y-84521047D01*
X107636761Y-84425809D01*
X107684380Y-84282952D01*
X107684380Y-84187714D01*
X106779619Y-84997238D02*
X106732000Y-85044857D01*
X106684380Y-85140095D01*
X106684380Y-85378190D01*
X106732000Y-85473428D01*
X106779619Y-85521047D01*
X106874857Y-85568666D01*
X106970095Y-85568666D01*
X107112952Y-85521047D01*
X107684380Y-84949619D01*
X107684380Y-85568666D01*
X159889333Y-71781380D02*
X159889333Y-72495666D01*
X159936952Y-72638523D01*
X160032190Y-72733761D01*
X160175047Y-72781380D01*
X160270285Y-72781380D01*
X158984571Y-72114714D02*
X158984571Y-72781380D01*
X159222666Y-71733761D02*
X159460761Y-72448047D01*
X158841714Y-72448047D01*
X146921066Y-79867980D02*
X147397257Y-79867980D01*
X147397257Y-78867980D01*
X146635352Y-78963219D02*
X146587733Y-78915600D01*
X146492495Y-78867980D01*
X146254400Y-78867980D01*
X146159161Y-78915600D01*
X146111542Y-78963219D01*
X146063923Y-79058457D01*
X146063923Y-79153695D01*
X146111542Y-79296552D01*
X146682971Y-79867980D01*
X146063923Y-79867980D01*
X120231980Y-75997733D02*
X120231980Y-75521542D01*
X119231980Y-75521542D01*
X119231980Y-76235828D02*
X119231980Y-76854876D01*
X119612933Y-76521542D01*
X119612933Y-76664400D01*
X119660552Y-76759638D01*
X119708171Y-76807257D01*
X119803409Y-76854876D01*
X120041504Y-76854876D01*
X120136742Y-76807257D01*
X120184361Y-76759638D01*
X120231980Y-76664400D01*
X120231980Y-76378685D01*
X120184361Y-76283447D01*
X120136742Y-76235828D01*
X158706666Y-69652380D02*
X159040000Y-69176190D01*
X159278095Y-69652380D02*
X159278095Y-68652380D01*
X158897142Y-68652380D01*
X158801904Y-68700000D01*
X158754285Y-68747619D01*
X158706666Y-68842857D01*
X158706666Y-68985714D01*
X158754285Y-69080952D01*
X158801904Y-69128571D01*
X158897142Y-69176190D01*
X159278095Y-69176190D01*
X157849523Y-68985714D02*
X157849523Y-69652380D01*
X158087619Y-68604761D02*
X158325714Y-69319047D01*
X157706666Y-69319047D01*
X146398704Y-68860380D02*
X146398704Y-69669904D01*
X146351085Y-69765142D01*
X146303466Y-69812761D01*
X146208228Y-69860380D01*
X146017752Y-69860380D01*
X145922514Y-69812761D01*
X145874895Y-69765142D01*
X145827276Y-69669904D01*
X145827276Y-68860380D01*
X145398704Y-68955619D02*
X145351085Y-68908000D01*
X145255847Y-68860380D01*
X145017752Y-68860380D01*
X144922514Y-68908000D01*
X144874895Y-68955619D01*
X144827276Y-69050857D01*
X144827276Y-69146095D01*
X144874895Y-69288952D01*
X145446323Y-69860380D01*
X144827276Y-69860380D01*
X160686904Y-96602380D02*
X160686904Y-97411904D01*
X160639285Y-97507142D01*
X160591666Y-97554761D01*
X160496428Y-97602380D01*
X160305952Y-97602380D01*
X160210714Y-97554761D01*
X160163095Y-97507142D01*
X160115476Y-97411904D01*
X160115476Y-96602380D01*
X159734523Y-96602380D02*
X159115476Y-96602380D01*
X159448809Y-96983333D01*
X159305952Y-96983333D01*
X159210714Y-97030952D01*
X159163095Y-97078571D01*
X159115476Y-97173809D01*
X159115476Y-97411904D01*
X159163095Y-97507142D01*
X159210714Y-97554761D01*
X159305952Y-97602380D01*
X159591666Y-97602380D01*
X159686904Y-97554761D01*
X159734523Y-97507142D01*
X102355104Y-60427580D02*
X102355104Y-61237104D01*
X102307485Y-61332342D01*
X102259866Y-61379961D01*
X102164628Y-61427580D01*
X101974152Y-61427580D01*
X101878914Y-61379961D01*
X101831295Y-61332342D01*
X101783676Y-61237104D01*
X101783676Y-60427580D01*
X100878914Y-60760914D02*
X100878914Y-61427580D01*
X101117009Y-60379961D02*
X101355104Y-61094247D01*
X100736057Y-61094247D01*
X129852266Y-62748380D02*
X130185600Y-62272190D01*
X130423695Y-62748380D02*
X130423695Y-61748380D01*
X130042742Y-61748380D01*
X129947504Y-61796000D01*
X129899885Y-61843619D01*
X129852266Y-61938857D01*
X129852266Y-62081714D01*
X129899885Y-62176952D01*
X129947504Y-62224571D01*
X130042742Y-62272190D01*
X130423695Y-62272190D01*
X129518933Y-61748380D02*
X128852266Y-61748380D01*
X129280838Y-62748380D01*
X137624666Y-93837980D02*
X137958000Y-93361790D01*
X138196095Y-93837980D02*
X138196095Y-92837980D01*
X137815142Y-92837980D01*
X137719904Y-92885600D01*
X137672285Y-92933219D01*
X137624666Y-93028457D01*
X137624666Y-93171314D01*
X137672285Y-93266552D01*
X137719904Y-93314171D01*
X137815142Y-93361790D01*
X138196095Y-93361790D01*
X137053238Y-93266552D02*
X137148476Y-93218933D01*
X137196095Y-93171314D01*
X137243714Y-93076076D01*
X137243714Y-93028457D01*
X137196095Y-92933219D01*
X137148476Y-92885600D01*
X137053238Y-92837980D01*
X136862761Y-92837980D01*
X136767523Y-92885600D01*
X136719904Y-92933219D01*
X136672285Y-93028457D01*
X136672285Y-93076076D01*
X136719904Y-93171314D01*
X136767523Y-93218933D01*
X136862761Y-93266552D01*
X137053238Y-93266552D01*
X137148476Y-93314171D01*
X137196095Y-93361790D01*
X137243714Y-93457028D01*
X137243714Y-93647504D01*
X137196095Y-93742742D01*
X137148476Y-93790361D01*
X137053238Y-93837980D01*
X136862761Y-93837980D01*
X136767523Y-93790361D01*
X136719904Y-93742742D01*
X136672285Y-93647504D01*
X136672285Y-93457028D01*
X136719904Y-93361790D01*
X136767523Y-93314171D01*
X136862761Y-93266552D01*
X153142857Y-85760780D02*
X153476190Y-85284590D01*
X153714285Y-85760780D02*
X153714285Y-84760780D01*
X153333333Y-84760780D01*
X153238095Y-84808400D01*
X153190476Y-84856019D01*
X153142857Y-84951257D01*
X153142857Y-85094114D01*
X153190476Y-85189352D01*
X153238095Y-85236971D01*
X153333333Y-85284590D01*
X153714285Y-85284590D01*
X152190476Y-85760780D02*
X152761904Y-85760780D01*
X152476190Y-85760780D02*
X152476190Y-84760780D01*
X152571428Y-84903638D01*
X152666666Y-84998876D01*
X152761904Y-85046495D01*
X151333333Y-85094114D02*
X151333333Y-85760780D01*
X151571428Y-84713161D02*
X151809523Y-85427447D01*
X151190476Y-85427447D01*
X115291657Y-73111580D02*
X115624990Y-72635390D01*
X115863085Y-73111580D02*
X115863085Y-72111580D01*
X115482133Y-72111580D01*
X115386895Y-72159200D01*
X115339276Y-72206819D01*
X115291657Y-72302057D01*
X115291657Y-72444914D01*
X115339276Y-72540152D01*
X115386895Y-72587771D01*
X115482133Y-72635390D01*
X115863085Y-72635390D01*
X114339276Y-73111580D02*
X114910704Y-73111580D01*
X114624990Y-73111580D02*
X114624990Y-72111580D01*
X114720228Y-72254438D01*
X114815466Y-72349676D01*
X114910704Y-72397295D01*
X113434514Y-72111580D02*
X113910704Y-72111580D01*
X113958323Y-72587771D01*
X113910704Y-72540152D01*
X113815466Y-72492533D01*
X113577371Y-72492533D01*
X113482133Y-72540152D01*
X113434514Y-72587771D01*
X113386895Y-72683009D01*
X113386895Y-72921104D01*
X113434514Y-73016342D01*
X113482133Y-73063961D01*
X113577371Y-73111580D01*
X113815466Y-73111580D01*
X113910704Y-73063961D01*
X113958323Y-73016342D01*
X151715257Y-77023180D02*
X152048590Y-76546990D01*
X152286685Y-77023180D02*
X152286685Y-76023180D01*
X151905733Y-76023180D01*
X151810495Y-76070800D01*
X151762876Y-76118419D01*
X151715257Y-76213657D01*
X151715257Y-76356514D01*
X151762876Y-76451752D01*
X151810495Y-76499371D01*
X151905733Y-76546990D01*
X152286685Y-76546990D01*
X150762876Y-77023180D02*
X151334304Y-77023180D01*
X151048590Y-77023180D02*
X151048590Y-76023180D01*
X151143828Y-76166038D01*
X151239066Y-76261276D01*
X151334304Y-76308895D01*
X149905733Y-76023180D02*
X150096209Y-76023180D01*
X150191447Y-76070800D01*
X150239066Y-76118419D01*
X150334304Y-76261276D01*
X150381923Y-76451752D01*
X150381923Y-76832704D01*
X150334304Y-76927942D01*
X150286685Y-76975561D01*
X150191447Y-77023180D01*
X150000971Y-77023180D01*
X149905733Y-76975561D01*
X149858114Y-76927942D01*
X149810495Y-76832704D01*
X149810495Y-76594609D01*
X149858114Y-76499371D01*
X149905733Y-76451752D01*
X150000971Y-76404133D01*
X150191447Y-76404133D01*
X150286685Y-76451752D01*
X150334304Y-76499371D01*
X150381923Y-76594609D01*
X116421980Y-81261942D02*
X115945790Y-80928609D01*
X116421980Y-80690514D02*
X115421980Y-80690514D01*
X115421980Y-81071466D01*
X115469600Y-81166704D01*
X115517219Y-81214323D01*
X115612457Y-81261942D01*
X115755314Y-81261942D01*
X115850552Y-81214323D01*
X115898171Y-81166704D01*
X115945790Y-81071466D01*
X115945790Y-80690514D01*
X116421980Y-82214323D02*
X116421980Y-81642895D01*
X116421980Y-81928609D02*
X115421980Y-81928609D01*
X115564838Y-81833371D01*
X115660076Y-81738133D01*
X115707695Y-81642895D01*
X115421980Y-82547657D02*
X115421980Y-83214323D01*
X116421980Y-82785752D01*
X129488380Y-89021714D02*
X128488380Y-89021714D01*
X128488380Y-89259809D01*
X128536000Y-89402666D01*
X128631238Y-89497904D01*
X128726476Y-89545523D01*
X128916952Y-89593142D01*
X129059809Y-89593142D01*
X129250285Y-89545523D01*
X129345523Y-89497904D01*
X129440761Y-89402666D01*
X129488380Y-89259809D01*
X129488380Y-89021714D01*
X129488380Y-90545523D02*
X129488380Y-89974095D01*
X129488380Y-90259809D02*
X128488380Y-90259809D01*
X128631238Y-90164571D01*
X128726476Y-90069333D01*
X128774095Y-89974095D01*
X128488380Y-90878857D02*
X128488380Y-91497904D01*
X128869333Y-91164571D01*
X128869333Y-91307428D01*
X128916952Y-91402666D01*
X128964571Y-91450285D01*
X129059809Y-91497904D01*
X129297904Y-91497904D01*
X129393142Y-91450285D01*
X129440761Y-91402666D01*
X129488380Y-91307428D01*
X129488380Y-91021714D01*
X129440761Y-90926476D01*
X129393142Y-90878857D01*
X166612285Y-62534380D02*
X166612285Y-61534380D01*
X166374190Y-61534380D01*
X166231333Y-61582000D01*
X166136095Y-61677238D01*
X166088476Y-61772476D01*
X166040857Y-61962952D01*
X166040857Y-62105809D01*
X166088476Y-62296285D01*
X166136095Y-62391523D01*
X166231333Y-62486761D01*
X166374190Y-62534380D01*
X166612285Y-62534380D01*
X165088476Y-62534380D02*
X165659904Y-62534380D01*
X165374190Y-62534380D02*
X165374190Y-61534380D01*
X165469428Y-61677238D01*
X165564666Y-61772476D01*
X165659904Y-61820095D01*
X164231333Y-61867714D02*
X164231333Y-62534380D01*
X164469428Y-61486761D02*
X164707523Y-62201047D01*
X164088476Y-62201047D01*
X120342380Y-88577142D02*
X119866190Y-88243809D01*
X120342380Y-88005714D02*
X119342380Y-88005714D01*
X119342380Y-88386666D01*
X119390000Y-88481904D01*
X119437619Y-88529523D01*
X119532857Y-88577142D01*
X119675714Y-88577142D01*
X119770952Y-88529523D01*
X119818571Y-88481904D01*
X119866190Y-88386666D01*
X119866190Y-88005714D01*
X120342380Y-89529523D02*
X120342380Y-88958095D01*
X120342380Y-89243809D02*
X119342380Y-89243809D01*
X119485238Y-89148571D01*
X119580476Y-89053333D01*
X119628095Y-88958095D01*
X119770952Y-90100952D02*
X119723333Y-90005714D01*
X119675714Y-89958095D01*
X119580476Y-89910476D01*
X119532857Y-89910476D01*
X119437619Y-89958095D01*
X119390000Y-90005714D01*
X119342380Y-90100952D01*
X119342380Y-90291428D01*
X119390000Y-90386666D01*
X119437619Y-90434285D01*
X119532857Y-90481904D01*
X119580476Y-90481904D01*
X119675714Y-90434285D01*
X119723333Y-90386666D01*
X119770952Y-90291428D01*
X119770952Y-90100952D01*
X119818571Y-90005714D01*
X119866190Y-89958095D01*
X119961428Y-89910476D01*
X120151904Y-89910476D01*
X120247142Y-89958095D01*
X120294761Y-90005714D01*
X120342380Y-90100952D01*
X120342380Y-90291428D01*
X120294761Y-90386666D01*
X120247142Y-90434285D01*
X120151904Y-90481904D01*
X119961428Y-90481904D01*
X119866190Y-90434285D01*
X119818571Y-90386666D01*
X119770952Y-90291428D01*
X159817857Y-64272380D02*
X160151190Y-63796190D01*
X160389285Y-64272380D02*
X160389285Y-63272380D01*
X160008333Y-63272380D01*
X159913095Y-63320000D01*
X159865476Y-63367619D01*
X159817857Y-63462857D01*
X159817857Y-63605714D01*
X159865476Y-63700952D01*
X159913095Y-63748571D01*
X160008333Y-63796190D01*
X160389285Y-63796190D01*
X158865476Y-64272380D02*
X159436904Y-64272380D01*
X159151190Y-64272380D02*
X159151190Y-63272380D01*
X159246428Y-63415238D01*
X159341666Y-63510476D01*
X159436904Y-63558095D01*
X158389285Y-64272380D02*
X158198809Y-64272380D01*
X158103571Y-64224761D01*
X158055952Y-64177142D01*
X157960714Y-64034285D01*
X157913095Y-63843809D01*
X157913095Y-63462857D01*
X157960714Y-63367619D01*
X158008333Y-63320000D01*
X158103571Y-63272380D01*
X158294047Y-63272380D01*
X158389285Y-63320000D01*
X158436904Y-63367619D01*
X158484523Y-63462857D01*
X158484523Y-63700952D01*
X158436904Y-63796190D01*
X158389285Y-63843809D01*
X158294047Y-63891428D01*
X158103571Y-63891428D01*
X158008333Y-63843809D01*
X157960714Y-63796190D01*
X157913095Y-63700952D01*
M02*
