%FSLAX45Y45*%
G04 Gerber Fmt 4.5, Leading zero omitted, Abs format (unit mm)*
G04 Created by KiCad (PCBNEW (5.1.0)-1) date 2019-06-07 15:43:25*
%MOMM*%
%LPD*%
G04 APERTURE LIST*
%ADD10C,0.100000*%
%ADD11C,0.200000*%
%ADD12C,0.300000*%
G04 APERTURE END LIST*
D10*
X9400000Y-10350000D02*
X17650000Y-10350000D01*
X9400000Y-5100000D02*
X9400000Y-10350000D01*
X17650000Y-5100000D02*
X9400000Y-5100000D01*
X17650000Y-10350000D02*
X17650000Y-5100000D01*
D11*
X9740000Y-9690000D02*
X10060000Y-10010000D01*
X10060000Y-9690000D02*
X9740000Y-10010000D01*
X9740000Y-5440000D02*
X10060000Y-5760000D01*
X10060000Y-5440000D02*
X9740000Y-5760000D01*
X16990000Y-5440000D02*
X17310000Y-5760000D01*
X17310000Y-5440000D02*
X16990000Y-5760000D01*
X16990000Y-9690000D02*
X17310000Y-10010000D01*
X17310000Y-9690000D02*
X16990000Y-10010000D01*
D12*
X9681428Y-10820714D02*
X9681428Y-10520714D01*
X9752857Y-10520714D01*
X9795714Y-10535000D01*
X9824286Y-10563572D01*
X9838571Y-10592143D01*
X9852857Y-10649286D01*
X9852857Y-10692143D01*
X9838571Y-10749286D01*
X9824286Y-10777857D01*
X9795714Y-10806429D01*
X9752857Y-10820714D01*
X9681428Y-10820714D01*
X9981428Y-10820714D02*
X9981428Y-10620714D01*
X9981428Y-10677857D02*
X9995714Y-10649286D01*
X10010000Y-10635000D01*
X10038571Y-10620714D01*
X10067143Y-10620714D01*
X10167143Y-10820714D02*
X10167143Y-10620714D01*
X10167143Y-10520714D02*
X10152857Y-10535000D01*
X10167143Y-10549286D01*
X10181428Y-10535000D01*
X10167143Y-10520714D01*
X10167143Y-10549286D01*
X10352857Y-10820714D02*
X10324286Y-10806429D01*
X10310000Y-10777857D01*
X10310000Y-10520714D01*
X10510000Y-10820714D02*
X10481428Y-10806429D01*
X10467143Y-10777857D01*
X10467143Y-10520714D01*
X10852857Y-10820714D02*
X10852857Y-10520714D01*
X10952857Y-10735000D01*
X11052857Y-10520714D01*
X11052857Y-10820714D01*
X11324286Y-10820714D02*
X11324286Y-10663572D01*
X11310000Y-10635000D01*
X11281428Y-10620714D01*
X11224286Y-10620714D01*
X11195714Y-10635000D01*
X11324286Y-10806429D02*
X11295714Y-10820714D01*
X11224286Y-10820714D01*
X11195714Y-10806429D01*
X11181428Y-10777857D01*
X11181428Y-10749286D01*
X11195714Y-10720714D01*
X11224286Y-10706429D01*
X11295714Y-10706429D01*
X11324286Y-10692143D01*
X11467143Y-10620714D02*
X11467143Y-10920714D01*
X11467143Y-10635000D02*
X11495714Y-10620714D01*
X11552857Y-10620714D01*
X11581428Y-10635000D01*
X11595714Y-10649286D01*
X11610000Y-10677857D01*
X11610000Y-10763572D01*
X11595714Y-10792143D01*
X11581428Y-10806429D01*
X11552857Y-10820714D01*
X11495714Y-10820714D01*
X11467143Y-10806429D01*
X11738571Y-10792143D02*
X11752857Y-10806429D01*
X11738571Y-10820714D01*
X11724286Y-10806429D01*
X11738571Y-10792143D01*
X11738571Y-10820714D01*
X11738571Y-10635000D02*
X11752857Y-10649286D01*
X11738571Y-10663572D01*
X11724286Y-10649286D01*
X11738571Y-10635000D01*
X11738571Y-10663572D01*
X9075000Y-11155000D02*
X9395000Y-11475000D01*
X9395000Y-11155000D02*
X9075000Y-11475000D01*
X9652857Y-11150714D02*
X9838571Y-11150714D01*
X9738571Y-11265000D01*
X9781428Y-11265000D01*
X9810000Y-11279286D01*
X9824286Y-11293571D01*
X9838571Y-11322143D01*
X9838571Y-11393571D01*
X9824286Y-11422143D01*
X9810000Y-11436429D01*
X9781428Y-11450714D01*
X9695714Y-11450714D01*
X9667143Y-11436429D01*
X9652857Y-11422143D01*
X9967143Y-11422143D02*
X9981428Y-11436429D01*
X9967143Y-11450714D01*
X9952857Y-11436429D01*
X9967143Y-11422143D01*
X9967143Y-11450714D01*
X10095714Y-11179286D02*
X10110000Y-11165000D01*
X10138571Y-11150714D01*
X10210000Y-11150714D01*
X10238571Y-11165000D01*
X10252857Y-11179286D01*
X10267143Y-11207857D01*
X10267143Y-11236429D01*
X10252857Y-11279286D01*
X10081428Y-11450714D01*
X10267143Y-11450714D01*
X10452857Y-11150714D02*
X10481428Y-11150714D01*
X10510000Y-11165000D01*
X10524286Y-11179286D01*
X10538571Y-11207857D01*
X10552857Y-11265000D01*
X10552857Y-11336429D01*
X10538571Y-11393571D01*
X10524286Y-11422143D01*
X10510000Y-11436429D01*
X10481428Y-11450714D01*
X10452857Y-11450714D01*
X10424286Y-11436429D01*
X10410000Y-11422143D01*
X10395714Y-11393571D01*
X10381428Y-11336429D01*
X10381428Y-11265000D01*
X10395714Y-11207857D01*
X10410000Y-11179286D01*
X10424286Y-11165000D01*
X10452857Y-11150714D01*
X10681428Y-11450714D02*
X10681428Y-11250714D01*
X10681428Y-11279286D02*
X10695714Y-11265000D01*
X10724286Y-11250714D01*
X10767143Y-11250714D01*
X10795714Y-11265000D01*
X10810000Y-11293571D01*
X10810000Y-11450714D01*
X10810000Y-11293571D02*
X10824286Y-11265000D01*
X10852857Y-11250714D01*
X10895714Y-11250714D01*
X10924286Y-11265000D01*
X10938571Y-11293571D01*
X10938571Y-11450714D01*
X11081428Y-11450714D02*
X11081428Y-11250714D01*
X11081428Y-11279286D02*
X11095714Y-11265000D01*
X11124286Y-11250714D01*
X11167143Y-11250714D01*
X11195714Y-11265000D01*
X11210000Y-11293571D01*
X11210000Y-11450714D01*
X11210000Y-11293571D02*
X11224286Y-11265000D01*
X11252857Y-11250714D01*
X11295714Y-11250714D01*
X11324286Y-11265000D01*
X11338571Y-11293571D01*
X11338571Y-11450714D01*
X11924286Y-11136429D02*
X11667143Y-11522143D01*
X12310000Y-11150714D02*
X12338571Y-11150714D01*
X12367143Y-11165000D01*
X12381428Y-11179286D01*
X12395714Y-11207857D01*
X12410000Y-11265000D01*
X12410000Y-11336429D01*
X12395714Y-11393571D01*
X12381428Y-11422143D01*
X12367143Y-11436429D01*
X12338571Y-11450714D01*
X12310000Y-11450714D01*
X12281428Y-11436429D01*
X12267143Y-11422143D01*
X12252857Y-11393571D01*
X12238571Y-11336429D01*
X12238571Y-11265000D01*
X12252857Y-11207857D01*
X12267143Y-11179286D01*
X12281428Y-11165000D01*
X12310000Y-11150714D01*
X12538571Y-11422143D02*
X12552857Y-11436429D01*
X12538571Y-11450714D01*
X12524286Y-11436429D01*
X12538571Y-11422143D01*
X12538571Y-11450714D01*
X12838571Y-11450714D02*
X12667143Y-11450714D01*
X12752857Y-11450714D02*
X12752857Y-11150714D01*
X12724286Y-11193571D01*
X12695714Y-11222143D01*
X12667143Y-11236429D01*
X12952857Y-11179286D02*
X12967143Y-11165000D01*
X12995714Y-11150714D01*
X13067143Y-11150714D01*
X13095714Y-11165000D01*
X13110000Y-11179286D01*
X13124286Y-11207857D01*
X13124286Y-11236429D01*
X13110000Y-11279286D01*
X12938571Y-11450714D01*
X13124286Y-11450714D01*
X13381428Y-11150714D02*
X13324286Y-11150714D01*
X13295714Y-11165000D01*
X13281428Y-11179286D01*
X13252857Y-11222143D01*
X13238571Y-11279286D01*
X13238571Y-11393571D01*
X13252857Y-11422143D01*
X13267143Y-11436429D01*
X13295714Y-11450714D01*
X13352857Y-11450714D01*
X13381428Y-11436429D01*
X13395714Y-11422143D01*
X13410000Y-11393571D01*
X13410000Y-11322143D01*
X13395714Y-11293571D01*
X13381428Y-11279286D01*
X13352857Y-11265000D01*
X13295714Y-11265000D01*
X13267143Y-11279286D01*
X13252857Y-11293571D01*
X13238571Y-11322143D01*
X13524286Y-11150714D02*
X13524286Y-11207857D01*
X13638571Y-11150714D02*
X13638571Y-11207857D01*
X14081428Y-11565000D02*
X14067143Y-11550714D01*
X14038571Y-11507857D01*
X14024286Y-11479286D01*
X14010000Y-11436429D01*
X13995714Y-11365000D01*
X13995714Y-11307857D01*
X14010000Y-11236429D01*
X14024286Y-11193571D01*
X14038571Y-11165000D01*
X14067143Y-11122143D01*
X14081428Y-11107857D01*
X14324286Y-11250714D02*
X14324286Y-11450714D01*
X14252857Y-11136429D02*
X14181428Y-11350714D01*
X14367143Y-11350714D01*
X14710000Y-11450714D02*
X14710000Y-11150714D01*
X14838571Y-11450714D02*
X14838571Y-11293571D01*
X14824286Y-11265000D01*
X14795714Y-11250714D01*
X14752857Y-11250714D01*
X14724286Y-11265000D01*
X14710000Y-11279286D01*
X15024286Y-11450714D02*
X14995714Y-11436429D01*
X14981428Y-11422143D01*
X14967143Y-11393571D01*
X14967143Y-11307857D01*
X14981428Y-11279286D01*
X14995714Y-11265000D01*
X15024286Y-11250714D01*
X15067143Y-11250714D01*
X15095714Y-11265000D01*
X15110000Y-11279286D01*
X15124286Y-11307857D01*
X15124286Y-11393571D01*
X15110000Y-11422143D01*
X15095714Y-11436429D01*
X15067143Y-11450714D01*
X15024286Y-11450714D01*
X15295714Y-11450714D02*
X15267143Y-11436429D01*
X15252857Y-11407857D01*
X15252857Y-11150714D01*
X15524286Y-11436429D02*
X15495714Y-11450714D01*
X15438571Y-11450714D01*
X15410000Y-11436429D01*
X15395714Y-11407857D01*
X15395714Y-11293571D01*
X15410000Y-11265000D01*
X15438571Y-11250714D01*
X15495714Y-11250714D01*
X15524286Y-11265000D01*
X15538571Y-11293571D01*
X15538571Y-11322143D01*
X15395714Y-11350714D01*
X15652857Y-11436429D02*
X15681428Y-11450714D01*
X15738571Y-11450714D01*
X15767143Y-11436429D01*
X15781428Y-11407857D01*
X15781428Y-11393571D01*
X15767143Y-11365000D01*
X15738571Y-11350714D01*
X15695714Y-11350714D01*
X15667143Y-11336429D01*
X15652857Y-11307857D01*
X15652857Y-11293571D01*
X15667143Y-11265000D01*
X15695714Y-11250714D01*
X15738571Y-11250714D01*
X15767143Y-11265000D01*
X15881428Y-11565000D02*
X15895714Y-11550714D01*
X15924286Y-11507857D01*
X15938571Y-11479286D01*
X15952857Y-11436429D01*
X15967143Y-11365000D01*
X15967143Y-11307857D01*
X15952857Y-11236429D01*
X15938571Y-11193571D01*
X15924286Y-11165000D01*
X15895714Y-11122143D01*
X15881428Y-11107857D01*
X16424286Y-11565000D02*
X16410000Y-11550714D01*
X16381428Y-11507857D01*
X16367143Y-11479286D01*
X16352857Y-11436429D01*
X16338571Y-11365000D01*
X16338571Y-11307857D01*
X16352857Y-11236429D01*
X16367143Y-11193571D01*
X16381428Y-11165000D01*
X16410000Y-11122143D01*
X16424286Y-11107857D01*
X16538571Y-11250714D02*
X16538571Y-11450714D01*
X16538571Y-11279286D02*
X16552857Y-11265000D01*
X16581428Y-11250714D01*
X16624286Y-11250714D01*
X16652857Y-11265000D01*
X16667143Y-11293571D01*
X16667143Y-11450714D01*
X16852857Y-11450714D02*
X16824286Y-11436429D01*
X16810000Y-11422143D01*
X16795714Y-11393571D01*
X16795714Y-11307857D01*
X16810000Y-11279286D01*
X16824286Y-11265000D01*
X16852857Y-11250714D01*
X16895714Y-11250714D01*
X16924286Y-11265000D01*
X16938571Y-11279286D01*
X16952857Y-11307857D01*
X16952857Y-11393571D01*
X16938571Y-11422143D01*
X16924286Y-11436429D01*
X16895714Y-11450714D01*
X16852857Y-11450714D01*
X17038571Y-11250714D02*
X17152857Y-11250714D01*
X17081428Y-11150714D02*
X17081428Y-11407857D01*
X17095714Y-11436429D01*
X17124286Y-11450714D01*
X17152857Y-11450714D01*
X17481428Y-11250714D02*
X17481428Y-11550714D01*
X17481428Y-11265000D02*
X17510000Y-11250714D01*
X17567143Y-11250714D01*
X17595714Y-11265000D01*
X17610000Y-11279286D01*
X17624286Y-11307857D01*
X17624286Y-11393571D01*
X17610000Y-11422143D01*
X17595714Y-11436429D01*
X17567143Y-11450714D01*
X17510000Y-11450714D01*
X17481428Y-11436429D01*
X17795714Y-11450714D02*
X17767143Y-11436429D01*
X17752857Y-11407857D01*
X17752857Y-11150714D01*
X18038571Y-11450714D02*
X18038571Y-11293571D01*
X18024286Y-11265000D01*
X17995714Y-11250714D01*
X17938571Y-11250714D01*
X17910000Y-11265000D01*
X18038571Y-11436429D02*
X18010000Y-11450714D01*
X17938571Y-11450714D01*
X17910000Y-11436429D01*
X17895714Y-11407857D01*
X17895714Y-11379286D01*
X17910000Y-11350714D01*
X17938571Y-11336429D01*
X18010000Y-11336429D01*
X18038571Y-11322143D01*
X18138571Y-11250714D02*
X18252857Y-11250714D01*
X18181428Y-11150714D02*
X18181428Y-11407857D01*
X18195714Y-11436429D01*
X18224286Y-11450714D01*
X18252857Y-11450714D01*
X18467143Y-11436429D02*
X18438571Y-11450714D01*
X18381428Y-11450714D01*
X18352857Y-11436429D01*
X18338571Y-11407857D01*
X18338571Y-11293571D01*
X18352857Y-11265000D01*
X18381428Y-11250714D01*
X18438571Y-11250714D01*
X18467143Y-11265000D01*
X18481428Y-11293571D01*
X18481428Y-11322143D01*
X18338571Y-11350714D01*
X18738571Y-11450714D02*
X18738571Y-11150714D01*
X18738571Y-11436429D02*
X18710000Y-11450714D01*
X18652857Y-11450714D01*
X18624286Y-11436429D01*
X18610000Y-11422143D01*
X18595714Y-11393571D01*
X18595714Y-11307857D01*
X18610000Y-11279286D01*
X18624286Y-11265000D01*
X18652857Y-11250714D01*
X18710000Y-11250714D01*
X18738571Y-11265000D01*
X18852857Y-11565000D02*
X18867143Y-11550714D01*
X18895714Y-11507857D01*
X18910000Y-11479286D01*
X18924286Y-11436429D01*
X18938571Y-11365000D01*
X18938571Y-11307857D01*
X18924286Y-11236429D01*
X18910000Y-11193571D01*
X18895714Y-11165000D01*
X18867143Y-11122143D01*
X18852857Y-11107857D01*
M02*
