G04 #@! TF.GenerationSoftware,KiCad,Pcbnew,(5.1.0)-1*
G04 #@! TF.CreationDate,2019-06-07T15:42:58+02:00*
G04 #@! TF.ProjectId,DRS,4452532e-6b69-4636-9164-5f7063625858,rev?*
G04 #@! TF.SameCoordinates,Original*
G04 #@! TF.FileFunction,Legend,Top*
G04 #@! TF.FilePolarity,Positive*
%FSLAX46Y46*%
G04 Gerber Fmt 4.6, Leading zero omitted, Abs format (unit mm)*
G04 Created by KiCad (PCBNEW (5.1.0)-1) date 2019-06-07 15:42:58*
%MOMM*%
%LPD*%
G04 APERTURE LIST*
%ADD10C,0.100000*%
%ADD11C,0.120000*%
%ADD12C,0.150000*%
G04 APERTURE END LIST*
D10*
X94000000Y-103500000D02*
X176500000Y-103500000D01*
X94000000Y-51000000D02*
X94000000Y-103500000D01*
X176500000Y-51000000D02*
X94000000Y-51000000D01*
X176500000Y-103500000D02*
X176500000Y-51000000D01*
D11*
X151680000Y-88130000D02*
X151680000Y-81670000D01*
X147150000Y-88130000D02*
X149750000Y-88130000D01*
X145220000Y-88130000D02*
X145220000Y-81670000D01*
X147150000Y-81670000D02*
X149750000Y-81670000D01*
X145250000Y-88130000D02*
X145220000Y-88130000D01*
X151680000Y-88130000D02*
X151650000Y-88130000D01*
X151680000Y-81670000D02*
X151650000Y-81670000D01*
X145220000Y-81670000D02*
X145250000Y-81670000D01*
X135202064Y-98210000D02*
X133997936Y-98210000D01*
X135202064Y-96390000D02*
X133997936Y-96390000D01*
X128397936Y-98210000D02*
X129602064Y-98210000D01*
X128397936Y-96390000D02*
X129602064Y-96390000D01*
X116802064Y-98010000D02*
X115597936Y-98010000D01*
X116802064Y-96190000D02*
X115597936Y-96190000D01*
X130910000Y-68102064D02*
X130910000Y-66897936D01*
X129090000Y-68102064D02*
X129090000Y-66897936D01*
X126910000Y-66897936D02*
X126910000Y-68102064D01*
X125090000Y-66897936D02*
X125090000Y-68102064D01*
X157202064Y-77390000D02*
X155997936Y-77390000D01*
X157202064Y-79210000D02*
X155997936Y-79210000D01*
X146397936Y-79210000D02*
X147602064Y-79210000D01*
X146397936Y-77390000D02*
X147602064Y-77390000D01*
X120350000Y-59250000D02*
X114650000Y-59250000D01*
X120350000Y-54950000D02*
X114650000Y-54950000D01*
X120350000Y-59250000D02*
X120350000Y-54950000D01*
X120350000Y-64050000D02*
X114650000Y-64050000D01*
X120350000Y-59750000D02*
X114650000Y-59750000D01*
X120350000Y-64050000D02*
X120350000Y-59750000D01*
X121600000Y-77165000D02*
X117715000Y-77165000D01*
X117715000Y-77165000D02*
X117715000Y-79435000D01*
X117715000Y-79435000D02*
X121600000Y-79435000D01*
X117715000Y-84635000D02*
X121600000Y-84635000D01*
X117715000Y-82365000D02*
X117715000Y-84635000D01*
X121600000Y-82365000D02*
X117715000Y-82365000D01*
X121600000Y-79765000D02*
X117715000Y-79765000D01*
X117715000Y-79765000D02*
X117715000Y-82035000D01*
X117715000Y-82035000D02*
X121600000Y-82035000D01*
X120935000Y-69785000D02*
X120935000Y-65900000D01*
X118665000Y-69785000D02*
X120935000Y-69785000D01*
X118665000Y-65900000D02*
X118665000Y-69785000D01*
X163000000Y-85235000D02*
X166885000Y-85235000D01*
X166885000Y-85235000D02*
X166885000Y-82965000D01*
X166885000Y-82965000D02*
X163000000Y-82965000D01*
X100515000Y-74235000D02*
X104400000Y-74235000D01*
X100515000Y-71965000D02*
X100515000Y-74235000D01*
X104400000Y-71965000D02*
X100515000Y-71965000D01*
X141150000Y-57750000D02*
X136850000Y-57750000D01*
X136850000Y-57750000D02*
X136850000Y-63450000D01*
X141150000Y-57750000D02*
X141150000Y-63450000D01*
X136150000Y-57750000D02*
X136150000Y-63450000D01*
X131850000Y-57750000D02*
X131850000Y-63450000D01*
X136150000Y-57750000D02*
X131850000Y-57750000D01*
X144135000Y-56300000D02*
X144135000Y-52415000D01*
X144135000Y-52415000D02*
X141865000Y-52415000D01*
X141865000Y-52415000D02*
X141865000Y-56300000D01*
X141650000Y-62150000D02*
X141650000Y-66450000D01*
X141650000Y-66450000D02*
X147350000Y-66450000D01*
X141650000Y-62150000D02*
X147350000Y-62150000D01*
X148588712Y-56983352D02*
G75*
G02X147800000Y-57180000I-788712J1483352D01*
G01*
X149283953Y-54710912D02*
G75*
G02X149284000Y-56289000I-1483953J-789088D01*
G01*
X147010912Y-54016047D02*
G75*
G02X148589000Y-54016000I789088J-1483953D01*
G01*
X146316047Y-56289088D02*
G75*
G02X146316000Y-54711000I1483953J789088D01*
G01*
X147829383Y-57180450D02*
G75*
G02X147011000Y-56984000I-29383J1680450D01*
G01*
X148350000Y-52500000D02*
G75*
G03X148350000Y-52500000I-550000J0D01*
G01*
X154480000Y-55500000D02*
G75*
G03X154480000Y-55500000I-1680000J0D01*
G01*
X153350000Y-52500000D02*
G75*
G03X153350000Y-52500000I-550000J0D01*
G01*
X159480000Y-55500000D02*
G75*
G03X159480000Y-55500000I-1680000J0D01*
G01*
X158350000Y-52500000D02*
G75*
G03X158350000Y-52500000I-550000J0D01*
G01*
X164480000Y-55500000D02*
G75*
G03X164480000Y-55500000I-1680000J0D01*
G01*
X163350000Y-52500000D02*
G75*
G03X163350000Y-52500000I-550000J0D01*
G01*
X145240000Y-58400000D02*
X165361000Y-58400000D01*
X145240000Y-57800000D02*
X165361000Y-57800000D01*
X145240000Y-53100000D02*
X165361000Y-53100000D01*
X145240000Y-51340000D02*
X165361000Y-51340000D01*
X145240000Y-59061000D02*
X165361000Y-59061000D01*
X145240000Y-51340000D02*
X145240000Y-59061000D01*
X165361000Y-51340000D02*
X165361000Y-59061000D01*
X154075000Y-54431000D02*
X153981000Y-54524000D01*
X151790000Y-56716000D02*
X151731000Y-56774000D01*
X153870000Y-54225000D02*
X153811000Y-54284000D01*
X151620000Y-56476000D02*
X151526000Y-56569000D01*
X159075000Y-54431000D02*
X158981000Y-54524000D01*
X156790000Y-56716000D02*
X156731000Y-56774000D01*
X158870000Y-54225000D02*
X158811000Y-54284000D01*
X156620000Y-56476000D02*
X156526000Y-56569000D01*
X164075000Y-54431000D02*
X163981000Y-54524000D01*
X161790000Y-56716000D02*
X161731000Y-56774000D01*
X163870000Y-54225000D02*
X163811000Y-54284000D01*
X161620000Y-56476000D02*
X161526000Y-56569000D01*
X145000000Y-58460000D02*
X145000000Y-59300000D01*
X145000000Y-59300000D02*
X145600000Y-59300000D01*
X111810000Y-98830000D02*
X111810000Y-93630000D01*
X106670000Y-98830000D02*
X111810000Y-98830000D01*
X104070000Y-93630000D02*
X111810000Y-93630000D01*
X106670000Y-98830000D02*
X106670000Y-96230000D01*
X106670000Y-96230000D02*
X104070000Y-96230000D01*
X104070000Y-96230000D02*
X104070000Y-93630000D01*
X105400000Y-98830000D02*
X104070000Y-98830000D01*
X104070000Y-98830000D02*
X104070000Y-97500000D01*
X121402064Y-98010000D02*
X120197936Y-98010000D01*
X121402064Y-96190000D02*
X120197936Y-96190000D01*
X152090000Y-76297936D02*
X152090000Y-77502064D01*
X153910000Y-76297936D02*
X153910000Y-77502064D01*
X151510000Y-76297936D02*
X151510000Y-77502064D01*
X149690000Y-76297936D02*
X149690000Y-77502064D01*
X114802064Y-84410000D02*
X113597936Y-84410000D01*
X114802064Y-82590000D02*
X113597936Y-82590000D01*
X114802064Y-79990000D02*
X113597936Y-79990000D01*
X114802064Y-81810000D02*
X113597936Y-81810000D01*
X117910000Y-68102064D02*
X117910000Y-66897936D01*
X116090000Y-68102064D02*
X116090000Y-66897936D01*
X165202064Y-87610000D02*
X163997936Y-87610000D01*
X165202064Y-85790000D02*
X163997936Y-85790000D01*
X114802064Y-77390000D02*
X113597936Y-77390000D01*
X114802064Y-79210000D02*
X113597936Y-79210000D01*
X102197936Y-71010000D02*
X103402064Y-71010000D01*
X102197936Y-69190000D02*
X103402064Y-69190000D01*
X139290000Y-55302064D02*
X139290000Y-54097936D01*
X141110000Y-55302064D02*
X141110000Y-54097936D01*
D12*
X125425000Y-72825000D02*
X125425000Y-73400000D01*
X139775000Y-72825000D02*
X139775000Y-73500000D01*
X139775000Y-87175000D02*
X139775000Y-86500000D01*
X125425000Y-87175000D02*
X125425000Y-86500000D01*
X125425000Y-72825000D02*
X126100000Y-72825000D01*
X125425000Y-87175000D02*
X126100000Y-87175000D01*
X139775000Y-87175000D02*
X139100000Y-87175000D01*
X139775000Y-72825000D02*
X139100000Y-72825000D01*
X125425000Y-73400000D02*
X124150000Y-73400000D01*
D11*
X124690000Y-57890000D02*
X124690000Y-59150000D01*
X124690000Y-64710000D02*
X124690000Y-63450000D01*
X128450000Y-57890000D02*
X124690000Y-57890000D01*
X130700000Y-64710000D02*
X124690000Y-64710000D01*
X125900000Y-96050000D02*
X138500000Y-96050000D01*
X138500000Y-96050000D02*
X138500000Y-90950000D01*
X138500000Y-90950000D02*
X125900000Y-90950000D01*
X124360000Y-66897936D02*
X124360000Y-68102064D01*
X121640000Y-66897936D02*
X121640000Y-68102064D01*
X113770000Y-87270000D02*
X113800000Y-87270000D01*
X120230000Y-87270000D02*
X120200000Y-87270000D01*
X120230000Y-93730000D02*
X120200000Y-93730000D01*
X113800000Y-93730000D02*
X113770000Y-93730000D01*
X115700000Y-87270000D02*
X118300000Y-87270000D01*
X113770000Y-93730000D02*
X113770000Y-87270000D01*
X115700000Y-93730000D02*
X118300000Y-93730000D01*
X120230000Y-93730000D02*
X120230000Y-87270000D01*
X158780000Y-88130000D02*
X158750000Y-88130000D01*
X152320000Y-88130000D02*
X152350000Y-88130000D01*
X152320000Y-81670000D02*
X152350000Y-81670000D01*
X158750000Y-81670000D02*
X158780000Y-81670000D01*
X156850000Y-88130000D02*
X154250000Y-88130000D01*
X158780000Y-81670000D02*
X158780000Y-88130000D01*
X156850000Y-81670000D02*
X154250000Y-81670000D01*
X152320000Y-81670000D02*
X152320000Y-88130000D01*
X129762779Y-90610000D02*
X129437221Y-90610000D01*
X129762779Y-89590000D02*
X129437221Y-89590000D01*
X135637221Y-69590000D02*
X135962779Y-69590000D01*
X135637221Y-70610000D02*
X135962779Y-70610000D01*
D12*
X144804761Y-86233333D02*
X144852380Y-86090476D01*
X144852380Y-85852380D01*
X144804761Y-85757142D01*
X144757142Y-85709523D01*
X144661904Y-85661904D01*
X144566666Y-85661904D01*
X144471428Y-85709523D01*
X144423809Y-85757142D01*
X144376190Y-85852380D01*
X144328571Y-86042857D01*
X144280952Y-86138095D01*
X144233333Y-86185714D01*
X144138095Y-86233333D01*
X144042857Y-86233333D01*
X143947619Y-86185714D01*
X143900000Y-86138095D01*
X143852380Y-86042857D01*
X143852380Y-85804761D01*
X143900000Y-85661904D01*
X143852380Y-85328571D02*
X144852380Y-85090476D01*
X144138095Y-84900000D01*
X144852380Y-84709523D01*
X143852380Y-84471428D01*
X143852380Y-84185714D02*
X143852380Y-83566666D01*
X144233333Y-83900000D01*
X144233333Y-83757142D01*
X144280952Y-83661904D01*
X144328571Y-83614285D01*
X144423809Y-83566666D01*
X144661904Y-83566666D01*
X144757142Y-83614285D01*
X144804761Y-83661904D01*
X144852380Y-83757142D01*
X144852380Y-84042857D01*
X144804761Y-84138095D01*
X144757142Y-84185714D01*
X134433333Y-99477142D02*
X134385714Y-99524761D01*
X134242857Y-99572380D01*
X134147619Y-99572380D01*
X134004761Y-99524761D01*
X133909523Y-99429523D01*
X133861904Y-99334285D01*
X133814285Y-99143809D01*
X133814285Y-99000952D01*
X133861904Y-98810476D01*
X133909523Y-98715238D01*
X134004761Y-98620000D01*
X134147619Y-98572380D01*
X134242857Y-98572380D01*
X134385714Y-98620000D01*
X134433333Y-98667619D01*
X135385714Y-99572380D02*
X134814285Y-99572380D01*
X135100000Y-99572380D02*
X135100000Y-98572380D01*
X135004761Y-98715238D01*
X134909523Y-98810476D01*
X134814285Y-98858095D01*
X129036333Y-99483142D02*
X128988714Y-99530761D01*
X128845857Y-99578380D01*
X128750619Y-99578380D01*
X128607761Y-99530761D01*
X128512523Y-99435523D01*
X128464904Y-99340285D01*
X128417285Y-99149809D01*
X128417285Y-99006952D01*
X128464904Y-98816476D01*
X128512523Y-98721238D01*
X128607761Y-98626000D01*
X128750619Y-98578380D01*
X128845857Y-98578380D01*
X128988714Y-98626000D01*
X129036333Y-98673619D01*
X129417285Y-98673619D02*
X129464904Y-98626000D01*
X129560142Y-98578380D01*
X129798238Y-98578380D01*
X129893476Y-98626000D01*
X129941095Y-98673619D01*
X129988714Y-98768857D01*
X129988714Y-98864095D01*
X129941095Y-99006952D01*
X129369666Y-99578380D01*
X129988714Y-99578380D01*
X116033333Y-99277142D02*
X115985714Y-99324761D01*
X115842857Y-99372380D01*
X115747619Y-99372380D01*
X115604761Y-99324761D01*
X115509523Y-99229523D01*
X115461904Y-99134285D01*
X115414285Y-98943809D01*
X115414285Y-98800952D01*
X115461904Y-98610476D01*
X115509523Y-98515238D01*
X115604761Y-98420000D01*
X115747619Y-98372380D01*
X115842857Y-98372380D01*
X115985714Y-98420000D01*
X116033333Y-98467619D01*
X116366666Y-98372380D02*
X116985714Y-98372380D01*
X116652380Y-98753333D01*
X116795238Y-98753333D01*
X116890476Y-98800952D01*
X116938095Y-98848571D01*
X116985714Y-98943809D01*
X116985714Y-99181904D01*
X116938095Y-99277142D01*
X116890476Y-99324761D01*
X116795238Y-99372380D01*
X116509523Y-99372380D01*
X116414285Y-99324761D01*
X116366666Y-99277142D01*
D11*
X129831666Y-67788714D02*
X129793571Y-67826809D01*
X129679285Y-67864904D01*
X129603095Y-67864904D01*
X129488809Y-67826809D01*
X129412619Y-67750619D01*
X129374523Y-67674428D01*
X129336428Y-67522047D01*
X129336428Y-67407761D01*
X129374523Y-67255380D01*
X129412619Y-67179190D01*
X129488809Y-67103000D01*
X129603095Y-67064904D01*
X129679285Y-67064904D01*
X129793571Y-67103000D01*
X129831666Y-67141095D01*
X130517380Y-67331571D02*
X130517380Y-67864904D01*
X130326904Y-67026809D02*
X130136428Y-67598238D01*
X130631666Y-67598238D01*
X125894666Y-67785714D02*
X125856571Y-67823809D01*
X125742285Y-67861904D01*
X125666095Y-67861904D01*
X125551809Y-67823809D01*
X125475619Y-67747619D01*
X125437523Y-67671428D01*
X125399428Y-67519047D01*
X125399428Y-67404761D01*
X125437523Y-67252380D01*
X125475619Y-67176190D01*
X125551809Y-67100000D01*
X125666095Y-67061904D01*
X125742285Y-67061904D01*
X125856571Y-67100000D01*
X125894666Y-67138095D01*
X126580380Y-67061904D02*
X126428000Y-67061904D01*
X126351809Y-67100000D01*
X126313714Y-67138095D01*
X126237523Y-67252380D01*
X126199428Y-67404761D01*
X126199428Y-67709523D01*
X126237523Y-67785714D01*
X126275619Y-67823809D01*
X126351809Y-67861904D01*
X126504190Y-67861904D01*
X126580380Y-67823809D01*
X126618476Y-67785714D01*
X126656571Y-67709523D01*
X126656571Y-67519047D01*
X126618476Y-67442857D01*
X126580380Y-67404761D01*
X126504190Y-67366666D01*
X126351809Y-67366666D01*
X126275619Y-67404761D01*
X126237523Y-67442857D01*
X126199428Y-67519047D01*
D12*
X156468333Y-76750142D02*
X156420714Y-76797761D01*
X156277857Y-76845380D01*
X156182619Y-76845380D01*
X156039761Y-76797761D01*
X155944523Y-76702523D01*
X155896904Y-76607285D01*
X155849285Y-76416809D01*
X155849285Y-76273952D01*
X155896904Y-76083476D01*
X155944523Y-75988238D01*
X156039761Y-75893000D01*
X156182619Y-75845380D01*
X156277857Y-75845380D01*
X156420714Y-75893000D01*
X156468333Y-75940619D01*
X156801666Y-75845380D02*
X157468333Y-75845380D01*
X157039761Y-76845380D01*
X146833333Y-76837142D02*
X146785714Y-76884761D01*
X146642857Y-76932380D01*
X146547619Y-76932380D01*
X146404761Y-76884761D01*
X146309523Y-76789523D01*
X146261904Y-76694285D01*
X146214285Y-76503809D01*
X146214285Y-76360952D01*
X146261904Y-76170476D01*
X146309523Y-76075238D01*
X146404761Y-75980000D01*
X146547619Y-75932380D01*
X146642857Y-75932380D01*
X146785714Y-75980000D01*
X146833333Y-76027619D01*
X147404761Y-76360952D02*
X147309523Y-76313333D01*
X147261904Y-76265714D01*
X147214285Y-76170476D01*
X147214285Y-76122857D01*
X147261904Y-76027619D01*
X147309523Y-75980000D01*
X147404761Y-75932380D01*
X147595238Y-75932380D01*
X147690476Y-75980000D01*
X147738095Y-76027619D01*
X147785714Y-76122857D01*
X147785714Y-76170476D01*
X147738095Y-76265714D01*
X147690476Y-76313333D01*
X147595238Y-76360952D01*
X147404761Y-76360952D01*
X147309523Y-76408571D01*
X147261904Y-76456190D01*
X147214285Y-76551428D01*
X147214285Y-76741904D01*
X147261904Y-76837142D01*
X147309523Y-76884761D01*
X147404761Y-76932380D01*
X147595238Y-76932380D01*
X147690476Y-76884761D01*
X147738095Y-76837142D01*
X147785714Y-76741904D01*
X147785714Y-76551428D01*
X147738095Y-76456190D01*
X147690476Y-76408571D01*
X147595238Y-76360952D01*
X117157142Y-57731857D02*
X117204761Y-57779476D01*
X117252380Y-57922333D01*
X117252380Y-58017571D01*
X117204761Y-58160428D01*
X117109523Y-58255666D01*
X117014285Y-58303285D01*
X116823809Y-58350904D01*
X116680952Y-58350904D01*
X116490476Y-58303285D01*
X116395238Y-58255666D01*
X116300000Y-58160428D01*
X116252380Y-58017571D01*
X116252380Y-57922333D01*
X116300000Y-57779476D01*
X116347619Y-57731857D01*
X117252380Y-56779476D02*
X117252380Y-57350904D01*
X117252380Y-57065190D02*
X116252380Y-57065190D01*
X116395238Y-57160428D01*
X116490476Y-57255666D01*
X116538095Y-57350904D01*
X116585714Y-55922333D02*
X117252380Y-55922333D01*
X116204761Y-56160428D02*
X116919047Y-56398523D01*
X116919047Y-55779476D01*
X117241142Y-62684857D02*
X117288761Y-62732476D01*
X117336380Y-62875333D01*
X117336380Y-62970571D01*
X117288761Y-63113428D01*
X117193523Y-63208666D01*
X117098285Y-63256285D01*
X116907809Y-63303904D01*
X116764952Y-63303904D01*
X116574476Y-63256285D01*
X116479238Y-63208666D01*
X116384000Y-63113428D01*
X116336380Y-62970571D01*
X116336380Y-62875333D01*
X116384000Y-62732476D01*
X116431619Y-62684857D01*
X117336380Y-61732476D02*
X117336380Y-62303904D01*
X117336380Y-62018190D02*
X116336380Y-62018190D01*
X116479238Y-62113428D01*
X116574476Y-62208666D01*
X116622095Y-62303904D01*
X116336380Y-60827714D02*
X116336380Y-61303904D01*
X116812571Y-61351523D01*
X116764952Y-61303904D01*
X116717333Y-61208666D01*
X116717333Y-60970571D01*
X116764952Y-60875333D01*
X116812571Y-60827714D01*
X116907809Y-60780095D01*
X117145904Y-60780095D01*
X117241142Y-60827714D01*
X117288761Y-60875333D01*
X117336380Y-60970571D01*
X117336380Y-61208666D01*
X117288761Y-61303904D01*
X117241142Y-61351523D01*
X120511380Y-79036095D02*
X119511380Y-79036095D01*
X119511380Y-78798000D01*
X119559000Y-78655142D01*
X119654238Y-78559904D01*
X119749476Y-78512285D01*
X119939952Y-78464666D01*
X120082809Y-78464666D01*
X120273285Y-78512285D01*
X120368523Y-78559904D01*
X120463761Y-78655142D01*
X120511380Y-78798000D01*
X120511380Y-79036095D01*
X120511380Y-77512285D02*
X120511380Y-78083714D01*
X120511380Y-77798000D02*
X119511380Y-77798000D01*
X119654238Y-77893238D01*
X119749476Y-77988476D01*
X119797095Y-78083714D01*
X120511380Y-84243095D02*
X119511380Y-84243095D01*
X119511380Y-84005000D01*
X119559000Y-83862142D01*
X119654238Y-83766904D01*
X119749476Y-83719285D01*
X119939952Y-83671666D01*
X120082809Y-83671666D01*
X120273285Y-83719285D01*
X120368523Y-83766904D01*
X120463761Y-83862142D01*
X120511380Y-84005000D01*
X120511380Y-84243095D01*
X119606619Y-83290714D02*
X119559000Y-83243095D01*
X119511380Y-83147857D01*
X119511380Y-82909761D01*
X119559000Y-82814523D01*
X119606619Y-82766904D01*
X119701857Y-82719285D01*
X119797095Y-82719285D01*
X119939952Y-82766904D01*
X120511380Y-83338333D01*
X120511380Y-82719285D01*
X120511380Y-81703095D02*
X119511380Y-81703095D01*
X119511380Y-81465000D01*
X119559000Y-81322142D01*
X119654238Y-81226904D01*
X119749476Y-81179285D01*
X119939952Y-81131666D01*
X120082809Y-81131666D01*
X120273285Y-81179285D01*
X120368523Y-81226904D01*
X120463761Y-81322142D01*
X120511380Y-81465000D01*
X120511380Y-81703095D01*
X119844714Y-80274523D02*
X120511380Y-80274523D01*
X119463761Y-80512619D02*
X120178047Y-80750714D01*
X120178047Y-80131666D01*
X119066904Y-67955380D02*
X119066904Y-66955380D01*
X119305000Y-66955380D01*
X119447857Y-67003000D01*
X119543095Y-67098238D01*
X119590714Y-67193476D01*
X119638333Y-67383952D01*
X119638333Y-67526809D01*
X119590714Y-67717285D01*
X119543095Y-67812523D01*
X119447857Y-67907761D01*
X119305000Y-67955380D01*
X119066904Y-67955380D01*
X119971666Y-66955380D02*
X120638333Y-66955380D01*
X120209761Y-67955380D01*
X167326904Y-84592380D02*
X167326904Y-83592380D01*
X167565000Y-83592380D01*
X167707857Y-83640000D01*
X167803095Y-83735238D01*
X167850714Y-83830476D01*
X167898333Y-84020952D01*
X167898333Y-84163809D01*
X167850714Y-84354285D01*
X167803095Y-84449523D01*
X167707857Y-84544761D01*
X167565000Y-84592380D01*
X167326904Y-84592380D01*
X168469761Y-84020952D02*
X168374523Y-83973333D01*
X168326904Y-83925714D01*
X168279285Y-83830476D01*
X168279285Y-83782857D01*
X168326904Y-83687619D01*
X168374523Y-83640000D01*
X168469761Y-83592380D01*
X168660238Y-83592380D01*
X168755476Y-83640000D01*
X168803095Y-83687619D01*
X168850714Y-83782857D01*
X168850714Y-83830476D01*
X168803095Y-83925714D01*
X168755476Y-83973333D01*
X168660238Y-84020952D01*
X168469761Y-84020952D01*
X168374523Y-84068571D01*
X168326904Y-84116190D01*
X168279285Y-84211428D01*
X168279285Y-84401904D01*
X168326904Y-84497142D01*
X168374523Y-84544761D01*
X168469761Y-84592380D01*
X168660238Y-84592380D01*
X168755476Y-84544761D01*
X168803095Y-84497142D01*
X168850714Y-84401904D01*
X168850714Y-84211428D01*
X168803095Y-84116190D01*
X168755476Y-84068571D01*
X168660238Y-84020952D01*
X98619904Y-73543380D02*
X98619904Y-72543380D01*
X98858000Y-72543380D01*
X99000857Y-72591000D01*
X99096095Y-72686238D01*
X99143714Y-72781476D01*
X99191333Y-72971952D01*
X99191333Y-73114809D01*
X99143714Y-73305285D01*
X99096095Y-73400523D01*
X99000857Y-73495761D01*
X98858000Y-73543380D01*
X98619904Y-73543380D01*
X99667523Y-73543380D02*
X99858000Y-73543380D01*
X99953238Y-73495761D01*
X100000857Y-73448142D01*
X100096095Y-73305285D01*
X100143714Y-73114809D01*
X100143714Y-72733857D01*
X100096095Y-72638619D01*
X100048476Y-72591000D01*
X99953238Y-72543380D01*
X99762761Y-72543380D01*
X99667523Y-72591000D01*
X99619904Y-72638619D01*
X99572285Y-72733857D01*
X99572285Y-72971952D01*
X99619904Y-73067190D01*
X99667523Y-73114809D01*
X99762761Y-73162428D01*
X99953238Y-73162428D01*
X100048476Y-73114809D01*
X100096095Y-73067190D01*
X100143714Y-72971952D01*
X137894714Y-61752380D02*
X137894714Y-60752380D01*
X138132809Y-60752380D01*
X138275666Y-60800000D01*
X138370904Y-60895238D01*
X138418523Y-60990476D01*
X138466142Y-61180952D01*
X138466142Y-61323809D01*
X138418523Y-61514285D01*
X138370904Y-61609523D01*
X138275666Y-61704761D01*
X138132809Y-61752380D01*
X137894714Y-61752380D01*
X139418523Y-61752380D02*
X138847095Y-61752380D01*
X139132809Y-61752380D02*
X139132809Y-60752380D01*
X139037571Y-60895238D01*
X138942333Y-60990476D01*
X138847095Y-61038095D01*
X140037571Y-60752380D02*
X140132809Y-60752380D01*
X140228047Y-60800000D01*
X140275666Y-60847619D01*
X140323285Y-60942857D01*
X140370904Y-61133333D01*
X140370904Y-61371428D01*
X140323285Y-61561904D01*
X140275666Y-61657142D01*
X140228047Y-61704761D01*
X140132809Y-61752380D01*
X140037571Y-61752380D01*
X139942333Y-61704761D01*
X139894714Y-61657142D01*
X139847095Y-61561904D01*
X139799476Y-61371428D01*
X139799476Y-61133333D01*
X139847095Y-60942857D01*
X139894714Y-60847619D01*
X139942333Y-60800000D01*
X140037571Y-60752380D01*
X132814714Y-61859380D02*
X132814714Y-60859380D01*
X133052809Y-60859380D01*
X133195666Y-60907000D01*
X133290904Y-61002238D01*
X133338523Y-61097476D01*
X133386142Y-61287952D01*
X133386142Y-61430809D01*
X133338523Y-61621285D01*
X133290904Y-61716523D01*
X133195666Y-61811761D01*
X133052809Y-61859380D01*
X132814714Y-61859380D01*
X134338523Y-61859380D02*
X133767095Y-61859380D01*
X134052809Y-61859380D02*
X134052809Y-60859380D01*
X133957571Y-61002238D01*
X133862333Y-61097476D01*
X133767095Y-61145095D01*
X135290904Y-61859380D02*
X134719476Y-61859380D01*
X135005190Y-61859380D02*
X135005190Y-60859380D01*
X134909952Y-61002238D01*
X134814714Y-61097476D01*
X134719476Y-61145095D01*
X141831714Y-52207380D02*
X141831714Y-51207380D01*
X142069809Y-51207380D01*
X142212666Y-51255000D01*
X142307904Y-51350238D01*
X142355523Y-51445476D01*
X142403142Y-51635952D01*
X142403142Y-51778809D01*
X142355523Y-51969285D01*
X142307904Y-52064523D01*
X142212666Y-52159761D01*
X142069809Y-52207380D01*
X141831714Y-52207380D01*
X143355523Y-52207380D02*
X142784095Y-52207380D01*
X143069809Y-52207380D02*
X143069809Y-51207380D01*
X142974571Y-51350238D01*
X142879333Y-51445476D01*
X142784095Y-51493095D01*
X143736476Y-51302619D02*
X143784095Y-51255000D01*
X143879333Y-51207380D01*
X144117428Y-51207380D01*
X144212666Y-51255000D01*
X144260285Y-51302619D01*
X144307904Y-51397857D01*
X144307904Y-51493095D01*
X144260285Y-51635952D01*
X143688857Y-52207380D01*
X144307904Y-52207380D01*
X144866666Y-61228571D02*
X144533333Y-61228571D01*
X144533333Y-61752380D02*
X144533333Y-60752380D01*
X145009523Y-60752380D01*
X145914285Y-61752380D02*
X145342857Y-61752380D01*
X145628571Y-61752380D02*
X145628571Y-60752380D01*
X145533333Y-60895238D01*
X145438095Y-60990476D01*
X145342857Y-61038095D01*
X154966666Y-49792380D02*
X154966666Y-50506666D01*
X154919047Y-50649523D01*
X154823809Y-50744761D01*
X154680952Y-50792380D01*
X154585714Y-50792380D01*
X155966666Y-50792380D02*
X155395238Y-50792380D01*
X155680952Y-50792380D02*
X155680952Y-49792380D01*
X155585714Y-49935238D01*
X155490476Y-50030476D01*
X155395238Y-50078095D01*
X102522380Y-96563333D02*
X103236666Y-96563333D01*
X103379523Y-96610952D01*
X103474761Y-96706190D01*
X103522380Y-96849047D01*
X103522380Y-96944285D01*
X102522380Y-96182380D02*
X102522380Y-95563333D01*
X102903333Y-95896666D01*
X102903333Y-95753809D01*
X102950952Y-95658571D01*
X102998571Y-95610952D01*
X103093809Y-95563333D01*
X103331904Y-95563333D01*
X103427142Y-95610952D01*
X103474761Y-95658571D01*
X103522380Y-95753809D01*
X103522380Y-96039523D01*
X103474761Y-96134761D01*
X103427142Y-96182380D01*
X120633333Y-99372380D02*
X120300000Y-98896190D01*
X120061904Y-99372380D02*
X120061904Y-98372380D01*
X120442857Y-98372380D01*
X120538095Y-98420000D01*
X120585714Y-98467619D01*
X120633333Y-98562857D01*
X120633333Y-98705714D01*
X120585714Y-98800952D01*
X120538095Y-98848571D01*
X120442857Y-98896190D01*
X120061904Y-98896190D01*
X121585714Y-99372380D02*
X121014285Y-99372380D01*
X121300000Y-99372380D02*
X121300000Y-98372380D01*
X121204761Y-98515238D01*
X121109523Y-98610476D01*
X121014285Y-98658095D01*
X152785333Y-74305380D02*
X152452000Y-73829190D01*
X152213904Y-74305380D02*
X152213904Y-73305380D01*
X152594857Y-73305380D01*
X152690095Y-73353000D01*
X152737714Y-73400619D01*
X152785333Y-73495857D01*
X152785333Y-73638714D01*
X152737714Y-73733952D01*
X152690095Y-73781571D01*
X152594857Y-73829190D01*
X152213904Y-73829190D01*
X153166285Y-73400619D02*
X153213904Y-73353000D01*
X153309142Y-73305380D01*
X153547238Y-73305380D01*
X153642476Y-73353000D01*
X153690095Y-73400619D01*
X153737714Y-73495857D01*
X153737714Y-73591095D01*
X153690095Y-73733952D01*
X153118666Y-74305380D01*
X153737714Y-74305380D01*
X150372333Y-74305380D02*
X150039000Y-73829190D01*
X149800904Y-74305380D02*
X149800904Y-73305380D01*
X150181857Y-73305380D01*
X150277095Y-73353000D01*
X150324714Y-73400619D01*
X150372333Y-73495857D01*
X150372333Y-73638714D01*
X150324714Y-73733952D01*
X150277095Y-73781571D01*
X150181857Y-73829190D01*
X149800904Y-73829190D01*
X150705666Y-73305380D02*
X151324714Y-73305380D01*
X150991380Y-73686333D01*
X151134238Y-73686333D01*
X151229476Y-73733952D01*
X151277095Y-73781571D01*
X151324714Y-73876809D01*
X151324714Y-74114904D01*
X151277095Y-74210142D01*
X151229476Y-74257761D01*
X151134238Y-74305380D01*
X150848523Y-74305380D01*
X150753285Y-74257761D01*
X150705666Y-74210142D01*
X110494333Y-83957380D02*
X110161000Y-83481190D01*
X109922904Y-83957380D02*
X109922904Y-82957380D01*
X110303857Y-82957380D01*
X110399095Y-83005000D01*
X110446714Y-83052619D01*
X110494333Y-83147857D01*
X110494333Y-83290714D01*
X110446714Y-83385952D01*
X110399095Y-83433571D01*
X110303857Y-83481190D01*
X109922904Y-83481190D01*
X111399095Y-82957380D02*
X110922904Y-82957380D01*
X110875285Y-83433571D01*
X110922904Y-83385952D01*
X111018142Y-83338333D01*
X111256238Y-83338333D01*
X111351476Y-83385952D01*
X111399095Y-83433571D01*
X111446714Y-83528809D01*
X111446714Y-83766904D01*
X111399095Y-83862142D01*
X111351476Y-83909761D01*
X111256238Y-83957380D01*
X111018142Y-83957380D01*
X110922904Y-83909761D01*
X110875285Y-83862142D01*
X110494333Y-81290380D02*
X110161000Y-80814190D01*
X109922904Y-81290380D02*
X109922904Y-80290380D01*
X110303857Y-80290380D01*
X110399095Y-80338000D01*
X110446714Y-80385619D01*
X110494333Y-80480857D01*
X110494333Y-80623714D01*
X110446714Y-80718952D01*
X110399095Y-80766571D01*
X110303857Y-80814190D01*
X109922904Y-80814190D01*
X111351476Y-80290380D02*
X111161000Y-80290380D01*
X111065761Y-80338000D01*
X111018142Y-80385619D01*
X110922904Y-80528476D01*
X110875285Y-80718952D01*
X110875285Y-81099904D01*
X110922904Y-81195142D01*
X110970523Y-81242761D01*
X111065761Y-81290380D01*
X111256238Y-81290380D01*
X111351476Y-81242761D01*
X111399095Y-81195142D01*
X111446714Y-81099904D01*
X111446714Y-80861809D01*
X111399095Y-80766571D01*
X111351476Y-80718952D01*
X111256238Y-80671333D01*
X111065761Y-80671333D01*
X110970523Y-80718952D01*
X110922904Y-80766571D01*
X110875285Y-80861809D01*
D11*
X116877666Y-67864904D02*
X116611000Y-67483952D01*
X116420523Y-67864904D02*
X116420523Y-67064904D01*
X116725285Y-67064904D01*
X116801476Y-67103000D01*
X116839571Y-67141095D01*
X116877666Y-67217285D01*
X116877666Y-67331571D01*
X116839571Y-67407761D01*
X116801476Y-67445857D01*
X116725285Y-67483952D01*
X116420523Y-67483952D01*
X117258619Y-67864904D02*
X117411000Y-67864904D01*
X117487190Y-67826809D01*
X117525285Y-67788714D01*
X117601476Y-67674428D01*
X117639571Y-67522047D01*
X117639571Y-67217285D01*
X117601476Y-67141095D01*
X117563380Y-67103000D01*
X117487190Y-67064904D01*
X117334809Y-67064904D01*
X117258619Y-67103000D01*
X117220523Y-67141095D01*
X117182428Y-67217285D01*
X117182428Y-67407761D01*
X117220523Y-67483952D01*
X117258619Y-67522047D01*
X117334809Y-67560142D01*
X117487190Y-67560142D01*
X117563380Y-67522047D01*
X117601476Y-67483952D01*
X117639571Y-67407761D01*
D12*
X167803142Y-87259380D02*
X167469809Y-86783190D01*
X167231714Y-87259380D02*
X167231714Y-86259380D01*
X167612666Y-86259380D01*
X167707904Y-86307000D01*
X167755523Y-86354619D01*
X167803142Y-86449857D01*
X167803142Y-86592714D01*
X167755523Y-86687952D01*
X167707904Y-86735571D01*
X167612666Y-86783190D01*
X167231714Y-86783190D01*
X168755523Y-87259380D02*
X168184095Y-87259380D01*
X168469809Y-87259380D02*
X168469809Y-86259380D01*
X168374571Y-86402238D01*
X168279333Y-86497476D01*
X168184095Y-86545095D01*
X169374571Y-86259380D02*
X169469809Y-86259380D01*
X169565047Y-86307000D01*
X169612666Y-86354619D01*
X169660285Y-86449857D01*
X169707904Y-86640333D01*
X169707904Y-86878428D01*
X169660285Y-87068904D01*
X169612666Y-87164142D01*
X169565047Y-87211761D01*
X169469809Y-87259380D01*
X169374571Y-87259380D01*
X169279333Y-87211761D01*
X169231714Y-87164142D01*
X169184095Y-87068904D01*
X169136476Y-86878428D01*
X169136476Y-86640333D01*
X169184095Y-86449857D01*
X169231714Y-86354619D01*
X169279333Y-86307000D01*
X169374571Y-86259380D01*
X109764142Y-78750380D02*
X109430809Y-78274190D01*
X109192714Y-78750380D02*
X109192714Y-77750380D01*
X109573666Y-77750380D01*
X109668904Y-77798000D01*
X109716523Y-77845619D01*
X109764142Y-77940857D01*
X109764142Y-78083714D01*
X109716523Y-78178952D01*
X109668904Y-78226571D01*
X109573666Y-78274190D01*
X109192714Y-78274190D01*
X110716523Y-78750380D02*
X110145095Y-78750380D01*
X110430809Y-78750380D02*
X110430809Y-77750380D01*
X110335571Y-77893238D01*
X110240333Y-77988476D01*
X110145095Y-78036095D01*
X111668904Y-78750380D02*
X111097476Y-78750380D01*
X111383190Y-78750380D02*
X111383190Y-77750380D01*
X111287952Y-77893238D01*
X111192714Y-77988476D01*
X111097476Y-78036095D01*
X98334142Y-70622380D02*
X98000809Y-70146190D01*
X97762714Y-70622380D02*
X97762714Y-69622380D01*
X98143666Y-69622380D01*
X98238904Y-69670000D01*
X98286523Y-69717619D01*
X98334142Y-69812857D01*
X98334142Y-69955714D01*
X98286523Y-70050952D01*
X98238904Y-70098571D01*
X98143666Y-70146190D01*
X97762714Y-70146190D01*
X99286523Y-70622380D02*
X98715095Y-70622380D01*
X99000809Y-70622380D02*
X99000809Y-69622380D01*
X98905571Y-69765238D01*
X98810333Y-69860476D01*
X98715095Y-69908095D01*
X99667476Y-69717619D02*
X99715095Y-69670000D01*
X99810333Y-69622380D01*
X100048428Y-69622380D01*
X100143666Y-69670000D01*
X100191285Y-69717619D01*
X100238904Y-69812857D01*
X100238904Y-69908095D01*
X100191285Y-70050952D01*
X99619857Y-70622380D01*
X100238904Y-70622380D01*
X139482142Y-52207380D02*
X139148809Y-51731190D01*
X138910714Y-52207380D02*
X138910714Y-51207380D01*
X139291666Y-51207380D01*
X139386904Y-51255000D01*
X139434523Y-51302619D01*
X139482142Y-51397857D01*
X139482142Y-51540714D01*
X139434523Y-51635952D01*
X139386904Y-51683571D01*
X139291666Y-51731190D01*
X138910714Y-51731190D01*
X140434523Y-52207380D02*
X139863095Y-52207380D01*
X140148809Y-52207380D02*
X140148809Y-51207380D01*
X140053571Y-51350238D01*
X139958333Y-51445476D01*
X139863095Y-51493095D01*
X140767857Y-51207380D02*
X141386904Y-51207380D01*
X141053571Y-51588333D01*
X141196428Y-51588333D01*
X141291666Y-51635952D01*
X141339285Y-51683571D01*
X141386904Y-51778809D01*
X141386904Y-52016904D01*
X141339285Y-52112142D01*
X141291666Y-52159761D01*
X141196428Y-52207380D01*
X140910714Y-52207380D01*
X140815476Y-52159761D01*
X140767857Y-52112142D01*
X131838095Y-70002380D02*
X131838095Y-70811904D01*
X131885714Y-70907142D01*
X131933333Y-70954761D01*
X132028571Y-71002380D01*
X132219047Y-71002380D01*
X132314285Y-70954761D01*
X132361904Y-70907142D01*
X132409523Y-70811904D01*
X132409523Y-70002380D01*
X133409523Y-71002380D02*
X132838095Y-71002380D01*
X133123809Y-71002380D02*
X133123809Y-70002380D01*
X133028571Y-70145238D01*
X132933333Y-70240476D01*
X132838095Y-70288095D01*
X126623380Y-62041904D02*
X127432904Y-62041904D01*
X127528142Y-61994285D01*
X127575761Y-61946666D01*
X127623380Y-61851428D01*
X127623380Y-61660952D01*
X127575761Y-61565714D01*
X127528142Y-61518095D01*
X127432904Y-61470476D01*
X126623380Y-61470476D01*
X126623380Y-60518095D02*
X126623380Y-60994285D01*
X127099571Y-61041904D01*
X127051952Y-60994285D01*
X127004333Y-60899047D01*
X127004333Y-60660952D01*
X127051952Y-60565714D01*
X127099571Y-60518095D01*
X127194809Y-60470476D01*
X127432904Y-60470476D01*
X127528142Y-60518095D01*
X127575761Y-60565714D01*
X127623380Y-60660952D01*
X127623380Y-60899047D01*
X127575761Y-60994285D01*
X127528142Y-61041904D01*
X131266809Y-93895190D02*
X131266809Y-94371380D01*
X130933476Y-93371380D02*
X131266809Y-93895190D01*
X131600142Y-93371380D01*
X132457285Y-94371380D02*
X131885857Y-94371380D01*
X132171571Y-94371380D02*
X132171571Y-93371380D01*
X132076333Y-93514238D01*
X131981095Y-93609476D01*
X131885857Y-93657095D01*
X122813333Y-67955380D02*
X122337142Y-67955380D01*
X122337142Y-66955380D01*
X123670476Y-67955380D02*
X123099047Y-67955380D01*
X123384761Y-67955380D02*
X123384761Y-66955380D01*
X123289523Y-67098238D01*
X123194285Y-67193476D01*
X123099047Y-67241095D01*
X117542761Y-91569333D02*
X117590380Y-91426476D01*
X117590380Y-91188380D01*
X117542761Y-91093142D01*
X117495142Y-91045523D01*
X117399904Y-90997904D01*
X117304666Y-90997904D01*
X117209428Y-91045523D01*
X117161809Y-91093142D01*
X117114190Y-91188380D01*
X117066571Y-91378857D01*
X117018952Y-91474095D01*
X116971333Y-91521714D01*
X116876095Y-91569333D01*
X116780857Y-91569333D01*
X116685619Y-91521714D01*
X116638000Y-91474095D01*
X116590380Y-91378857D01*
X116590380Y-91140761D01*
X116638000Y-90997904D01*
X116590380Y-90664571D02*
X117590380Y-90426476D01*
X116876095Y-90236000D01*
X117590380Y-90045523D01*
X116590380Y-89807428D01*
X117590380Y-88902666D02*
X117590380Y-89474095D01*
X117590380Y-89188380D02*
X116590380Y-89188380D01*
X116733238Y-89283619D01*
X116828476Y-89378857D01*
X116876095Y-89474095D01*
X160004761Y-86233333D02*
X160052380Y-86090476D01*
X160052380Y-85852380D01*
X160004761Y-85757142D01*
X159957142Y-85709523D01*
X159861904Y-85661904D01*
X159766666Y-85661904D01*
X159671428Y-85709523D01*
X159623809Y-85757142D01*
X159576190Y-85852380D01*
X159528571Y-86042857D01*
X159480952Y-86138095D01*
X159433333Y-86185714D01*
X159338095Y-86233333D01*
X159242857Y-86233333D01*
X159147619Y-86185714D01*
X159100000Y-86138095D01*
X159052380Y-86042857D01*
X159052380Y-85804761D01*
X159100000Y-85661904D01*
X159052380Y-85328571D02*
X160052380Y-85090476D01*
X159338095Y-84900000D01*
X160052380Y-84709523D01*
X159052380Y-84471428D01*
X159147619Y-84138095D02*
X159100000Y-84090476D01*
X159052380Y-83995238D01*
X159052380Y-83757142D01*
X159100000Y-83661904D01*
X159147619Y-83614285D01*
X159242857Y-83566666D01*
X159338095Y-83566666D01*
X159480952Y-83614285D01*
X160052380Y-84185714D01*
X160052380Y-83566666D01*
X129433333Y-91887142D02*
X129385714Y-91934761D01*
X129242857Y-91982380D01*
X129147619Y-91982380D01*
X129004761Y-91934761D01*
X128909523Y-91839523D01*
X128861904Y-91744285D01*
X128814285Y-91553809D01*
X128814285Y-91410952D01*
X128861904Y-91220476D01*
X128909523Y-91125238D01*
X129004761Y-91030000D01*
X129147619Y-90982380D01*
X129242857Y-90982380D01*
X129385714Y-91030000D01*
X129433333Y-91077619D01*
X130338095Y-90982380D02*
X129861904Y-90982380D01*
X129814285Y-91458571D01*
X129861904Y-91410952D01*
X129957142Y-91363333D01*
X130195238Y-91363333D01*
X130290476Y-91410952D01*
X130338095Y-91458571D01*
X130385714Y-91553809D01*
X130385714Y-91791904D01*
X130338095Y-91887142D01*
X130290476Y-91934761D01*
X130195238Y-91982380D01*
X129957142Y-91982380D01*
X129861904Y-91934761D01*
X129814285Y-91887142D01*
X135157142Y-69027142D02*
X135109523Y-69074761D01*
X134966666Y-69122380D01*
X134871428Y-69122380D01*
X134728571Y-69074761D01*
X134633333Y-68979523D01*
X134585714Y-68884285D01*
X134538095Y-68693809D01*
X134538095Y-68550952D01*
X134585714Y-68360476D01*
X134633333Y-68265238D01*
X134728571Y-68170000D01*
X134871428Y-68122380D01*
X134966666Y-68122380D01*
X135109523Y-68170000D01*
X135157142Y-68217619D01*
X136109523Y-69122380D02*
X135538095Y-69122380D01*
X135823809Y-69122380D02*
X135823809Y-68122380D01*
X135728571Y-68265238D01*
X135633333Y-68360476D01*
X135538095Y-68408095D01*
X136680952Y-68550952D02*
X136585714Y-68503333D01*
X136538095Y-68455714D01*
X136490476Y-68360476D01*
X136490476Y-68312857D01*
X136538095Y-68217619D01*
X136585714Y-68170000D01*
X136680952Y-68122380D01*
X136871428Y-68122380D01*
X136966666Y-68170000D01*
X137014285Y-68217619D01*
X137061904Y-68312857D01*
X137061904Y-68360476D01*
X137014285Y-68455714D01*
X136966666Y-68503333D01*
X136871428Y-68550952D01*
X136680952Y-68550952D01*
X136585714Y-68598571D01*
X136538095Y-68646190D01*
X136490476Y-68741428D01*
X136490476Y-68931904D01*
X136538095Y-69027142D01*
X136585714Y-69074761D01*
X136680952Y-69122380D01*
X136871428Y-69122380D01*
X136966666Y-69074761D01*
X137014285Y-69027142D01*
X137061904Y-68931904D01*
X137061904Y-68741428D01*
X137014285Y-68646190D01*
X136966666Y-68598571D01*
X136871428Y-68550952D01*
X170738095Y-52252380D02*
X170738095Y-51252380D01*
X170738095Y-51728571D02*
X171309523Y-51728571D01*
X171309523Y-52252380D02*
X171309523Y-51252380D01*
X172309523Y-52252380D02*
X171738095Y-52252380D01*
X172023809Y-52252380D02*
X172023809Y-51252380D01*
X171928571Y-51395238D01*
X171833333Y-51490476D01*
X171738095Y-51538095D01*
X98238095Y-52252380D02*
X98238095Y-51252380D01*
X98238095Y-51728571D02*
X98809523Y-51728571D01*
X98809523Y-52252380D02*
X98809523Y-51252380D01*
X99238095Y-51347619D02*
X99285714Y-51300000D01*
X99380952Y-51252380D01*
X99619047Y-51252380D01*
X99714285Y-51300000D01*
X99761904Y-51347619D01*
X99809523Y-51442857D01*
X99809523Y-51538095D01*
X99761904Y-51680952D01*
X99190476Y-52252380D01*
X99809523Y-52252380D01*
X98238095Y-94752380D02*
X98238095Y-93752380D01*
X98238095Y-94228571D02*
X98809523Y-94228571D01*
X98809523Y-94752380D02*
X98809523Y-93752380D01*
X99190476Y-93752380D02*
X99809523Y-93752380D01*
X99476190Y-94133333D01*
X99619047Y-94133333D01*
X99714285Y-94180952D01*
X99761904Y-94228571D01*
X99809523Y-94323809D01*
X99809523Y-94561904D01*
X99761904Y-94657142D01*
X99714285Y-94704761D01*
X99619047Y-94752380D01*
X99333333Y-94752380D01*
X99238095Y-94704761D01*
X99190476Y-94657142D01*
X170738095Y-94752380D02*
X170738095Y-93752380D01*
X170738095Y-94228571D02*
X171309523Y-94228571D01*
X171309523Y-94752380D02*
X171309523Y-93752380D01*
X172214285Y-94085714D02*
X172214285Y-94752380D01*
X171976190Y-93704761D02*
X171738095Y-94419047D01*
X172357142Y-94419047D01*
M02*
