G04 #@! TF.FileFunction,Paste,Top*
%FSLAX46Y46*%
G04 Gerber Fmt 4.6, Leading zero omitted, Abs format (unit mm)*
G04 Created by KiCad (PCBNEW 4.0.7) date 06/18/18 23:10:01*
%MOMM*%
%LPD*%
G01*
G04 APERTURE LIST*
%ADD10C,0.100000*%
%ADD11R,1.600000X2.000000*%
%ADD12R,2.000000X1.600000*%
%ADD13R,3.500000X1.600000*%
%ADD14R,1.900000X0.800000*%
%ADD15R,2.300000X3.500000*%
%ADD16R,4.500000X3.300000*%
%ADD17R,0.800000X1.900000*%
%ADD18R,2.030000X2.650000*%
%ADD19R,2.000000X1.700000*%
%ADD20R,2.900000X5.400000*%
%ADD21R,4.600000X1.100000*%
%ADD22R,4.550000X5.250000*%
%ADD23R,1.550000X0.600000*%
G04 APERTURE END LIST*
D10*
G36*
X94055635Y-50812994D02*
X95187006Y-51944365D01*
X93772793Y-53358578D01*
X92641422Y-52227207D01*
X94055635Y-50812994D01*
X94055635Y-50812994D01*
G37*
G36*
X91227207Y-53641422D02*
X92358578Y-54772793D01*
X90944365Y-56187006D01*
X89812994Y-55055635D01*
X91227207Y-53641422D01*
X91227207Y-53641422D01*
G37*
G36*
X88555635Y-56312994D02*
X89687006Y-57444365D01*
X88272793Y-58858578D01*
X87141422Y-57727207D01*
X88555635Y-56312994D01*
X88555635Y-56312994D01*
G37*
G36*
X85727207Y-59141422D02*
X86858578Y-60272793D01*
X85444365Y-61687006D01*
X84312994Y-60555635D01*
X85727207Y-59141422D01*
X85727207Y-59141422D01*
G37*
D11*
X63000000Y-38500000D03*
X63000000Y-42500000D03*
D10*
G36*
X82194365Y-52437006D02*
X81062994Y-51305635D01*
X82477207Y-49891422D01*
X83608578Y-51022793D01*
X82194365Y-52437006D01*
X82194365Y-52437006D01*
G37*
G36*
X85022793Y-49608578D02*
X83891422Y-48477207D01*
X85305635Y-47062994D01*
X86437006Y-48194365D01*
X85022793Y-49608578D01*
X85022793Y-49608578D01*
G37*
D12*
X53500000Y-44500000D03*
X57500000Y-44500000D03*
D11*
X60500000Y-44500000D03*
X60500000Y-40500000D03*
D13*
X83000000Y-85600000D03*
X77600000Y-85600000D03*
D11*
X92600000Y-38000000D03*
X92600000Y-42000000D03*
D10*
G36*
X72305635Y-50312994D02*
X73437006Y-51444365D01*
X72022793Y-52858578D01*
X70891422Y-51727207D01*
X72305635Y-50312994D01*
X72305635Y-50312994D01*
G37*
G36*
X69477207Y-53141422D02*
X70608578Y-54272793D01*
X69194365Y-55687006D01*
X68062994Y-54555635D01*
X69477207Y-53141422D01*
X69477207Y-53141422D01*
G37*
D13*
X102150000Y-64150000D03*
X96750000Y-64150000D03*
D12*
X101650000Y-57950000D03*
X97650000Y-57950000D03*
D14*
X43900000Y-57550000D03*
X43900000Y-59450000D03*
X46900000Y-58500000D03*
X43900000Y-46450000D03*
X43900000Y-48350000D03*
X46900000Y-47400000D03*
X43875000Y-53825000D03*
X43875000Y-55725000D03*
X46875000Y-54775000D03*
X43875000Y-42775000D03*
X43875000Y-44675000D03*
X46875000Y-43725000D03*
X43900000Y-50150000D03*
X43900000Y-52050000D03*
X46900000Y-51100000D03*
X43875000Y-39025000D03*
X43875000Y-40925000D03*
X46875000Y-39975000D03*
D15*
X65450000Y-84300000D03*
X65450000Y-78900000D03*
X72050000Y-89300000D03*
X72050000Y-83900000D03*
D16*
X90200000Y-73050000D03*
X99000000Y-73050000D03*
D10*
G36*
X79141600Y-58618808D02*
X77868808Y-59891600D01*
X75393934Y-57416726D01*
X76666726Y-56143934D01*
X79141600Y-58618808D01*
X79141600Y-58618808D01*
G37*
G36*
X75606066Y-55083274D02*
X74333274Y-56356066D01*
X71858400Y-53881192D01*
X73131192Y-52608400D01*
X75606066Y-55083274D01*
X75606066Y-55083274D01*
G37*
D17*
X102875000Y-25075000D03*
X100975000Y-25075000D03*
X101925000Y-28075000D03*
D18*
X62000000Y-84290000D03*
X62000000Y-80110000D03*
D19*
X53500000Y-41000000D03*
X57500000Y-41000000D03*
D20*
X89250000Y-85100000D03*
X99150000Y-85100000D03*
D19*
X56300000Y-37100000D03*
X60300000Y-37100000D03*
X61100000Y-29700000D03*
X65100000Y-29700000D03*
X57800000Y-34700000D03*
X61800000Y-34700000D03*
X63200000Y-27300000D03*
X67200000Y-27300000D03*
X59300000Y-32200000D03*
X63300000Y-32200000D03*
X64900000Y-25000000D03*
X68900000Y-25000000D03*
D10*
G36*
X89920280Y-42477638D02*
X91122362Y-43679720D01*
X89708148Y-45093934D01*
X88506066Y-43891852D01*
X89920280Y-42477638D01*
X89920280Y-42477638D01*
G37*
G36*
X87091852Y-45306066D02*
X88293934Y-46508148D01*
X86879720Y-47922362D01*
X85677638Y-46720280D01*
X87091852Y-45306066D01*
X87091852Y-45306066D01*
G37*
D19*
X62900000Y-48100000D03*
X66900000Y-48100000D03*
X47200000Y-35500000D03*
X43200000Y-35500000D03*
X47200000Y-33100000D03*
X43200000Y-33100000D03*
X47200000Y-30800000D03*
X43200000Y-30800000D03*
X47200000Y-28500000D03*
X43200000Y-28500000D03*
X47200000Y-26100000D03*
X43200000Y-26100000D03*
X100200000Y-37400000D03*
X96200000Y-37400000D03*
D10*
G36*
X76222362Y-59770280D02*
X75020280Y-60972362D01*
X73606066Y-59558148D01*
X74808148Y-58356066D01*
X76222362Y-59770280D01*
X76222362Y-59770280D01*
G37*
G36*
X73393934Y-56941852D02*
X72191852Y-58143934D01*
X70777638Y-56729720D01*
X71979720Y-55527638D01*
X73393934Y-56941852D01*
X73393934Y-56941852D01*
G37*
D19*
X99675000Y-22075000D03*
X103675000Y-22075000D03*
D10*
G36*
X66476761Y-43426866D02*
X66087853Y-43037958D01*
X67148513Y-41977298D01*
X67537421Y-42366206D01*
X66476761Y-43426866D01*
X66476761Y-43426866D01*
G37*
G36*
X67042447Y-43992551D02*
X66653539Y-43603643D01*
X67714199Y-42542983D01*
X68103107Y-42931891D01*
X67042447Y-43992551D01*
X67042447Y-43992551D01*
G37*
G36*
X67608132Y-44558236D02*
X67219224Y-44169328D01*
X68279884Y-43108668D01*
X68668792Y-43497576D01*
X67608132Y-44558236D01*
X67608132Y-44558236D01*
G37*
G36*
X68173817Y-45123922D02*
X67784909Y-44735014D01*
X68845569Y-43674354D01*
X69234477Y-44063262D01*
X68173817Y-45123922D01*
X68173817Y-45123922D01*
G37*
G36*
X68739503Y-45689607D02*
X68350595Y-45300699D01*
X69411255Y-44240039D01*
X69800163Y-44628947D01*
X68739503Y-45689607D01*
X68739503Y-45689607D01*
G37*
G36*
X69305188Y-46255293D02*
X68916280Y-45866385D01*
X69976940Y-44805725D01*
X70365848Y-45194633D01*
X69305188Y-46255293D01*
X69305188Y-46255293D01*
G37*
G36*
X69870874Y-46820978D02*
X69481966Y-46432070D01*
X70542626Y-45371410D01*
X70931534Y-45760318D01*
X69870874Y-46820978D01*
X69870874Y-46820978D01*
G37*
G36*
X70436559Y-47386664D02*
X70047651Y-46997756D01*
X71108311Y-45937096D01*
X71497219Y-46326004D01*
X70436559Y-47386664D01*
X70436559Y-47386664D01*
G37*
G36*
X71002244Y-47952349D02*
X70613336Y-47563441D01*
X71673996Y-46502781D01*
X72062904Y-46891689D01*
X71002244Y-47952349D01*
X71002244Y-47952349D01*
G37*
G36*
X71567930Y-48518034D02*
X71179022Y-48129126D01*
X72239682Y-47068466D01*
X72628590Y-47457374D01*
X71567930Y-48518034D01*
X71567930Y-48518034D01*
G37*
G36*
X72133615Y-49083720D02*
X71744707Y-48694812D01*
X72805367Y-47634152D01*
X73194275Y-48023060D01*
X72133615Y-49083720D01*
X72133615Y-49083720D01*
G37*
G36*
X72699301Y-49649405D02*
X72310393Y-49260497D01*
X73371053Y-48199837D01*
X73759961Y-48588745D01*
X72699301Y-49649405D01*
X72699301Y-49649405D01*
G37*
G36*
X73264986Y-50215091D02*
X72876078Y-49826183D01*
X73936738Y-48765523D01*
X74325646Y-49154431D01*
X73264986Y-50215091D01*
X73264986Y-50215091D01*
G37*
G36*
X73830672Y-50780776D02*
X73441764Y-50391868D01*
X74502424Y-49331208D01*
X74891332Y-49720116D01*
X73830672Y-50780776D01*
X73830672Y-50780776D01*
G37*
G36*
X74396357Y-51346461D02*
X74007449Y-50957553D01*
X75068109Y-49896893D01*
X75457017Y-50285801D01*
X74396357Y-51346461D01*
X74396357Y-51346461D01*
G37*
G36*
X74962042Y-51912147D02*
X74573134Y-51523239D01*
X75633794Y-50462579D01*
X76022702Y-50851487D01*
X74962042Y-51912147D01*
X74962042Y-51912147D01*
G37*
G36*
X78426866Y-51523239D02*
X78037958Y-51912147D01*
X76977298Y-50851487D01*
X77366206Y-50462579D01*
X78426866Y-51523239D01*
X78426866Y-51523239D01*
G37*
G36*
X78992551Y-50957553D02*
X78603643Y-51346461D01*
X77542983Y-50285801D01*
X77931891Y-49896893D01*
X78992551Y-50957553D01*
X78992551Y-50957553D01*
G37*
G36*
X79558236Y-50391868D02*
X79169328Y-50780776D01*
X78108668Y-49720116D01*
X78497576Y-49331208D01*
X79558236Y-50391868D01*
X79558236Y-50391868D01*
G37*
G36*
X80123922Y-49826183D02*
X79735014Y-50215091D01*
X78674354Y-49154431D01*
X79063262Y-48765523D01*
X80123922Y-49826183D01*
X80123922Y-49826183D01*
G37*
G36*
X80689607Y-49260497D02*
X80300699Y-49649405D01*
X79240039Y-48588745D01*
X79628947Y-48199837D01*
X80689607Y-49260497D01*
X80689607Y-49260497D01*
G37*
G36*
X81255293Y-48694812D02*
X80866385Y-49083720D01*
X79805725Y-48023060D01*
X80194633Y-47634152D01*
X81255293Y-48694812D01*
X81255293Y-48694812D01*
G37*
G36*
X81820978Y-48129126D02*
X81432070Y-48518034D01*
X80371410Y-47457374D01*
X80760318Y-47068466D01*
X81820978Y-48129126D01*
X81820978Y-48129126D01*
G37*
G36*
X82386664Y-47563441D02*
X81997756Y-47952349D01*
X80937096Y-46891689D01*
X81326004Y-46502781D01*
X82386664Y-47563441D01*
X82386664Y-47563441D01*
G37*
G36*
X82952349Y-46997756D02*
X82563441Y-47386664D01*
X81502781Y-46326004D01*
X81891689Y-45937096D01*
X82952349Y-46997756D01*
X82952349Y-46997756D01*
G37*
G36*
X83518034Y-46432070D02*
X83129126Y-46820978D01*
X82068466Y-45760318D01*
X82457374Y-45371410D01*
X83518034Y-46432070D01*
X83518034Y-46432070D01*
G37*
G36*
X84083720Y-45866385D02*
X83694812Y-46255293D01*
X82634152Y-45194633D01*
X83023060Y-44805725D01*
X84083720Y-45866385D01*
X84083720Y-45866385D01*
G37*
G36*
X84649405Y-45300699D02*
X84260497Y-45689607D01*
X83199837Y-44628947D01*
X83588745Y-44240039D01*
X84649405Y-45300699D01*
X84649405Y-45300699D01*
G37*
G36*
X85215091Y-44735014D02*
X84826183Y-45123922D01*
X83765523Y-44063262D01*
X84154431Y-43674354D01*
X85215091Y-44735014D01*
X85215091Y-44735014D01*
G37*
G36*
X85780776Y-44169328D02*
X85391868Y-44558236D01*
X84331208Y-43497576D01*
X84720116Y-43108668D01*
X85780776Y-44169328D01*
X85780776Y-44169328D01*
G37*
G36*
X86346461Y-43603643D02*
X85957553Y-43992551D01*
X84896893Y-42931891D01*
X85285801Y-42542983D01*
X86346461Y-43603643D01*
X86346461Y-43603643D01*
G37*
G36*
X86912147Y-43037958D02*
X86523239Y-43426866D01*
X85462579Y-42366206D01*
X85851487Y-41977298D01*
X86912147Y-43037958D01*
X86912147Y-43037958D01*
G37*
G36*
X85851487Y-41022702D02*
X85462579Y-40633794D01*
X86523239Y-39573134D01*
X86912147Y-39962042D01*
X85851487Y-41022702D01*
X85851487Y-41022702D01*
G37*
G36*
X85285801Y-40457017D02*
X84896893Y-40068109D01*
X85957553Y-39007449D01*
X86346461Y-39396357D01*
X85285801Y-40457017D01*
X85285801Y-40457017D01*
G37*
G36*
X84720116Y-39891332D02*
X84331208Y-39502424D01*
X85391868Y-38441764D01*
X85780776Y-38830672D01*
X84720116Y-39891332D01*
X84720116Y-39891332D01*
G37*
G36*
X84154431Y-39325646D02*
X83765523Y-38936738D01*
X84826183Y-37876078D01*
X85215091Y-38264986D01*
X84154431Y-39325646D01*
X84154431Y-39325646D01*
G37*
G36*
X83588745Y-38759961D02*
X83199837Y-38371053D01*
X84260497Y-37310393D01*
X84649405Y-37699301D01*
X83588745Y-38759961D01*
X83588745Y-38759961D01*
G37*
G36*
X83023060Y-38194275D02*
X82634152Y-37805367D01*
X83694812Y-36744707D01*
X84083720Y-37133615D01*
X83023060Y-38194275D01*
X83023060Y-38194275D01*
G37*
G36*
X82457374Y-37628590D02*
X82068466Y-37239682D01*
X83129126Y-36179022D01*
X83518034Y-36567930D01*
X82457374Y-37628590D01*
X82457374Y-37628590D01*
G37*
G36*
X81891689Y-37062904D02*
X81502781Y-36673996D01*
X82563441Y-35613336D01*
X82952349Y-36002244D01*
X81891689Y-37062904D01*
X81891689Y-37062904D01*
G37*
G36*
X81326004Y-36497219D02*
X80937096Y-36108311D01*
X81997756Y-35047651D01*
X82386664Y-35436559D01*
X81326004Y-36497219D01*
X81326004Y-36497219D01*
G37*
G36*
X80760318Y-35931534D02*
X80371410Y-35542626D01*
X81432070Y-34481966D01*
X81820978Y-34870874D01*
X80760318Y-35931534D01*
X80760318Y-35931534D01*
G37*
G36*
X80194633Y-35365848D02*
X79805725Y-34976940D01*
X80866385Y-33916280D01*
X81255293Y-34305188D01*
X80194633Y-35365848D01*
X80194633Y-35365848D01*
G37*
G36*
X79628947Y-34800163D02*
X79240039Y-34411255D01*
X80300699Y-33350595D01*
X80689607Y-33739503D01*
X79628947Y-34800163D01*
X79628947Y-34800163D01*
G37*
G36*
X79063262Y-34234477D02*
X78674354Y-33845569D01*
X79735014Y-32784909D01*
X80123922Y-33173817D01*
X79063262Y-34234477D01*
X79063262Y-34234477D01*
G37*
G36*
X78497576Y-33668792D02*
X78108668Y-33279884D01*
X79169328Y-32219224D01*
X79558236Y-32608132D01*
X78497576Y-33668792D01*
X78497576Y-33668792D01*
G37*
G36*
X77931891Y-33103107D02*
X77542983Y-32714199D01*
X78603643Y-31653539D01*
X78992551Y-32042447D01*
X77931891Y-33103107D01*
X77931891Y-33103107D01*
G37*
G36*
X77366206Y-32537421D02*
X76977298Y-32148513D01*
X78037958Y-31087853D01*
X78426866Y-31476761D01*
X77366206Y-32537421D01*
X77366206Y-32537421D01*
G37*
G36*
X76022702Y-32148513D02*
X75633794Y-32537421D01*
X74573134Y-31476761D01*
X74962042Y-31087853D01*
X76022702Y-32148513D01*
X76022702Y-32148513D01*
G37*
G36*
X75457017Y-32714199D02*
X75068109Y-33103107D01*
X74007449Y-32042447D01*
X74396357Y-31653539D01*
X75457017Y-32714199D01*
X75457017Y-32714199D01*
G37*
G36*
X74891332Y-33279884D02*
X74502424Y-33668792D01*
X73441764Y-32608132D01*
X73830672Y-32219224D01*
X74891332Y-33279884D01*
X74891332Y-33279884D01*
G37*
G36*
X74325646Y-33845569D02*
X73936738Y-34234477D01*
X72876078Y-33173817D01*
X73264986Y-32784909D01*
X74325646Y-33845569D01*
X74325646Y-33845569D01*
G37*
G36*
X73759961Y-34411255D02*
X73371053Y-34800163D01*
X72310393Y-33739503D01*
X72699301Y-33350595D01*
X73759961Y-34411255D01*
X73759961Y-34411255D01*
G37*
G36*
X73194275Y-34976940D02*
X72805367Y-35365848D01*
X71744707Y-34305188D01*
X72133615Y-33916280D01*
X73194275Y-34976940D01*
X73194275Y-34976940D01*
G37*
G36*
X72628590Y-35542626D02*
X72239682Y-35931534D01*
X71179022Y-34870874D01*
X71567930Y-34481966D01*
X72628590Y-35542626D01*
X72628590Y-35542626D01*
G37*
G36*
X72062904Y-36108311D02*
X71673996Y-36497219D01*
X70613336Y-35436559D01*
X71002244Y-35047651D01*
X72062904Y-36108311D01*
X72062904Y-36108311D01*
G37*
G36*
X71497219Y-36673996D02*
X71108311Y-37062904D01*
X70047651Y-36002244D01*
X70436559Y-35613336D01*
X71497219Y-36673996D01*
X71497219Y-36673996D01*
G37*
G36*
X70931534Y-37239682D02*
X70542626Y-37628590D01*
X69481966Y-36567930D01*
X69870874Y-36179022D01*
X70931534Y-37239682D01*
X70931534Y-37239682D01*
G37*
G36*
X70365848Y-37805367D02*
X69976940Y-38194275D01*
X68916280Y-37133615D01*
X69305188Y-36744707D01*
X70365848Y-37805367D01*
X70365848Y-37805367D01*
G37*
G36*
X69800163Y-38371053D02*
X69411255Y-38759961D01*
X68350595Y-37699301D01*
X68739503Y-37310393D01*
X69800163Y-38371053D01*
X69800163Y-38371053D01*
G37*
G36*
X69234477Y-38936738D02*
X68845569Y-39325646D01*
X67784909Y-38264986D01*
X68173817Y-37876078D01*
X69234477Y-38936738D01*
X69234477Y-38936738D01*
G37*
G36*
X68668792Y-39502424D02*
X68279884Y-39891332D01*
X67219224Y-38830672D01*
X67608132Y-38441764D01*
X68668792Y-39502424D01*
X68668792Y-39502424D01*
G37*
G36*
X68103107Y-40068109D02*
X67714199Y-40457017D01*
X66653539Y-39396357D01*
X67042447Y-39007449D01*
X68103107Y-40068109D01*
X68103107Y-40068109D01*
G37*
G36*
X67537421Y-40633794D02*
X67148513Y-41022702D01*
X66087853Y-39962042D01*
X66476761Y-39573134D01*
X67537421Y-40633794D01*
X67537421Y-40633794D01*
G37*
D21*
X82725000Y-78850000D03*
X82725000Y-77150000D03*
X82725000Y-75450000D03*
X82725000Y-73750000D03*
X82725000Y-72050000D03*
D22*
X71150000Y-72675000D03*
X76000000Y-78225000D03*
X71150000Y-78225000D03*
X76000000Y-72675000D03*
D23*
X95300000Y-39595000D03*
X95300000Y-40865000D03*
X95300000Y-42135000D03*
X95300000Y-43405000D03*
X100700000Y-43405000D03*
X100700000Y-42135000D03*
X100700000Y-40865000D03*
X100700000Y-39595000D03*
D10*
G36*
X90889087Y-48196699D02*
X92303301Y-49610913D01*
X89121321Y-52792893D01*
X87707107Y-51378679D01*
X90889087Y-48196699D01*
X90889087Y-48196699D01*
G37*
G36*
X84878679Y-54207107D02*
X86292893Y-55621321D01*
X83110913Y-58803301D01*
X81696699Y-57389087D01*
X84878679Y-54207107D01*
X84878679Y-54207107D01*
G37*
M02*
