%FSLAX45Y45*%
G04 Gerber Fmt 4.5, Leading zero omitted, Abs format (unit mm)*
G04 Created by KiCad (PCBNEW 4.0.7) date 06/18/18 23:10:05*
%MOMM*%
%LPD*%
G01*
G04 APERTURE LIST*
%ADD10C,0.127000*%
%ADD11C,0.200000*%
%ADD12C,0.300000*%
G04 APERTURE END LIST*
D10*
D11*
X2175000Y-3675000D02*
X2225000Y-3725000D01*
X2225000Y-3675000D02*
X2175000Y-3725000D01*
X2575000Y-5625000D02*
X2625000Y-5675000D01*
X2625000Y-5625000D02*
X2575000Y-5675000D01*
X2625000Y-5325000D02*
X2675000Y-5375000D01*
X2675000Y-5325000D02*
X2625000Y-5375000D01*
X2675000Y-5175000D02*
X2725000Y-5225000D01*
X2725000Y-5175000D02*
X2675000Y-5225000D01*
X3475000Y-5075000D02*
X3525000Y-5125000D01*
X3525000Y-5075000D02*
X3475000Y-5125000D01*
X3575000Y-4925000D02*
X3625000Y-4975000D01*
X3625000Y-4925000D02*
X3575000Y-4975000D01*
X4075000Y-2600000D02*
X4125000Y-2650000D01*
X4125000Y-2600000D02*
X4075000Y-2650000D01*
X4075000Y-2825000D02*
X4125000Y-2875000D01*
X4125000Y-2825000D02*
X4075000Y-2875000D01*
X4075000Y-3075000D02*
X4125000Y-3125000D01*
X4125000Y-3075000D02*
X4075000Y-3125000D01*
X4075000Y-3300000D02*
X4125000Y-3350000D01*
X4125000Y-3300000D02*
X4075000Y-3350000D01*
X4075000Y-3525000D02*
X4125000Y-3575000D01*
X4125000Y-3525000D02*
X4075000Y-3575000D01*
X4095000Y-3975000D02*
X4145000Y-4025000D01*
X4145000Y-3975000D02*
X4095000Y-4025000D01*
X4105000Y-4345000D02*
X4155000Y-4395000D01*
X4155000Y-4345000D02*
X4105000Y-4395000D01*
X4115000Y-4715000D02*
X4165000Y-4765000D01*
X4165000Y-4715000D02*
X4115000Y-4765000D01*
X4115000Y-5085000D02*
X4165000Y-5135000D01*
X4165000Y-5085000D02*
X4115000Y-5135000D01*
X4115000Y-5455000D02*
X4165000Y-5505000D01*
X4165000Y-5455000D02*
X4115000Y-5505000D01*
X4115000Y-5825000D02*
X4165000Y-5875000D01*
X4165000Y-5825000D02*
X4115000Y-5875000D01*
X4225000Y-6675000D02*
X4275000Y-6725000D01*
X4275000Y-6675000D02*
X4225000Y-6725000D01*
X4715000Y-3735000D02*
X4765000Y-3785000D01*
X4765000Y-3735000D02*
X4715000Y-3785000D01*
X4800000Y-6650000D02*
X4850000Y-6700000D01*
X4850000Y-6650000D02*
X4800000Y-6700000D01*
X4825000Y-4165000D02*
X4875000Y-4215000D01*
X4875000Y-4165000D02*
X4825000Y-4215000D01*
X4865000Y-4535000D02*
X4915000Y-4585000D01*
X4915000Y-4535000D02*
X4865000Y-4585000D01*
X4885000Y-5675000D02*
X4935000Y-5725000D01*
X4935000Y-5675000D02*
X4885000Y-5725000D01*
X4895000Y-4925000D02*
X4945000Y-4975000D01*
X4945000Y-4925000D02*
X4895000Y-4975000D01*
X4905000Y-5315000D02*
X4955000Y-5365000D01*
X4955000Y-5315000D02*
X4905000Y-5365000D01*
X5535000Y-6275000D02*
X5585000Y-6325000D01*
X5585000Y-6275000D02*
X5535000Y-6325000D01*
X5875000Y-4635000D02*
X5925000Y-4685000D01*
X5925000Y-4635000D02*
X5875000Y-4685000D01*
X6475000Y-5725000D02*
X6525000Y-5775000D01*
X6525000Y-5725000D02*
X6475000Y-5775000D01*
X6775000Y-6550000D02*
X6825000Y-6600000D01*
X6825000Y-6550000D02*
X6775000Y-6600000D01*
X6850000Y-5175000D02*
X6900000Y-5225000D01*
X6900000Y-5175000D02*
X6850000Y-5225000D01*
X6875000Y-4100000D02*
X6925000Y-4150000D01*
X6925000Y-4100000D02*
X6875000Y-4150000D01*
X7025000Y-2875000D02*
X7075000Y-2925000D01*
X7075000Y-2875000D02*
X7025000Y-2925000D01*
X7025000Y-5550000D02*
X7075000Y-5600000D01*
X7075000Y-5550000D02*
X7025000Y-5600000D01*
X7075000Y-4025000D02*
X7125000Y-4075000D01*
X7125000Y-4025000D02*
X7075000Y-4075000D01*
X7145000Y-2725000D02*
X7195000Y-2775000D01*
X7195000Y-2725000D02*
X7145000Y-2775000D01*
X7175000Y-4475000D02*
X7225000Y-4525000D01*
X7225000Y-4475000D02*
X7175000Y-4525000D01*
X7325000Y-5800000D02*
X7375000Y-5850000D01*
X7375000Y-5800000D02*
X7325000Y-5850000D01*
X7345000Y-3885000D02*
X7395000Y-3935000D01*
X7395000Y-3885000D02*
X7345000Y-3935000D01*
X7365000Y-2635000D02*
X7415000Y-2685000D01*
X7415000Y-2635000D02*
X7365000Y-2685000D01*
X7550000Y-2575000D02*
X7600000Y-2625000D01*
X7600000Y-2575000D02*
X7550000Y-2625000D01*
X7555000Y-3935000D02*
X7605000Y-3985000D01*
X7605000Y-3935000D02*
X7555000Y-3985000D01*
X7655000Y-3795000D02*
X7705000Y-3845000D01*
X7705000Y-3795000D02*
X7655000Y-3845000D01*
X7735000Y-3615000D02*
X7785000Y-3665000D01*
X7785000Y-3615000D02*
X7735000Y-3665000D01*
X7795000Y-2595000D02*
X7845000Y-2645000D01*
X7845000Y-2595000D02*
X7795000Y-2645000D01*
X7875000Y-5950000D02*
X7925000Y-6000000D01*
X7925000Y-5950000D02*
X7875000Y-6000000D01*
X7900000Y-4600000D02*
X7950000Y-4650000D01*
X7950000Y-4600000D02*
X7900000Y-4650000D01*
X7925000Y-3615000D02*
X7975000Y-3665000D01*
X7975000Y-3615000D02*
X7925000Y-3665000D01*
X7975000Y-2585000D02*
X8025000Y-2635000D01*
X8025000Y-2585000D02*
X7975000Y-2635000D01*
X8175000Y-2735000D02*
X8225000Y-2785000D01*
X8225000Y-2735000D02*
X8175000Y-2785000D01*
X8255000Y-2925000D02*
X8305000Y-2975000D01*
X8305000Y-2925000D02*
X8255000Y-2975000D01*
X8350000Y-4200000D02*
X8400000Y-4250000D01*
X8400000Y-4200000D02*
X8350000Y-4250000D01*
X8650000Y-4925000D02*
X8700000Y-4975000D01*
X8700000Y-4925000D02*
X8650000Y-4975000D01*
X9135000Y-5795000D02*
X9185000Y-5845000D01*
X9185000Y-5795000D02*
X9135000Y-5845000D01*
X9225000Y-3525000D02*
X9275000Y-3575000D01*
X9275000Y-3525000D02*
X9225000Y-3575000D01*
X10175000Y-2975000D02*
X10225000Y-3025000D01*
X10225000Y-2975000D02*
X10175000Y-3025000D01*
X2090000Y-4123000D02*
G75*
G03X2090000Y-4123000I-40000J0D01*
G01*
X2090000Y-4538000D02*
G75*
G03X2090000Y-4538000I-40000J0D01*
G01*
X2090000Y-4871000D02*
G75*
G03X2090000Y-4871000I-40000J0D01*
G01*
X2090000Y-5204000D02*
G75*
G03X2090000Y-5204000I-40000J0D01*
G01*
X2090000Y-5537000D02*
G75*
G03X2090000Y-5537000I-40000J0D01*
G01*
X2090000Y-5870000D02*
G75*
G03X2090000Y-5870000I-40000J0D01*
G01*
X2090000Y-6203000D02*
G75*
G03X2090000Y-6203000I-40000J0D01*
G01*
X2090000Y-6618000D02*
G75*
G03X2090000Y-6618000I-40000J0D01*
G01*
X2510000Y-4123000D02*
G75*
G03X2510000Y-4123000I-40000J0D01*
G01*
X2510000Y-4538000D02*
G75*
G03X2510000Y-4538000I-40000J0D01*
G01*
X2510000Y-4871000D02*
G75*
G03X2510000Y-4871000I-40000J0D01*
G01*
X2510000Y-5204000D02*
G75*
G03X2510000Y-5204000I-40000J0D01*
G01*
X2510000Y-5537000D02*
G75*
G03X2510000Y-5537000I-40000J0D01*
G01*
X2510000Y-5870000D02*
G75*
G03X2510000Y-5870000I-40000J0D01*
G01*
X2510000Y-6203000D02*
G75*
G03X2510000Y-6203000I-40000J0D01*
G01*
X2510000Y-6618000D02*
G75*
G03X2510000Y-6618000I-40000J0D01*
G01*
X2930000Y-4123000D02*
G75*
G03X2930000Y-4123000I-40000J0D01*
G01*
X2930000Y-4538000D02*
G75*
G03X2930000Y-4538000I-40000J0D01*
G01*
X2930000Y-4871000D02*
G75*
G03X2930000Y-4871000I-40000J0D01*
G01*
X2930000Y-5204000D02*
G75*
G03X2930000Y-5204000I-40000J0D01*
G01*
X2930000Y-5537000D02*
G75*
G03X2930000Y-5537000I-40000J0D01*
G01*
X2930000Y-5870000D02*
G75*
G03X2930000Y-5870000I-40000J0D01*
G01*
X2930000Y-6203000D02*
G75*
G03X2930000Y-6203000I-40000J0D01*
G01*
X2930000Y-6618000D02*
G75*
G03X2930000Y-6618000I-40000J0D01*
G01*
X1800000Y-4350000D02*
X1800000Y-4450000D01*
X1750000Y-4400000D02*
X1850000Y-4400000D01*
X2050000Y-6360000D02*
X2050000Y-6460000D01*
X2000000Y-6410000D02*
X2100000Y-6410000D01*
X2280000Y-6680000D02*
X2280000Y-6780000D01*
X2230000Y-6730000D02*
X2330000Y-6730000D01*
X2420000Y-3770000D02*
X2420000Y-3870000D01*
X2370000Y-3820000D02*
X2470000Y-3820000D01*
X2890000Y-3760000D02*
X2890000Y-3860000D01*
X2840000Y-3810000D02*
X2940000Y-3810000D01*
X3780000Y-6640000D02*
X3780000Y-6740000D01*
X3730000Y-6690000D02*
X3830000Y-6690000D01*
X5720000Y-7220000D02*
X5720000Y-7320000D01*
X5670000Y-7270000D02*
X5770000Y-7270000D01*
X5850000Y-7910000D02*
X5850000Y-8010000D01*
X5800000Y-7960000D02*
X5900000Y-7960000D01*
X5910000Y-6440000D02*
X5910000Y-6540000D01*
X5860000Y-6490000D02*
X5960000Y-6490000D01*
X6000000Y-7360000D02*
X6000000Y-7460000D01*
X5950000Y-7410000D02*
X6050000Y-7410000D01*
X6550000Y-2150000D02*
X6550000Y-2250000D01*
X6500000Y-2200000D02*
X6600000Y-2200000D01*
X6650000Y-5925000D02*
X6650000Y-6025000D01*
X6600000Y-5975000D02*
X6700000Y-5975000D01*
X6710000Y-7390000D02*
X6710000Y-7490000D01*
X6660000Y-7440000D02*
X6760000Y-7440000D01*
X6804000Y-2150000D02*
X6804000Y-2250000D01*
X6754000Y-2200000D02*
X6854000Y-2200000D01*
X6829605Y-5745395D02*
X6829605Y-5845395D01*
X6779605Y-5795395D02*
X6879605Y-5795395D01*
X6829605Y-6104605D02*
X6829605Y-6204605D01*
X6779605Y-6154605D02*
X6879605Y-6154605D01*
X7009210Y-5925000D02*
X7009210Y-6025000D01*
X6959210Y-5975000D02*
X7059210Y-5975000D01*
X7009210Y-6284210D02*
X7009210Y-6384210D01*
X6959210Y-6334210D02*
X7059210Y-6334210D01*
X7058000Y-2150000D02*
X7058000Y-2250000D01*
X7008000Y-2200000D02*
X7108000Y-2200000D01*
X7188815Y-6104605D02*
X7188815Y-6204605D01*
X7138815Y-6154605D02*
X7238815Y-6154605D01*
X7312000Y-2150000D02*
X7312000Y-2250000D01*
X7262000Y-2200000D02*
X7362000Y-2200000D01*
X7550000Y-6790000D02*
X7550000Y-6890000D01*
X7500000Y-6840000D02*
X7600000Y-6840000D01*
X7566000Y-2150000D02*
X7566000Y-2250000D01*
X7516000Y-2200000D02*
X7616000Y-2200000D01*
X7820000Y-2150000D02*
X7820000Y-2250000D01*
X7770000Y-2200000D02*
X7870000Y-2200000D01*
X8074000Y-2150000D02*
X8074000Y-2250000D01*
X8024000Y-2200000D02*
X8124000Y-2200000D01*
X8328000Y-2150000D02*
X8328000Y-2250000D01*
X8278000Y-2200000D02*
X8378000Y-2200000D01*
X8582000Y-2150000D02*
X8582000Y-2250000D01*
X8532000Y-2200000D02*
X8632000Y-2200000D01*
X8836000Y-2150000D02*
X8836000Y-2250000D01*
X8786000Y-2200000D02*
X8886000Y-2200000D01*
X9470000Y-7250000D02*
X9470000Y-7350000D01*
X9420000Y-7300000D02*
X9520000Y-7300000D01*
D12*
X271429Y-465714D02*
X271429Y-165714D01*
X342857Y-165714D01*
X385714Y-180000D01*
X414286Y-208571D01*
X428571Y-237143D01*
X442857Y-294286D01*
X442857Y-337143D01*
X428571Y-394286D01*
X414286Y-422857D01*
X385714Y-451429D01*
X342857Y-465714D01*
X271429Y-465714D01*
X571429Y-465714D02*
X571429Y-265714D01*
X571429Y-322857D02*
X585714Y-294286D01*
X600000Y-280000D01*
X628571Y-265714D01*
X657143Y-265714D01*
X757143Y-465714D02*
X757143Y-265714D01*
X757143Y-165714D02*
X742857Y-180000D01*
X757143Y-194286D01*
X771429Y-180000D01*
X757143Y-165714D01*
X757143Y-194286D01*
X942857Y-465714D02*
X914286Y-451429D01*
X900000Y-422857D01*
X900000Y-165714D01*
X1100000Y-465714D02*
X1071429Y-451429D01*
X1057143Y-422857D01*
X1057143Y-165714D01*
X1442857Y-465714D02*
X1442857Y-165714D01*
X1542857Y-380000D01*
X1642857Y-165714D01*
X1642857Y-465714D01*
X1914286Y-465714D02*
X1914286Y-308571D01*
X1900000Y-280000D01*
X1871429Y-265714D01*
X1814286Y-265714D01*
X1785714Y-280000D01*
X1914286Y-451429D02*
X1885714Y-465714D01*
X1814286Y-465714D01*
X1785714Y-451429D01*
X1771429Y-422857D01*
X1771429Y-394286D01*
X1785714Y-365714D01*
X1814286Y-351429D01*
X1885714Y-351429D01*
X1914286Y-337143D01*
X2057143Y-265714D02*
X2057143Y-565714D01*
X2057143Y-280000D02*
X2085714Y-265714D01*
X2142857Y-265714D01*
X2171429Y-280000D01*
X2185714Y-294286D01*
X2200000Y-322857D01*
X2200000Y-408571D01*
X2185714Y-437143D01*
X2171429Y-451429D01*
X2142857Y-465714D01*
X2085714Y-465714D01*
X2057143Y-451429D01*
X2328572Y-437143D02*
X2342857Y-451429D01*
X2328572Y-465714D01*
X2314286Y-451429D01*
X2328572Y-437143D01*
X2328572Y-465714D01*
X2328572Y-280000D02*
X2342857Y-294286D01*
X2328572Y-308571D01*
X2314286Y-294286D01*
X2328572Y-280000D01*
X2328572Y-308571D01*
X-50000Y-935000D02*
X0Y-985000D01*
X0Y-935000D02*
X-50000Y-985000D01*
X328571Y-795714D02*
X357143Y-795714D01*
X385714Y-810000D01*
X400000Y-824286D01*
X414286Y-852857D01*
X428571Y-910000D01*
X428571Y-981429D01*
X414286Y-1038571D01*
X400000Y-1067143D01*
X385714Y-1081429D01*
X357143Y-1095714D01*
X328571Y-1095714D01*
X300000Y-1081429D01*
X285714Y-1067143D01*
X271429Y-1038571D01*
X257143Y-981429D01*
X257143Y-910000D01*
X271429Y-852857D01*
X285714Y-824286D01*
X300000Y-810000D01*
X328571Y-795714D01*
X557143Y-1067143D02*
X571429Y-1081429D01*
X557143Y-1095714D01*
X542857Y-1081429D01*
X557143Y-1067143D01*
X557143Y-1095714D01*
X842857Y-795714D02*
X700000Y-795714D01*
X685714Y-938571D01*
X700000Y-924286D01*
X728571Y-910000D01*
X800000Y-910000D01*
X828571Y-924286D01*
X842857Y-938571D01*
X857143Y-967143D01*
X857143Y-1038571D01*
X842857Y-1067143D01*
X828571Y-1081429D01*
X800000Y-1095714D01*
X728571Y-1095714D01*
X700000Y-1081429D01*
X685714Y-1067143D01*
X1042857Y-795714D02*
X1071429Y-795714D01*
X1100000Y-810000D01*
X1114286Y-824286D01*
X1128571Y-852857D01*
X1142857Y-910000D01*
X1142857Y-981429D01*
X1128571Y-1038571D01*
X1114286Y-1067143D01*
X1100000Y-1081429D01*
X1071429Y-1095714D01*
X1042857Y-1095714D01*
X1014286Y-1081429D01*
X1000000Y-1067143D01*
X985714Y-1038571D01*
X971429Y-981429D01*
X971429Y-910000D01*
X985714Y-852857D01*
X1000000Y-824286D01*
X1014286Y-810000D01*
X1042857Y-795714D01*
X1271429Y-1095714D02*
X1271429Y-895714D01*
X1271429Y-924286D02*
X1285714Y-910000D01*
X1314286Y-895714D01*
X1357143Y-895714D01*
X1385714Y-910000D01*
X1400000Y-938571D01*
X1400000Y-1095714D01*
X1400000Y-938571D02*
X1414286Y-910000D01*
X1442857Y-895714D01*
X1485714Y-895714D01*
X1514286Y-910000D01*
X1528571Y-938571D01*
X1528571Y-1095714D01*
X1671429Y-1095714D02*
X1671429Y-895714D01*
X1671429Y-924286D02*
X1685714Y-910000D01*
X1714286Y-895714D01*
X1757143Y-895714D01*
X1785714Y-910000D01*
X1800000Y-938571D01*
X1800000Y-1095714D01*
X1800000Y-938571D02*
X1814286Y-910000D01*
X1842857Y-895714D01*
X1885714Y-895714D01*
X1914286Y-910000D01*
X1928571Y-938571D01*
X1928571Y-1095714D01*
X2514286Y-781429D02*
X2257143Y-1167143D01*
X2900000Y-795714D02*
X2928571Y-795714D01*
X2957143Y-810000D01*
X2971428Y-824286D01*
X2985714Y-852857D01*
X3000000Y-910000D01*
X3000000Y-981429D01*
X2985714Y-1038571D01*
X2971428Y-1067143D01*
X2957143Y-1081429D01*
X2928571Y-1095714D01*
X2900000Y-1095714D01*
X2871428Y-1081429D01*
X2857143Y-1067143D01*
X2842857Y-1038571D01*
X2828571Y-981429D01*
X2828571Y-910000D01*
X2842857Y-852857D01*
X2857143Y-824286D01*
X2871428Y-810000D01*
X2900000Y-795714D01*
X3128571Y-1067143D02*
X3142857Y-1081429D01*
X3128571Y-1095714D01*
X3114286Y-1081429D01*
X3128571Y-1067143D01*
X3128571Y-1095714D01*
X3328571Y-795714D02*
X3357143Y-795714D01*
X3385714Y-810000D01*
X3400000Y-824286D01*
X3414286Y-852857D01*
X3428571Y-910000D01*
X3428571Y-981429D01*
X3414286Y-1038571D01*
X3400000Y-1067143D01*
X3385714Y-1081429D01*
X3357143Y-1095714D01*
X3328571Y-1095714D01*
X3300000Y-1081429D01*
X3285714Y-1067143D01*
X3271428Y-1038571D01*
X3257143Y-981429D01*
X3257143Y-910000D01*
X3271428Y-852857D01*
X3285714Y-824286D01*
X3300000Y-810000D01*
X3328571Y-795714D01*
X3542857Y-824286D02*
X3557143Y-810000D01*
X3585714Y-795714D01*
X3657143Y-795714D01*
X3685714Y-810000D01*
X3700000Y-824286D01*
X3714286Y-852857D01*
X3714286Y-881429D01*
X3700000Y-924286D01*
X3528571Y-1095714D01*
X3714286Y-1095714D01*
X3900000Y-795714D02*
X3928571Y-795714D01*
X3957143Y-810000D01*
X3971428Y-824286D01*
X3985714Y-852857D01*
X4000000Y-910000D01*
X4000000Y-981429D01*
X3985714Y-1038571D01*
X3971428Y-1067143D01*
X3957143Y-1081429D01*
X3928571Y-1095714D01*
X3900000Y-1095714D01*
X3871428Y-1081429D01*
X3857143Y-1067143D01*
X3842857Y-1038571D01*
X3828571Y-981429D01*
X3828571Y-910000D01*
X3842857Y-852857D01*
X3857143Y-824286D01*
X3871428Y-810000D01*
X3900000Y-795714D01*
X4114286Y-795714D02*
X4114286Y-852857D01*
X4228571Y-795714D02*
X4228571Y-852857D01*
X4671429Y-1210000D02*
X4657143Y-1195714D01*
X4628571Y-1152857D01*
X4614286Y-1124286D01*
X4600000Y-1081429D01*
X4585714Y-1010000D01*
X4585714Y-952857D01*
X4600000Y-881429D01*
X4614286Y-838571D01*
X4628571Y-810000D01*
X4657143Y-767143D01*
X4671429Y-752857D01*
X4928571Y-795714D02*
X4785714Y-795714D01*
X4771429Y-938571D01*
X4785714Y-924286D01*
X4814286Y-910000D01*
X4885714Y-910000D01*
X4914286Y-924286D01*
X4928571Y-938571D01*
X4942857Y-967143D01*
X4942857Y-1038571D01*
X4928571Y-1067143D01*
X4914286Y-1081429D01*
X4885714Y-1095714D01*
X4814286Y-1095714D01*
X4785714Y-1081429D01*
X4771429Y-1067143D01*
X5214286Y-795714D02*
X5071429Y-795714D01*
X5057143Y-938571D01*
X5071429Y-924286D01*
X5100000Y-910000D01*
X5171429Y-910000D01*
X5200000Y-924286D01*
X5214286Y-938571D01*
X5228571Y-967143D01*
X5228571Y-1038571D01*
X5214286Y-1067143D01*
X5200000Y-1081429D01*
X5171429Y-1095714D01*
X5100000Y-1095714D01*
X5071429Y-1081429D01*
X5057143Y-1067143D01*
X5585714Y-1095714D02*
X5585714Y-795714D01*
X5714286Y-1095714D02*
X5714286Y-938571D01*
X5700000Y-910000D01*
X5671428Y-895714D01*
X5628571Y-895714D01*
X5600000Y-910000D01*
X5585714Y-924286D01*
X5900000Y-1095714D02*
X5871428Y-1081429D01*
X5857143Y-1067143D01*
X5842857Y-1038571D01*
X5842857Y-952857D01*
X5857143Y-924286D01*
X5871428Y-910000D01*
X5900000Y-895714D01*
X5942857Y-895714D01*
X5971428Y-910000D01*
X5985714Y-924286D01*
X6000000Y-952857D01*
X6000000Y-1038571D01*
X5985714Y-1067143D01*
X5971428Y-1081429D01*
X5942857Y-1095714D01*
X5900000Y-1095714D01*
X6171428Y-1095714D02*
X6142857Y-1081429D01*
X6128571Y-1052857D01*
X6128571Y-795714D01*
X6400000Y-1081429D02*
X6371429Y-1095714D01*
X6314286Y-1095714D01*
X6285714Y-1081429D01*
X6271429Y-1052857D01*
X6271429Y-938571D01*
X6285714Y-910000D01*
X6314286Y-895714D01*
X6371429Y-895714D01*
X6400000Y-910000D01*
X6414286Y-938571D01*
X6414286Y-967143D01*
X6271429Y-995714D01*
X6528571Y-1081429D02*
X6557143Y-1095714D01*
X6614286Y-1095714D01*
X6642857Y-1081429D01*
X6657143Y-1052857D01*
X6657143Y-1038571D01*
X6642857Y-1010000D01*
X6614286Y-995714D01*
X6571429Y-995714D01*
X6542857Y-981429D01*
X6528571Y-952857D01*
X6528571Y-938571D01*
X6542857Y-910000D01*
X6571429Y-895714D01*
X6614286Y-895714D01*
X6642857Y-910000D01*
X6757143Y-1210000D02*
X6771429Y-1195714D01*
X6800000Y-1152857D01*
X6814286Y-1124286D01*
X6828571Y-1081429D01*
X6842857Y-1010000D01*
X6842857Y-952857D01*
X6828571Y-881429D01*
X6814286Y-838571D01*
X6800000Y-810000D01*
X6771429Y-767143D01*
X6757143Y-752857D01*
X0Y-1356000D02*
G75*
G03X0Y-1356000I-40000J0D01*
G01*
X328571Y-1191714D02*
X357143Y-1191714D01*
X385714Y-1206000D01*
X400000Y-1220286D01*
X414286Y-1248857D01*
X428571Y-1306000D01*
X428571Y-1377429D01*
X414286Y-1434571D01*
X400000Y-1463143D01*
X385714Y-1477429D01*
X357143Y-1491714D01*
X328571Y-1491714D01*
X300000Y-1477429D01*
X285714Y-1463143D01*
X271429Y-1434571D01*
X257143Y-1377429D01*
X257143Y-1306000D01*
X271429Y-1248857D01*
X285714Y-1220286D01*
X300000Y-1206000D01*
X328571Y-1191714D01*
X557143Y-1463143D02*
X571429Y-1477429D01*
X557143Y-1491714D01*
X542857Y-1477429D01*
X557143Y-1463143D01*
X557143Y-1491714D01*
X742857Y-1320286D02*
X714286Y-1306000D01*
X700000Y-1291714D01*
X685714Y-1263143D01*
X685714Y-1248857D01*
X700000Y-1220286D01*
X714286Y-1206000D01*
X742857Y-1191714D01*
X800000Y-1191714D01*
X828571Y-1206000D01*
X842857Y-1220286D01*
X857143Y-1248857D01*
X857143Y-1263143D01*
X842857Y-1291714D01*
X828571Y-1306000D01*
X800000Y-1320286D01*
X742857Y-1320286D01*
X714286Y-1334571D01*
X700000Y-1348857D01*
X685714Y-1377429D01*
X685714Y-1434571D01*
X700000Y-1463143D01*
X714286Y-1477429D01*
X742857Y-1491714D01*
X800000Y-1491714D01*
X828571Y-1477429D01*
X842857Y-1463143D01*
X857143Y-1434571D01*
X857143Y-1377429D01*
X842857Y-1348857D01*
X828571Y-1334571D01*
X800000Y-1320286D01*
X1042857Y-1191714D02*
X1071429Y-1191714D01*
X1100000Y-1206000D01*
X1114286Y-1220286D01*
X1128571Y-1248857D01*
X1142857Y-1306000D01*
X1142857Y-1377429D01*
X1128571Y-1434571D01*
X1114286Y-1463143D01*
X1100000Y-1477429D01*
X1071429Y-1491714D01*
X1042857Y-1491714D01*
X1014286Y-1477429D01*
X1000000Y-1463143D01*
X985714Y-1434571D01*
X971429Y-1377429D01*
X971429Y-1306000D01*
X985714Y-1248857D01*
X1000000Y-1220286D01*
X1014286Y-1206000D01*
X1042857Y-1191714D01*
X1271429Y-1491714D02*
X1271429Y-1291714D01*
X1271429Y-1320286D02*
X1285714Y-1306000D01*
X1314286Y-1291714D01*
X1357143Y-1291714D01*
X1385714Y-1306000D01*
X1400000Y-1334571D01*
X1400000Y-1491714D01*
X1400000Y-1334571D02*
X1414286Y-1306000D01*
X1442857Y-1291714D01*
X1485714Y-1291714D01*
X1514286Y-1306000D01*
X1528571Y-1334571D01*
X1528571Y-1491714D01*
X1671429Y-1491714D02*
X1671429Y-1291714D01*
X1671429Y-1320286D02*
X1685714Y-1306000D01*
X1714286Y-1291714D01*
X1757143Y-1291714D01*
X1785714Y-1306000D01*
X1800000Y-1334571D01*
X1800000Y-1491714D01*
X1800000Y-1334571D02*
X1814286Y-1306000D01*
X1842857Y-1291714D01*
X1885714Y-1291714D01*
X1914286Y-1306000D01*
X1928571Y-1334571D01*
X1928571Y-1491714D01*
X2514286Y-1177429D02*
X2257143Y-1563143D01*
X2900000Y-1191714D02*
X2928571Y-1191714D01*
X2957143Y-1206000D01*
X2971428Y-1220286D01*
X2985714Y-1248857D01*
X3000000Y-1306000D01*
X3000000Y-1377429D01*
X2985714Y-1434571D01*
X2971428Y-1463143D01*
X2957143Y-1477429D01*
X2928571Y-1491714D01*
X2900000Y-1491714D01*
X2871428Y-1477429D01*
X2857143Y-1463143D01*
X2842857Y-1434571D01*
X2828571Y-1377429D01*
X2828571Y-1306000D01*
X2842857Y-1248857D01*
X2857143Y-1220286D01*
X2871428Y-1206000D01*
X2900000Y-1191714D01*
X3128571Y-1463143D02*
X3142857Y-1477429D01*
X3128571Y-1491714D01*
X3114286Y-1477429D01*
X3128571Y-1463143D01*
X3128571Y-1491714D01*
X3328571Y-1191714D02*
X3357143Y-1191714D01*
X3385714Y-1206000D01*
X3400000Y-1220286D01*
X3414286Y-1248857D01*
X3428571Y-1306000D01*
X3428571Y-1377429D01*
X3414286Y-1434571D01*
X3400000Y-1463143D01*
X3385714Y-1477429D01*
X3357143Y-1491714D01*
X3328571Y-1491714D01*
X3300000Y-1477429D01*
X3285714Y-1463143D01*
X3271428Y-1434571D01*
X3257143Y-1377429D01*
X3257143Y-1306000D01*
X3271428Y-1248857D01*
X3285714Y-1220286D01*
X3300000Y-1206000D01*
X3328571Y-1191714D01*
X3528571Y-1191714D02*
X3714286Y-1191714D01*
X3614286Y-1306000D01*
X3657143Y-1306000D01*
X3685714Y-1320286D01*
X3700000Y-1334571D01*
X3714286Y-1363143D01*
X3714286Y-1434571D01*
X3700000Y-1463143D01*
X3685714Y-1477429D01*
X3657143Y-1491714D01*
X3571428Y-1491714D01*
X3542857Y-1477429D01*
X3528571Y-1463143D01*
X4000000Y-1491714D02*
X3828571Y-1491714D01*
X3914286Y-1491714D02*
X3914286Y-1191714D01*
X3885714Y-1234571D01*
X3857143Y-1263143D01*
X3828571Y-1277429D01*
X4114286Y-1191714D02*
X4114286Y-1248857D01*
X4228571Y-1191714D02*
X4228571Y-1248857D01*
X4671429Y-1606000D02*
X4657143Y-1591714D01*
X4628571Y-1548857D01*
X4614286Y-1520286D01*
X4600000Y-1477429D01*
X4585714Y-1406000D01*
X4585714Y-1348857D01*
X4600000Y-1277429D01*
X4614286Y-1234571D01*
X4628571Y-1206000D01*
X4657143Y-1163143D01*
X4671429Y-1148857D01*
X4771429Y-1220286D02*
X4785714Y-1206000D01*
X4814286Y-1191714D01*
X4885714Y-1191714D01*
X4914286Y-1206000D01*
X4928571Y-1220286D01*
X4942857Y-1248857D01*
X4942857Y-1277429D01*
X4928571Y-1320286D01*
X4757143Y-1491714D01*
X4942857Y-1491714D01*
X5200000Y-1291714D02*
X5200000Y-1491714D01*
X5128571Y-1177429D02*
X5057143Y-1391714D01*
X5242857Y-1391714D01*
X5585714Y-1491714D02*
X5585714Y-1191714D01*
X5714286Y-1491714D02*
X5714286Y-1334571D01*
X5700000Y-1306000D01*
X5671428Y-1291714D01*
X5628571Y-1291714D01*
X5600000Y-1306000D01*
X5585714Y-1320286D01*
X5900000Y-1491714D02*
X5871428Y-1477429D01*
X5857143Y-1463143D01*
X5842857Y-1434571D01*
X5842857Y-1348857D01*
X5857143Y-1320286D01*
X5871428Y-1306000D01*
X5900000Y-1291714D01*
X5942857Y-1291714D01*
X5971428Y-1306000D01*
X5985714Y-1320286D01*
X6000000Y-1348857D01*
X6000000Y-1434571D01*
X5985714Y-1463143D01*
X5971428Y-1477429D01*
X5942857Y-1491714D01*
X5900000Y-1491714D01*
X6171428Y-1491714D02*
X6142857Y-1477429D01*
X6128571Y-1448857D01*
X6128571Y-1191714D01*
X6400000Y-1477429D02*
X6371429Y-1491714D01*
X6314286Y-1491714D01*
X6285714Y-1477429D01*
X6271429Y-1448857D01*
X6271429Y-1334571D01*
X6285714Y-1306000D01*
X6314286Y-1291714D01*
X6371429Y-1291714D01*
X6400000Y-1306000D01*
X6414286Y-1334571D01*
X6414286Y-1363143D01*
X6271429Y-1391714D01*
X6528571Y-1477429D02*
X6557143Y-1491714D01*
X6614286Y-1491714D01*
X6642857Y-1477429D01*
X6657143Y-1448857D01*
X6657143Y-1434571D01*
X6642857Y-1406000D01*
X6614286Y-1391714D01*
X6571429Y-1391714D01*
X6542857Y-1377429D01*
X6528571Y-1348857D01*
X6528571Y-1334571D01*
X6542857Y-1306000D01*
X6571429Y-1291714D01*
X6614286Y-1291714D01*
X6642857Y-1306000D01*
X6757143Y-1606000D02*
X6771429Y-1591714D01*
X6800000Y-1548857D01*
X6814286Y-1520286D01*
X6828571Y-1477429D01*
X6842857Y-1406000D01*
X6842857Y-1348857D01*
X6828571Y-1277429D01*
X6814286Y-1234571D01*
X6800000Y-1206000D01*
X6771429Y-1163143D01*
X6757143Y-1148857D01*
X-50000Y-1702000D02*
X-50000Y-1802000D01*
X-100000Y-1752000D02*
X0Y-1752000D01*
X428571Y-1887714D02*
X257143Y-1887714D01*
X342857Y-1887714D02*
X342857Y-1587714D01*
X314286Y-1630571D01*
X285714Y-1659143D01*
X257143Y-1673429D01*
X557143Y-1859143D02*
X571429Y-1873429D01*
X557143Y-1887714D01*
X542857Y-1873429D01*
X557143Y-1859143D01*
X557143Y-1887714D01*
X757143Y-1587714D02*
X785714Y-1587714D01*
X814286Y-1602000D01*
X828571Y-1616286D01*
X842857Y-1644857D01*
X857143Y-1702000D01*
X857143Y-1773429D01*
X842857Y-1830571D01*
X828571Y-1859143D01*
X814286Y-1873429D01*
X785714Y-1887714D01*
X757143Y-1887714D01*
X728571Y-1873429D01*
X714286Y-1859143D01*
X700000Y-1830571D01*
X685714Y-1773429D01*
X685714Y-1702000D01*
X700000Y-1644857D01*
X714286Y-1616286D01*
X728571Y-1602000D01*
X757143Y-1587714D01*
X1042857Y-1587714D02*
X1071429Y-1587714D01*
X1100000Y-1602000D01*
X1114286Y-1616286D01*
X1128571Y-1644857D01*
X1142857Y-1702000D01*
X1142857Y-1773429D01*
X1128571Y-1830571D01*
X1114286Y-1859143D01*
X1100000Y-1873429D01*
X1071429Y-1887714D01*
X1042857Y-1887714D01*
X1014286Y-1873429D01*
X1000000Y-1859143D01*
X985714Y-1830571D01*
X971429Y-1773429D01*
X971429Y-1702000D01*
X985714Y-1644857D01*
X1000000Y-1616286D01*
X1014286Y-1602000D01*
X1042857Y-1587714D01*
X1271429Y-1887714D02*
X1271429Y-1687714D01*
X1271429Y-1716286D02*
X1285714Y-1702000D01*
X1314286Y-1687714D01*
X1357143Y-1687714D01*
X1385714Y-1702000D01*
X1400000Y-1730571D01*
X1400000Y-1887714D01*
X1400000Y-1730571D02*
X1414286Y-1702000D01*
X1442857Y-1687714D01*
X1485714Y-1687714D01*
X1514286Y-1702000D01*
X1528571Y-1730571D01*
X1528571Y-1887714D01*
X1671429Y-1887714D02*
X1671429Y-1687714D01*
X1671429Y-1716286D02*
X1685714Y-1702000D01*
X1714286Y-1687714D01*
X1757143Y-1687714D01*
X1785714Y-1702000D01*
X1800000Y-1730571D01*
X1800000Y-1887714D01*
X1800000Y-1730571D02*
X1814286Y-1702000D01*
X1842857Y-1687714D01*
X1885714Y-1687714D01*
X1914286Y-1702000D01*
X1928571Y-1730571D01*
X1928571Y-1887714D01*
X2514286Y-1573429D02*
X2257143Y-1959143D01*
X2900000Y-1587714D02*
X2928571Y-1587714D01*
X2957143Y-1602000D01*
X2971428Y-1616286D01*
X2985714Y-1644857D01*
X3000000Y-1702000D01*
X3000000Y-1773429D01*
X2985714Y-1830571D01*
X2971428Y-1859143D01*
X2957143Y-1873429D01*
X2928571Y-1887714D01*
X2900000Y-1887714D01*
X2871428Y-1873429D01*
X2857143Y-1859143D01*
X2842857Y-1830571D01*
X2828571Y-1773429D01*
X2828571Y-1702000D01*
X2842857Y-1644857D01*
X2857143Y-1616286D01*
X2871428Y-1602000D01*
X2900000Y-1587714D01*
X3128571Y-1859143D02*
X3142857Y-1873429D01*
X3128571Y-1887714D01*
X3114286Y-1873429D01*
X3128571Y-1859143D01*
X3128571Y-1887714D01*
X3328571Y-1587714D02*
X3357143Y-1587714D01*
X3385714Y-1602000D01*
X3400000Y-1616286D01*
X3414286Y-1644857D01*
X3428571Y-1702000D01*
X3428571Y-1773429D01*
X3414286Y-1830571D01*
X3400000Y-1859143D01*
X3385714Y-1873429D01*
X3357143Y-1887714D01*
X3328571Y-1887714D01*
X3300000Y-1873429D01*
X3285714Y-1859143D01*
X3271428Y-1830571D01*
X3257143Y-1773429D01*
X3257143Y-1702000D01*
X3271428Y-1644857D01*
X3285714Y-1616286D01*
X3300000Y-1602000D01*
X3328571Y-1587714D01*
X3528571Y-1587714D02*
X3714286Y-1587714D01*
X3614286Y-1702000D01*
X3657143Y-1702000D01*
X3685714Y-1716286D01*
X3700000Y-1730571D01*
X3714286Y-1759143D01*
X3714286Y-1830571D01*
X3700000Y-1859143D01*
X3685714Y-1873429D01*
X3657143Y-1887714D01*
X3571428Y-1887714D01*
X3542857Y-1873429D01*
X3528571Y-1859143D01*
X3857143Y-1887714D02*
X3914286Y-1887714D01*
X3942857Y-1873429D01*
X3957143Y-1859143D01*
X3985714Y-1816286D01*
X4000000Y-1759143D01*
X4000000Y-1644857D01*
X3985714Y-1616286D01*
X3971428Y-1602000D01*
X3942857Y-1587714D01*
X3885714Y-1587714D01*
X3857143Y-1602000D01*
X3842857Y-1616286D01*
X3828571Y-1644857D01*
X3828571Y-1716286D01*
X3842857Y-1744857D01*
X3857143Y-1759143D01*
X3885714Y-1773429D01*
X3942857Y-1773429D01*
X3971428Y-1759143D01*
X3985714Y-1744857D01*
X4000000Y-1716286D01*
X4114286Y-1587714D02*
X4114286Y-1644857D01*
X4228571Y-1587714D02*
X4228571Y-1644857D01*
X4671429Y-2002000D02*
X4657143Y-1987714D01*
X4628571Y-1944857D01*
X4614286Y-1916286D01*
X4600000Y-1873429D01*
X4585714Y-1802000D01*
X4585714Y-1744857D01*
X4600000Y-1673429D01*
X4614286Y-1630571D01*
X4628571Y-1602000D01*
X4657143Y-1559143D01*
X4671429Y-1544857D01*
X4771429Y-1616286D02*
X4785714Y-1602000D01*
X4814286Y-1587714D01*
X4885714Y-1587714D01*
X4914286Y-1602000D01*
X4928571Y-1616286D01*
X4942857Y-1644857D01*
X4942857Y-1673429D01*
X4928571Y-1716286D01*
X4757143Y-1887714D01*
X4942857Y-1887714D01*
X5085714Y-1887714D02*
X5142857Y-1887714D01*
X5171429Y-1873429D01*
X5185714Y-1859143D01*
X5214286Y-1816286D01*
X5228571Y-1759143D01*
X5228571Y-1644857D01*
X5214286Y-1616286D01*
X5200000Y-1602000D01*
X5171429Y-1587714D01*
X5114286Y-1587714D01*
X5085714Y-1602000D01*
X5071429Y-1616286D01*
X5057143Y-1644857D01*
X5057143Y-1716286D01*
X5071429Y-1744857D01*
X5085714Y-1759143D01*
X5114286Y-1773429D01*
X5171429Y-1773429D01*
X5200000Y-1759143D01*
X5214286Y-1744857D01*
X5228571Y-1716286D01*
X5585714Y-1887714D02*
X5585714Y-1587714D01*
X5714286Y-1887714D02*
X5714286Y-1730571D01*
X5700000Y-1702000D01*
X5671428Y-1687714D01*
X5628571Y-1687714D01*
X5600000Y-1702000D01*
X5585714Y-1716286D01*
X5900000Y-1887714D02*
X5871428Y-1873429D01*
X5857143Y-1859143D01*
X5842857Y-1830571D01*
X5842857Y-1744857D01*
X5857143Y-1716286D01*
X5871428Y-1702000D01*
X5900000Y-1687714D01*
X5942857Y-1687714D01*
X5971428Y-1702000D01*
X5985714Y-1716286D01*
X6000000Y-1744857D01*
X6000000Y-1830571D01*
X5985714Y-1859143D01*
X5971428Y-1873429D01*
X5942857Y-1887714D01*
X5900000Y-1887714D01*
X6171428Y-1887714D02*
X6142857Y-1873429D01*
X6128571Y-1844857D01*
X6128571Y-1587714D01*
X6400000Y-1873429D02*
X6371429Y-1887714D01*
X6314286Y-1887714D01*
X6285714Y-1873429D01*
X6271429Y-1844857D01*
X6271429Y-1730571D01*
X6285714Y-1702000D01*
X6314286Y-1687714D01*
X6371429Y-1687714D01*
X6400000Y-1702000D01*
X6414286Y-1730571D01*
X6414286Y-1759143D01*
X6271429Y-1787714D01*
X6528571Y-1873429D02*
X6557143Y-1887714D01*
X6614286Y-1887714D01*
X6642857Y-1873429D01*
X6657143Y-1844857D01*
X6657143Y-1830571D01*
X6642857Y-1802000D01*
X6614286Y-1787714D01*
X6571429Y-1787714D01*
X6542857Y-1773429D01*
X6528571Y-1744857D01*
X6528571Y-1730571D01*
X6542857Y-1702000D01*
X6571429Y-1687714D01*
X6614286Y-1687714D01*
X6642857Y-1702000D01*
X6757143Y-2002000D02*
X6771429Y-1987714D01*
X6800000Y-1944857D01*
X6814286Y-1916286D01*
X6828571Y-1873429D01*
X6842857Y-1802000D01*
X6842857Y-1744857D01*
X6828571Y-1673429D01*
X6814286Y-1630571D01*
X6800000Y-1602000D01*
X6771429Y-1559143D01*
X6757143Y-1544857D01*
M02*
