G04 #@! TF.FileFunction,Soldermask,Top*
%FSLAX46Y46*%
G04 Gerber Fmt 4.6, Leading zero omitted, Abs format (unit mm)*
G04 Created by KiCad (PCBNEW 4.0.7) date 06/18/18 23:10:01*
%MOMM*%
%LPD*%
G01*
G04 APERTURE LIST*
%ADD10C,0.100000*%
%ADD11C,2.100000*%
%ADD12R,2.000000X2.400000*%
%ADD13R,2.400000X2.000000*%
%ADD14R,3.900000X2.000000*%
%ADD15R,2.300000X1.200000*%
%ADD16R,2.700000X3.900000*%
%ADD17R,4.900000X3.700000*%
%ADD18R,1.200000X2.300000*%
%ADD19R,2.430000X3.050000*%
%ADD20R,2.100000X2.100000*%
%ADD21O,2.100000X2.100000*%
%ADD22C,1.900000*%
%ADD23R,2.400000X2.100000*%
%ADD24R,3.300000X5.800000*%
%ADD25R,5.000000X1.500000*%
%ADD26R,9.800000X11.200000*%
%ADD27R,1.950000X1.000000*%
G04 APERTURE END LIST*
D10*
G36*
X66500000Y-61234924D02*
X65015076Y-59750000D01*
X66500000Y-58265076D01*
X67984924Y-59750000D01*
X66500000Y-61234924D01*
X66500000Y-61234924D01*
G37*
D11*
X68296051Y-57953949D02*
X68296051Y-57953949D01*
X68296051Y-61546051D02*
X68296051Y-61546051D01*
X70092102Y-59750000D02*
X70092102Y-59750000D01*
X70092102Y-63342102D02*
X70092102Y-63342102D01*
X71888154Y-61546051D02*
X71888154Y-61546051D01*
D10*
G36*
X94055635Y-50530151D02*
X95469849Y-51944365D01*
X93772793Y-53641421D01*
X92358579Y-52227207D01*
X94055635Y-50530151D01*
X94055635Y-50530151D01*
G37*
G36*
X91227207Y-53358579D02*
X92641421Y-54772793D01*
X90944365Y-56469849D01*
X89530151Y-55055635D01*
X91227207Y-53358579D01*
X91227207Y-53358579D01*
G37*
G36*
X88555635Y-56030151D02*
X89969849Y-57444365D01*
X88272793Y-59141421D01*
X86858579Y-57727207D01*
X88555635Y-56030151D01*
X88555635Y-56030151D01*
G37*
G36*
X85727207Y-58858579D02*
X87141421Y-60272793D01*
X85444365Y-61969849D01*
X84030151Y-60555635D01*
X85727207Y-58858579D01*
X85727207Y-58858579D01*
G37*
D12*
X63000000Y-38500000D03*
X63000000Y-42500000D03*
D10*
G36*
X82194365Y-52719849D02*
X80780151Y-51305635D01*
X82477207Y-49608579D01*
X83891421Y-51022793D01*
X82194365Y-52719849D01*
X82194365Y-52719849D01*
G37*
G36*
X85022793Y-49891421D02*
X83608579Y-48477207D01*
X85305635Y-46780151D01*
X86719849Y-48194365D01*
X85022793Y-49891421D01*
X85022793Y-49891421D01*
G37*
D13*
X53500000Y-44500000D03*
X57500000Y-44500000D03*
D12*
X60500000Y-44500000D03*
X60500000Y-40500000D03*
D14*
X83000000Y-85600000D03*
X77600000Y-85600000D03*
D12*
X92600000Y-38000000D03*
X92600000Y-42000000D03*
D10*
G36*
X72305635Y-50030151D02*
X73719849Y-51444365D01*
X72022793Y-53141421D01*
X70608579Y-51727207D01*
X72305635Y-50030151D01*
X72305635Y-50030151D01*
G37*
G36*
X69477207Y-52858579D02*
X70891421Y-54272793D01*
X69194365Y-55969849D01*
X67780151Y-54555635D01*
X69477207Y-52858579D01*
X69477207Y-52858579D01*
G37*
D14*
X102150000Y-64150000D03*
X96750000Y-64150000D03*
D13*
X101650000Y-57950000D03*
X97650000Y-57950000D03*
D15*
X43900000Y-57550000D03*
X43900000Y-59450000D03*
X46900000Y-58500000D03*
X43900000Y-46450000D03*
X43900000Y-48350000D03*
X46900000Y-47400000D03*
X43875000Y-53825000D03*
X43875000Y-55725000D03*
X46875000Y-54775000D03*
X43875000Y-42775000D03*
X43875000Y-44675000D03*
X46875000Y-43725000D03*
X43900000Y-50150000D03*
X43900000Y-52050000D03*
X46900000Y-51100000D03*
X43875000Y-39025000D03*
X43875000Y-40925000D03*
X46875000Y-39975000D03*
D16*
X65450000Y-84300000D03*
X65450000Y-78900000D03*
X72050000Y-89300000D03*
X72050000Y-83900000D03*
D17*
X90200000Y-73050000D03*
X99000000Y-73050000D03*
D10*
G36*
X79424443Y-58618808D02*
X77868808Y-60174443D01*
X75111091Y-57416726D01*
X76666726Y-55861091D01*
X79424443Y-58618808D01*
X79424443Y-58618808D01*
G37*
G36*
X75888909Y-55083274D02*
X74333274Y-56638909D01*
X71575557Y-53881192D01*
X73131192Y-52325557D01*
X75888909Y-55083274D01*
X75888909Y-55083274D01*
G37*
D18*
X102875000Y-25075000D03*
X100975000Y-25075000D03*
X101925000Y-28075000D03*
D19*
X62000000Y-84290000D03*
X62000000Y-80110000D03*
D20*
X65500000Y-22000000D03*
D21*
X68040000Y-22000000D03*
X70580000Y-22000000D03*
X73120000Y-22000000D03*
X75660000Y-22000000D03*
X78200000Y-22000000D03*
X80740000Y-22000000D03*
X83280000Y-22000000D03*
X85820000Y-22000000D03*
X88360000Y-22000000D03*
D22*
X20500000Y-66180000D03*
X20500000Y-62030000D03*
X20500000Y-58700000D03*
X20500000Y-55370000D03*
X20500000Y-52040000D03*
X20500000Y-48710000D03*
X20500000Y-45380000D03*
X24700000Y-62030000D03*
X24700000Y-58700000D03*
X24700000Y-55370000D03*
X24700000Y-52040000D03*
X24700000Y-48710000D03*
X24700000Y-45380000D03*
X28900000Y-62030000D03*
X28900000Y-58700000D03*
X28900000Y-55370000D03*
X28900000Y-52040000D03*
X28900000Y-48710000D03*
X28900000Y-45380000D03*
X20500000Y-41230000D03*
X24700000Y-66180000D03*
X24700000Y-41230000D03*
X28900000Y-66180000D03*
X28900000Y-41230000D03*
D23*
X53500000Y-41000000D03*
X57500000Y-41000000D03*
D24*
X89250000Y-85100000D03*
X99150000Y-85100000D03*
D23*
X56300000Y-37100000D03*
X60300000Y-37100000D03*
X61100000Y-29700000D03*
X65100000Y-29700000D03*
X57800000Y-34700000D03*
X61800000Y-34700000D03*
X63200000Y-27300000D03*
X67200000Y-27300000D03*
X59300000Y-32200000D03*
X63300000Y-32200000D03*
X64900000Y-25000000D03*
X68900000Y-25000000D03*
D10*
G36*
X89920280Y-42194796D02*
X91405204Y-43679720D01*
X89708148Y-45376776D01*
X88223224Y-43891852D01*
X89920280Y-42194796D01*
X89920280Y-42194796D01*
G37*
G36*
X87091852Y-45023224D02*
X88576776Y-46508148D01*
X86879720Y-48205204D01*
X85394796Y-46720280D01*
X87091852Y-45023224D01*
X87091852Y-45023224D01*
G37*
D23*
X62900000Y-48100000D03*
X66900000Y-48100000D03*
X47200000Y-35500000D03*
X43200000Y-35500000D03*
X47200000Y-33100000D03*
X43200000Y-33100000D03*
X47200000Y-30800000D03*
X43200000Y-30800000D03*
X47200000Y-28500000D03*
X43200000Y-28500000D03*
X47200000Y-26100000D03*
X43200000Y-26100000D03*
X100200000Y-37400000D03*
X96200000Y-37400000D03*
D10*
G36*
X76505204Y-59770280D02*
X75020280Y-61255204D01*
X73323224Y-59558148D01*
X74808148Y-58073224D01*
X76505204Y-59770280D01*
X76505204Y-59770280D01*
G37*
G36*
X73676776Y-56941852D02*
X72191852Y-58426776D01*
X70494796Y-56729720D01*
X71979720Y-55244796D01*
X73676776Y-56941852D01*
X73676776Y-56941852D01*
G37*
D23*
X99675000Y-22075000D03*
X103675000Y-22075000D03*
D10*
G36*
X66476761Y-43709709D02*
X65805010Y-43037958D01*
X67148513Y-41694455D01*
X67820264Y-42366206D01*
X66476761Y-43709709D01*
X66476761Y-43709709D01*
G37*
G36*
X67042447Y-44275394D02*
X66370696Y-43603643D01*
X67714199Y-42260140D01*
X68385950Y-42931891D01*
X67042447Y-44275394D01*
X67042447Y-44275394D01*
G37*
G36*
X67608132Y-44841079D02*
X66936381Y-44169328D01*
X68279884Y-42825825D01*
X68951635Y-43497576D01*
X67608132Y-44841079D01*
X67608132Y-44841079D01*
G37*
G36*
X68173817Y-45406765D02*
X67502066Y-44735014D01*
X68845569Y-43391511D01*
X69517320Y-44063262D01*
X68173817Y-45406765D01*
X68173817Y-45406765D01*
G37*
G36*
X68739503Y-45972450D02*
X68067752Y-45300699D01*
X69411255Y-43957196D01*
X70083006Y-44628947D01*
X68739503Y-45972450D01*
X68739503Y-45972450D01*
G37*
G36*
X69305188Y-46538136D02*
X68633437Y-45866385D01*
X69976940Y-44522882D01*
X70648691Y-45194633D01*
X69305188Y-46538136D01*
X69305188Y-46538136D01*
G37*
G36*
X69870874Y-47103821D02*
X69199123Y-46432070D01*
X70542626Y-45088567D01*
X71214377Y-45760318D01*
X69870874Y-47103821D01*
X69870874Y-47103821D01*
G37*
G36*
X70436559Y-47669507D02*
X69764808Y-46997756D01*
X71108311Y-45654253D01*
X71780062Y-46326004D01*
X70436559Y-47669507D01*
X70436559Y-47669507D01*
G37*
G36*
X71002244Y-48235192D02*
X70330493Y-47563441D01*
X71673996Y-46219938D01*
X72345747Y-46891689D01*
X71002244Y-48235192D01*
X71002244Y-48235192D01*
G37*
G36*
X71567930Y-48800877D02*
X70896179Y-48129126D01*
X72239682Y-46785623D01*
X72911433Y-47457374D01*
X71567930Y-48800877D01*
X71567930Y-48800877D01*
G37*
G36*
X72133615Y-49366563D02*
X71461864Y-48694812D01*
X72805367Y-47351309D01*
X73477118Y-48023060D01*
X72133615Y-49366563D01*
X72133615Y-49366563D01*
G37*
G36*
X72699301Y-49932248D02*
X72027550Y-49260497D01*
X73371053Y-47916994D01*
X74042804Y-48588745D01*
X72699301Y-49932248D01*
X72699301Y-49932248D01*
G37*
G36*
X73264986Y-50497934D02*
X72593235Y-49826183D01*
X73936738Y-48482680D01*
X74608489Y-49154431D01*
X73264986Y-50497934D01*
X73264986Y-50497934D01*
G37*
G36*
X73830672Y-51063619D02*
X73158921Y-50391868D01*
X74502424Y-49048365D01*
X75174175Y-49720116D01*
X73830672Y-51063619D01*
X73830672Y-51063619D01*
G37*
G36*
X74396357Y-51629304D02*
X73724606Y-50957553D01*
X75068109Y-49614050D01*
X75739860Y-50285801D01*
X74396357Y-51629304D01*
X74396357Y-51629304D01*
G37*
G36*
X74962042Y-52194990D02*
X74290291Y-51523239D01*
X75633794Y-50179736D01*
X76305545Y-50851487D01*
X74962042Y-52194990D01*
X74962042Y-52194990D01*
G37*
G36*
X78709709Y-51523239D02*
X78037958Y-52194990D01*
X76694455Y-50851487D01*
X77366206Y-50179736D01*
X78709709Y-51523239D01*
X78709709Y-51523239D01*
G37*
G36*
X79275394Y-50957553D02*
X78603643Y-51629304D01*
X77260140Y-50285801D01*
X77931891Y-49614050D01*
X79275394Y-50957553D01*
X79275394Y-50957553D01*
G37*
G36*
X79841079Y-50391868D02*
X79169328Y-51063619D01*
X77825825Y-49720116D01*
X78497576Y-49048365D01*
X79841079Y-50391868D01*
X79841079Y-50391868D01*
G37*
G36*
X80406765Y-49826183D02*
X79735014Y-50497934D01*
X78391511Y-49154431D01*
X79063262Y-48482680D01*
X80406765Y-49826183D01*
X80406765Y-49826183D01*
G37*
G36*
X80972450Y-49260497D02*
X80300699Y-49932248D01*
X78957196Y-48588745D01*
X79628947Y-47916994D01*
X80972450Y-49260497D01*
X80972450Y-49260497D01*
G37*
G36*
X81538136Y-48694812D02*
X80866385Y-49366563D01*
X79522882Y-48023060D01*
X80194633Y-47351309D01*
X81538136Y-48694812D01*
X81538136Y-48694812D01*
G37*
G36*
X82103821Y-48129126D02*
X81432070Y-48800877D01*
X80088567Y-47457374D01*
X80760318Y-46785623D01*
X82103821Y-48129126D01*
X82103821Y-48129126D01*
G37*
G36*
X82669507Y-47563441D02*
X81997756Y-48235192D01*
X80654253Y-46891689D01*
X81326004Y-46219938D01*
X82669507Y-47563441D01*
X82669507Y-47563441D01*
G37*
G36*
X83235192Y-46997756D02*
X82563441Y-47669507D01*
X81219938Y-46326004D01*
X81891689Y-45654253D01*
X83235192Y-46997756D01*
X83235192Y-46997756D01*
G37*
G36*
X83800877Y-46432070D02*
X83129126Y-47103821D01*
X81785623Y-45760318D01*
X82457374Y-45088567D01*
X83800877Y-46432070D01*
X83800877Y-46432070D01*
G37*
G36*
X84366563Y-45866385D02*
X83694812Y-46538136D01*
X82351309Y-45194633D01*
X83023060Y-44522882D01*
X84366563Y-45866385D01*
X84366563Y-45866385D01*
G37*
G36*
X84932248Y-45300699D02*
X84260497Y-45972450D01*
X82916994Y-44628947D01*
X83588745Y-43957196D01*
X84932248Y-45300699D01*
X84932248Y-45300699D01*
G37*
G36*
X85497934Y-44735014D02*
X84826183Y-45406765D01*
X83482680Y-44063262D01*
X84154431Y-43391511D01*
X85497934Y-44735014D01*
X85497934Y-44735014D01*
G37*
G36*
X86063619Y-44169328D02*
X85391868Y-44841079D01*
X84048365Y-43497576D01*
X84720116Y-42825825D01*
X86063619Y-44169328D01*
X86063619Y-44169328D01*
G37*
G36*
X86629304Y-43603643D02*
X85957553Y-44275394D01*
X84614050Y-42931891D01*
X85285801Y-42260140D01*
X86629304Y-43603643D01*
X86629304Y-43603643D01*
G37*
G36*
X87194990Y-43037958D02*
X86523239Y-43709709D01*
X85179736Y-42366206D01*
X85851487Y-41694455D01*
X87194990Y-43037958D01*
X87194990Y-43037958D01*
G37*
G36*
X85851487Y-41305545D02*
X85179736Y-40633794D01*
X86523239Y-39290291D01*
X87194990Y-39962042D01*
X85851487Y-41305545D01*
X85851487Y-41305545D01*
G37*
G36*
X85285801Y-40739860D02*
X84614050Y-40068109D01*
X85957553Y-38724606D01*
X86629304Y-39396357D01*
X85285801Y-40739860D01*
X85285801Y-40739860D01*
G37*
G36*
X84720116Y-40174175D02*
X84048365Y-39502424D01*
X85391868Y-38158921D01*
X86063619Y-38830672D01*
X84720116Y-40174175D01*
X84720116Y-40174175D01*
G37*
G36*
X84154431Y-39608489D02*
X83482680Y-38936738D01*
X84826183Y-37593235D01*
X85497934Y-38264986D01*
X84154431Y-39608489D01*
X84154431Y-39608489D01*
G37*
G36*
X83588745Y-39042804D02*
X82916994Y-38371053D01*
X84260497Y-37027550D01*
X84932248Y-37699301D01*
X83588745Y-39042804D01*
X83588745Y-39042804D01*
G37*
G36*
X83023060Y-38477118D02*
X82351309Y-37805367D01*
X83694812Y-36461864D01*
X84366563Y-37133615D01*
X83023060Y-38477118D01*
X83023060Y-38477118D01*
G37*
G36*
X82457374Y-37911433D02*
X81785623Y-37239682D01*
X83129126Y-35896179D01*
X83800877Y-36567930D01*
X82457374Y-37911433D01*
X82457374Y-37911433D01*
G37*
G36*
X81891689Y-37345747D02*
X81219938Y-36673996D01*
X82563441Y-35330493D01*
X83235192Y-36002244D01*
X81891689Y-37345747D01*
X81891689Y-37345747D01*
G37*
G36*
X81326004Y-36780062D02*
X80654253Y-36108311D01*
X81997756Y-34764808D01*
X82669507Y-35436559D01*
X81326004Y-36780062D01*
X81326004Y-36780062D01*
G37*
G36*
X80760318Y-36214377D02*
X80088567Y-35542626D01*
X81432070Y-34199123D01*
X82103821Y-34870874D01*
X80760318Y-36214377D01*
X80760318Y-36214377D01*
G37*
G36*
X80194633Y-35648691D02*
X79522882Y-34976940D01*
X80866385Y-33633437D01*
X81538136Y-34305188D01*
X80194633Y-35648691D01*
X80194633Y-35648691D01*
G37*
G36*
X79628947Y-35083006D02*
X78957196Y-34411255D01*
X80300699Y-33067752D01*
X80972450Y-33739503D01*
X79628947Y-35083006D01*
X79628947Y-35083006D01*
G37*
G36*
X79063262Y-34517320D02*
X78391511Y-33845569D01*
X79735014Y-32502066D01*
X80406765Y-33173817D01*
X79063262Y-34517320D01*
X79063262Y-34517320D01*
G37*
G36*
X78497576Y-33951635D02*
X77825825Y-33279884D01*
X79169328Y-31936381D01*
X79841079Y-32608132D01*
X78497576Y-33951635D01*
X78497576Y-33951635D01*
G37*
G36*
X77931891Y-33385950D02*
X77260140Y-32714199D01*
X78603643Y-31370696D01*
X79275394Y-32042447D01*
X77931891Y-33385950D01*
X77931891Y-33385950D01*
G37*
G36*
X77366206Y-32820264D02*
X76694455Y-32148513D01*
X78037958Y-30805010D01*
X78709709Y-31476761D01*
X77366206Y-32820264D01*
X77366206Y-32820264D01*
G37*
G36*
X76305545Y-32148513D02*
X75633794Y-32820264D01*
X74290291Y-31476761D01*
X74962042Y-30805010D01*
X76305545Y-32148513D01*
X76305545Y-32148513D01*
G37*
G36*
X75739860Y-32714199D02*
X75068109Y-33385950D01*
X73724606Y-32042447D01*
X74396357Y-31370696D01*
X75739860Y-32714199D01*
X75739860Y-32714199D01*
G37*
G36*
X75174175Y-33279884D02*
X74502424Y-33951635D01*
X73158921Y-32608132D01*
X73830672Y-31936381D01*
X75174175Y-33279884D01*
X75174175Y-33279884D01*
G37*
G36*
X74608489Y-33845569D02*
X73936738Y-34517320D01*
X72593235Y-33173817D01*
X73264986Y-32502066D01*
X74608489Y-33845569D01*
X74608489Y-33845569D01*
G37*
G36*
X74042804Y-34411255D02*
X73371053Y-35083006D01*
X72027550Y-33739503D01*
X72699301Y-33067752D01*
X74042804Y-34411255D01*
X74042804Y-34411255D01*
G37*
G36*
X73477118Y-34976940D02*
X72805367Y-35648691D01*
X71461864Y-34305188D01*
X72133615Y-33633437D01*
X73477118Y-34976940D01*
X73477118Y-34976940D01*
G37*
G36*
X72911433Y-35542626D02*
X72239682Y-36214377D01*
X70896179Y-34870874D01*
X71567930Y-34199123D01*
X72911433Y-35542626D01*
X72911433Y-35542626D01*
G37*
G36*
X72345747Y-36108311D02*
X71673996Y-36780062D01*
X70330493Y-35436559D01*
X71002244Y-34764808D01*
X72345747Y-36108311D01*
X72345747Y-36108311D01*
G37*
G36*
X71780062Y-36673996D02*
X71108311Y-37345747D01*
X69764808Y-36002244D01*
X70436559Y-35330493D01*
X71780062Y-36673996D01*
X71780062Y-36673996D01*
G37*
G36*
X71214377Y-37239682D02*
X70542626Y-37911433D01*
X69199123Y-36567930D01*
X69870874Y-35896179D01*
X71214377Y-37239682D01*
X71214377Y-37239682D01*
G37*
G36*
X70648691Y-37805367D02*
X69976940Y-38477118D01*
X68633437Y-37133615D01*
X69305188Y-36461864D01*
X70648691Y-37805367D01*
X70648691Y-37805367D01*
G37*
G36*
X70083006Y-38371053D02*
X69411255Y-39042804D01*
X68067752Y-37699301D01*
X68739503Y-37027550D01*
X70083006Y-38371053D01*
X70083006Y-38371053D01*
G37*
G36*
X69517320Y-38936738D02*
X68845569Y-39608489D01*
X67502066Y-38264986D01*
X68173817Y-37593235D01*
X69517320Y-38936738D01*
X69517320Y-38936738D01*
G37*
G36*
X68951635Y-39502424D02*
X68279884Y-40174175D01*
X66936381Y-38830672D01*
X67608132Y-38158921D01*
X68951635Y-39502424D01*
X68951635Y-39502424D01*
G37*
G36*
X68385950Y-40068109D02*
X67714199Y-40739860D01*
X66370696Y-39396357D01*
X67042447Y-38724606D01*
X68385950Y-40068109D01*
X68385950Y-40068109D01*
G37*
G36*
X67820264Y-40633794D02*
X67148513Y-41305545D01*
X65805010Y-39962042D01*
X66476761Y-39290291D01*
X67820264Y-40633794D01*
X67820264Y-40633794D01*
G37*
D25*
X82725000Y-78850000D03*
X82725000Y-77150000D03*
X82725000Y-75450000D03*
X82725000Y-73750000D03*
X82725000Y-72050000D03*
D26*
X73575000Y-75450000D03*
D27*
X95300000Y-39595000D03*
X95300000Y-40865000D03*
X95300000Y-42135000D03*
X95300000Y-43405000D03*
X100700000Y-43405000D03*
X100700000Y-42135000D03*
X100700000Y-40865000D03*
X100700000Y-39595000D03*
D10*
G36*
X90889087Y-47913856D02*
X92586144Y-49610913D01*
X89121321Y-53075736D01*
X87424264Y-51378679D01*
X90889087Y-47913856D01*
X90889087Y-47913856D01*
G37*
G36*
X84878679Y-53924264D02*
X86575736Y-55621321D01*
X83110913Y-59086144D01*
X81413856Y-57389087D01*
X84878679Y-53924264D01*
X84878679Y-53924264D01*
G37*
M02*
