G04 #@! TF.FileFunction,Legend,Top*
%FSLAX46Y46*%
G04 Gerber Fmt 4.6, Leading zero omitted, Abs format (unit mm)*
G04 Created by KiCad (PCBNEW 4.0.7) date 06/18/18 23:10:01*
%MOMM*%
%LPD*%
G01*
G04 APERTURE LIST*
%ADD10C,0.100000*%
%ADD11C,0.120000*%
%ADD12C,0.150000*%
G04 APERTURE END LIST*
D10*
D11*
X70092102Y-65223006D02*
X73769058Y-61546051D01*
X66457574Y-61588478D02*
X70092102Y-65223006D01*
X68296051Y-56073045D02*
X73769058Y-61546051D01*
X66457574Y-61588478D02*
X68296051Y-59750000D01*
X68296051Y-59750000D02*
X66457574Y-57911522D01*
X66457574Y-57911522D02*
X68296051Y-56073045D01*
X65559548Y-60690452D02*
X64619096Y-59750000D01*
X64619096Y-59750000D02*
X65559548Y-58809548D01*
X92514142Y-54928356D02*
X93928356Y-53514142D01*
X92485858Y-52071644D02*
X91071644Y-53485858D01*
X87014142Y-60428356D02*
X88428356Y-59014142D01*
X86985858Y-57571644D02*
X85571644Y-58985858D01*
X64020000Y-41500000D02*
X64020000Y-39500000D01*
X61980000Y-39500000D02*
X61980000Y-41500000D01*
X83735858Y-48321644D02*
X82321644Y-49735858D01*
X83764142Y-51178356D02*
X85178356Y-49764142D01*
X56500000Y-43480000D02*
X54500000Y-43480000D01*
X54500000Y-45520000D02*
X56500000Y-45520000D01*
X59480000Y-41500000D02*
X59480000Y-43500000D01*
X61520000Y-43500000D02*
X61520000Y-41500000D01*
X83600000Y-83060000D02*
X83600000Y-84480000D01*
X77000000Y-82300000D02*
X77000000Y-84480000D01*
X77000000Y-88900000D02*
X77000000Y-86720000D01*
X83600000Y-88140000D02*
X83600000Y-86720000D01*
X77000000Y-82300000D02*
X82840000Y-82300000D01*
X82840000Y-82300000D02*
X83600000Y-83060000D01*
X83600000Y-88140000D02*
X82840000Y-88900000D01*
X82840000Y-88900000D02*
X77000000Y-88900000D01*
X93620000Y-41000000D02*
X93620000Y-39000000D01*
X91580000Y-39000000D02*
X91580000Y-41000000D01*
X70764142Y-54428356D02*
X72178356Y-53014142D01*
X70735858Y-51571644D02*
X69321644Y-52985858D01*
X96150000Y-60850000D02*
X96150000Y-63030000D01*
X96150000Y-67450000D02*
X96150000Y-65270000D01*
X102750000Y-61610000D02*
X102750000Y-63030000D01*
X102750000Y-66690000D02*
X102750000Y-65270000D01*
X96150000Y-60850000D02*
X101990000Y-60850000D01*
X101990000Y-60850000D02*
X102750000Y-61610000D01*
X102750000Y-66690000D02*
X101990000Y-67450000D01*
X101990000Y-67450000D02*
X96150000Y-67450000D01*
X98650000Y-58970000D02*
X100650000Y-58970000D01*
X100650000Y-56930000D02*
X98650000Y-56930000D01*
X46160000Y-60080000D02*
X46160000Y-59150000D01*
X46160000Y-56920000D02*
X46160000Y-57850000D01*
X46160000Y-56920000D02*
X43000000Y-56920000D01*
X46160000Y-60080000D02*
X44700000Y-60080000D01*
X46160000Y-48980000D02*
X46160000Y-48050000D01*
X46160000Y-45820000D02*
X46160000Y-46750000D01*
X46160000Y-45820000D02*
X43000000Y-45820000D01*
X46160000Y-48980000D02*
X44700000Y-48980000D01*
X46135000Y-56355000D02*
X46135000Y-55425000D01*
X46135000Y-53195000D02*
X46135000Y-54125000D01*
X46135000Y-53195000D02*
X42975000Y-53195000D01*
X46135000Y-56355000D02*
X44675000Y-56355000D01*
X46135000Y-45305000D02*
X46135000Y-44375000D01*
X46135000Y-42145000D02*
X46135000Y-43075000D01*
X46135000Y-42145000D02*
X42975000Y-42145000D01*
X46135000Y-45305000D02*
X44675000Y-45305000D01*
X46160000Y-52680000D02*
X46160000Y-51750000D01*
X46160000Y-49520000D02*
X46160000Y-50450000D01*
X46160000Y-49520000D02*
X43000000Y-49520000D01*
X46160000Y-52680000D02*
X44700000Y-52680000D01*
X46135000Y-41555000D02*
X46135000Y-40625000D01*
X46135000Y-38395000D02*
X46135000Y-39325000D01*
X46135000Y-38395000D02*
X42975000Y-38395000D01*
X46135000Y-41555000D02*
X44675000Y-41555000D01*
X63300000Y-86200000D02*
X67600000Y-86200000D01*
X67600000Y-86200000D02*
X67600000Y-78900000D01*
X63300000Y-86200000D02*
X63300000Y-78900000D01*
X69900000Y-91200000D02*
X74200000Y-91200000D01*
X74200000Y-91200000D02*
X74200000Y-83900000D01*
X69900000Y-91200000D02*
X69900000Y-83900000D01*
X87800000Y-76300000D02*
X87800000Y-69800000D01*
X87800000Y-76300000D02*
X99000000Y-76300000D01*
X87800000Y-69800000D02*
X99000000Y-69800000D01*
X77444544Y-60527996D02*
X79777996Y-58194544D01*
X79777996Y-58194544D02*
X74898959Y-53315507D01*
X77444544Y-60527996D02*
X72565507Y-55648959D01*
X100345000Y-27335000D02*
X101275000Y-27335000D01*
X103505000Y-27335000D02*
X102575000Y-27335000D01*
X103505000Y-27335000D02*
X103505000Y-24175000D01*
X100345000Y-27335000D02*
X100345000Y-25875000D01*
X63070000Y-81200000D02*
X63070000Y-83200000D01*
X60930000Y-83200000D02*
X60930000Y-81200000D01*
X89690000Y-23330000D02*
X89690000Y-20670000D01*
X66770000Y-23330000D02*
X89690000Y-23330000D01*
X66770000Y-20670000D02*
X89690000Y-20670000D01*
X66770000Y-23330000D02*
X66770000Y-20670000D01*
X65500000Y-23330000D02*
X64170000Y-23330000D01*
X64170000Y-23330000D02*
X64170000Y-22000000D01*
D12*
X25500000Y-32300000D02*
X35700000Y-32300000D01*
X13000000Y-32300000D02*
X20000000Y-32300000D01*
X25500000Y-75100000D02*
X35700000Y-75100000D01*
X13000000Y-75100000D02*
X20000000Y-75100000D01*
X13000000Y-70700000D02*
X13000000Y-75100000D01*
X13000000Y-54700000D02*
X13000000Y-68700000D01*
X13000000Y-38700000D02*
X13000000Y-52700000D01*
X13000000Y-32300000D02*
X13000000Y-36700000D01*
X25500000Y-34600000D02*
X25500000Y-32300000D01*
X20000000Y-32300000D02*
X20000000Y-34600000D01*
X20000000Y-34600000D02*
X25500000Y-34600000D01*
X25500000Y-72900000D02*
X25500000Y-72700000D01*
X25500000Y-72700000D02*
X20000000Y-72700000D01*
X20000000Y-72700000D02*
X20000000Y-72900000D01*
X15300000Y-36700000D02*
X13000000Y-36700000D01*
X15300000Y-38700000D02*
X15300000Y-36700000D01*
X13000000Y-38700000D02*
X15300000Y-38700000D01*
X15300000Y-38700000D02*
X15300000Y-36700000D01*
X15300000Y-68700000D02*
X13000000Y-68700000D01*
X15300000Y-70700000D02*
X15300000Y-68700000D01*
X13000000Y-70700000D02*
X15300000Y-70700000D01*
X15300000Y-70700000D02*
X15300000Y-68700000D01*
X15300000Y-54700000D02*
X15300000Y-52700000D01*
X13000000Y-54700000D02*
X15300000Y-54700000D01*
X15300000Y-54700000D02*
X15300000Y-52700000D01*
X15300000Y-52700000D02*
X13000000Y-52700000D01*
X20000000Y-72900000D02*
X20000000Y-75100000D01*
X25500000Y-72900000D02*
X25500000Y-75100000D01*
X35700000Y-32300000D02*
X35700000Y-75100000D01*
D11*
X56500000Y-42070000D02*
X54500000Y-42070000D01*
X54500000Y-39930000D02*
X56500000Y-39930000D01*
X100500000Y-88400000D02*
X100500000Y-91400000D01*
X100500000Y-91400000D02*
X87900000Y-91400000D01*
X87900000Y-91400000D02*
X87900000Y-88400000D01*
X87900000Y-81800000D02*
X87900000Y-78800000D01*
X87900000Y-78800000D02*
X100500000Y-78800000D01*
X100500000Y-78800000D02*
X100500000Y-81800000D01*
X59300000Y-38170000D02*
X57300000Y-38170000D01*
X57300000Y-36030000D02*
X59300000Y-36030000D01*
X64100000Y-30770000D02*
X62100000Y-30770000D01*
X62100000Y-28630000D02*
X64100000Y-28630000D01*
X60800000Y-35770000D02*
X58800000Y-35770000D01*
X58800000Y-33630000D02*
X60800000Y-33630000D01*
X66200000Y-28370000D02*
X64200000Y-28370000D01*
X64200000Y-26230000D02*
X66200000Y-26230000D01*
X62300000Y-33270000D02*
X60300000Y-33270000D01*
X60300000Y-31130000D02*
X62300000Y-31130000D01*
X67900000Y-26070000D02*
X65900000Y-26070000D01*
X65900000Y-23930000D02*
X67900000Y-23930000D01*
X86936289Y-45150503D02*
X88350503Y-43736289D01*
X89863711Y-45249497D02*
X88449497Y-46663711D01*
X65900000Y-49170000D02*
X63900000Y-49170000D01*
X63900000Y-47030000D02*
X65900000Y-47030000D01*
X44200000Y-34430000D02*
X46200000Y-34430000D01*
X46200000Y-36570000D02*
X44200000Y-36570000D01*
X44200000Y-32030000D02*
X46200000Y-32030000D01*
X46200000Y-34170000D02*
X44200000Y-34170000D01*
X44200000Y-29730000D02*
X46200000Y-29730000D01*
X46200000Y-31870000D02*
X44200000Y-31870000D01*
X44200000Y-27430000D02*
X46200000Y-27430000D01*
X46200000Y-29570000D02*
X44200000Y-29570000D01*
X44200000Y-25030000D02*
X46200000Y-25030000D01*
X46200000Y-27170000D02*
X44200000Y-27170000D01*
X97200000Y-36330000D02*
X99200000Y-36330000D01*
X99200000Y-38470000D02*
X97200000Y-38470000D01*
X73549497Y-56786289D02*
X74963711Y-58200503D01*
X73450503Y-59713711D02*
X72036289Y-58299497D01*
X102675000Y-23145000D02*
X100675000Y-23145000D01*
X100675000Y-21005000D02*
X102675000Y-21005000D01*
D12*
X66353018Y-41500000D02*
X66759604Y-41906586D01*
X76500000Y-31353018D02*
X76977297Y-31830315D01*
X86646982Y-41500000D02*
X86169685Y-41022703D01*
X76500000Y-51646982D02*
X76022703Y-51169685D01*
X66353018Y-41500000D02*
X66830315Y-41022703D01*
X76500000Y-51646982D02*
X76977297Y-51169685D01*
X86646982Y-41500000D02*
X86169685Y-41977297D01*
X76500000Y-31353018D02*
X76022703Y-31830315D01*
X66759604Y-41906586D02*
X65858043Y-42808148D01*
D11*
X78400000Y-80650000D02*
X79900000Y-80650000D01*
X79900000Y-80650000D02*
X79900000Y-79700000D01*
X79900000Y-79700000D02*
X85025000Y-79700000D01*
X78400000Y-70250000D02*
X79900000Y-70250000D01*
X79900000Y-70250000D02*
X79900000Y-71200000D01*
X79900000Y-71200000D02*
X81000000Y-71200000D01*
D12*
X95925000Y-38925000D02*
X95925000Y-38975000D01*
X100075000Y-38925000D02*
X100075000Y-39070000D01*
X100075000Y-44075000D02*
X100075000Y-43930000D01*
X95925000Y-44075000D02*
X95925000Y-43930000D01*
X95925000Y-38925000D02*
X100075000Y-38925000D01*
X95925000Y-44075000D02*
X100075000Y-44075000D01*
X95925000Y-38975000D02*
X94525000Y-38975000D01*
D11*
X84631192Y-59475052D02*
X93540738Y-50565507D01*
X93540738Y-50565507D02*
X89934493Y-46959262D01*
X89934493Y-46959262D02*
X81024948Y-55868808D01*
D12*
X65127540Y-57052893D02*
X65632616Y-57557969D01*
X65699959Y-57692657D01*
X65699959Y-57827344D01*
X65632616Y-57962031D01*
X65565272Y-58029374D01*
X65396914Y-56783519D02*
X65834647Y-56345786D01*
X65868318Y-56850863D01*
X65969334Y-56749847D01*
X66070349Y-56716175D01*
X66137692Y-56716175D01*
X66238708Y-56749847D01*
X66407067Y-56918206D01*
X66440738Y-57019221D01*
X66440738Y-57086565D01*
X66407067Y-57187580D01*
X66205036Y-57389611D01*
X66104020Y-57423283D01*
X66036677Y-57423283D01*
X93872125Y-55107826D02*
X93872125Y-55175169D01*
X93804781Y-55309856D01*
X93737438Y-55377200D01*
X93602750Y-55444544D01*
X93468063Y-55444544D01*
X93367048Y-55410872D01*
X93198690Y-55309857D01*
X93097674Y-55208841D01*
X92996659Y-55040482D01*
X92962987Y-54939467D01*
X92962987Y-54804780D01*
X93030331Y-54670093D01*
X93097674Y-54602749D01*
X93232361Y-54535406D01*
X93299705Y-54535406D01*
X94612903Y-54501734D02*
X94208842Y-54905796D01*
X94410872Y-54703765D02*
X93703765Y-53996659D01*
X93737437Y-54165017D01*
X93737437Y-54299704D01*
X93703765Y-54400719D01*
X88372125Y-60607826D02*
X88372125Y-60675169D01*
X88304781Y-60809856D01*
X88237438Y-60877200D01*
X88102750Y-60944544D01*
X87968063Y-60944544D01*
X87867048Y-60910872D01*
X87698690Y-60809857D01*
X87597674Y-60708841D01*
X87496659Y-60540482D01*
X87462987Y-60439467D01*
X87462987Y-60304780D01*
X87530331Y-60170093D01*
X87597674Y-60102749D01*
X87732361Y-60035406D01*
X87799705Y-60035406D01*
X88069078Y-59766032D02*
X88069078Y-59698689D01*
X88102750Y-59597674D01*
X88271109Y-59429314D01*
X88372125Y-59395643D01*
X88439468Y-59395643D01*
X88540483Y-59429314D01*
X88607827Y-59496658D01*
X88675170Y-59631345D01*
X88675170Y-60439467D01*
X89112903Y-60001734D01*
X65107143Y-40666666D02*
X65154762Y-40714285D01*
X65202381Y-40857142D01*
X65202381Y-40952380D01*
X65154762Y-41095238D01*
X65059524Y-41190476D01*
X64964286Y-41238095D01*
X64773810Y-41285714D01*
X64630952Y-41285714D01*
X64440476Y-41238095D01*
X64345238Y-41190476D01*
X64250000Y-41095238D01*
X64202381Y-40952380D01*
X64202381Y-40857142D01*
X64250000Y-40714285D01*
X64297619Y-40666666D01*
X64202381Y-40333333D02*
X64202381Y-39714285D01*
X64583333Y-40047619D01*
X64583333Y-39904761D01*
X64630952Y-39809523D01*
X64678571Y-39761904D01*
X64773810Y-39714285D01*
X65011905Y-39714285D01*
X65107143Y-39761904D01*
X65154762Y-39809523D01*
X65202381Y-39904761D01*
X65202381Y-40190476D01*
X65154762Y-40285714D01*
X65107143Y-40333333D01*
X82647251Y-48882952D02*
X82647251Y-48950295D01*
X82579907Y-49084982D01*
X82512564Y-49152326D01*
X82377876Y-49219670D01*
X82243189Y-49219670D01*
X82142174Y-49185998D01*
X81973816Y-49084983D01*
X81872800Y-48983967D01*
X81771785Y-48815608D01*
X81738113Y-48714593D01*
X81738113Y-48579906D01*
X81805457Y-48445219D01*
X81872800Y-48377875D01*
X82007487Y-48310532D01*
X82074831Y-48310532D01*
X82849281Y-47872799D02*
X83320686Y-48344204D01*
X82411548Y-47771785D02*
X82748266Y-48445220D01*
X83185999Y-48007487D01*
X55333334Y-43107143D02*
X55285715Y-43154762D01*
X55142858Y-43202381D01*
X55047620Y-43202381D01*
X54904762Y-43154762D01*
X54809524Y-43059524D01*
X54761905Y-42964286D01*
X54714286Y-42773810D01*
X54714286Y-42630952D01*
X54761905Y-42440476D01*
X54809524Y-42345238D01*
X54904762Y-42250000D01*
X55047620Y-42202381D01*
X55142858Y-42202381D01*
X55285715Y-42250000D01*
X55333334Y-42297619D01*
X56238096Y-42202381D02*
X55761905Y-42202381D01*
X55714286Y-42678571D01*
X55761905Y-42630952D01*
X55857143Y-42583333D01*
X56095239Y-42583333D01*
X56190477Y-42630952D01*
X56238096Y-42678571D01*
X56285715Y-42773810D01*
X56285715Y-43011905D01*
X56238096Y-43107143D01*
X56190477Y-43154762D01*
X56095239Y-43202381D01*
X55857143Y-43202381D01*
X55761905Y-43154762D01*
X55714286Y-43107143D01*
X59107143Y-42666666D02*
X59154762Y-42714285D01*
X59202381Y-42857142D01*
X59202381Y-42952380D01*
X59154762Y-43095238D01*
X59059524Y-43190476D01*
X58964286Y-43238095D01*
X58773810Y-43285714D01*
X58630952Y-43285714D01*
X58440476Y-43238095D01*
X58345238Y-43190476D01*
X58250000Y-43095238D01*
X58202381Y-42952380D01*
X58202381Y-42857142D01*
X58250000Y-42714285D01*
X58297619Y-42666666D01*
X58202381Y-41809523D02*
X58202381Y-42000000D01*
X58250000Y-42095238D01*
X58297619Y-42142857D01*
X58440476Y-42238095D01*
X58630952Y-42285714D01*
X59011905Y-42285714D01*
X59107143Y-42238095D01*
X59154762Y-42190476D01*
X59202381Y-42095238D01*
X59202381Y-41904761D01*
X59154762Y-41809523D01*
X59107143Y-41761904D01*
X59011905Y-41714285D01*
X58773810Y-41714285D01*
X58678571Y-41761904D01*
X58630952Y-41809523D01*
X58583333Y-41904761D01*
X58583333Y-42095238D01*
X58630952Y-42190476D01*
X58678571Y-42238095D01*
X58773810Y-42285714D01*
X80133334Y-81527143D02*
X80085715Y-81574762D01*
X79942858Y-81622381D01*
X79847620Y-81622381D01*
X79704762Y-81574762D01*
X79609524Y-81479524D01*
X79561905Y-81384286D01*
X79514286Y-81193810D01*
X79514286Y-81050952D01*
X79561905Y-80860476D01*
X79609524Y-80765238D01*
X79704762Y-80670000D01*
X79847620Y-80622381D01*
X79942858Y-80622381D01*
X80085715Y-80670000D01*
X80133334Y-80717619D01*
X80466667Y-80622381D02*
X81133334Y-80622381D01*
X80704762Y-81622381D01*
X84199048Y-82761429D02*
X84960953Y-82761429D01*
X84580001Y-83142381D02*
X84580001Y-82380476D01*
X94707143Y-40166666D02*
X94754762Y-40214285D01*
X94802381Y-40357142D01*
X94802381Y-40452380D01*
X94754762Y-40595238D01*
X94659524Y-40690476D01*
X94564286Y-40738095D01*
X94373810Y-40785714D01*
X94230952Y-40785714D01*
X94040476Y-40738095D01*
X93945238Y-40690476D01*
X93850000Y-40595238D01*
X93802381Y-40452380D01*
X93802381Y-40357142D01*
X93850000Y-40214285D01*
X93897619Y-40166666D01*
X94230952Y-39595238D02*
X94183333Y-39690476D01*
X94135714Y-39738095D01*
X94040476Y-39785714D01*
X93992857Y-39785714D01*
X93897619Y-39738095D01*
X93850000Y-39690476D01*
X93802381Y-39595238D01*
X93802381Y-39404761D01*
X93850000Y-39309523D01*
X93897619Y-39261904D01*
X93992857Y-39214285D01*
X94040476Y-39214285D01*
X94135714Y-39261904D01*
X94183333Y-39309523D01*
X94230952Y-39404761D01*
X94230952Y-39595238D01*
X94278571Y-39690476D01*
X94326190Y-39738095D01*
X94421429Y-39785714D01*
X94611905Y-39785714D01*
X94707143Y-39738095D01*
X94754762Y-39690476D01*
X94802381Y-39595238D01*
X94802381Y-39404761D01*
X94754762Y-39309523D01*
X94707143Y-39261904D01*
X94611905Y-39214285D01*
X94421429Y-39214285D01*
X94326190Y-39261904D01*
X94278571Y-39309523D01*
X94230952Y-39404761D01*
X72122125Y-54607826D02*
X72122125Y-54675169D01*
X72054781Y-54809856D01*
X71987438Y-54877200D01*
X71852750Y-54944544D01*
X71718063Y-54944544D01*
X71617048Y-54910872D01*
X71448690Y-54809857D01*
X71347674Y-54708841D01*
X71246659Y-54540482D01*
X71212987Y-54439467D01*
X71212987Y-54304780D01*
X71280331Y-54170093D01*
X71347674Y-54102749D01*
X71482361Y-54035406D01*
X71549705Y-54035406D01*
X72526185Y-54338452D02*
X72660872Y-54203765D01*
X72694544Y-54102749D01*
X72694544Y-54035406D01*
X72660873Y-53867047D01*
X72559858Y-53698689D01*
X72290483Y-53429314D01*
X72189468Y-53395643D01*
X72122125Y-53395643D01*
X72021109Y-53429314D01*
X71886422Y-53564002D01*
X71852750Y-53665017D01*
X71852750Y-53732361D01*
X71886422Y-53833376D01*
X72054780Y-54001734D01*
X72155796Y-54035406D01*
X72223140Y-54035407D01*
X72324155Y-54001735D01*
X72458842Y-53867047D01*
X72492514Y-53766032D01*
X72492513Y-53698688D01*
X72458842Y-53597673D01*
X98807143Y-59947143D02*
X98759524Y-59994762D01*
X98616667Y-60042381D01*
X98521429Y-60042381D01*
X98378571Y-59994762D01*
X98283333Y-59899524D01*
X98235714Y-59804286D01*
X98188095Y-59613810D01*
X98188095Y-59470952D01*
X98235714Y-59280476D01*
X98283333Y-59185238D01*
X98378571Y-59090000D01*
X98521429Y-59042381D01*
X98616667Y-59042381D01*
X98759524Y-59090000D01*
X98807143Y-59137619D01*
X99759524Y-60042381D02*
X99188095Y-60042381D01*
X99473809Y-60042381D02*
X99473809Y-59042381D01*
X99378571Y-59185238D01*
X99283333Y-59280476D01*
X99188095Y-59328095D01*
X100378571Y-59042381D02*
X100473810Y-59042381D01*
X100569048Y-59090000D01*
X100616667Y-59137619D01*
X100664286Y-59232857D01*
X100711905Y-59423333D01*
X100711905Y-59661429D01*
X100664286Y-59851905D01*
X100616667Y-59947143D01*
X100569048Y-59994762D01*
X100473810Y-60042381D01*
X100378571Y-60042381D01*
X100283333Y-59994762D01*
X100235714Y-59947143D01*
X100188095Y-59851905D01*
X100140476Y-59661429D01*
X100140476Y-59423333D01*
X100188095Y-59232857D01*
X100235714Y-59137619D01*
X100283333Y-59090000D01*
X100378571Y-59042381D01*
X103349048Y-61211429D02*
X104110953Y-61211429D01*
X103730001Y-61592381D02*
X103730001Y-60830476D01*
X99007143Y-60057143D02*
X98959524Y-60104762D01*
X98816667Y-60152381D01*
X98721429Y-60152381D01*
X98578571Y-60104762D01*
X98483333Y-60009524D01*
X98435714Y-59914286D01*
X98388095Y-59723810D01*
X98388095Y-59580952D01*
X98435714Y-59390476D01*
X98483333Y-59295238D01*
X98578571Y-59200000D01*
X98721429Y-59152381D01*
X98816667Y-59152381D01*
X98959524Y-59200000D01*
X99007143Y-59247619D01*
X99959524Y-60152381D02*
X99388095Y-60152381D01*
X99673809Y-60152381D02*
X99673809Y-59152381D01*
X99578571Y-59295238D01*
X99483333Y-59390476D01*
X99388095Y-59438095D01*
X100911905Y-60152381D02*
X100340476Y-60152381D01*
X100626190Y-60152381D02*
X100626190Y-59152381D01*
X100530952Y-59295238D01*
X100435714Y-59390476D01*
X100340476Y-59438095D01*
X44661905Y-56452381D02*
X44661905Y-55452381D01*
X44900000Y-55452381D01*
X45042858Y-55500000D01*
X45138096Y-55595238D01*
X45185715Y-55690476D01*
X45233334Y-55880952D01*
X45233334Y-56023810D01*
X45185715Y-56214286D01*
X45138096Y-56309524D01*
X45042858Y-56404762D01*
X44900000Y-56452381D01*
X44661905Y-56452381D01*
X46185715Y-56452381D02*
X45614286Y-56452381D01*
X45900000Y-56452381D02*
X45900000Y-55452381D01*
X45804762Y-55595238D01*
X45709524Y-55690476D01*
X45614286Y-55738095D01*
X44661905Y-45352381D02*
X44661905Y-44352381D01*
X44900000Y-44352381D01*
X45042858Y-44400000D01*
X45138096Y-44495238D01*
X45185715Y-44590476D01*
X45233334Y-44780952D01*
X45233334Y-44923810D01*
X45185715Y-45114286D01*
X45138096Y-45209524D01*
X45042858Y-45304762D01*
X44900000Y-45352381D01*
X44661905Y-45352381D01*
X45614286Y-44447619D02*
X45661905Y-44400000D01*
X45757143Y-44352381D01*
X45995239Y-44352381D01*
X46090477Y-44400000D01*
X46138096Y-44447619D01*
X46185715Y-44542857D01*
X46185715Y-44638095D01*
X46138096Y-44780952D01*
X45566667Y-45352381D01*
X46185715Y-45352381D01*
X44636905Y-52727381D02*
X44636905Y-51727381D01*
X44875000Y-51727381D01*
X45017858Y-51775000D01*
X45113096Y-51870238D01*
X45160715Y-51965476D01*
X45208334Y-52155952D01*
X45208334Y-52298810D01*
X45160715Y-52489286D01*
X45113096Y-52584524D01*
X45017858Y-52679762D01*
X44875000Y-52727381D01*
X44636905Y-52727381D01*
X45541667Y-51727381D02*
X46160715Y-51727381D01*
X45827381Y-52108333D01*
X45970239Y-52108333D01*
X46065477Y-52155952D01*
X46113096Y-52203571D01*
X46160715Y-52298810D01*
X46160715Y-52536905D01*
X46113096Y-52632143D01*
X46065477Y-52679762D01*
X45970239Y-52727381D01*
X45684524Y-52727381D01*
X45589286Y-52679762D01*
X45541667Y-52632143D01*
X44636905Y-41677381D02*
X44636905Y-40677381D01*
X44875000Y-40677381D01*
X45017858Y-40725000D01*
X45113096Y-40820238D01*
X45160715Y-40915476D01*
X45208334Y-41105952D01*
X45208334Y-41248810D01*
X45160715Y-41439286D01*
X45113096Y-41534524D01*
X45017858Y-41629762D01*
X44875000Y-41677381D01*
X44636905Y-41677381D01*
X46065477Y-41010714D02*
X46065477Y-41677381D01*
X45827381Y-40629762D02*
X45589286Y-41344048D01*
X46208334Y-41344048D01*
X44661905Y-49052381D02*
X44661905Y-48052381D01*
X44900000Y-48052381D01*
X45042858Y-48100000D01*
X45138096Y-48195238D01*
X45185715Y-48290476D01*
X45233334Y-48480952D01*
X45233334Y-48623810D01*
X45185715Y-48814286D01*
X45138096Y-48909524D01*
X45042858Y-49004762D01*
X44900000Y-49052381D01*
X44661905Y-49052381D01*
X46138096Y-48052381D02*
X45661905Y-48052381D01*
X45614286Y-48528571D01*
X45661905Y-48480952D01*
X45757143Y-48433333D01*
X45995239Y-48433333D01*
X46090477Y-48480952D01*
X46138096Y-48528571D01*
X46185715Y-48623810D01*
X46185715Y-48861905D01*
X46138096Y-48957143D01*
X46090477Y-49004762D01*
X45995239Y-49052381D01*
X45757143Y-49052381D01*
X45661905Y-49004762D01*
X45614286Y-48957143D01*
X44636905Y-37927381D02*
X44636905Y-36927381D01*
X44875000Y-36927381D01*
X45017858Y-36975000D01*
X45113096Y-37070238D01*
X45160715Y-37165476D01*
X45208334Y-37355952D01*
X45208334Y-37498810D01*
X45160715Y-37689286D01*
X45113096Y-37784524D01*
X45017858Y-37879762D01*
X44875000Y-37927381D01*
X44636905Y-37927381D01*
X46065477Y-36927381D02*
X45875000Y-36927381D01*
X45779762Y-36975000D01*
X45732143Y-37022619D01*
X45636905Y-37165476D01*
X45589286Y-37355952D01*
X45589286Y-37736905D01*
X45636905Y-37832143D01*
X45684524Y-37879762D01*
X45779762Y-37927381D01*
X45970239Y-37927381D01*
X46065477Y-37879762D01*
X46113096Y-37832143D01*
X46160715Y-37736905D01*
X46160715Y-37498810D01*
X46113096Y-37403571D01*
X46065477Y-37355952D01*
X45970239Y-37308333D01*
X45779762Y-37308333D01*
X45684524Y-37355952D01*
X45636905Y-37403571D01*
X45589286Y-37498810D01*
X62902381Y-82338095D02*
X61902381Y-82338095D01*
X61902381Y-82100000D01*
X61950000Y-81957142D01*
X62045238Y-81861904D01*
X62140476Y-81814285D01*
X62330952Y-81766666D01*
X62473810Y-81766666D01*
X62664286Y-81814285D01*
X62759524Y-81861904D01*
X62854762Y-81957142D01*
X62902381Y-82100000D01*
X62902381Y-82338095D01*
X61902381Y-81433333D02*
X61902381Y-80766666D01*
X62902381Y-81195238D01*
X69502381Y-87338095D02*
X68502381Y-87338095D01*
X68502381Y-87100000D01*
X68550000Y-86957142D01*
X68645238Y-86861904D01*
X68740476Y-86814285D01*
X68930952Y-86766666D01*
X69073810Y-86766666D01*
X69264286Y-86814285D01*
X69359524Y-86861904D01*
X69454762Y-86957142D01*
X69502381Y-87100000D01*
X69502381Y-87338095D01*
X68930952Y-86195238D02*
X68883333Y-86290476D01*
X68835714Y-86338095D01*
X68740476Y-86385714D01*
X68692857Y-86385714D01*
X68597619Y-86338095D01*
X68550000Y-86290476D01*
X68502381Y-86195238D01*
X68502381Y-86004761D01*
X68550000Y-85909523D01*
X68597619Y-85861904D01*
X68692857Y-85814285D01*
X68740476Y-85814285D01*
X68835714Y-85861904D01*
X68883333Y-85909523D01*
X68930952Y-86004761D01*
X68930952Y-86195238D01*
X68978571Y-86290476D01*
X69026190Y-86338095D01*
X69121429Y-86385714D01*
X69311905Y-86385714D01*
X69407143Y-86338095D01*
X69454762Y-86290476D01*
X69502381Y-86195238D01*
X69502381Y-86004761D01*
X69454762Y-85909523D01*
X69407143Y-85861904D01*
X69311905Y-85814285D01*
X69121429Y-85814285D01*
X69026190Y-85861904D01*
X68978571Y-85909523D01*
X68930952Y-86004761D01*
X93861905Y-69402381D02*
X93861905Y-68402381D01*
X94100000Y-68402381D01*
X94242858Y-68450000D01*
X94338096Y-68545238D01*
X94385715Y-68640476D01*
X94433334Y-68830952D01*
X94433334Y-68973810D01*
X94385715Y-69164286D01*
X94338096Y-69259524D01*
X94242858Y-69354762D01*
X94100000Y-69402381D01*
X93861905Y-69402381D01*
X94909524Y-69402381D02*
X95100000Y-69402381D01*
X95195239Y-69354762D01*
X95242858Y-69307143D01*
X95338096Y-69164286D01*
X95385715Y-68973810D01*
X95385715Y-68592857D01*
X95338096Y-68497619D01*
X95290477Y-68450000D01*
X95195239Y-68402381D01*
X95004762Y-68402381D01*
X94909524Y-68450000D01*
X94861905Y-68497619D01*
X94814286Y-68592857D01*
X94814286Y-68830952D01*
X94861905Y-68926190D01*
X94909524Y-68973810D01*
X95004762Y-69021429D01*
X95195239Y-69021429D01*
X95290477Y-68973810D01*
X95338096Y-68926190D01*
X95385715Y-68830952D01*
X72553721Y-57479019D02*
X73260828Y-56771912D01*
X73429187Y-56940271D01*
X73496531Y-57074958D01*
X73496531Y-57209645D01*
X73462859Y-57310660D01*
X73361844Y-57479019D01*
X73260828Y-57580035D01*
X73092470Y-57681050D01*
X72991455Y-57714722D01*
X72856768Y-57714722D01*
X72722080Y-57647377D01*
X72553721Y-57479019D01*
X73631218Y-58556515D02*
X73227157Y-58152454D01*
X73429187Y-58354484D02*
X74136294Y-57647377D01*
X73967935Y-57681049D01*
X73833248Y-57681049D01*
X73732233Y-57647377D01*
X74776057Y-58287141D02*
X74843401Y-58354485D01*
X74877073Y-58455500D01*
X74877073Y-58522843D01*
X74843401Y-58623859D01*
X74742386Y-58792217D01*
X74574027Y-58960577D01*
X74405668Y-59061592D01*
X74304653Y-59095263D01*
X74237309Y-59095263D01*
X74136294Y-59061592D01*
X74068950Y-58994248D01*
X74035278Y-58893232D01*
X74035278Y-58825889D01*
X74068950Y-58724874D01*
X74169965Y-58556515D01*
X74338325Y-58388156D01*
X74506683Y-58287141D01*
X74607698Y-58253469D01*
X74675042Y-58253469D01*
X74776057Y-58287141D01*
X104877381Y-27789286D02*
X103877381Y-27789286D01*
X103877381Y-27551191D01*
X103925000Y-27408333D01*
X104020238Y-27313095D01*
X104115476Y-27265476D01*
X104305952Y-27217857D01*
X104448810Y-27217857D01*
X104639286Y-27265476D01*
X104734524Y-27313095D01*
X104829762Y-27408333D01*
X104877381Y-27551191D01*
X104877381Y-27789286D01*
X104877381Y-26265476D02*
X104877381Y-26836905D01*
X104877381Y-26551191D02*
X103877381Y-26551191D01*
X104020238Y-26646429D01*
X104115476Y-26741667D01*
X104163095Y-26836905D01*
X104877381Y-25313095D02*
X104877381Y-25884524D01*
X104877381Y-25598810D02*
X103877381Y-25598810D01*
X104020238Y-25694048D01*
X104115476Y-25789286D01*
X104163095Y-25884524D01*
X59728571Y-82583333D02*
X59728571Y-82916667D01*
X60252381Y-82916667D02*
X59252381Y-82916667D01*
X59252381Y-82440476D01*
X60252381Y-81535714D02*
X60252381Y-82107143D01*
X60252381Y-81821429D02*
X59252381Y-81821429D01*
X59395238Y-81916667D01*
X59490476Y-82011905D01*
X59538095Y-82107143D01*
X62622381Y-22333333D02*
X63336667Y-22333333D01*
X63479524Y-22380953D01*
X63574762Y-22476191D01*
X63622381Y-22619048D01*
X63622381Y-22714286D01*
X63622381Y-21333333D02*
X63622381Y-21904762D01*
X63622381Y-21619048D02*
X62622381Y-21619048D01*
X62765238Y-21714286D01*
X62860476Y-21809524D01*
X62908095Y-21904762D01*
X34052381Y-34933333D02*
X34766667Y-34933333D01*
X34909524Y-34980953D01*
X35004762Y-35076191D01*
X35052381Y-35219048D01*
X35052381Y-35314286D01*
X34147619Y-34504762D02*
X34100000Y-34457143D01*
X34052381Y-34361905D01*
X34052381Y-34123809D01*
X34100000Y-34028571D01*
X34147619Y-33980952D01*
X34242857Y-33933333D01*
X34338095Y-33933333D01*
X34480952Y-33980952D01*
X35052381Y-34552381D01*
X35052381Y-33933333D01*
X55333334Y-39152381D02*
X54857143Y-39152381D01*
X54857143Y-38152381D01*
X56190477Y-39152381D02*
X55619048Y-39152381D01*
X55904762Y-39152381D02*
X55904762Y-38152381D01*
X55809524Y-38295238D01*
X55714286Y-38390476D01*
X55619048Y-38438095D01*
X94033334Y-78152381D02*
X93557143Y-78152381D01*
X93557143Y-77152381D01*
X94319048Y-77247619D02*
X94366667Y-77200000D01*
X94461905Y-77152381D01*
X94700001Y-77152381D01*
X94795239Y-77200000D01*
X94842858Y-77247619D01*
X94890477Y-77342857D01*
X94890477Y-77438095D01*
X94842858Y-77580952D01*
X94271429Y-78152381D01*
X94890477Y-78152381D01*
X58133334Y-35702381D02*
X57800000Y-35226190D01*
X57561905Y-35702381D02*
X57561905Y-34702381D01*
X57942858Y-34702381D01*
X58038096Y-34750000D01*
X58085715Y-34797619D01*
X58133334Y-34892857D01*
X58133334Y-35035714D01*
X58085715Y-35130952D01*
X58038096Y-35178571D01*
X57942858Y-35226190D01*
X57561905Y-35226190D01*
X59085715Y-35702381D02*
X58514286Y-35702381D01*
X58800000Y-35702381D02*
X58800000Y-34702381D01*
X58704762Y-34845238D01*
X58609524Y-34940476D01*
X58514286Y-34988095D01*
X62933334Y-28302381D02*
X62600000Y-27826190D01*
X62361905Y-28302381D02*
X62361905Y-27302381D01*
X62742858Y-27302381D01*
X62838096Y-27350000D01*
X62885715Y-27397619D01*
X62933334Y-27492857D01*
X62933334Y-27635714D01*
X62885715Y-27730952D01*
X62838096Y-27778571D01*
X62742858Y-27826190D01*
X62361905Y-27826190D01*
X63314286Y-27397619D02*
X63361905Y-27350000D01*
X63457143Y-27302381D01*
X63695239Y-27302381D01*
X63790477Y-27350000D01*
X63838096Y-27397619D01*
X63885715Y-27492857D01*
X63885715Y-27588095D01*
X63838096Y-27730952D01*
X63266667Y-28302381D01*
X63885715Y-28302381D01*
X59633334Y-33302381D02*
X59300000Y-32826190D01*
X59061905Y-33302381D02*
X59061905Y-32302381D01*
X59442858Y-32302381D01*
X59538096Y-32350000D01*
X59585715Y-32397619D01*
X59633334Y-32492857D01*
X59633334Y-32635714D01*
X59585715Y-32730952D01*
X59538096Y-32778571D01*
X59442858Y-32826190D01*
X59061905Y-32826190D01*
X60538096Y-32302381D02*
X60061905Y-32302381D01*
X60014286Y-32778571D01*
X60061905Y-32730952D01*
X60157143Y-32683333D01*
X60395239Y-32683333D01*
X60490477Y-32730952D01*
X60538096Y-32778571D01*
X60585715Y-32873810D01*
X60585715Y-33111905D01*
X60538096Y-33207143D01*
X60490477Y-33254762D01*
X60395239Y-33302381D01*
X60157143Y-33302381D01*
X60061905Y-33254762D01*
X60014286Y-33207143D01*
X65033334Y-25902381D02*
X64700000Y-25426190D01*
X64461905Y-25902381D02*
X64461905Y-24902381D01*
X64842858Y-24902381D01*
X64938096Y-24950000D01*
X64985715Y-24997619D01*
X65033334Y-25092857D01*
X65033334Y-25235714D01*
X64985715Y-25330952D01*
X64938096Y-25378571D01*
X64842858Y-25426190D01*
X64461905Y-25426190D01*
X65890477Y-24902381D02*
X65700000Y-24902381D01*
X65604762Y-24950000D01*
X65557143Y-24997619D01*
X65461905Y-25140476D01*
X65414286Y-25330952D01*
X65414286Y-25711905D01*
X65461905Y-25807143D01*
X65509524Y-25854762D01*
X65604762Y-25902381D01*
X65795239Y-25902381D01*
X65890477Y-25854762D01*
X65938096Y-25807143D01*
X65985715Y-25711905D01*
X65985715Y-25473810D01*
X65938096Y-25378571D01*
X65890477Y-25330952D01*
X65795239Y-25283333D01*
X65604762Y-25283333D01*
X65509524Y-25330952D01*
X65461905Y-25378571D01*
X65414286Y-25473810D01*
X61133334Y-30802381D02*
X60800000Y-30326190D01*
X60561905Y-30802381D02*
X60561905Y-29802381D01*
X60942858Y-29802381D01*
X61038096Y-29850000D01*
X61085715Y-29897619D01*
X61133334Y-29992857D01*
X61133334Y-30135714D01*
X61085715Y-30230952D01*
X61038096Y-30278571D01*
X60942858Y-30326190D01*
X60561905Y-30326190D01*
X61609524Y-30802381D02*
X61800000Y-30802381D01*
X61895239Y-30754762D01*
X61942858Y-30707143D01*
X62038096Y-30564286D01*
X62085715Y-30373810D01*
X62085715Y-29992857D01*
X62038096Y-29897619D01*
X61990477Y-29850000D01*
X61895239Y-29802381D01*
X61704762Y-29802381D01*
X61609524Y-29850000D01*
X61561905Y-29897619D01*
X61514286Y-29992857D01*
X61514286Y-30230952D01*
X61561905Y-30326190D01*
X61609524Y-30373810D01*
X61704762Y-30421429D01*
X61895239Y-30421429D01*
X61990477Y-30373810D01*
X62038096Y-30326190D01*
X62085715Y-30230952D01*
X66257143Y-23602381D02*
X65923809Y-23126190D01*
X65685714Y-23602381D02*
X65685714Y-22602381D01*
X66066667Y-22602381D01*
X66161905Y-22650000D01*
X66209524Y-22697619D01*
X66257143Y-22792857D01*
X66257143Y-22935714D01*
X66209524Y-23030952D01*
X66161905Y-23078571D01*
X66066667Y-23126190D01*
X65685714Y-23126190D01*
X67209524Y-23602381D02*
X66638095Y-23602381D01*
X66923809Y-23602381D02*
X66923809Y-22602381D01*
X66828571Y-22745238D01*
X66733333Y-22840476D01*
X66638095Y-22888095D01*
X67828571Y-22602381D02*
X67923810Y-22602381D01*
X68019048Y-22650000D01*
X68066667Y-22697619D01*
X68114286Y-22792857D01*
X68161905Y-22983333D01*
X68161905Y-23221429D01*
X68114286Y-23411905D01*
X68066667Y-23507143D01*
X68019048Y-23554762D01*
X67923810Y-23602381D01*
X67828571Y-23602381D01*
X67733333Y-23554762D01*
X67685714Y-23507143D01*
X67638095Y-23411905D01*
X67590476Y-23221429D01*
X67590476Y-22983333D01*
X67638095Y-22792857D01*
X67685714Y-22697619D01*
X67733333Y-22650000D01*
X67828571Y-22602381D01*
X89573461Y-47282598D02*
X89001041Y-47181583D01*
X89169400Y-47686660D02*
X88462293Y-46979553D01*
X88731667Y-46710178D01*
X88832683Y-46676507D01*
X88900026Y-46676507D01*
X89001041Y-46710178D01*
X89102056Y-46811193D01*
X89135728Y-46912209D01*
X89135728Y-46979552D01*
X89102056Y-47080567D01*
X88832682Y-47349942D01*
X90246896Y-46609163D02*
X89842835Y-47013224D01*
X90044865Y-46811194D02*
X89337758Y-46104087D01*
X89371430Y-46272446D01*
X89371430Y-46407133D01*
X89337758Y-46508148D01*
X90179553Y-45262293D02*
X89842835Y-45599011D01*
X90145880Y-45969400D01*
X90145880Y-45902056D01*
X90179552Y-45801041D01*
X90347911Y-45632682D01*
X90448926Y-45599010D01*
X90516270Y-45599010D01*
X90617286Y-45632683D01*
X90785644Y-45801041D01*
X90819316Y-45902056D01*
X90819316Y-45969400D01*
X90785644Y-46070415D01*
X90617285Y-46238774D01*
X90516270Y-46272446D01*
X90448926Y-46272446D01*
X64257143Y-46702381D02*
X63923809Y-46226190D01*
X63685714Y-46702381D02*
X63685714Y-45702381D01*
X64066667Y-45702381D01*
X64161905Y-45750000D01*
X64209524Y-45797619D01*
X64257143Y-45892857D01*
X64257143Y-46035714D01*
X64209524Y-46130952D01*
X64161905Y-46178571D01*
X64066667Y-46226190D01*
X63685714Y-46226190D01*
X65209524Y-46702381D02*
X64638095Y-46702381D01*
X64923809Y-46702381D02*
X64923809Y-45702381D01*
X64828571Y-45845238D01*
X64733333Y-45940476D01*
X64638095Y-45988095D01*
X66066667Y-45702381D02*
X65876190Y-45702381D01*
X65780952Y-45750000D01*
X65733333Y-45797619D01*
X65638095Y-45940476D01*
X65590476Y-46130952D01*
X65590476Y-46511905D01*
X65638095Y-46607143D01*
X65685714Y-46654762D01*
X65780952Y-46702381D01*
X65971429Y-46702381D01*
X66066667Y-46654762D01*
X66114286Y-46607143D01*
X66161905Y-46511905D01*
X66161905Y-46273810D01*
X66114286Y-46178571D01*
X66066667Y-46130952D01*
X65971429Y-46083333D01*
X65780952Y-46083333D01*
X65685714Y-46130952D01*
X65638095Y-46178571D01*
X65590476Y-46273810D01*
X44557143Y-37802381D02*
X44223809Y-37326190D01*
X43985714Y-37802381D02*
X43985714Y-36802381D01*
X44366667Y-36802381D01*
X44461905Y-36850000D01*
X44509524Y-36897619D01*
X44557143Y-36992857D01*
X44557143Y-37135714D01*
X44509524Y-37230952D01*
X44461905Y-37278571D01*
X44366667Y-37326190D01*
X43985714Y-37326190D01*
X45509524Y-37802381D02*
X44938095Y-37802381D01*
X45223809Y-37802381D02*
X45223809Y-36802381D01*
X45128571Y-36945238D01*
X45033333Y-37040476D01*
X44938095Y-37088095D01*
X45842857Y-36802381D02*
X46509524Y-36802381D01*
X46080952Y-37802381D01*
X44557143Y-35402381D02*
X44223809Y-34926190D01*
X43985714Y-35402381D02*
X43985714Y-34402381D01*
X44366667Y-34402381D01*
X44461905Y-34450000D01*
X44509524Y-34497619D01*
X44557143Y-34592857D01*
X44557143Y-34735714D01*
X44509524Y-34830952D01*
X44461905Y-34878571D01*
X44366667Y-34926190D01*
X43985714Y-34926190D01*
X45509524Y-35402381D02*
X44938095Y-35402381D01*
X45223809Y-35402381D02*
X45223809Y-34402381D01*
X45128571Y-34545238D01*
X45033333Y-34640476D01*
X44938095Y-34688095D01*
X45985714Y-35402381D02*
X46176190Y-35402381D01*
X46271429Y-35354762D01*
X46319048Y-35307143D01*
X46414286Y-35164286D01*
X46461905Y-34973810D01*
X46461905Y-34592857D01*
X46414286Y-34497619D01*
X46366667Y-34450000D01*
X46271429Y-34402381D01*
X46080952Y-34402381D01*
X45985714Y-34450000D01*
X45938095Y-34497619D01*
X45890476Y-34592857D01*
X45890476Y-34830952D01*
X45938095Y-34926190D01*
X45985714Y-34973810D01*
X46080952Y-35021429D01*
X46271429Y-35021429D01*
X46366667Y-34973810D01*
X46414286Y-34926190D01*
X46461905Y-34830952D01*
X44557143Y-33102381D02*
X44223809Y-32626190D01*
X43985714Y-33102381D02*
X43985714Y-32102381D01*
X44366667Y-32102381D01*
X44461905Y-32150000D01*
X44509524Y-32197619D01*
X44557143Y-32292857D01*
X44557143Y-32435714D01*
X44509524Y-32530952D01*
X44461905Y-32578571D01*
X44366667Y-32626190D01*
X43985714Y-32626190D01*
X44938095Y-32197619D02*
X44985714Y-32150000D01*
X45080952Y-32102381D01*
X45319048Y-32102381D01*
X45414286Y-32150000D01*
X45461905Y-32197619D01*
X45509524Y-32292857D01*
X45509524Y-32388095D01*
X45461905Y-32530952D01*
X44890476Y-33102381D01*
X45509524Y-33102381D01*
X46461905Y-33102381D02*
X45890476Y-33102381D01*
X46176190Y-33102381D02*
X46176190Y-32102381D01*
X46080952Y-32245238D01*
X45985714Y-32340476D01*
X45890476Y-32388095D01*
X44557143Y-30802381D02*
X44223809Y-30326190D01*
X43985714Y-30802381D02*
X43985714Y-29802381D01*
X44366667Y-29802381D01*
X44461905Y-29850000D01*
X44509524Y-29897619D01*
X44557143Y-29992857D01*
X44557143Y-30135714D01*
X44509524Y-30230952D01*
X44461905Y-30278571D01*
X44366667Y-30326190D01*
X43985714Y-30326190D01*
X44938095Y-29897619D02*
X44985714Y-29850000D01*
X45080952Y-29802381D01*
X45319048Y-29802381D01*
X45414286Y-29850000D01*
X45461905Y-29897619D01*
X45509524Y-29992857D01*
X45509524Y-30088095D01*
X45461905Y-30230952D01*
X44890476Y-30802381D01*
X45509524Y-30802381D01*
X45842857Y-29802381D02*
X46461905Y-29802381D01*
X46128571Y-30183333D01*
X46271429Y-30183333D01*
X46366667Y-30230952D01*
X46414286Y-30278571D01*
X46461905Y-30373810D01*
X46461905Y-30611905D01*
X46414286Y-30707143D01*
X46366667Y-30754762D01*
X46271429Y-30802381D01*
X45985714Y-30802381D01*
X45890476Y-30754762D01*
X45842857Y-30707143D01*
X44557143Y-28402381D02*
X44223809Y-27926190D01*
X43985714Y-28402381D02*
X43985714Y-27402381D01*
X44366667Y-27402381D01*
X44461905Y-27450000D01*
X44509524Y-27497619D01*
X44557143Y-27592857D01*
X44557143Y-27735714D01*
X44509524Y-27830952D01*
X44461905Y-27878571D01*
X44366667Y-27926190D01*
X43985714Y-27926190D01*
X44938095Y-27497619D02*
X44985714Y-27450000D01*
X45080952Y-27402381D01*
X45319048Y-27402381D01*
X45414286Y-27450000D01*
X45461905Y-27497619D01*
X45509524Y-27592857D01*
X45509524Y-27688095D01*
X45461905Y-27830952D01*
X44890476Y-28402381D01*
X45509524Y-28402381D01*
X46414286Y-27402381D02*
X45938095Y-27402381D01*
X45890476Y-27878571D01*
X45938095Y-27830952D01*
X46033333Y-27783333D01*
X46271429Y-27783333D01*
X46366667Y-27830952D01*
X46414286Y-27878571D01*
X46461905Y-27973810D01*
X46461905Y-28211905D01*
X46414286Y-28307143D01*
X46366667Y-28354762D01*
X46271429Y-28402381D01*
X46033333Y-28402381D01*
X45938095Y-28354762D01*
X45890476Y-28307143D01*
X97557143Y-39702381D02*
X97223809Y-39226190D01*
X96985714Y-39702381D02*
X96985714Y-38702381D01*
X97366667Y-38702381D01*
X97461905Y-38750000D01*
X97509524Y-38797619D01*
X97557143Y-38892857D01*
X97557143Y-39035714D01*
X97509524Y-39130952D01*
X97461905Y-39178571D01*
X97366667Y-39226190D01*
X96985714Y-39226190D01*
X97938095Y-38797619D02*
X97985714Y-38750000D01*
X98080952Y-38702381D01*
X98319048Y-38702381D01*
X98414286Y-38750000D01*
X98461905Y-38797619D01*
X98509524Y-38892857D01*
X98509524Y-38988095D01*
X98461905Y-39130952D01*
X97890476Y-39702381D01*
X98509524Y-39702381D01*
X98842857Y-38702381D02*
X99509524Y-38702381D01*
X99080952Y-39702381D01*
X71417402Y-59423461D02*
X71518417Y-58851041D01*
X71013340Y-59019400D02*
X71720447Y-58312293D01*
X71989822Y-58581667D01*
X72023493Y-58682683D01*
X72023493Y-58750026D01*
X71989822Y-58851041D01*
X71888807Y-58952056D01*
X71787791Y-58985728D01*
X71720448Y-58985728D01*
X71619433Y-58952056D01*
X71350058Y-58682682D01*
X72326539Y-59053072D02*
X72393882Y-59053072D01*
X72494897Y-59086743D01*
X72663257Y-59255103D01*
X72696928Y-59356118D01*
X72696928Y-59423461D01*
X72663257Y-59524476D01*
X72595913Y-59591820D01*
X72461226Y-59659163D01*
X71653104Y-59659163D01*
X72090837Y-60096896D01*
X72898959Y-60096895D02*
X72865287Y-59995880D01*
X72865287Y-59928537D01*
X72898959Y-59827522D01*
X72932630Y-59793850D01*
X73033646Y-59760178D01*
X73100989Y-59760178D01*
X73202004Y-59793850D01*
X73336692Y-59928538D01*
X73370364Y-60029553D01*
X73370364Y-60096896D01*
X73336692Y-60197911D01*
X73303020Y-60231583D01*
X73202005Y-60265255D01*
X73134662Y-60265255D01*
X73033646Y-60231583D01*
X72898959Y-60096895D01*
X72797944Y-60063224D01*
X72730600Y-60063224D01*
X72629584Y-60096896D01*
X72494897Y-60231583D01*
X72461226Y-60332598D01*
X72461226Y-60399942D01*
X72494897Y-60500957D01*
X72629585Y-60635644D01*
X72730600Y-60669316D01*
X72797944Y-60669316D01*
X72898959Y-60635644D01*
X73033646Y-60500958D01*
X73067318Y-60399942D01*
X73067318Y-60332598D01*
X73033646Y-60231583D01*
X101032143Y-20677381D02*
X100698809Y-20201190D01*
X100460714Y-20677381D02*
X100460714Y-19677381D01*
X100841667Y-19677381D01*
X100936905Y-19725000D01*
X100984524Y-19772619D01*
X101032143Y-19867857D01*
X101032143Y-20010714D01*
X100984524Y-20105952D01*
X100936905Y-20153571D01*
X100841667Y-20201190D01*
X100460714Y-20201190D01*
X101413095Y-19772619D02*
X101460714Y-19725000D01*
X101555952Y-19677381D01*
X101794048Y-19677381D01*
X101889286Y-19725000D01*
X101936905Y-19772619D01*
X101984524Y-19867857D01*
X101984524Y-19963095D01*
X101936905Y-20105952D01*
X101365476Y-20677381D01*
X101984524Y-20677381D01*
X102460714Y-20677381D02*
X102651190Y-20677381D01*
X102746429Y-20629762D01*
X102794048Y-20582143D01*
X102889286Y-20439286D01*
X102936905Y-20248810D01*
X102936905Y-19867857D01*
X102889286Y-19772619D01*
X102841667Y-19725000D01*
X102746429Y-19677381D01*
X102555952Y-19677381D01*
X102460714Y-19725000D01*
X102413095Y-19772619D01*
X102365476Y-19867857D01*
X102365476Y-20105952D01*
X102413095Y-20201190D01*
X102460714Y-20248810D01*
X102555952Y-20296429D01*
X102746429Y-20296429D01*
X102841667Y-20248810D01*
X102889286Y-20201190D01*
X102936905Y-20105952D01*
X68891868Y-34969364D02*
X69464288Y-35541784D01*
X69565303Y-35575456D01*
X69632646Y-35575456D01*
X69733661Y-35541784D01*
X69868349Y-35407096D01*
X69902021Y-35306081D01*
X69902021Y-35238738D01*
X69868349Y-35137723D01*
X69295929Y-34565303D01*
X70710143Y-34565303D02*
X70306081Y-34969364D01*
X70508112Y-34767334D02*
X69801005Y-34060227D01*
X69834677Y-34228586D01*
X69834677Y-34363272D01*
X69801005Y-34464288D01*
X76188095Y-81552381D02*
X76188095Y-82361905D01*
X76235714Y-82457143D01*
X76283333Y-82504762D01*
X76378571Y-82552381D01*
X76569048Y-82552381D01*
X76664286Y-82504762D01*
X76711905Y-82457143D01*
X76759524Y-82361905D01*
X76759524Y-81552381D01*
X77188095Y-81647619D02*
X77235714Y-81600000D01*
X77330952Y-81552381D01*
X77569048Y-81552381D01*
X77664286Y-81600000D01*
X77711905Y-81647619D01*
X77759524Y-81742857D01*
X77759524Y-81838095D01*
X77711905Y-81980952D01*
X77140476Y-82552381D01*
X77759524Y-82552381D01*
X97238095Y-37452381D02*
X97238095Y-38261905D01*
X97285714Y-38357143D01*
X97333333Y-38404762D01*
X97428571Y-38452381D01*
X97619048Y-38452381D01*
X97714286Y-38404762D01*
X97761905Y-38357143D01*
X97809524Y-38261905D01*
X97809524Y-37452381D01*
X98190476Y-37452381D02*
X98809524Y-37452381D01*
X98476190Y-37833333D01*
X98619048Y-37833333D01*
X98714286Y-37880952D01*
X98761905Y-37928571D01*
X98809524Y-38023810D01*
X98809524Y-38261905D01*
X98761905Y-38357143D01*
X98714286Y-38404762D01*
X98619048Y-38452381D01*
X98333333Y-38452381D01*
X98238095Y-38404762D01*
X98190476Y-38357143D01*
X89156675Y-56330111D02*
X89493393Y-56666829D01*
X88550584Y-56195424D02*
X89156675Y-56330111D01*
X89021989Y-55724019D01*
X90335187Y-55825034D02*
X89931126Y-56229096D01*
X90133156Y-56027065D02*
X89426049Y-55319958D01*
X89459721Y-55488317D01*
X89459721Y-55623004D01*
X89426049Y-55724019D01*
M02*
