G04 #@! TF.FileFunction,Legend,Bot*
%FSLAX46Y46*%
G04 Gerber Fmt 4.6, Leading zero omitted, Abs format (unit mm)*
G04 Created by KiCad (PCBNEW 4.0.7) date 06/18/18 23:10:01*
%MOMM*%
%LPD*%
G01*
G04 APERTURE LIST*
%ADD10C,0.100000*%
%ADD11C,0.120000*%
%ADD12C,0.150000*%
G04 APERTURE END LIST*
D10*
D11*
X81860000Y-40620000D02*
X81860000Y-41550000D01*
X81860000Y-43780000D02*
X81860000Y-42850000D01*
X81860000Y-43780000D02*
X79700000Y-43780000D01*
X81860000Y-40620000D02*
X80400000Y-40620000D01*
X73740000Y-47380000D02*
X73740000Y-46450000D01*
X73740000Y-44220000D02*
X73740000Y-45150000D01*
X73740000Y-44220000D02*
X75900000Y-44220000D01*
X73740000Y-47380000D02*
X75200000Y-47380000D01*
X46400000Y-57430000D02*
X44400000Y-57430000D01*
X44400000Y-59570000D02*
X46400000Y-59570000D01*
X46400000Y-46330000D02*
X44400000Y-46330000D01*
X44400000Y-48470000D02*
X46400000Y-48470000D01*
X46400000Y-53730000D02*
X44400000Y-53730000D01*
X44400000Y-55870000D02*
X46400000Y-55870000D01*
X46400000Y-42630000D02*
X44400000Y-42630000D01*
X44400000Y-44770000D02*
X46400000Y-44770000D01*
X46300000Y-50030000D02*
X44300000Y-50030000D01*
X44300000Y-52170000D02*
X46300000Y-52170000D01*
X46125000Y-38905000D02*
X44125000Y-38905000D01*
X44125000Y-41045000D02*
X46125000Y-41045000D01*
X63100000Y-41370000D02*
X65100000Y-41370000D01*
X65100000Y-39230000D02*
X63100000Y-39230000D01*
X63000000Y-44070000D02*
X65000000Y-44070000D01*
X65000000Y-41930000D02*
X63000000Y-41930000D01*
X46200000Y-34430000D02*
X44200000Y-34430000D01*
X44200000Y-36570000D02*
X46200000Y-36570000D01*
X46200000Y-32030000D02*
X44200000Y-32030000D01*
X44200000Y-34170000D02*
X46200000Y-34170000D01*
X46200000Y-29730000D02*
X44200000Y-29730000D01*
X44200000Y-31870000D02*
X46200000Y-31870000D01*
X46200000Y-27430000D02*
X44200000Y-27430000D01*
X44200000Y-29570000D02*
X46200000Y-29570000D01*
X46200000Y-25030000D02*
X44200000Y-25030000D01*
X44200000Y-27170000D02*
X46200000Y-27170000D01*
D12*
X81195238Y-45247619D02*
X81290476Y-45200000D01*
X81385714Y-45104762D01*
X81528571Y-44961905D01*
X81623810Y-44914286D01*
X81719048Y-44914286D01*
X81671429Y-45152381D02*
X81766667Y-45104762D01*
X81861905Y-45009524D01*
X81909524Y-44819048D01*
X81909524Y-44485714D01*
X81861905Y-44295238D01*
X81766667Y-44200000D01*
X81671429Y-44152381D01*
X81480952Y-44152381D01*
X81385714Y-44200000D01*
X81290476Y-44295238D01*
X81242857Y-44485714D01*
X81242857Y-44819048D01*
X81290476Y-45009524D01*
X81385714Y-45104762D01*
X81480952Y-45152381D01*
X81671429Y-45152381D01*
X80290476Y-45152381D02*
X80861905Y-45152381D01*
X80576191Y-45152381D02*
X80576191Y-44152381D01*
X80671429Y-44295238D01*
X80766667Y-44390476D01*
X80861905Y-44438095D01*
X74595238Y-43847619D02*
X74690476Y-43800000D01*
X74785714Y-43704762D01*
X74928571Y-43561905D01*
X75023810Y-43514286D01*
X75119048Y-43514286D01*
X75071429Y-43752381D02*
X75166667Y-43704762D01*
X75261905Y-43609524D01*
X75309524Y-43419048D01*
X75309524Y-43085714D01*
X75261905Y-42895238D01*
X75166667Y-42800000D01*
X75071429Y-42752381D01*
X74880952Y-42752381D01*
X74785714Y-42800000D01*
X74690476Y-42895238D01*
X74642857Y-43085714D01*
X74642857Y-43419048D01*
X74690476Y-43609524D01*
X74785714Y-43704762D01*
X74880952Y-43752381D01*
X75071429Y-43752381D01*
X74261905Y-42847619D02*
X74214286Y-42800000D01*
X74119048Y-42752381D01*
X73880952Y-42752381D01*
X73785714Y-42800000D01*
X73738095Y-42847619D01*
X73690476Y-42942857D01*
X73690476Y-43038095D01*
X73738095Y-43180952D01*
X74309524Y-43752381D01*
X73690476Y-43752381D01*
X45566666Y-60802381D02*
X45900000Y-60326190D01*
X46138095Y-60802381D02*
X46138095Y-59802381D01*
X45757142Y-59802381D01*
X45661904Y-59850000D01*
X45614285Y-59897619D01*
X45566666Y-59992857D01*
X45566666Y-60135714D01*
X45614285Y-60230952D01*
X45661904Y-60278571D01*
X45757142Y-60326190D01*
X46138095Y-60326190D01*
X45233333Y-59802381D02*
X44614285Y-59802381D01*
X44947619Y-60183333D01*
X44804761Y-60183333D01*
X44709523Y-60230952D01*
X44661904Y-60278571D01*
X44614285Y-60373810D01*
X44614285Y-60611905D01*
X44661904Y-60707143D01*
X44709523Y-60754762D01*
X44804761Y-60802381D01*
X45090476Y-60802381D01*
X45185714Y-60754762D01*
X45233333Y-60707143D01*
X45566666Y-49702381D02*
X45900000Y-49226190D01*
X46138095Y-49702381D02*
X46138095Y-48702381D01*
X45757142Y-48702381D01*
X45661904Y-48750000D01*
X45614285Y-48797619D01*
X45566666Y-48892857D01*
X45566666Y-49035714D01*
X45614285Y-49130952D01*
X45661904Y-49178571D01*
X45757142Y-49226190D01*
X46138095Y-49226190D01*
X44709523Y-49035714D02*
X44709523Y-49702381D01*
X44947619Y-48654762D02*
X45185714Y-49369048D01*
X44566666Y-49369048D01*
X45566666Y-57102381D02*
X45900000Y-56626190D01*
X46138095Y-57102381D02*
X46138095Y-56102381D01*
X45757142Y-56102381D01*
X45661904Y-56150000D01*
X45614285Y-56197619D01*
X45566666Y-56292857D01*
X45566666Y-56435714D01*
X45614285Y-56530952D01*
X45661904Y-56578571D01*
X45757142Y-56626190D01*
X46138095Y-56626190D01*
X45233333Y-56102381D02*
X44566666Y-56102381D01*
X44995238Y-57102381D01*
X45566666Y-46002381D02*
X45900000Y-45526190D01*
X46138095Y-46002381D02*
X46138095Y-45002381D01*
X45757142Y-45002381D01*
X45661904Y-45050000D01*
X45614285Y-45097619D01*
X45566666Y-45192857D01*
X45566666Y-45335714D01*
X45614285Y-45430952D01*
X45661904Y-45478571D01*
X45757142Y-45526190D01*
X46138095Y-45526190D01*
X44995238Y-45430952D02*
X45090476Y-45383333D01*
X45138095Y-45335714D01*
X45185714Y-45240476D01*
X45185714Y-45192857D01*
X45138095Y-45097619D01*
X45090476Y-45050000D01*
X44995238Y-45002381D01*
X44804761Y-45002381D01*
X44709523Y-45050000D01*
X44661904Y-45097619D01*
X44614285Y-45192857D01*
X44614285Y-45240476D01*
X44661904Y-45335714D01*
X44709523Y-45383333D01*
X44804761Y-45430952D01*
X44995238Y-45430952D01*
X45090476Y-45478571D01*
X45138095Y-45526190D01*
X45185714Y-45621429D01*
X45185714Y-45811905D01*
X45138095Y-45907143D01*
X45090476Y-45954762D01*
X44995238Y-46002381D01*
X44804761Y-46002381D01*
X44709523Y-45954762D01*
X44661904Y-45907143D01*
X44614285Y-45811905D01*
X44614285Y-45621429D01*
X44661904Y-45526190D01*
X44709523Y-45478571D01*
X44804761Y-45430952D01*
X45942857Y-53402381D02*
X46276191Y-52926190D01*
X46514286Y-53402381D02*
X46514286Y-52402381D01*
X46133333Y-52402381D01*
X46038095Y-52450000D01*
X45990476Y-52497619D01*
X45942857Y-52592857D01*
X45942857Y-52735714D01*
X45990476Y-52830952D01*
X46038095Y-52878571D01*
X46133333Y-52926190D01*
X46514286Y-52926190D01*
X44990476Y-53402381D02*
X45561905Y-53402381D01*
X45276191Y-53402381D02*
X45276191Y-52402381D01*
X45371429Y-52545238D01*
X45466667Y-52640476D01*
X45561905Y-52688095D01*
X44038095Y-53402381D02*
X44609524Y-53402381D01*
X44323810Y-53402381D02*
X44323810Y-52402381D01*
X44419048Y-52545238D01*
X44514286Y-52640476D01*
X44609524Y-52688095D01*
X45767857Y-42277381D02*
X46101191Y-41801190D01*
X46339286Y-42277381D02*
X46339286Y-41277381D01*
X45958333Y-41277381D01*
X45863095Y-41325000D01*
X45815476Y-41372619D01*
X45767857Y-41467857D01*
X45767857Y-41610714D01*
X45815476Y-41705952D01*
X45863095Y-41753571D01*
X45958333Y-41801190D01*
X46339286Y-41801190D01*
X44815476Y-42277381D02*
X45386905Y-42277381D01*
X45101191Y-42277381D02*
X45101191Y-41277381D01*
X45196429Y-41420238D01*
X45291667Y-41515476D01*
X45386905Y-41563095D01*
X44434524Y-41372619D02*
X44386905Y-41325000D01*
X44291667Y-41277381D01*
X44053571Y-41277381D01*
X43958333Y-41325000D01*
X43910714Y-41372619D01*
X43863095Y-41467857D01*
X43863095Y-41563095D01*
X43910714Y-41705952D01*
X44482143Y-42277381D01*
X43863095Y-42277381D01*
X64742857Y-38902381D02*
X65076191Y-38426190D01*
X65314286Y-38902381D02*
X65314286Y-37902381D01*
X64933333Y-37902381D01*
X64838095Y-37950000D01*
X64790476Y-37997619D01*
X64742857Y-38092857D01*
X64742857Y-38235714D01*
X64790476Y-38330952D01*
X64838095Y-38378571D01*
X64933333Y-38426190D01*
X65314286Y-38426190D01*
X63790476Y-38902381D02*
X64361905Y-38902381D01*
X64076191Y-38902381D02*
X64076191Y-37902381D01*
X64171429Y-38045238D01*
X64266667Y-38140476D01*
X64361905Y-38188095D01*
X63457143Y-37902381D02*
X62838095Y-37902381D01*
X63171429Y-38283333D01*
X63028571Y-38283333D01*
X62933333Y-38330952D01*
X62885714Y-38378571D01*
X62838095Y-38473810D01*
X62838095Y-38711905D01*
X62885714Y-38807143D01*
X62933333Y-38854762D01*
X63028571Y-38902381D01*
X63314286Y-38902381D01*
X63409524Y-38854762D01*
X63457143Y-38807143D01*
X64642857Y-41602381D02*
X64976191Y-41126190D01*
X65214286Y-41602381D02*
X65214286Y-40602381D01*
X64833333Y-40602381D01*
X64738095Y-40650000D01*
X64690476Y-40697619D01*
X64642857Y-40792857D01*
X64642857Y-40935714D01*
X64690476Y-41030952D01*
X64738095Y-41078571D01*
X64833333Y-41126190D01*
X65214286Y-41126190D01*
X63690476Y-41602381D02*
X64261905Y-41602381D01*
X63976191Y-41602381D02*
X63976191Y-40602381D01*
X64071429Y-40745238D01*
X64166667Y-40840476D01*
X64261905Y-40888095D01*
X62833333Y-40935714D02*
X62833333Y-41602381D01*
X63071429Y-40554762D02*
X63309524Y-41269048D01*
X62690476Y-41269048D01*
X45842857Y-37802381D02*
X46176191Y-37326190D01*
X46414286Y-37802381D02*
X46414286Y-36802381D01*
X46033333Y-36802381D01*
X45938095Y-36850000D01*
X45890476Y-36897619D01*
X45842857Y-36992857D01*
X45842857Y-37135714D01*
X45890476Y-37230952D01*
X45938095Y-37278571D01*
X46033333Y-37326190D01*
X46414286Y-37326190D01*
X44890476Y-37802381D02*
X45461905Y-37802381D01*
X45176191Y-37802381D02*
X45176191Y-36802381D01*
X45271429Y-36945238D01*
X45366667Y-37040476D01*
X45461905Y-37088095D01*
X44319048Y-37230952D02*
X44414286Y-37183333D01*
X44461905Y-37135714D01*
X44509524Y-37040476D01*
X44509524Y-36992857D01*
X44461905Y-36897619D01*
X44414286Y-36850000D01*
X44319048Y-36802381D01*
X44128571Y-36802381D01*
X44033333Y-36850000D01*
X43985714Y-36897619D01*
X43938095Y-36992857D01*
X43938095Y-37040476D01*
X43985714Y-37135714D01*
X44033333Y-37183333D01*
X44128571Y-37230952D01*
X44319048Y-37230952D01*
X44414286Y-37278571D01*
X44461905Y-37326190D01*
X44509524Y-37421429D01*
X44509524Y-37611905D01*
X44461905Y-37707143D01*
X44414286Y-37754762D01*
X44319048Y-37802381D01*
X44128571Y-37802381D01*
X44033333Y-37754762D01*
X43985714Y-37707143D01*
X43938095Y-37611905D01*
X43938095Y-37421429D01*
X43985714Y-37326190D01*
X44033333Y-37278571D01*
X44128571Y-37230952D01*
X45842857Y-35402381D02*
X46176191Y-34926190D01*
X46414286Y-35402381D02*
X46414286Y-34402381D01*
X46033333Y-34402381D01*
X45938095Y-34450000D01*
X45890476Y-34497619D01*
X45842857Y-34592857D01*
X45842857Y-34735714D01*
X45890476Y-34830952D01*
X45938095Y-34878571D01*
X46033333Y-34926190D01*
X46414286Y-34926190D01*
X45461905Y-34497619D02*
X45414286Y-34450000D01*
X45319048Y-34402381D01*
X45080952Y-34402381D01*
X44985714Y-34450000D01*
X44938095Y-34497619D01*
X44890476Y-34592857D01*
X44890476Y-34688095D01*
X44938095Y-34830952D01*
X45509524Y-35402381D01*
X44890476Y-35402381D01*
X44271429Y-34402381D02*
X44176190Y-34402381D01*
X44080952Y-34450000D01*
X44033333Y-34497619D01*
X43985714Y-34592857D01*
X43938095Y-34783333D01*
X43938095Y-35021429D01*
X43985714Y-35211905D01*
X44033333Y-35307143D01*
X44080952Y-35354762D01*
X44176190Y-35402381D01*
X44271429Y-35402381D01*
X44366667Y-35354762D01*
X44414286Y-35307143D01*
X44461905Y-35211905D01*
X44509524Y-35021429D01*
X44509524Y-34783333D01*
X44461905Y-34592857D01*
X44414286Y-34497619D01*
X44366667Y-34450000D01*
X44271429Y-34402381D01*
X45842857Y-33102381D02*
X46176191Y-32626190D01*
X46414286Y-33102381D02*
X46414286Y-32102381D01*
X46033333Y-32102381D01*
X45938095Y-32150000D01*
X45890476Y-32197619D01*
X45842857Y-32292857D01*
X45842857Y-32435714D01*
X45890476Y-32530952D01*
X45938095Y-32578571D01*
X46033333Y-32626190D01*
X46414286Y-32626190D01*
X45461905Y-32197619D02*
X45414286Y-32150000D01*
X45319048Y-32102381D01*
X45080952Y-32102381D01*
X44985714Y-32150000D01*
X44938095Y-32197619D01*
X44890476Y-32292857D01*
X44890476Y-32388095D01*
X44938095Y-32530952D01*
X45509524Y-33102381D01*
X44890476Y-33102381D01*
X44509524Y-32197619D02*
X44461905Y-32150000D01*
X44366667Y-32102381D01*
X44128571Y-32102381D01*
X44033333Y-32150000D01*
X43985714Y-32197619D01*
X43938095Y-32292857D01*
X43938095Y-32388095D01*
X43985714Y-32530952D01*
X44557143Y-33102381D01*
X43938095Y-33102381D01*
X45842857Y-30802381D02*
X46176191Y-30326190D01*
X46414286Y-30802381D02*
X46414286Y-29802381D01*
X46033333Y-29802381D01*
X45938095Y-29850000D01*
X45890476Y-29897619D01*
X45842857Y-29992857D01*
X45842857Y-30135714D01*
X45890476Y-30230952D01*
X45938095Y-30278571D01*
X46033333Y-30326190D01*
X46414286Y-30326190D01*
X45461905Y-29897619D02*
X45414286Y-29850000D01*
X45319048Y-29802381D01*
X45080952Y-29802381D01*
X44985714Y-29850000D01*
X44938095Y-29897619D01*
X44890476Y-29992857D01*
X44890476Y-30088095D01*
X44938095Y-30230952D01*
X45509524Y-30802381D01*
X44890476Y-30802381D01*
X44033333Y-30135714D02*
X44033333Y-30802381D01*
X44271429Y-29754762D02*
X44509524Y-30469048D01*
X43890476Y-30469048D01*
X45842857Y-28402381D02*
X46176191Y-27926190D01*
X46414286Y-28402381D02*
X46414286Y-27402381D01*
X46033333Y-27402381D01*
X45938095Y-27450000D01*
X45890476Y-27497619D01*
X45842857Y-27592857D01*
X45842857Y-27735714D01*
X45890476Y-27830952D01*
X45938095Y-27878571D01*
X46033333Y-27926190D01*
X46414286Y-27926190D01*
X45461905Y-27497619D02*
X45414286Y-27450000D01*
X45319048Y-27402381D01*
X45080952Y-27402381D01*
X44985714Y-27450000D01*
X44938095Y-27497619D01*
X44890476Y-27592857D01*
X44890476Y-27688095D01*
X44938095Y-27830952D01*
X45509524Y-28402381D01*
X44890476Y-28402381D01*
X44033333Y-27402381D02*
X44223810Y-27402381D01*
X44319048Y-27450000D01*
X44366667Y-27497619D01*
X44461905Y-27640476D01*
X44509524Y-27830952D01*
X44509524Y-28211905D01*
X44461905Y-28307143D01*
X44414286Y-28354762D01*
X44319048Y-28402381D01*
X44128571Y-28402381D01*
X44033333Y-28354762D01*
X43985714Y-28307143D01*
X43938095Y-28211905D01*
X43938095Y-27973810D01*
X43985714Y-27878571D01*
X44033333Y-27830952D01*
X44128571Y-27783333D01*
X44319048Y-27783333D01*
X44414286Y-27830952D01*
X44461905Y-27878571D01*
X44509524Y-27973810D01*
M02*
