G04 #@! TF.FileFunction,Soldermask,Bot*
%FSLAX46Y46*%
G04 Gerber Fmt 4.6, Leading zero omitted, Abs format (unit mm)*
G04 Created by KiCad (PCBNEW 4.0.7) date 06/18/18 23:10:01*
%MOMM*%
%LPD*%
G01*
G04 APERTURE LIST*
%ADD10C,0.100000*%
%ADD11C,2.100000*%
%ADD12R,2.100000X2.100000*%
%ADD13O,2.100000X2.100000*%
%ADD14C,1.900000*%
%ADD15R,1.300000X1.200000*%
%ADD16R,2.400000X2.100000*%
G04 APERTURE END LIST*
D10*
G36*
X66500000Y-61234924D02*
X65015076Y-59750000D01*
X66500000Y-58265076D01*
X67984924Y-59750000D01*
X66500000Y-61234924D01*
X66500000Y-61234924D01*
G37*
D11*
X68296051Y-57953949D02*
X68296051Y-57953949D01*
X68296051Y-61546051D02*
X68296051Y-61546051D01*
X70092102Y-59750000D02*
X70092102Y-59750000D01*
X70092102Y-63342102D02*
X70092102Y-63342102D01*
X71888154Y-61546051D02*
X71888154Y-61546051D01*
D12*
X65500000Y-22000000D03*
D13*
X68040000Y-22000000D03*
X70580000Y-22000000D03*
X73120000Y-22000000D03*
X75660000Y-22000000D03*
X78200000Y-22000000D03*
X80740000Y-22000000D03*
X83280000Y-22000000D03*
X85820000Y-22000000D03*
X88360000Y-22000000D03*
D14*
X20500000Y-66180000D03*
X20500000Y-62030000D03*
X20500000Y-58700000D03*
X20500000Y-55370000D03*
X20500000Y-52040000D03*
X20500000Y-48710000D03*
X20500000Y-45380000D03*
X24700000Y-62030000D03*
X24700000Y-58700000D03*
X24700000Y-55370000D03*
X24700000Y-52040000D03*
X24700000Y-48710000D03*
X24700000Y-45380000D03*
X28900000Y-62030000D03*
X28900000Y-58700000D03*
X28900000Y-55370000D03*
X28900000Y-52040000D03*
X28900000Y-48710000D03*
X28900000Y-45380000D03*
X20500000Y-41230000D03*
X24700000Y-66180000D03*
X24700000Y-41230000D03*
X28900000Y-66180000D03*
X28900000Y-41230000D03*
D15*
X80100000Y-43150000D03*
X80100000Y-41250000D03*
X82100000Y-42200000D03*
X75500000Y-44850000D03*
X75500000Y-46750000D03*
X73500000Y-45800000D03*
D16*
X43400000Y-58500000D03*
X47400000Y-58500000D03*
X43400000Y-47400000D03*
X47400000Y-47400000D03*
X43400000Y-54800000D03*
X47400000Y-54800000D03*
X43400000Y-43700000D03*
X47400000Y-43700000D03*
X43300000Y-51100000D03*
X47300000Y-51100000D03*
X43125000Y-39975000D03*
X47125000Y-39975000D03*
X66100000Y-40300000D03*
X62100000Y-40300000D03*
X66000000Y-43000000D03*
X62000000Y-43000000D03*
X43200000Y-35500000D03*
X47200000Y-35500000D03*
X43200000Y-33100000D03*
X47200000Y-33100000D03*
X43200000Y-30800000D03*
X47200000Y-30800000D03*
X43200000Y-28500000D03*
X47200000Y-28500000D03*
X43200000Y-26100000D03*
X47200000Y-26100000D03*
M02*
