M48
;DRILL file {KiCad 4.0.7} date 06/18/18 23:10:05
;FORMAT={-:-/ absolute / inch / decimal}
FMAT,2
INCH,TZ
T1C0.020
T2C0.031
T3C0.039
%
G90
G05
M72
T1
X0.8661Y-1.4567
X1.0236Y-2.2244
X1.0433Y-2.1063
X1.063Y-2.0472
X1.378Y-2.0079
X1.4173Y-1.9488
X1.6142Y-1.0335
X1.6142Y-1.122
X1.6142Y-1.2205
X1.6142Y-1.3091
X1.6142Y-1.3976
X1.622Y-1.5748
X1.626Y-1.7205
X1.6299Y-1.8661
X1.6299Y-2.0118
X1.6299Y-2.1575
X1.6299Y-2.3031
X1.6732Y-2.6378
X1.8661Y-1.4803
X1.8996Y-2.628
X1.9094Y-1.6496
X1.9252Y-1.7953
X1.9331Y-2.2441
X1.937Y-1.9488
X1.9409Y-2.1024
X2.189Y-2.4803
X2.3228Y-1.8346
X2.5591Y-2.2638
X2.6772Y-2.5886
X2.7067Y-2.0472
X2.7165Y-1.624
X2.7756Y-1.1417
X2.7756Y-2.1949
X2.7953Y-1.5945
X2.8228Y-1.0827
X2.8346Y-1.7717
X2.8937Y-2.2933
X2.9016Y-1.5394
X2.9094Y-1.0472
X2.9823Y-1.0236
X2.9843Y-1.5591
X3.0236Y-1.5039
X3.0551Y-1.4331
X3.0787Y-1.0315
X3.1102Y-2.3524
X3.1201Y-1.8209
X3.1299Y-1.4331
X3.1496Y-1.0276
X3.2283Y-1.0866
X3.2598Y-1.1614
X3.2972Y-1.6634
X3.4154Y-1.9488
X3.6063Y-2.2913
X3.6417Y-1.3976
X4.0157Y-1.1811
T2
X0.8071Y-1.6232
X0.8071Y-1.7866
X0.8071Y-1.9177
X0.8071Y-2.0488
X0.8071Y-2.1799
X0.8071Y-2.311
X0.8071Y-2.4421
X0.8071Y-2.6055
X0.9724Y-1.6232
X0.9724Y-1.7866
X0.9724Y-1.9177
X0.9724Y-2.0488
X0.9724Y-2.1799
X0.9724Y-2.311
X0.9724Y-2.4421
X0.9724Y-2.6055
X1.1378Y-1.6232
X1.1378Y-1.7866
X1.1378Y-1.9177
X1.1378Y-2.0488
X1.1378Y-2.1799
X1.1378Y-2.311
X1.1378Y-2.4421
X1.1378Y-2.6055
T3
X0.7087Y-1.7323
X0.8071Y-2.5236
X0.8976Y-2.6496
X0.9528Y-1.5039
X1.1378Y-1.5
X1.4882Y-2.6339
X2.252Y-2.8622
X2.3031Y-3.1339
X2.3268Y-2.5551
X2.3622Y-2.9173
X2.5787Y-0.8661
X2.6181Y-2.3524
X2.6417Y-2.9291
X2.6787Y-0.8661
X2.6888Y-2.2817
X2.6888Y-2.4231
X2.7595Y-2.3524
X2.7595Y-2.4938
X2.7787Y-0.8661
X2.8302Y-2.4231
X2.8787Y-0.8661
X2.9724Y-2.6929
X2.9787Y-0.8661
X3.0787Y-0.8661
X3.1787Y-0.8661
X3.2787Y-0.8661
X3.3787Y-0.8661
X3.4787Y-0.8661
X3.7283Y-2.874
T0
M30
