G04 #@! TF.FileFunction,Other,User*
%FSLAX46Y46*%
G04 Gerber Fmt 4.6, Leading zero omitted, Abs format (unit mm)*
G04 Created by KiCad (PCBNEW 4.0.7) date 06/18/18 23:10:02*
%MOMM*%
%LPD*%
G01*
G04 APERTURE LIST*
%ADD10C,0.100000*%
%ADD11C,0.050000*%
G04 APERTURE END LIST*
D10*
D11*
X79400000Y-43950000D02*
X82800000Y-43950000D01*
X82800000Y-43950000D02*
X82800000Y-40450000D01*
X82800000Y-40450000D02*
X79400000Y-40450000D01*
X79400000Y-40450000D02*
X79400000Y-43950000D01*
X76200000Y-44050000D02*
X72800000Y-44050000D01*
X72800000Y-44050000D02*
X72800000Y-47550000D01*
X72800000Y-47550000D02*
X76200000Y-47550000D01*
X76200000Y-47550000D02*
X76200000Y-44050000D01*
X42150000Y-59610000D02*
X48650000Y-59610000D01*
X42150000Y-59610000D02*
X42150000Y-57400000D01*
X48650000Y-57400000D02*
X48650000Y-59610000D01*
X48650000Y-57400000D02*
X42150000Y-57400000D01*
X42150000Y-48510000D02*
X48650000Y-48510000D01*
X42150000Y-48510000D02*
X42150000Y-46300000D01*
X48650000Y-46300000D02*
X48650000Y-48510000D01*
X48650000Y-46300000D02*
X42150000Y-46300000D01*
X42150000Y-55910000D02*
X48650000Y-55910000D01*
X42150000Y-55910000D02*
X42150000Y-53700000D01*
X48650000Y-53700000D02*
X48650000Y-55910000D01*
X48650000Y-53700000D02*
X42150000Y-53700000D01*
X42150000Y-44810000D02*
X48650000Y-44810000D01*
X42150000Y-44810000D02*
X42150000Y-42600000D01*
X48650000Y-42600000D02*
X48650000Y-44810000D01*
X48650000Y-42600000D02*
X42150000Y-42600000D01*
X42050000Y-52210000D02*
X48550000Y-52210000D01*
X42050000Y-52210000D02*
X42050000Y-50000000D01*
X48550000Y-50000000D02*
X48550000Y-52210000D01*
X48550000Y-50000000D02*
X42050000Y-50000000D01*
X41875000Y-41085000D02*
X48375000Y-41085000D01*
X41875000Y-41085000D02*
X41875000Y-38875000D01*
X48375000Y-38875000D02*
X48375000Y-41085000D01*
X48375000Y-38875000D02*
X41875000Y-38875000D01*
X67350000Y-39190000D02*
X60850000Y-39190000D01*
X67350000Y-39190000D02*
X67350000Y-41400000D01*
X60850000Y-41400000D02*
X60850000Y-39190000D01*
X60850000Y-41400000D02*
X67350000Y-41400000D01*
X67250000Y-41890000D02*
X60750000Y-41890000D01*
X67250000Y-41890000D02*
X67250000Y-44100000D01*
X60750000Y-44100000D02*
X60750000Y-41890000D01*
X60750000Y-44100000D02*
X67250000Y-44100000D01*
X41950000Y-36610000D02*
X48450000Y-36610000D01*
X41950000Y-36610000D02*
X41950000Y-34400000D01*
X48450000Y-34400000D02*
X48450000Y-36610000D01*
X48450000Y-34400000D02*
X41950000Y-34400000D01*
X41950000Y-34210000D02*
X48450000Y-34210000D01*
X41950000Y-34210000D02*
X41950000Y-32000000D01*
X48450000Y-32000000D02*
X48450000Y-34210000D01*
X48450000Y-32000000D02*
X41950000Y-32000000D01*
X41950000Y-31910000D02*
X48450000Y-31910000D01*
X41950000Y-31910000D02*
X41950000Y-29700000D01*
X48450000Y-29700000D02*
X48450000Y-31910000D01*
X48450000Y-29700000D02*
X41950000Y-29700000D01*
X41950000Y-29610000D02*
X48450000Y-29610000D01*
X41950000Y-29610000D02*
X41950000Y-27400000D01*
X48450000Y-27400000D02*
X48450000Y-29610000D01*
X48450000Y-27400000D02*
X41950000Y-27400000D01*
X41950000Y-27210000D02*
X48450000Y-27210000D01*
X41950000Y-27210000D02*
X41950000Y-25000000D01*
X48450000Y-25000000D02*
X48450000Y-27210000D01*
X48450000Y-25000000D02*
X41950000Y-25000000D01*
M02*
