G04 #@! TF.FileFunction,Other,User*
%FSLAX46Y46*%
G04 Gerber Fmt 4.6, Leading zero omitted, Abs format (unit mm)*
G04 Created by KiCad (PCBNEW 4.0.7) date 06/18/18 23:10:02*
%MOMM*%
%LPD*%
G01*
G04 APERTURE LIST*
%ADD10C,0.100000*%
%ADD11C,0.050000*%
G04 APERTURE END LIST*
D10*
D11*
X63954416Y-59750000D02*
X70070889Y-65866474D01*
X70070889Y-65866474D02*
X74419596Y-61517767D01*
X74419596Y-61517767D02*
X68303122Y-55401293D01*
X68303122Y-55401293D02*
X63954416Y-59750000D01*
X95540559Y-51944365D02*
X90944365Y-56540559D01*
X95540559Y-51944365D02*
X94055635Y-50459441D01*
X89459441Y-55055635D02*
X90944365Y-56540559D01*
X89459441Y-55055635D02*
X94055635Y-50459441D01*
X90040559Y-57444365D02*
X85444365Y-62040559D01*
X90040559Y-57444365D02*
X88555635Y-55959441D01*
X83959441Y-60555635D02*
X85444365Y-62040559D01*
X83959441Y-60555635D02*
X88555635Y-55959441D01*
X64050000Y-37250000D02*
X64050000Y-43750000D01*
X64050000Y-37250000D02*
X61950000Y-37250000D01*
X61950000Y-43750000D02*
X64050000Y-43750000D01*
X61950000Y-43750000D02*
X61950000Y-37250000D01*
X80709441Y-51305635D02*
X85305635Y-46709441D01*
X80709441Y-51305635D02*
X82194365Y-52790559D01*
X86790559Y-48194365D02*
X85305635Y-46709441D01*
X86790559Y-48194365D02*
X82194365Y-52790559D01*
X52250000Y-43450000D02*
X58750000Y-43450000D01*
X52250000Y-43450000D02*
X52250000Y-45550000D01*
X58750000Y-45550000D02*
X58750000Y-43450000D01*
X58750000Y-45550000D02*
X52250000Y-45550000D01*
X59450000Y-45750000D02*
X59450000Y-39250000D01*
X59450000Y-45750000D02*
X61550000Y-45750000D01*
X61550000Y-39250000D02*
X59450000Y-39250000D01*
X61550000Y-39250000D02*
X61550000Y-45750000D01*
X85000000Y-89000000D02*
X75600000Y-89000000D01*
X85000000Y-89000000D02*
X85000000Y-82200000D01*
X75600000Y-82200000D02*
X75600000Y-89000000D01*
X75600000Y-82200000D02*
X85000000Y-82200000D01*
X93650000Y-36750000D02*
X93650000Y-43250000D01*
X93650000Y-36750000D02*
X91550000Y-36750000D01*
X91550000Y-43250000D02*
X93650000Y-43250000D01*
X91550000Y-43250000D02*
X91550000Y-36750000D01*
X73790559Y-51444365D02*
X69194365Y-56040559D01*
X73790559Y-51444365D02*
X72305635Y-49959441D01*
X67709441Y-54555635D02*
X69194365Y-56040559D01*
X67709441Y-54555635D02*
X72305635Y-49959441D01*
X104150000Y-67550000D02*
X94750000Y-67550000D01*
X104150000Y-67550000D02*
X104150000Y-60750000D01*
X94750000Y-60750000D02*
X94750000Y-67550000D01*
X94750000Y-60750000D02*
X104150000Y-60750000D01*
X102900000Y-59000000D02*
X96400000Y-59000000D01*
X102900000Y-59000000D02*
X102900000Y-56900000D01*
X96400000Y-56900000D02*
X96400000Y-59000000D01*
X96400000Y-56900000D02*
X102900000Y-56900000D01*
X42700000Y-56750000D02*
X48100000Y-56750000D01*
X48100000Y-56750000D02*
X48100000Y-60250000D01*
X48100000Y-60250000D02*
X42700000Y-60250000D01*
X42700000Y-60250000D02*
X42700000Y-56750000D01*
X42700000Y-45650000D02*
X48100000Y-45650000D01*
X48100000Y-45650000D02*
X48100000Y-49150000D01*
X48100000Y-49150000D02*
X42700000Y-49150000D01*
X42700000Y-49150000D02*
X42700000Y-45650000D01*
X42675000Y-53025000D02*
X48075000Y-53025000D01*
X48075000Y-53025000D02*
X48075000Y-56525000D01*
X48075000Y-56525000D02*
X42675000Y-56525000D01*
X42675000Y-56525000D02*
X42675000Y-53025000D01*
X42675000Y-41975000D02*
X48075000Y-41975000D01*
X48075000Y-41975000D02*
X48075000Y-45475000D01*
X48075000Y-45475000D02*
X42675000Y-45475000D01*
X42675000Y-45475000D02*
X42675000Y-41975000D01*
X42700000Y-49350000D02*
X48100000Y-49350000D01*
X48100000Y-49350000D02*
X48100000Y-52850000D01*
X48100000Y-52850000D02*
X42700000Y-52850000D01*
X42700000Y-52850000D02*
X42700000Y-49350000D01*
X42675000Y-38225000D02*
X48075000Y-38225000D01*
X48075000Y-38225000D02*
X48075000Y-41725000D01*
X48075000Y-41725000D02*
X42675000Y-41725000D01*
X42675000Y-41725000D02*
X42675000Y-38225000D01*
X63200000Y-86300000D02*
X63200000Y-76900000D01*
X63200000Y-76900000D02*
X67700000Y-76900000D01*
X67700000Y-76900000D02*
X67700000Y-86300000D01*
X67700000Y-86300000D02*
X63200000Y-86300000D01*
X69800000Y-91300000D02*
X69800000Y-81900000D01*
X69800000Y-81900000D02*
X74300000Y-81900000D01*
X74300000Y-81900000D02*
X74300000Y-91300000D01*
X74300000Y-91300000D02*
X69800000Y-91300000D01*
X87700000Y-69700000D02*
X101500000Y-69700000D01*
X101500000Y-69700000D02*
X101500000Y-76400000D01*
X101500000Y-76400000D02*
X87700000Y-76400000D01*
X87700000Y-76400000D02*
X87700000Y-69700000D01*
X77444544Y-60669417D02*
X71080583Y-54305456D01*
X71080583Y-54305456D02*
X73555456Y-51830583D01*
X73555456Y-51830583D02*
X79919417Y-58194544D01*
X79919417Y-58194544D02*
X77444544Y-60669417D01*
X103675000Y-23875000D02*
X103675000Y-29275000D01*
X103675000Y-29275000D02*
X100175000Y-29275000D01*
X100175000Y-29275000D02*
X100175000Y-23875000D01*
X100175000Y-23875000D02*
X103675000Y-23875000D01*
X60420000Y-85550000D02*
X60420000Y-78850000D01*
X60420000Y-85550000D02*
X63580000Y-85550000D01*
X63580000Y-78850000D02*
X60420000Y-78850000D01*
X63580000Y-78850000D02*
X63580000Y-85550000D01*
X63700000Y-23800000D02*
X90150000Y-23800000D01*
X90150000Y-23800000D02*
X90150000Y-20200000D01*
X90150000Y-20200000D02*
X63700000Y-20200000D01*
X63700000Y-20200000D02*
X63700000Y-23800000D01*
X52200000Y-39800000D02*
X58800000Y-39800000D01*
X52200000Y-42200000D02*
X58800000Y-42200000D01*
X52200000Y-39800000D02*
X52200000Y-42200000D01*
X58800000Y-39800000D02*
X58800000Y-42200000D01*
X87340000Y-78500000D02*
X101060000Y-78500000D01*
X101060000Y-78500000D02*
X101060000Y-91700000D01*
X101060000Y-91700000D02*
X87340000Y-91700000D01*
X87340000Y-91700000D02*
X87340000Y-78500000D01*
X55050000Y-35990000D02*
X61550000Y-35990000D01*
X55050000Y-35990000D02*
X55050000Y-38200000D01*
X61550000Y-38200000D02*
X61550000Y-35990000D01*
X61550000Y-38200000D02*
X55050000Y-38200000D01*
X59850000Y-28590000D02*
X66350000Y-28590000D01*
X59850000Y-28590000D02*
X59850000Y-30800000D01*
X66350000Y-30800000D02*
X66350000Y-28590000D01*
X66350000Y-30800000D02*
X59850000Y-30800000D01*
X56550000Y-33590000D02*
X63050000Y-33590000D01*
X56550000Y-33590000D02*
X56550000Y-35800000D01*
X63050000Y-35800000D02*
X63050000Y-33590000D01*
X63050000Y-35800000D02*
X56550000Y-35800000D01*
X61950000Y-26190000D02*
X68450000Y-26190000D01*
X61950000Y-26190000D02*
X61950000Y-28400000D01*
X68450000Y-28400000D02*
X68450000Y-26190000D01*
X68450000Y-28400000D02*
X61950000Y-28400000D01*
X58050000Y-31090000D02*
X64550000Y-31090000D01*
X58050000Y-31090000D02*
X58050000Y-33300000D01*
X64550000Y-33300000D02*
X64550000Y-31090000D01*
X64550000Y-33300000D02*
X58050000Y-33300000D01*
X63650000Y-23890000D02*
X70150000Y-23890000D01*
X63650000Y-23890000D02*
X63650000Y-26100000D01*
X70150000Y-26100000D02*
X70150000Y-23890000D01*
X70150000Y-26100000D02*
X63650000Y-26100000D01*
X91482986Y-43686791D02*
X86886791Y-48282986D01*
X91482986Y-43686791D02*
X89920280Y-42124086D01*
X85324086Y-46720280D02*
X86886791Y-48282986D01*
X85324086Y-46720280D02*
X89920280Y-42124086D01*
X61650000Y-46990000D02*
X68150000Y-46990000D01*
X61650000Y-46990000D02*
X61650000Y-49200000D01*
X68150000Y-49200000D02*
X68150000Y-46990000D01*
X68150000Y-49200000D02*
X61650000Y-49200000D01*
X48450000Y-36610000D02*
X41950000Y-36610000D01*
X48450000Y-36610000D02*
X48450000Y-34400000D01*
X41950000Y-34400000D02*
X41950000Y-36610000D01*
X41950000Y-34400000D02*
X48450000Y-34400000D01*
X48450000Y-34210000D02*
X41950000Y-34210000D01*
X48450000Y-34210000D02*
X48450000Y-32000000D01*
X41950000Y-32000000D02*
X41950000Y-34210000D01*
X41950000Y-32000000D02*
X48450000Y-32000000D01*
X48450000Y-31910000D02*
X41950000Y-31910000D01*
X48450000Y-31910000D02*
X48450000Y-29700000D01*
X41950000Y-29700000D02*
X41950000Y-31910000D01*
X41950000Y-29700000D02*
X48450000Y-29700000D01*
X48450000Y-29610000D02*
X41950000Y-29610000D01*
X48450000Y-29610000D02*
X48450000Y-27400000D01*
X41950000Y-27400000D02*
X41950000Y-29610000D01*
X41950000Y-27400000D02*
X48450000Y-27400000D01*
X48450000Y-27210000D02*
X41950000Y-27210000D01*
X48450000Y-27210000D02*
X48450000Y-25000000D01*
X41950000Y-25000000D02*
X41950000Y-27210000D01*
X41950000Y-25000000D02*
X48450000Y-25000000D01*
X101450000Y-38510000D02*
X94950000Y-38510000D01*
X101450000Y-38510000D02*
X101450000Y-36300000D01*
X94950000Y-36300000D02*
X94950000Y-38510000D01*
X94950000Y-36300000D02*
X101450000Y-36300000D01*
X75013209Y-61332986D02*
X70417014Y-56736791D01*
X75013209Y-61332986D02*
X76575914Y-59770280D01*
X71979720Y-55174086D02*
X70417014Y-56736791D01*
X71979720Y-55174086D02*
X76575914Y-59770280D01*
X98425000Y-20965000D02*
X104925000Y-20965000D01*
X98425000Y-20965000D02*
X98425000Y-23175000D01*
X104925000Y-23175000D02*
X104925000Y-20965000D01*
X104925000Y-23175000D02*
X98425000Y-23175000D01*
X64196342Y-41500000D02*
X76500000Y-53803658D01*
X76500000Y-29196342D02*
X88803658Y-41500000D01*
X64196342Y-41500000D02*
X76500000Y-29196342D01*
X76500000Y-53803658D02*
X88803658Y-41500000D01*
X85270000Y-81100000D02*
X85270000Y-69800000D01*
X85270000Y-69800000D02*
X68630000Y-69800000D01*
X68630000Y-69800000D02*
X68630000Y-81100000D01*
X68630000Y-81100000D02*
X85270000Y-81100000D01*
X94270000Y-38800000D02*
X94270000Y-44200000D01*
X101730000Y-38800000D02*
X101730000Y-44200000D01*
X94270000Y-38800000D02*
X101730000Y-38800000D01*
X94270000Y-44200000D02*
X101730000Y-44200000D01*
X93646804Y-50530152D02*
X89969848Y-46853196D01*
X89969848Y-46853196D02*
X80353196Y-56469848D01*
X80353196Y-56469848D02*
X84030152Y-60146804D01*
X84030152Y-60146804D02*
X93646804Y-50530152D01*
M02*
